<?xml version="1.0" encoding="utf-8"?>
<!-- Generator: Adobe Illustrator 21.0.0, SVG Export Plug-In . SVG Version: 6.00 Build 0)  -->
<svg version="1.1" id="Layer_1" xmlns="http://www.w3.org/2000/svg" xmlns:xlink="http://www.w3.org/1999/xlink" x="0px" y="0px"
	 viewBox="0 0 580 375" style="enable-background:new 0 0 580 375;" xml:space="preserve">
<style type="text/css">
	.st0{fill:#F5F5FA;}
	.st1{fill:#009CFF;}
	.st2{fill:#FFC151;}
	.st3{fill:#161627;}
	.st4{fill:#F93D72;}
</style>
<g id="Background">
	<rect class="st0" width="580" height="375"/>
</g>
<g id="Layer_1_1_">
	<g>
		<path class="st1" d="M473.8,242h-0.1c-329.1-23.3-338.2-32.8-397.3-94.3l-1.4-1.5c-0.6-0.6-0.6-1.5,0-2.1s1.5-0.6,2.1,0l1.4,1.5
			c58.4,60.8,67.4,70.2,395.3,93.4c0.8,0.1,1.4,0.8,1.4,1.6C475.2,241.4,474.5,242,473.8,242z"/>
	</g>
	<g>
		<path class="st2" d="M133.2,206.4c-9.4,0-18.2-0.2-26.7-0.4c-10.3-0.2-20-0.4-30.1-0.3c-0.8,0-1.5-0.7-1.5-1.5s0.7-1.5,1.5-1.5
			c10.1-0.1,19.8,0.1,30.2,0.3c62.3,1.3,139.9,2.9,367.1-69.9c0.8-0.3,1.6,0.2,1.9,1s-0.2,1.6-1,1.9
			C277.8,199,192.9,206.4,133.2,206.4z"/>
	</g>
	<g>
		<path class="st3" d="M269.2,337.9h-4.1v2.7h3v0.7h-3v3.5h-0.8v-7.6h4.9V337.9z"/>
		<path class="st3" d="M275.4,344.8h-3.3v-0.7h1.2V340h-1.2v-0.7h2v4.8h1.2L275.4,344.8L275.4,344.8z M274.3,338.3h-1.1v-1.1h1.1
			V338.3z"/>
		<path class="st3" d="M283.2,340.2c-0.3-0.1-0.6-0.2-1-0.2c-0.3,0-0.6,0.1-0.9,0.2s-0.5,0.3-0.7,0.6s-0.3,0.5-0.4,0.8
			s-0.1,0.6-0.1,0.9v1.8h1.2v0.7H278v-0.7h1.2v-4.1H278v-0.7h2v1.4c0.4-1,1.1-1.5,2.1-1.5c0.3,0,0.5,0,0.7,0.1
			c0.2,0,0.4,0.1,0.6,0.2L283.2,340.2z"/>
		<path class="st3" d="M290.6,344.8h-0.8v-3.9c0-0.3-0.1-0.6-0.2-0.7c-0.1-0.2-0.3-0.3-0.5-0.3c-0.3,0-0.5,0.2-0.7,0.5
			c-0.1,0.3-0.2,0.8-0.2,1.3v3.1h-0.8v-3.9c0-0.3-0.1-0.6-0.2-0.7s-0.3-0.3-0.5-0.3s-0.3,0.1-0.5,0.2s-0.2,0.3-0.3,0.4
			c-0.1,0.2-0.1,0.4-0.1,0.6s0,0.4,0,0.6v3.1H285v-5.5h0.8v0.8c0.2-0.6,0.5-0.9,1.1-0.9c0.5,0,0.9,0.3,1.1,0.8
			c0.3-0.5,0.6-0.8,1.1-0.8s0.8,0.1,1,0.4s0.3,0.7,0.3,1.3v3.9H290.6z"/>
		<path class="st3" d="M304.4,342.9c0,0.3-0.1,0.6-0.2,0.9s-0.3,0.5-0.5,0.7s-0.5,0.3-0.8,0.4s-0.6,0.2-0.9,0.2
			c-0.4,0-0.8-0.1-1.2-0.2s-0.6-0.4-0.9-0.7v0.8h-0.7v-2.3h0.7c0,0.3,0.1,0.5,0.2,0.7s0.3,0.4,0.5,0.6s0.4,0.3,0.6,0.4
			s0.5,0.1,0.7,0.1s0.4,0,0.6-0.1s0.4-0.2,0.5-0.3s0.3-0.3,0.3-0.4s0.1-0.4,0.1-0.6s-0.1-0.5-0.2-0.6s-0.3-0.3-0.4-0.5
			s-0.4-0.2-0.6-0.3s-0.5-0.2-0.7-0.3c-0.3-0.1-0.6-0.2-0.8-0.3s-0.5-0.2-0.7-0.4s-0.4-0.4-0.5-0.6s-0.2-0.5-0.2-0.9
			c0-0.3,0.1-0.6,0.2-0.8s0.3-0.5,0.5-0.6s0.5-0.3,0.8-0.4s0.6-0.1,0.9-0.1c0.4,0,0.7,0.1,1,0.2s0.6,0.4,0.7,0.7v-0.8h0.7v2.2h-0.7
			c0-0.2,0-0.4-0.1-0.6s-0.2-0.4-0.4-0.5s-0.4-0.3-0.6-0.3s-0.4-0.1-0.7-0.1c-0.2,0-0.4,0-0.6,0.1s-0.4,0.1-0.5,0.2
			s-0.3,0.2-0.3,0.4s-0.1,0.4-0.1,0.6s0,0.4,0.1,0.5s0.2,0.3,0.4,0.4s0.4,0.2,0.6,0.3s0.4,0.2,0.7,0.3c0.3,0.1,0.6,0.2,0.9,0.3
			s0.5,0.3,0.8,0.5s0.4,0.4,0.6,0.6S304.4,342.5,304.4,342.9z"/>
		<path class="st3" d="M310.6,344.8h-3.3v-0.7h1.2V340h-1.2v-0.7h2v4.8h1.2L310.6,344.8L310.6,344.8z M309.5,338.3h-1.1v-1.1h1.1
			V338.3z"/>
		<path class="st3" d="M318.4,344.8h-4.9v-0.7l3.7-4.1h-3v1.5h-0.7v-2.2h4.8v0.7l-3.7,4.1h3.2v-1.5h0.7v2.2H318.4z"/>
		<path class="st3" d="M321.1,342.4c0.1,0.6,0.3,1,0.6,1.4s0.8,0.5,1.4,0.5c0.4,0,0.8-0.1,1.1-0.3s0.6-0.4,0.7-0.6l0.6,0.4
			c-0.3,0.4-0.6,0.7-1,0.9s-0.8,0.3-1.4,0.3c-0.4,0-0.8-0.1-1.2-0.2s-0.7-0.3-0.9-0.6s-0.5-0.6-0.6-0.9s-0.2-0.7-0.2-1.2
			c0-0.4,0.1-0.8,0.2-1.1s0.3-0.7,0.6-0.9s0.5-0.5,0.9-0.6s0.7-0.2,1.2-0.2s0.9,0.1,1.2,0.2s0.6,0.4,0.9,0.6s0.4,0.6,0.5,1
			s0.2,0.8,0.2,1.3L321.1,342.4L321.1,342.4z M324.9,341.7c-0.1-0.6-0.3-1-0.7-1.3c-0.3-0.3-0.8-0.4-1.3-0.4c-0.3,0-0.5,0-0.7,0.1
			s-0.4,0.2-0.6,0.4c-0.2,0.2-0.3,0.3-0.4,0.6c-0.1,0.2-0.2,0.5-0.2,0.7h3.9V341.7z"/>
	</g>
	<g>
		<g>
			<path class="st4" d="M77.4,69c-0.8-0.7-1.5-1.3-2.3-1.9l1.9-2.3c0.7,0.6,1.5,1.3,2.3,1.9L77.4,69z"/>
		</g>
		<g>
			<path class="st4" d="M234,144.3c-2,0-4,0-6-0.1l0.1-3c1.9,0.1,3.9,0.1,5.9,0.1V144.3z M239.9,144.2l-0.1-3
				c1.9-0.1,3.9-0.1,5.9-0.3l0.2,3C243.9,144.1,241.9,144.2,239.9,144.2z M222.1,143.9c-2-0.1-4-0.3-5.9-0.5l0.3-3
				c1.9,0.2,3.9,0.4,5.8,0.5L222.1,143.9z M251.8,143.5l-0.3-3c1.9-0.2,3.9-0.4,5.8-0.6l0.4,3C255.8,143.1,253.8,143.3,251.8,143.5z
				 M210.2,142.7c-2-0.3-3.9-0.6-5.9-0.9l0.5-3c1.9,0.3,3.9,0.6,5.8,0.9L210.2,142.7z M263.6,142.1l-0.4-3l1.1-0.2
				c1.6-0.2,3.2-0.5,4.7-0.8l0.5,3c-1.6,0.3-3.2,0.5-4.7,0.8L263.6,142.1z M198.5,140.7c-1.9-0.4-3.9-0.8-5.8-1.3l0.7-2.9
				c1.9,0.5,3.8,0.9,5.7,1.3L198.5,140.7z M275.3,140.2l-0.5-3c2-0.3,3.9-0.6,5.8-1l0.5,3C279.2,139.6,277.3,139.9,275.3,140.2z
				 M287,138.3l-0.5-3c2-0.3,3.9-0.7,5.8-1l0.5,3C290.9,137.6,289,137.9,287,138.3z M186.9,137.9c-1.9-0.5-3.8-1.1-5.7-1.7l0.9-2.9
				c1.9,0.6,3.8,1.1,5.6,1.6L186.9,137.9z M298.7,136.2l-0.5-3c2-0.3,3.9-0.7,5.8-1l0.5,3C302.6,135.5,300.6,135.9,298.7,136.2z
				 M175.5,134.4c-1.9-0.6-3.7-1.3-5.6-2l1.1-2.8c1.8,0.7,3.7,1.4,5.5,2L175.5,134.4z M310.3,134.1l-0.6-2.9c2-0.4,3.9-0.7,5.8-1.1
				l0.6,2.9C314.2,133.4,312.3,133.7,310.3,134.1z M321.9,131.9l-0.6-2.9c2-0.4,3.9-0.8,5.8-1.1l0.6,2.9
				C325.8,131.1,323.9,131.5,321.9,131.9z M164.4,130.2c-1.8-0.8-3.7-1.6-5.5-2.4l1.2-2.7c1.8,0.8,3.6,1.6,5.4,2.3L164.4,130.2z
				 M333.5,129.6l-0.6-2.9c1.9-0.4,3.9-0.8,5.8-1.2l0.6,2.9C337.4,128.8,335.5,129.2,333.5,129.6z M345.1,127.2l-0.6-2.9
				c1.9-0.4,3.9-0.8,5.8-1.2l0.6,2.9C349,126.3,347.1,126.7,345.1,127.2z M153.5,125.2c-1.8-0.9-3.6-1.8-5.3-2.7l1.4-2.7
				c1.7,0.9,3.5,1.8,5.2,2.7L153.5,125.2z M356.7,124.6l-0.7-2.9c1.9-0.4,3.9-0.9,5.8-1.3l0.7,2.9
				C360.5,123.8,358.6,124.2,356.7,124.6z M368.2,122l-0.7-2.9c1.9-0.4,3.9-0.9,5.7-1.3l0.7,2.9C372.1,121.1,370.2,121.6,368.2,122z
				 M143,119.7c-1.7-1-3.4-2-5.1-3l1.5-2.6c1.7,1,3.4,2,5.1,3L143,119.7z M379.7,119.3l-0.7-2.9c1.9-0.5,3.8-0.9,5.7-1.4l0.7,2.9
				C383.6,118.4,381.7,118.8,379.7,119.3z M391.2,116.5l-0.7-2.9c1.9-0.5,3.8-1,5.7-1.4l0.7,2.9C395.1,115.5,393.2,116,391.2,116.5z
				 M402.7,113.6l-0.7-2.9c1.9-0.5,3.8-1,5.7-1.5l0.8,2.9C406.5,112.6,404.6,113.1,402.7,113.6z M132.8,113.6c-1.7-1-3.3-2.1-5-3.3
				l1.7-2.5c1.6,1.1,3.3,2.2,4.9,3.2L132.8,113.6z M414.1,110.6l-0.8-2.9c1.9-0.5,3.8-1,5.7-1.5l0.8,2.9
				C418,109.6,416.1,110.1,414.1,110.6z M425.6,107.6l-0.8-2.9c1.9-0.5,3.8-1,5.7-1.5l0.8,2.9C429.4,106.5,427.5,107,425.6,107.6z
				 M122.9,106.9c-1.6-1.2-3.2-2.3-4.8-3.5l1.8-2.4c1.6,1.1,3.1,2.3,4.8,3.4L122.9,106.9z M437,104.5l-0.8-2.9l5.7-1.6l0.8,2.9
				L437,104.5z M448.4,101.4l-0.8-2.9l5.7-1.5l0.8,2.9L448.4,101.4z M113.3,99.9c-1.6-1.2-3.2-2.5-4.7-3.7l1.9-2.3
				c1.5,1.2,3,2.4,4.6,3.6L113.3,99.9z M459.8,98.3l-0.8-2.9c1.9-0.5,3.8-1,5.7-1.5l0.8,2.9C463.6,97.3,461.7,97.8,459.8,98.3z
				 M104.1,92.4c-1.6-1.3-3.1-2.6-4.5-3.8l2-2.3c1.5,1.2,3,2.5,4.5,3.8L104.1,92.4z M95,84.7c-1.5-1.3-3-2.7-4.4-3.9l2-2.2
				c1.4,1.3,2.9,2.6,4.4,3.9L95,84.7z M86.2,76.8c-1.5-1.4-3-2.7-4.4-3.9l2-2.2c1.4,1.2,2.9,2.6,4.4,4L86.2,76.8z"/>
		</g>
		<g>
			<rect x="470.8" y="91.9" transform="matrix(0.9679 -0.2513 0.2513 0.9679 -8.322 121.6862)" class="st4" width="3" height="3"/>
		</g>
	</g>
	<g>
		<path class="st3" d="M209.9,311.6c0-0.8,0.7-1.5,1.5-1.5l0,0c0.8,0,1.5,0.7,1.5,1.5l0,0c0,0.8-0.7,1.5-1.5,1.5l0,0
			C210.6,313.1,209.9,312.4,209.9,311.6z M209.9,303.6c0-0.8,0.7-1.5,1.5-1.5l0,0c0.8,0,1.5,0.7,1.5,1.5l0,0c0,0.8-0.7,1.5-1.5,1.5
			l0,0C210.6,305.1,209.9,304.4,209.9,303.6z M209.9,295.6c0-0.8,0.7-1.5,1.5-1.5l0,0c0.8,0,1.5,0.7,1.5,1.5l0,0
			c0,0.8-0.7,1.5-1.5,1.5l0,0C210.6,297.1,209.9,296.4,209.9,295.6z M209.9,287.6c0-0.8,0.7-1.5,1.5-1.5l0,0c0.8,0,1.5,0.7,1.5,1.5
			l0,0c0,0.8-0.7,1.5-1.5,1.5l0,0C210.6,289.1,209.9,288.4,209.9,287.6z M209.9,279.6c0-0.8,0.7-1.5,1.5-1.5l0,0
			c0.8,0,1.5,0.7,1.5,1.5l0,0c0,0.8-0.7,1.5-1.5,1.5l0,0C210.6,281.1,209.9,280.4,209.9,279.6z M209.9,271.6c0-0.8,0.7-1.5,1.5-1.5
			l0,0c0.8,0,1.5,0.7,1.5,1.5l0,0c0,0.8-0.7,1.5-1.5,1.5l0,0C210.6,273.1,209.9,272.4,209.9,271.6z M209.9,263.6
			c0-0.8,0.7-1.5,1.5-1.5l0,0c0.8,0,1.5,0.7,1.5,1.5l0,0c0,0.8-0.7,1.5-1.5,1.5l0,0C210.6,265.1,209.9,264.4,209.9,263.6z
			 M209.9,255.6c0-0.8,0.7-1.5,1.5-1.5l0,0c0.8,0,1.5,0.7,1.5,1.5l0,0c0,0.8-0.7,1.5-1.5,1.5l0,0
			C210.6,257.1,209.9,256.4,209.9,255.6z M209.9,247.6c0-0.8,0.7-1.5,1.5-1.5l0,0c0.8,0,1.5,0.7,1.5,1.5l0,0c0,0.8-0.7,1.5-1.5,1.5
			l0,0C210.6,249.1,209.9,248.4,209.9,247.6z M209.9,239.6c0-0.8,0.7-1.5,1.5-1.5l0,0c0.8,0,1.5,0.7,1.5,1.5l0,0
			c0,0.8-0.7,1.5-1.5,1.5l0,0C210.6,241.1,209.9,240.4,209.9,239.6z M209.9,231.6c0-0.8,0.7-1.5,1.5-1.5l0,0c0.8,0,1.5,0.7,1.5,1.5
			l0,0c0,0.8-0.7,1.5-1.5,1.5l0,0C210.6,233.1,209.9,232.4,209.9,231.6z M209.9,223.6c0-0.8,0.7-1.5,1.5-1.5l0,0
			c0.8,0,1.5,0.7,1.5,1.5l0,0c0,0.8-0.7,1.5-1.5,1.5l0,0C210.6,225.1,209.9,224.4,209.9,223.6z M209.9,215.6c0-0.8,0.7-1.5,1.5-1.5
			l0,0c0.8,0,1.5,0.7,1.5,1.5l0,0c0,0.8-0.7,1.5-1.5,1.5l0,0C210.6,217.1,209.9,216.4,209.9,215.6z M209.9,207.6
			c0-0.8,0.7-1.5,1.5-1.5l0,0c0.8,0,1.5,0.7,1.5,1.5l0,0c0,0.8-0.7,1.5-1.5,1.5l0,0C210.6,209.1,209.9,208.4,209.9,207.6z
			 M209.9,199.6c0-0.8,0.7-1.5,1.5-1.5l0,0c0.8,0,1.5,0.7,1.5,1.5l0,0c0,0.8-0.7,1.5-1.5,1.5l0,0
			C210.6,201.1,209.9,200.4,209.9,199.6z M209.9,191.6c0-0.8,0.7-1.5,1.5-1.5l0,0c0.8,0,1.5,0.7,1.5,1.5l0,0c0,0.8-0.7,1.5-1.5,1.5
			l0,0C210.6,193.1,209.9,192.4,209.9,191.6z M209.9,183.6c0-0.8,0.7-1.5,1.5-1.5l0,0c0.8,0,1.5,0.7,1.5,1.5l0,0
			c0,0.8-0.7,1.5-1.5,1.5l0,0C210.6,185.1,209.9,184.4,209.9,183.6z M209.9,175.6c0-0.8,0.7-1.5,1.5-1.5l0,0c0.8,0,1.5,0.7,1.5,1.5
			l0,0c0,0.8-0.7,1.5-1.5,1.5l0,0C210.6,177.1,209.9,176.4,209.9,175.6z M209.9,167.6c0-0.8,0.7-1.5,1.5-1.5l0,0
			c0.8,0,1.5,0.7,1.5,1.5l0,0c0,0.8-0.7,1.5-1.5,1.5l0,0C210.6,169.1,209.9,168.4,209.9,167.6z M209.9,159.6c0-0.8,0.7-1.5,1.5-1.5
			l0,0c0.8,0,1.5,0.7,1.5,1.5l0,0c0,0.8-0.7,1.5-1.5,1.5l0,0C210.6,161.1,209.9,160.4,209.9,159.6z M209.9,151.6
			c0-0.8,0.7-1.5,1.5-1.5l0,0c0.8,0,1.5,0.7,1.5,1.5l0,0c0,0.8-0.7,1.5-1.5,1.5l0,0C210.6,153.1,209.9,152.4,209.9,151.6z"/>
	</g>
	<g>
		<path class="st3" d="M221.8,305l0.2-0.3l1.1,0.6V304h0.4v1.3l1.1-0.6l0.2,0.3l-1.1,0.6l1.1,0.6l-0.2,0.3l-1.1-0.6v1.3h-0.4V306
			l-1.1,0.6l-0.2-0.3l1.1-0.6L221.8,305z"/>
		<path class="st3" d="M229.4,311.9c-1.9,0-3.2-1.5-3.2-3.8s1.4-3.8,3.2-3.8c1.9,0,3.3,1.5,3.3,3.8S231.3,311.9,229.4,311.9z
			 M229.4,304.9c-1.6,0-2.6,1.3-2.6,3.2c0,1.9,1.1,3.2,2.6,3.2c1.6,0,2.6-1.3,2.6-3.2C232,306.3,231,304.9,229.4,304.9z"/>
		<path class="st3" d="M235,313.9h-0.6v-7.4h0.6v0.8c0.3-0.5,0.9-0.9,1.7-0.9c1.6,0,2.3,1.3,2.3,2.8s-0.8,2.8-2.3,2.8
			c-0.7,0-1.4-0.4-1.7-0.9V313.9z M235,310.3c0.4,0.7,0.9,1.1,1.6,1.1c1.1,0,1.8-0.9,1.8-2.2s-0.7-2.2-1.8-2.2
			c-0.6,0-1.2,0.4-1.6,1.1V310.3z"/>
		<path class="st3" d="M241.1,307h-0.9v-0.5h0.9v-1.4h0.6v1.4h1.4v0.5h-1.4v3.5c0,0.6,0.3,0.9,0.8,0.9c0.3,0,0.5-0.1,0.7-0.2v0.6
			c-0.2,0.1-0.5,0.2-0.8,0.2c-0.8,0-1.3-0.4-1.3-1.3V307z"/>
		<path class="st3" d="M245.2,305.3c-0.2,0-0.4-0.2-0.4-0.4c0-0.2,0.2-0.4,0.4-0.4s0.4,0.2,0.4,0.4
			C245.6,305.1,245.4,305.3,245.2,305.3z M245.5,311.8h-0.6v-5.3h0.6V311.8z"/>
		<path class="st3" d="M252.9,306.4c1.1,0,1.6,0.8,1.6,1.8v3.6H254v-3.5c0-0.8-0.4-1.4-1.1-1.4c-0.7,0-1.2,0.5-1.4,1.1v3.8h-0.6
			v-3.5c0-0.8-0.4-1.4-1.1-1.4c-0.7,0-1.2,0.5-1.4,1.1v3.8h-0.6v-5.3h0.6v0.8c0.3-0.5,0.8-0.9,1.5-0.9c0.8,0,1.3,0.4,1.5,1
			C251.6,306.9,252.2,306.4,252.9,306.4z"/>
		<path class="st3" d="M259.7,311.8v-0.5c-0.2,0.3-0.8,0.6-1.5,0.6c-1.1,0-2-0.6-2-1.6s0.9-1.6,2-1.6c0.6,0,1.2,0.3,1.5,0.6v-0.9
			c0-0.8-0.5-1.3-1.3-1.3c-0.7,0-1.1,0.3-1.3,0.9h-0.6c0.2-0.9,0.9-1.4,1.9-1.4c1.2,0,1.9,0.7,1.9,1.8v3.6h-0.6V311.8z M259.7,309.9
			c-0.2-0.5-0.8-0.8-1.4-0.8c-0.8,0-1.5,0.4-1.5,1.1s0.7,1.1,1.5,1.1c0.6,0,1.2-0.3,1.4-0.8V309.9z"/>
		<path class="st3" d="M263,311.8h-0.6V304h0.6V311.8z"/>
		<path class="st3" d="M268.5,310c0.3,0.9,1.1,1.4,2.1,1.4c1.1,0,1.8-0.5,1.8-1.5c0-0.6-0.3-1.1-1.3-1.4l-1.4-0.4
			c-1-0.3-1.7-0.8-1.7-1.8c0-1.2,1.1-2,2.3-2c1.4,0,2.3,0.8,2.6,1.8h-0.6c-0.3-0.8-0.9-1.3-2-1.3c-1,0-1.7,0.5-1.7,1.4
			c0,0.8,0.5,1.1,1.4,1.3l1.2,0.4c1.2,0.3,1.7,0.9,1.7,1.9c0,1.3-1.1,2.1-2.4,2.1c-1.4,0-2.4-0.7-2.7-1.9H268.5z"/>
		<path class="st3" d="M275.1,305.3c-0.2,0-0.4-0.2-0.4-0.4c0-0.2,0.2-0.4,0.4-0.4s0.4,0.2,0.4,0.4
			C275.5,305.1,275.3,305.3,275.1,305.3z M275.4,311.8h-0.6v-5.3h0.6V311.8z"/>
		<path class="st3" d="M281.2,311.8h-4v-0.4l3.2-4.4h-3.2v-0.5h3.9v0.4l-3.2,4.4h3.3L281.2,311.8L281.2,311.8z"/>
		<path class="st3" d="M287,310.3c-0.2,1-0.9,1.7-2.1,1.7c-1.4,0-2.4-1.1-2.4-2.8c0-1.6,0.9-2.8,2.4-2.8c1.4,0,2.2,1.1,2.2,2.6v0.2
			h-3.9c0,1.4,0.7,2.2,1.8,2.2c0.8,0,1.3-0.4,1.5-1.1L287,310.3L287,310.3z M283.2,308.7h3.3c0-0.9-0.5-1.8-1.6-1.8
			C284,306.9,283.3,307.6,283.2,308.7z"/>
	</g>
	<g>
		<path class="st3" d="M438.9,167.7c-2.4,0-4.1-1.9-4.1-4.4c0-2.6,1.7-4.4,4.1-4.4s4.1,1.9,4.1,4.4
			C443,165.9,441.3,167.7,438.9,167.7z M438.9,160.4c-1.4,0-2.2,1.2-2.2,2.8c0,1.7,0.9,2.8,2.2,2.8c1.4,0,2.3-1.2,2.3-2.8
			C441.2,161.6,440.3,160.4,438.9,160.4z"/>
		<path class="st3" d="M448.5,163c-0.2-0.1-0.5-0.2-0.9-0.2c-0.6,0-1.1,0.3-1.2,0.9v3.9h-1.7v-6.3h1.7v0.6c0.3-0.4,0.8-0.8,1.4-0.8
			c0.3,0,0.6,0.1,0.7,0.1V163z"/>
		<path class="st3" d="M454.1,166.8c-0.3,0.3-0.9,0.6-1.5,0.6c-1.8,0-2.8-1.5-2.8-3.1c0-1.7,1-3.1,2.8-3.1c0.7,0,1.3,0.3,1.5,0.6
			v-0.5h1.7v5.6c0,2.1-1.3,3.1-3.1,3.1c-1.6,0-2.7-0.8-2.9-2.2h1.7c0.1,0.6,0.6,0.9,1.2,0.9c0.9,0,1.3-0.5,1.3-1.5L454.1,166.8
			L454.1,166.8z M454.1,163.3c-0.2-0.4-0.7-0.6-1.2-0.6c-0.9,0-1.5,0.7-1.5,1.7s0.5,1.7,1.5,1.7c0.5,0,1-0.3,1.2-0.7V163.3z"/>
		<path class="st3" d="M461.3,167.6v-0.3c-0.2,0.2-0.8,0.4-1.5,0.4c-1.3,0-2.3-0.7-2.3-2c0-1.2,1.1-2,2.4-2c0.5,0,1.2,0.2,1.4,0.4
			v-0.5c0-0.5-0.3-1-1-1c-0.5,0-0.8,0.2-0.9,0.6h-1.7c0.2-1.1,1.2-2,2.6-2c1.7,0,2.6,0.9,2.6,2.4v4L461.3,167.6L461.3,167.6z
			 M461.3,165.4c-0.2-0.3-0.6-0.5-1.1-0.5s-1.1,0.2-1.1,0.8c0,0.5,0.6,0.8,1.1,0.8s1-0.2,1.1-0.5V165.4z"/>
		<path class="st3" d="M465,161.3h1.7v0.6c0.3-0.4,1-0.7,1.7-0.7c1.4,0,2.2,0.9,2.2,2.3v4.1h-1.7v-3.7c0-0.7-0.3-1.1-1-1.1
			c-0.5,0-1,0.3-1.1,0.9v4H465V161.3z"/>
		<path class="st3" d="M473.5,160.5c-0.6,0-1-0.4-1-1s0.5-1,1-1s1,0.4,1,1S474,160.5,473.5,160.5z M474.3,167.6h-1.7v-6.3h1.7V167.6
			z"/>
		<path class="st3" d="M481.4,167.6h-5.2v-1.1l3-3.7h-2.9v-1.4h5.1v1.1l-3,3.7h3V167.6z"/>
		<path class="st3" d="M484.2,160.5c-0.6,0-1-0.4-1-1s0.5-1,1-1s1,0.4,1,1S484.7,160.5,484.2,160.5z M485,167.6h-1.7v-6.3h1.7V167.6
			z"/>
		<path class="st3" d="M487.1,161.3h1.7v0.6c0.3-0.4,1-0.7,1.7-0.7c1.4,0,2.2,0.9,2.2,2.3v4.1H491v-3.7c0-0.7-0.3-1.1-1-1.1
			c-0.5,0-1,0.3-1.1,0.9v4h-1.7L487.1,161.3L487.1,161.3z"/>
		<path class="st3" d="M498.7,166.8c-0.3,0.3-0.9,0.6-1.5,0.6c-1.8,0-2.8-1.5-2.8-3.1c0-1.7,1-3.1,2.8-3.1c0.7,0,1.3,0.3,1.5,0.6
			v-0.5h1.7v5.6c0,2.1-1.3,3.1-3.1,3.1c-1.6,0-2.7-0.8-2.9-2.2h1.7c0.1,0.6,0.6,0.9,1.2,0.9c0.9,0,1.3-0.5,1.3-1.5L498.7,166.8
			L498.7,166.8z M498.7,163.3c-0.2-0.4-0.7-0.6-1.2-0.6c-0.9,0-1.5,0.7-1.5,1.7s0.5,1.7,1.5,1.7c0.5,0,1-0.3,1.2-0.7V163.3z"/>
		<path class="st3" d="M509.7,158.9c2,0,3.3,1.2,3.6,2.9h-1.8c-0.3-0.8-0.8-1.3-1.8-1.3c-1.4,0-2.2,1.2-2.2,2.8s0.8,2.8,2.2,2.8
			c1,0,1.5-0.5,1.8-1.3h1.8c-0.3,1.7-1.6,2.9-3.6,2.9c-2.3,0-4-1.8-4-4.4S507.4,158.9,509.7,158.9z"/>
		<path class="st3" d="M517.7,167.7c-1.8,0-3.1-1.3-3.1-3.3c0-1.9,1.2-3.3,3.1-3.3c1.8,0,3.1,1.3,3.1,3.3S519.5,167.7,517.7,167.7z
			 M517.7,162.7c-0.9,0-1.3,0.8-1.3,1.8s0.5,1.8,1.3,1.8c0.9,0,1.3-0.8,1.3-1.8C519.1,163.4,518.6,162.7,517.7,162.7z"/>
		<path class="st3" d="M523.8,165.7c0.1,0.4,0.5,0.7,1.1,0.7c0.5,0,0.9-0.2,0.9-0.6c0-0.3-0.2-0.4-0.6-0.5l-1.3-0.3
			c-1-0.2-1.6-0.7-1.6-1.8c0-1.2,1.1-2,2.5-2c1.6,0,2.5,0.8,2.7,1.9h-1.7c-0.1-0.4-0.4-0.6-1-0.6c-0.4,0-0.8,0.2-0.8,0.6
			c0,0.3,0.2,0.4,0.6,0.5l1.3,0.3c1.1,0.3,1.7,0.9,1.7,1.8c0,1.3-1.1,2-2.6,2s-2.6-0.7-2.8-2L523.8,165.7L523.8,165.7z"/>
		<path class="st3" d="M529.5,162.7h-1v-1.4h1v-1.7h1.7v1.7h1.4v1.4h-1.4v2.7c0,0.5,0.3,0.7,0.7,0.7c0.3,0,0.6-0.1,0.8-0.2v1.5
			c-0.2,0.1-0.7,0.2-1.1,0.2c-1.3,0-2.1-0.6-2.1-2L529.5,162.7L529.5,162.7z"/>
	</g>
	<g>
		<path class="st3" d="M487,92.3c0.2,0.8,0.9,1.1,1.7,1.1c0.9,0,1.4-0.4,1.4-1.1c0-0.5-0.3-0.8-1.1-1l-1.5-0.4
			c-1.2-0.3-2.2-0.9-2.2-2.4c0-1.6,1.3-2.6,3.1-2.6c2,0,3.1,1,3.4,2.5H490c-0.2-0.6-0.7-1-1.6-1c-0.8,0-1.4,0.4-1.4,1
			c0,0.5,0.3,0.8,1,0.9l1.6,0.4c1.4,0.3,2.3,1.1,2.3,2.4c0,1.7-1.4,2.7-3.2,2.7c-1.9,0-3.3-1-3.6-2.6L487,92.3L487,92.3z"/>
		<path class="st3" d="M499.2,94.7h-1.7v-0.6c-0.4,0.4-1,0.7-1.7,0.7c-1.4,0-2.2-0.9-2.2-2.3v-4.1h1.7v3.7c0,0.7,0.3,1.1,1,1.1
			c0.5,0,1-0.3,1.1-0.9v-4h1.8L499.2,94.7L499.2,94.7z"/>
		<path class="st3" d="M508.2,88.3c1.3,0,2.1,0.9,2.1,2.3v4.1h-1.7V91c0-0.7-0.3-1.1-0.9-1.1c-0.4,0-0.9,0.3-1,0.8v4h-1.8V91
			c0-0.7-0.3-1.1-0.9-1.1c-0.4,0-0.9,0.3-1,0.8v4h-1.7v-6.3h1.7V89c0.3-0.4,0.9-0.7,1.6-0.7s1.3,0.3,1.7,0.8
			C506.7,88.7,507.3,88.3,508.2,88.3z"/>
	</g>
	<g>
		<path class="st3" d="M38.2,203.4c0.7,0.2,1.2,0.5,1.6,1s0.6,1,0.6,1.7c0,0.5-0.1,1-0.3,1.4s-0.5,0.7-0.9,0.9s-0.8,0.4-1.3,0.5
			s-1,0.2-1.5,0.2s-1-0.1-1.5-0.2s-0.9-0.3-1.3-0.5s-0.7-0.5-0.9-0.9s-0.3-0.8-0.3-1.4c0-0.5,0.1-0.9,0.3-1.2s0.4-0.6,0.8-0.7h-0.9
			v-0.7h2.5v0.7c-0.3,0-0.5,0.1-0.8,0.2s-0.4,0.2-0.6,0.4s-0.3,0.4-0.4,0.6s-0.1,0.5-0.1,0.8c0,0.4,0.1,0.8,0.3,1s0.5,0.5,0.8,0.7
			s0.7,0.3,1.1,0.3s0.8,0.1,1.2,0.1s0.8,0,1.2-0.1s0.7-0.2,1-0.3s0.6-0.4,0.8-0.7s0.3-0.6,0.3-1c0-1-0.6-1.6-1.7-2L38.2,203.4z"/>
		<path class="st3" d="M37.5,196.3c0.4,0,0.8,0.1,1.2,0.2s0.6,0.3,0.9,0.6s0.4,0.6,0.6,0.9s0.2,0.7,0.2,1.2c0,0.4-0.1,0.8-0.2,1.2
			s-0.3,0.7-0.6,0.9s-0.5,0.4-0.9,0.6s-0.7,0.2-1.2,0.2c-0.4,0-0.8-0.1-1.2-0.2s-0.7-0.3-0.9-0.6s-0.4-0.6-0.6-0.9s-0.2-0.7-0.2-1.2
			c0-0.4,0.1-0.8,0.2-1.2s0.3-0.7,0.6-0.9s0.6-0.4,0.9-0.6S37.1,196.3,37.5,196.3z M37.5,197.1c-0.3,0-0.6,0-0.9,0.1
			c-0.3,0.1-0.5,0.2-0.7,0.4s-0.4,0.4-0.5,0.7s-0.2,0.5-0.2,0.9s0.1,0.6,0.2,0.9s0.3,0.5,0.5,0.6s0.4,0.3,0.7,0.4
			c0.3,0.1,0.6,0.1,0.9,0.1c0.3,0,0.6,0,0.9-0.1c0.3-0.1,0.5-0.2,0.7-0.4s0.3-0.4,0.5-0.6s0.2-0.5,0.2-0.9s-0.1-0.6-0.2-0.9
			s-0.3-0.5-0.5-0.7s-0.4-0.3-0.7-0.4C38.1,197.1,37.8,197.1,37.5,197.1z"/>
		<path class="st3" d="M38.7,189.6c0.3,0,0.6,0.1,0.8,0.2c0.2,0.2,0.4,0.4,0.5,0.6c0.1,0.3,0.2,0.5,0.3,0.8s0.1,0.6,0.1,0.9
			c0,0.5-0.1,1-0.2,1.5s-0.3,0.9-0.6,1.3l-0.7-0.4c0.3-0.4,0.4-0.8,0.6-1.2s0.2-0.8,0.2-1.2c0-1.2-0.3-1.8-0.9-1.8
			c-0.2,0-0.3,0-0.4,0.1s-0.2,0.2-0.2,0.4s-0.1,0.4-0.1,0.6s-0.1,0.4-0.1,0.7s-0.1,0.6-0.2,0.9s-0.1,0.6-0.3,0.8s-0.3,0.4-0.5,0.6
			s-0.5,0.2-0.8,0.2s-0.5-0.1-0.7-0.2s-0.4-0.3-0.5-0.6s-0.2-0.5-0.3-0.8s-0.1-0.6-0.1-1c0-0.5,0.1-0.9,0.2-1.3
			c0.1-0.4,0.3-0.7,0.5-1l0.6,0.3c-0.2,0.3-0.4,0.6-0.5,0.9s-0.1,0.7-0.1,1c0,0.2,0,0.4,0,0.6s0.1,0.4,0.2,0.6s0.2,0.3,0.3,0.4
			s0.3,0.2,0.4,0.2c0.2,0,0.3,0,0.4-0.1s0.2-0.2,0.2-0.4s0.1-0.4,0.1-0.6s0.1-0.4,0.1-0.7s0.1-0.6,0.2-0.9s0.1-0.6,0.3-0.8
			s0.3-0.4,0.5-0.6C38.2,189.6,38.4,189.6,38.7,189.6z"/>
		<path class="st3" d="M38.5,182.3c0.6,0.1,1,0.3,1.4,0.7s0.5,0.9,0.5,1.5c0,0.3-0.1,0.6-0.2,0.9s-0.3,0.5-0.4,0.7s-0.4,0.3-0.7,0.4
			s-0.6,0.2-0.9,0.2h-2.8v1.2h-0.7v-1.2h-2.2v-0.8h2.2v-2.3h0.7v2.3h2.8c0.2,0,0.4,0,0.6-0.1s0.3-0.2,0.5-0.3s0.2-0.3,0.3-0.4
			s0.1-0.4,0.1-0.6c0-0.4-0.1-0.7-0.4-1s-0.6-0.4-1-0.5L38.5,182.3z"/>
		<path class="st3" d="M38.7,175.5c0.3,0,0.6,0.1,0.8,0.2c0.2,0.2,0.4,0.4,0.5,0.6c0.1,0.3,0.2,0.5,0.3,0.8s0.1,0.6,0.1,0.9
			c0,0.5-0.1,1-0.2,1.5s-0.3,0.9-0.6,1.3l-0.7-0.4c0.3-0.4,0.4-0.8,0.6-1.2s0.2-0.8,0.2-1.2c0-1.2-0.3-1.8-0.9-1.8
			c-0.2,0-0.3,0-0.4,0.1s-0.2,0.2-0.2,0.4s-0.1,0.4-0.1,0.6S38,177.7,38,178s-0.1,0.6-0.2,0.9s-0.1,0.6-0.3,0.8s-0.3,0.4-0.5,0.6
			s-0.5,0.2-0.8,0.2s-0.5-0.1-0.7-0.2s-0.4-0.3-0.5-0.6s-0.2-0.5-0.3-0.8s-0.1-0.6-0.1-1c0-0.5,0.1-0.9,0.2-1.3
			c0.1-0.4,0.3-0.7,0.5-1l0.6,0.3c-0.2,0.3-0.4,0.6-0.5,0.9s-0.1,0.7-0.1,1c0,0.2,0,0.4,0,0.6s0.1,0.4,0.2,0.6s0.2,0.3,0.3,0.4
			s0.3,0.2,0.4,0.2c0.2,0,0.3,0,0.4-0.1s0.2-0.2,0.2-0.4s0.1-0.4,0.1-0.6s0.1-0.4,0.1-0.7s0.1-0.6,0.2-0.9s0.1-0.6,0.3-0.8
			s0.3-0.4,0.5-0.6C38.2,175.6,38.4,175.5,38.7,175.5z"/>
	</g>
	<g>
		<polygon class="st3" points="549.7,321 54.6,321 54.6,62.3 55.6,62.3 55.6,320 549.7,320 		"/>
	</g>
	<g>
		<path class="st3" d="M442.8,253.1h7.3v1.6h-2.8v7h-1.8v-7h-2.8L442.8,253.1L442.8,253.1z"/>
		<path class="st3" d="M454.9,257.1c-0.2-0.1-0.5-0.2-0.9-0.2c-0.6,0-1.1,0.3-1.2,0.9v3.9h-1.7v-6.3h1.7v0.6
			c0.3-0.4,0.8-0.8,1.4-0.8c0.3,0,0.6,0.1,0.7,0.1V257.1z"/>
		<path class="st3" d="M459.9,261.7v-0.3c-0.2,0.2-0.8,0.4-1.5,0.4c-1.3,0-2.3-0.7-2.3-2c0-1.2,1.1-2,2.4-2c0.5,0,1.2,0.2,1.4,0.4
			v-0.5c0-0.5-0.3-1-1-1c-0.5,0-0.8,0.2-0.9,0.6h-1.7c0.2-1.1,1.2-2,2.6-2c1.7,0,2.6,0.9,2.6,2.4v4H459.9z M459.9,259.5
			c-0.2-0.3-0.6-0.5-1.1-0.5s-1.1,0.2-1.1,0.8c0,0.5,0.6,0.8,1.1,0.8s1-0.2,1.1-0.5V259.5z"/>
		<path class="st3" d="M463.5,255.4h1.7v0.6c0.3-0.4,1-0.7,1.7-0.7c1.4,0,2.2,0.9,2.2,2.3v4.1h-1.7V258c0-0.7-0.3-1.1-1-1.1
			c-0.5,0-1,0.3-1.1,0.9v4h-1.7v-6.4H463.5z"/>
		<path class="st3" d="M472.5,259.8c0.1,0.4,0.5,0.7,1.1,0.7c0.5,0,0.9-0.2,0.9-0.6c0-0.3-0.2-0.4-0.6-0.5l-1.3-0.3
			c-1-0.2-1.6-0.7-1.6-1.8c0-1.2,1.1-2,2.5-2c1.6,0,2.5,0.8,2.7,1.9h-1.7c-0.1-0.4-0.4-0.6-1-0.6c-0.4,0-0.8,0.2-0.8,0.6
			c0,0.3,0.2,0.4,0.6,0.5l1.3,0.3c1.1,0.3,1.7,0.9,1.7,1.8c0,1.3-1.1,2-2.6,2s-2.6-0.7-2.8-2H472.5z"/>
		<path class="st3" d="M481.3,261.7v-0.3c-0.2,0.2-0.8,0.4-1.5,0.4c-1.3,0-2.3-0.7-2.3-2c0-1.2,1.1-2,2.4-2c0.5,0,1.2,0.2,1.4,0.4
			v-0.5c0-0.5-0.3-1-1-1c-0.5,0-0.8,0.2-0.9,0.6h-1.7c0.2-1.1,1.2-2,2.6-2c1.7,0,2.6,0.9,2.6,2.4v4H481.3z M481.3,259.5
			c-0.2-0.3-0.6-0.5-1.1-0.5s-1.1,0.2-1.1,0.8c0,0.5,0.6,0.8,1.1,0.8s1-0.2,1.1-0.5V259.5z"/>
		<path class="st3" d="M487.6,255.3c1.6,0,2.6,0.9,2.7,2.3h-1.7c-0.1-0.5-0.5-0.8-1-0.8c-0.8,0-1.3,0.7-1.3,1.8
			c0,1.1,0.5,1.8,1.3,1.8c0.6,0,0.9-0.3,1-0.8h1.7c-0.2,1.3-1.2,2.3-2.7,2.3c-1.8,0-3-1.3-3-3.3S485.8,255.3,487.6,255.3z"/>
		<path class="st3" d="M492.4,256.8h-1v-1.4h1v-1.7h1.7v1.7h1.4v1.4h-1.4v2.7c0,0.5,0.3,0.7,0.7,0.7c0.3,0,0.6-0.1,0.8-0.2v1.5
			c-0.2,0.1-0.7,0.2-1.1,0.2c-1.3,0-2.1-0.6-2.1-2V256.8z"/>
		<path class="st3" d="M498.3,254.6c-0.6,0-1-0.4-1-1s0.5-1,1-1s1,0.4,1,1C499.3,254.2,498.8,254.6,498.3,254.6z M499.1,261.7h-1.7
			v-6.3h1.7V261.7z"/>
		<path class="st3" d="M503.9,261.8c-1.8,0-3.1-1.3-3.1-3.3c0-1.9,1.2-3.3,3.1-3.3c1.8,0,3.1,1.3,3.1,3.3
			C506.9,260.5,505.7,261.8,503.9,261.8z M503.9,256.8c-0.9,0-1.3,0.8-1.3,1.8s0.5,1.8,1.3,1.8c0.9,0,1.3-0.8,1.3-1.8
			C505.2,257.5,504.7,256.8,503.9,256.8z"/>
		<path class="st3" d="M508.6,255.4h1.7v0.6c0.3-0.4,1-0.7,1.7-0.7c1.4,0,2.2,0.9,2.2,2.3v4.1h-1.7V258c0-0.7-0.3-1.1-1-1.1
			c-0.5,0-1,0.3-1.1,0.9v4h-1.7L508.6,255.4L508.6,255.4z"/>
		<path class="st3" d="M523.4,253c2,0,3.3,1.2,3.6,2.9h-1.8c-0.3-0.8-0.8-1.3-1.8-1.3c-1.4,0-2.2,1.2-2.2,2.8s0.8,2.8,2.2,2.8
			c1,0,1.5-0.5,1.8-1.3h1.8c-0.3,1.7-1.6,2.9-3.6,2.9c-2.3,0-4-1.8-4-4.4S521.1,253,523.4,253z"/>
		<path class="st3" d="M531.4,261.8c-1.8,0-3.1-1.3-3.1-3.3c0-1.9,1.2-3.3,3.1-3.3c1.8,0,3.1,1.3,3.1,3.3S533.2,261.8,531.4,261.8z
			 M531.4,256.8c-0.9,0-1.3,0.8-1.3,1.8s0.5,1.8,1.3,1.8c0.9,0,1.3-0.8,1.3-1.8C532.8,257.5,532.3,256.8,531.4,256.8z"/>
		<path class="st3" d="M537.5,259.8c0.1,0.4,0.5,0.7,1.1,0.7c0.5,0,0.9-0.2,0.9-0.6c0-0.3-0.2-0.4-0.6-0.5l-1.3-0.3
			c-1-0.2-1.6-0.7-1.6-1.8c0-1.2,1.1-2,2.5-2c1.6,0,2.5,0.8,2.7,1.9h-1.7c-0.1-0.4-0.4-0.6-1-0.6c-0.4,0-0.8,0.2-0.8,0.6
			c0,0.3,0.2,0.4,0.6,0.5l1.3,0.3c1.1,0.3,1.7,0.9,1.7,1.8c0,1.3-1.1,2-2.6,2s-2.6-0.7-2.8-2H537.5z"/>
		<path class="st3" d="M543.2,256.8h-1v-1.4h1v-1.7h1.7v1.7h1.4v1.4h-1.4v2.7c0,0.5,0.3,0.7,0.7,0.7c0.3,0,0.6-0.1,0.8-0.2v1.5
			c-0.2,0.1-0.7,0.2-1.1,0.2c-1.3,0-2.1-0.6-2.1-2L543.2,256.8L543.2,256.8z"/>
		<path class="st3" d="M549.5,259.8c0.1,0.4,0.5,0.7,1.1,0.7c0.5,0,0.9-0.2,0.9-0.6c0-0.3-0.2-0.4-0.6-0.5l-1.3-0.3
			c-1-0.2-1.6-0.7-1.6-1.8c0-1.2,1.1-2,2.5-2c1.6,0,2.5,0.8,2.7,1.9h-1.7c-0.1-0.4-0.4-0.6-1-0.6c-0.4,0-0.8,0.2-0.8,0.6
			c0,0.3,0.2,0.4,0.6,0.5l1.3,0.3c1.1,0.3,1.7,0.9,1.7,1.8c0,1.3-1.1,2-2.6,2s-2.6-0.7-2.8-2H549.5z"/>
	</g>
</g>
<g>
	<path class="st3" d="M38.2,38.6c-0.3,1-0.8,1.8-1.5,2.3s-1.5,0.9-2.6,0.9c-0.8,0-1.5-0.2-2-0.5s-1-0.8-1.4-1.3s-0.6-1.2-0.8-1.9
		s-0.2-1.5-0.2-2.2s0.1-1.5,0.2-2.2s0.4-1.3,0.8-1.9s0.8-1,1.4-1.3s1.2-0.5,2-0.5c0.7,0,1.3,0.1,1.8,0.4s0.9,0.6,1.1,1.2v-1.3h1v3.8
		h-1c0-0.4-0.1-0.8-0.2-1.1s-0.4-0.7-0.6-0.9s-0.6-0.5-0.9-0.6s-0.7-0.2-1.1-0.2c-0.6,0-1.1,0.1-1.5,0.4s-0.7,0.7-1,1.2
		s-0.4,1-0.5,1.6s-0.2,1.2-0.2,1.7c0,0.6,0.1,1.2,0.2,1.7s0.3,1.1,0.5,1.6s0.6,0.8,1,1.1s0.9,0.4,1.5,0.4c1.4,0,2.4-0.9,3-2.6
		L38.2,38.6z"/>
	<path class="st3" d="M49,35.9c0,0.8-0.1,1.5-0.2,2.2S48.3,39.4,48,40s-0.8,1-1.4,1.3s-1.2,0.5-2,0.5s-1.5-0.2-2-0.5s-1-0.8-1.4-1.3
		s-0.6-1.2-0.8-1.9s-0.2-1.5-0.2-2.2s0.1-1.5,0.2-2.2s0.4-1.3,0.8-1.9s0.8-1,1.4-1.3s1.2-0.5,2-0.5s1.5,0.2,2,0.5s1,0.8,1.4,1.3
		s0.6,1.2,0.8,1.9S49,35.1,49,35.9z M47.7,35.9c0-0.8-0.1-1.4-0.2-2c-0.1-0.6-0.3-1.1-0.6-1.6c-0.3-0.4-0.6-0.8-1-1
		s-0.8-0.3-1.3-0.3c-0.6,0-1.1,0.1-1.5,0.4s-0.7,0.7-1,1.2s-0.4,1-0.5,1.6c-0.1,0.6-0.1,1.2-0.1,1.7c0,0.6,0,1.2,0.1,1.7
		c0.1,0.6,0.3,1.1,0.5,1.6s0.6,0.8,1,1.1s0.9,0.4,1.5,0.4c0.6,0,1.1-0.1,1.5-0.4c0.4-0.3,0.7-0.7,1-1.1c0.2-0.5,0.4-1,0.5-1.6
		S47.7,36.4,47.7,35.9z"/>
	<path class="st3" d="M59.8,41.6h-1.3l-1.1-3.3h-4.5l-1.1,3.3h-1.3l3.8-11.5h1.6L59.8,41.6z M57,37.2l-1.9-5.9l-1.9,5.9H57z"/>
	<path class="st3" d="M69.5,38.6c0,0.5-0.1,0.9-0.3,1.3s-0.5,0.7-0.8,1s-0.7,0.5-1.2,0.7s-0.9,0.2-1.4,0.2c-0.6,0-1.2-0.1-1.8-0.4
		s-1-0.6-1.3-1.1v1.2h-1v-3.5h1c0,0.4,0.1,0.8,0.3,1.1s0.4,0.6,0.7,0.8s0.6,0.4,1,0.5s0.7,0.2,1.1,0.2c0.3,0,0.7,0,0.9-0.1
		s0.5-0.2,0.8-0.4s0.4-0.4,0.5-0.7s0.2-0.6,0.2-0.9c0-0.4-0.1-0.7-0.2-0.9s-0.4-0.5-0.7-0.7s-0.6-0.3-0.9-0.5s-0.7-0.3-1-0.4
		c-0.4-0.1-0.8-0.3-1.2-0.5s-0.8-0.4-1.1-0.6s-0.6-0.5-0.8-0.9s-0.3-0.8-0.3-1.3c0-0.5,0.1-0.9,0.3-1.3s0.5-0.7,0.8-0.9
		s0.7-0.4,1.1-0.6s0.9-0.2,1.3-0.2c0.6,0,1.1,0.1,1.5,0.3s0.8,0.6,1.1,1v-1.2h1.1v3.3h-1.1c0-0.3-0.1-0.7-0.2-1s-0.3-0.6-0.6-0.8
		s-0.5-0.4-0.8-0.5s-0.7-0.2-1-0.2c-0.3,0-0.6,0-0.9,0.1s-0.5,0.2-0.7,0.3s-0.4,0.4-0.5,0.6s-0.2,0.5-0.2,0.9c0,0.3,0.1,0.6,0.2,0.8
		s0.4,0.4,0.6,0.6s0.5,0.3,0.9,0.4s0.7,0.3,1,0.4c0.4,0.2,0.9,0.3,1.3,0.5s0.8,0.4,1.2,0.7s0.6,0.6,0.8,1S69.5,38,69.5,38.6z"/>
	<path class="st3" d="M79.9,41.6h-7.3V30.1h7.3v1h-6.1v4.1h4.5v1h-4.5v4.3h6.1V41.6z"/>
	<path class="st3" d="M84.3,30.1h2.8V32c0,0.4-0.1,0.8-0.2,1.1s-0.3,0.7-0.5,0.9s-0.5,0.5-0.9,0.6S84.7,35,84.3,35v-1
		c1.2,0,1.8-0.7,1.8-2v-0.3h-1.8V30.1z"/>
	<path class="st3" d="M101.1,38.6c0,0.5-0.1,0.9-0.3,1.3s-0.5,0.7-0.8,1s-0.7,0.5-1.2,0.7s-0.9,0.2-1.4,0.2c-0.6,0-1.2-0.1-1.8-0.4
		s-1-0.6-1.3-1.1v1.2h-1v-3.5h1c0,0.4,0.1,0.8,0.3,1.1s0.4,0.6,0.7,0.8s0.6,0.4,1,0.5s0.7,0.2,1.1,0.2c0.3,0,0.7,0,0.9-0.1
		s0.5-0.2,0.8-0.4s0.4-0.4,0.5-0.7s0.2-0.6,0.2-0.9c0-0.4-0.1-0.7-0.2-0.9S99.3,37.2,99,37s-0.6-0.3-0.9-0.5s-0.7-0.3-1-0.4
		c-0.4-0.1-0.8-0.3-1.2-0.5s-0.8-0.4-1.1-0.6s-0.6-0.5-0.8-0.9s-0.3-0.8-0.3-1.3c0-0.5,0.1-0.9,0.3-1.3s0.5-0.7,0.8-0.9
		s0.7-0.4,1.1-0.6s0.9-0.2,1.3-0.2c0.6,0,1.1,0.1,1.5,0.3s0.8,0.6,1.1,1v-1.2h1.1v3.3h-1.1c0-0.3-0.1-0.7-0.2-1s-0.3-0.6-0.6-0.8
		s-0.5-0.4-0.8-0.5s-0.7-0.2-1-0.2c-0.3,0-0.6,0-0.9,0.1s-0.5,0.2-0.7,0.3S95.1,31.7,95,32s-0.2,0.5-0.2,0.9c0,0.3,0.1,0.6,0.2,0.8
		s0.4,0.4,0.6,0.6s0.5,0.3,0.9,0.4s0.7,0.3,1,0.4c0.4,0.2,0.9,0.3,1.3,0.5s0.8,0.4,1.2,0.7s0.6,0.6,0.8,1S101.1,38,101.1,38.6z"/>
	<path class="st3" d="M122.5,34h-1v-2.8H119v9.4h1.8v1h-4.9v-1h1.9v-9.4h-2.5V34h-1v-3.9h8.2V34z"/>
	<path class="st3" d="M132.6,41.6h-1.2v-5.3h-4.9v5.3h-1.2V30.1h1.2v5.1h4.9v-5.1h1.2V41.6z"/>
	<path class="st3" d="M143.1,41.6h-7.3V30.1h7.3v1H137v4.1h4.5v1H137v4.3h6.1V41.6z"/>
	<path class="st3" d="M154.4,35.9c0,0.8-0.1,1.5-0.2,2.2s-0.4,1.3-0.8,1.9s-0.8,1-1.4,1.3c-0.6,0.3-1.2,0.5-2,0.5s-1.5-0.2-2-0.5
		s-1-0.8-1.4-1.3c-0.3-0.5-0.6-1.2-0.8-1.9c-0.2-0.7-0.2-1.5-0.2-2.2s0.1-1.5,0.2-2.2c0.2-0.7,0.4-1.3,0.8-1.9s0.8-1,1.4-1.3
		s1.2-0.5,2-0.5s1.5,0.2,2,0.5c0.6,0.3,1,0.8,1.4,1.3s0.6,1.2,0.8,1.9S154.4,35.1,154.4,35.9z M153.2,35.9c0-0.8-0.1-1.4-0.2-2
		s-0.3-1.1-0.6-1.6s-0.6-0.8-1-1s-0.8-0.3-1.3-0.3c-0.6,0-1.1,0.1-1.5,0.4s-0.7,0.7-1,1.2s-0.4,1-0.5,1.6s-0.1,1.2-0.1,1.7
		c0,0.6,0,1.2,0.1,1.7s0.3,1.1,0.5,1.6s0.6,0.8,1,1.1s0.9,0.4,1.5,0.4c0.6,0,1.1-0.1,1.5-0.4c0.4-0.3,0.7-0.7,1-1.1s0.4-1,0.5-1.6
		S153.2,36.4,153.2,35.9z"/>
	<path class="st3" d="M164.8,41.6h-1.5l-3.3-4.9h-1.8v4.9h-1.2V30.1h3.8c1.3,0,2.2,0.3,2.9,0.8s1,1.4,1,2.5c0,0.5-0.1,0.9-0.3,1.3
		s-0.4,0.7-0.7,1s-0.6,0.5-1.1,0.7s-0.9,0.3-1.3,0.3L164.8,41.6z M163.4,33.4c0-0.8-0.2-1.3-0.7-1.7c-0.5-0.4-1.1-0.5-2-0.5h-2.6
		v4.5h2.6c0.8,0,1.5-0.2,2-0.5C163.2,34.8,163.4,34.2,163.4,33.4z"/>
	<path class="st3" d="M175.4,31.1h-0.9l-2.7,5.5v3.9h1.8v1h-4.9v-1h1.9v-3.9l-2.7-5.5h-0.9v-1h3.2v1h-0.9l2,4.3l2-4.3h-0.9v-1h3.2
		V31.1z"/>
	<path class="st3" d="M196.6,35.9c0,0.8-0.1,1.5-0.2,2.2s-0.4,1.3-0.8,1.9s-0.8,1-1.4,1.3c-0.6,0.3-1.2,0.5-2,0.5s-1.5-0.2-2-0.5
		s-1-0.8-1.4-1.3c-0.3-0.5-0.6-1.2-0.8-1.9c-0.2-0.7-0.2-1.5-0.2-2.2s0.1-1.5,0.2-2.2c0.2-0.7,0.4-1.3,0.8-1.9s0.8-1,1.4-1.3
		s1.2-0.5,2-0.5s1.5,0.2,2,0.5c0.6,0.3,1,0.8,1.4,1.3s0.6,1.2,0.8,1.9S196.6,35.1,196.6,35.9z M195.4,35.9c0-0.8-0.1-1.4-0.2-2
		s-0.3-1.1-0.6-1.6s-0.6-0.8-1-1s-0.8-0.3-1.3-0.3c-0.6,0-1.1,0.1-1.5,0.4s-0.7,0.7-1,1.2s-0.4,1-0.5,1.6s-0.1,1.2-0.1,1.7
		c0,0.6,0,1.2,0.1,1.7s0.3,1.1,0.5,1.6s0.6,0.8,1,1.1s0.9,0.4,1.5,0.4c0.6,0,1.1-0.1,1.5-0.4c0.4-0.3,0.7-0.7,1-1.1s0.4-1,0.5-1.6
		S195.4,36.4,195.4,35.9z"/>
	<path class="st3" d="M206.4,31.1h-6.1v4.1h4.5v1h-4.5v5.3h-1.2V30.1h7.3V31.1z"/>
	<path class="st3" d="M227.9,34h-1v-2.8h-2.5v9.4h1.8v1h-4.9v-1h1.9v-9.4h-2.5V34h-1v-3.9h8.2V34z"/>
	<path class="st3" d="M238.1,41.6h-1.2v-5.3h-4.9v5.3h-1.2V30.1h1.2v5.1h4.9v-5.1h1.2V41.6z"/>
	<path class="st3" d="M248.6,41.6h-7.3V30.1h7.3v1h-6.1v4.1h4.5v1h-4.5v4.3h6.1V41.6z"/>
	<path class="st3" d="M269.7,31.1h-6.1v4.1h4.5v1h-4.5v5.3h-1.2V30.1h7.3V31.1z"/>
	<path class="st3" d="M279,41.6h-4.9v-1h1.9v-9.4h-1.9v-1h4.9v1h-1.8v9.4h1.8V41.6z"/>
	<path class="st3" d="M291.3,41.6h-1.5l-3.3-4.9h-1.8v4.9h-1.2V30.1h3.8c1.3,0,2.2,0.3,2.9,0.8c0.7,0.5,1,1.4,1,2.5
		c0,0.5-0.1,0.9-0.3,1.3s-0.4,0.7-0.7,1c-0.3,0.3-0.6,0.5-1.1,0.7s-0.9,0.3-1.3,0.3L291.3,41.6z M289.9,33.4c0-0.8-0.2-1.3-0.7-1.7
		c-0.5-0.4-1.1-0.5-2-0.5h-2.6v4.5h2.6c0.8,0,1.5-0.2,2-0.5C289.7,34.8,289.9,34.2,289.9,33.4z"/>
	<path class="st3" d="M301.3,41.6h-1.2V32l-2,5.9h-0.9l-2-5.9v9.6H294V30.1h1.6l2.1,6l2.1-6h1.6V41.6z"/>
</g>
</svg>
