<?xml version="1.0" encoding="utf-8"?>
<!-- Generator: Adobe Illustrator 20.1.0, SVG Export Plug-In . SVG Version: 6.00 Build 0)  -->
<svg version="1.1" xmlns="http://www.w3.org/2000/svg" xmlns:xlink="http://www.w3.org/1999/xlink" x="0px" y="0px"
	 viewBox="0 0 800 550" style="enable-background:new 0 0 800 550;" xml:space="preserve">
<style type="text/css">
	.st0{fill:#F5F5FA;}
	.st1{fill:none;stroke:#161627;stroke-miterlimit:10;}
	.st2{fill:#009CFF;}
	.st3{fill:none;stroke:#009CFF;stroke-width:3;stroke-linecap:round;stroke-miterlimit:10;}
	.st4{fill:none;stroke:#FFC151;stroke-width:3;stroke-linecap:round;stroke-miterlimit:10;}
	.st5{fill:#161627;}
	
		.st6{fill:none;stroke:#161627;stroke-width:3;stroke-linecap:round;stroke-linejoin:round;stroke-miterlimit:10;stroke-dasharray:0,8;}
	.st7{fill:#FFFFFF;}
	.st8{opacity:0.5;fill:#009CFF;}
	.st9{opacity:0.75;fill:#009CFF;}
	.st10{fill:#F93D72;}
	.st11{fill:#0D2445;}
	.st12{fill:none;}
	.st13{opacity:0.25;fill:#0D2445;}
	.st14{opacity:0.26;fill:#0D2445;}
	.st15{opacity:0.5;fill:#0D2445;}
	.st16{opacity:0.9;fill:#0D2445;}
	.st17{opacity:0.15;fill:#0D2445;}
	.st18{opacity:0.75;fill:#0D2445;}
	.st19{fill:none;stroke:#F93D72;stroke-width:3;stroke-miterlimit:10;}
	.st20{fill:none;stroke:#F93D72;stroke-width:3;stroke-miterlimit:10;stroke-dasharray:5.9114,5.9114;}
	.st21{fill:none;stroke:#161627;stroke-width:3;stroke-miterlimit:10;}
	.st22{fill:#FFC151;}
	
		.st23{fill:none;stroke:#007CCC;stroke-width:3;stroke-linecap:round;stroke-linejoin:round;stroke-miterlimit:10;stroke-dasharray:0,8;}
	.st24{fill:#25CD7F;}
	.st25{fill:#F0593F;}
	.st26{fill:#D0D2D3;}
	.st27{fill:#73737D;}
	.st28{fill:#007CCC;}
</style>
<g id="Background">
	<rect x="0" y="0" class="st0" width="800" height="550"/>
</g>
<g id="Layer_1">
	<g>
		<path class="st5" d="M253.4,70.5v1.8h-4.7v2.1h4.2v1.7h-4.2v2.3h4.7v1.8h-6.7v-9.8H253.4z"/>
		<path class="st5" d="M260.6,75.2l3.4,5h-2.3l-2.3-3.4l-2.3,3.4h-2.3l3.4-5l-3.2-4.8h2.3l2.1,3.2l2.2-3.2h2.2L260.6,75.2z"/>
		<path class="st5" d="M267.7,76.9v3.4h-2v-9.8h4c2.1,0,3.5,1.1,3.5,3.2c0,2.1-1.4,3.2-3.5,3.2H267.7z M269.5,72.2h-1.8v2.9h1.8
			c1.1,0,1.6-0.6,1.6-1.5C271.1,72.8,270.6,72.2,269.5,72.2z"/>
		<path class="st5" d="M275.1,70.5h2v8h4.6v1.8h-6.6V70.5z"/>
		<path class="st5" d="M287.6,80.4c-2.7,0-4.6-2.1-4.6-5.1c0-2.9,1.9-5.1,4.6-5.1c2.7,0,4.7,2.1,4.7,5.1
			C292.3,78.3,290.4,80.4,287.6,80.4z M287.6,72.1c-1.6,0-2.6,1.3-2.6,3.2s1,3.2,2.6,3.2c1.6,0,2.6-1.3,2.6-3.2
			S289.2,72.1,287.6,72.1z"/>
		<path class="st5" d="M296.4,80.3h-2v-9.8h2V80.3z"/>
		<path class="st5" d="M298.4,70.5h8.4v1.8h-3.2v8h-2.1v-8h-3.2V70.5z"/>
		<path class="st5" d="M310.8,80.3h-2v-9.8h2V80.3z"/>
		<path class="st5" d="M321.5,80.3h-1.6l-4.6-6.5v6.5h-2v-9.8h1.9l4.3,6.2v-6.2h2V80.3z"/>
		<path class="st5" d="M328.7,76.8v-1.6h3.9V76c0,2.7-1.8,4.4-4.3,4.4c-2.7,0-4.7-2.1-4.7-5.1s2-5.1,4.7-5.1c2.4,0,3.8,1.4,4.2,3.3
			h-2.1c-0.4-0.9-1-1.5-2.1-1.5c-1.6,0-2.6,1.4-2.6,3.2c0,1.9,1,3.3,2.7,3.3c1.3,0,2-0.8,2.3-1.9H328.7z"/>
		<path class="st5" d="M338.2,70.5h8.4v1.8h-3.2v8h-2.1v-8h-3.2V70.5z"/>
		<path class="st5" d="M357.1,70.5v9.8h-2v-4.1h-4.4v4.1h-2v-9.8h2v3.9h4.4v-3.9H357.1z"/>
		<path class="st5" d="M366.3,70.5v1.8h-4.7v2.1h4.2v1.7h-4.2v2.3h4.7v1.8h-6.7v-9.8H366.3z"/>
		<path class="st5" d="M372,70.5h8.4v1.8h-3.2v8h-2.1v-8H372V70.5z"/>
		<path class="st5" d="M389,70.5v1.8h-4.7v2.1h4.2v1.7h-4.2v2.3h4.7v1.8h-6.7v-9.8H389z"/>
		<path class="st5" d="M395.4,70.3c2.3,0,3.7,1.4,4.1,3.3h-2c-0.3-0.9-0.9-1.5-2.1-1.5c-1.6,0-2.5,1.4-2.5,3.2
			c0,1.9,0.9,3.2,2.5,3.2c1.1,0,1.7-0.6,2.1-1.5h2c-0.4,2-1.8,3.3-4.1,3.3c-2.6,0-4.6-2.1-4.6-5.1S392.7,70.3,395.4,70.3z"/>
		<path class="st5" d="M410,70.5v9.8h-2v-4.1h-4.5v4.1h-2v-9.8h2v3.9h4.5v-3.9H410z"/>
		<path class="st5" d="M420.8,80.3h-1.6l-4.6-6.5v6.5h-2v-9.8h1.9l4.3,6.2v-6.2h2V80.3z"/>
		<path class="st5" d="M427.5,80.4c-2.7,0-4.6-2.1-4.6-5.1c0-2.9,1.9-5.1,4.6-5.1c2.7,0,4.7,2.1,4.7,5.1
			C432.1,78.3,430.2,80.4,427.5,80.4z M427.5,72.1c-1.6,0-2.6,1.3-2.6,3.2s1,3.2,2.6,3.2c1.6,0,2.6-1.3,2.6-3.2S429,72.1,427.5,72.1
			z"/>
		<path class="st5" d="M434.2,70.5h2v8h4.6v1.8h-6.6V70.5z"/>
		<path class="st5" d="M446.7,80.4c-2.7,0-4.6-2.1-4.6-5.1c0-2.9,1.9-5.1,4.6-5.1c2.7,0,4.7,2.1,4.7,5.1
			C451.3,78.3,449.4,80.4,446.7,80.4z M446.7,72.1c-1.6,0-2.6,1.3-2.6,3.2s1,3.2,2.6,3.2c1.6,0,2.6-1.3,2.6-3.2
			S448.3,72.1,446.7,72.1z"/>
		<path class="st5" d="M458.1,76.8v-1.6h3.9V76c0,2.7-1.8,4.4-4.3,4.4c-2.7,0-4.7-2.1-4.7-5.1s2-5.1,4.7-5.1c2.4,0,3.8,1.4,4.2,3.3
			h-2.1c-0.4-0.9-1-1.5-2.1-1.5c-1.6,0-2.6,1.4-2.6,3.2c0,1.9,1,3.3,2.7,3.3c1.3,0,2-0.8,2.3-1.9H458.1z"/>
		<path class="st5" d="M469.7,70.5h2.2l-3.6,6.1v3.7h-2v-3.7l-3.5-6.1h2.2l2.4,4.2L469.7,70.5z"/>
		<path class="st5" d="M277.8,94.3h-0.6v-7.4h0.6V94.3z"/>
		<path class="st5" d="M285.7,94.3h-0.4l-4.5-6.4v6.4h-0.6v-7.4h0.6l4.3,6.1v-6.1h0.6V94.3z"/>
		<path class="st5" d="M287.5,86.9h6v0.6h-2.7v6.8h-0.6v-6.8h-2.7V86.9z"/>
		<path class="st5" d="M299.8,86.9v0.6h-4v2.7h3.6v0.6h-3.6v3h4v0.6h-4.6v-7.4H299.8z"/>
		<path class="st5" d="M307.4,94.3H307l-4.5-6.4v6.4h-0.6v-7.4h0.6l4.3,6.1v-6.1h0.6V94.3z"/>
		<path class="st5" d="M309.8,92.5c0.3,0.9,1.1,1.4,2.1,1.4c1.1,0,1.8-0.5,1.8-1.5c0-0.6-0.3-1.1-1.3-1.4l-1.4-0.4
			c-1-0.3-1.7-0.8-1.7-1.8c0-1.2,1.1-2,2.3-2c1.4,0,2.3,0.8,2.6,1.8h-0.6c-0.3-0.8-0.9-1.3-2-1.3c-1,0-1.7,0.5-1.7,1.4
			c0,0.8,0.5,1.1,1.4,1.3l1.2,0.4c1.2,0.3,1.7,0.9,1.7,1.9c0,1.3-1.1,2.1-2.4,2.1c-1.4,0-2.4-0.7-2.7-1.9H309.8z"/>
		<path class="st5" d="M316.9,94.3h-0.6v-7.4h0.6V94.3z"/>
		<path class="st5" d="M319.2,94.3v-7.4h4.3v0.6h-3.7v2.8h3.5v0.6h-3.5v3.4H319.2z"/>
		<path class="st5" d="M326,94.3h-0.6v-7.4h0.6V94.3z"/>
		<path class="st5" d="M331.1,86.8c1.4,0,2.4,0.8,2.7,2.1h-0.6c-0.3-0.9-1-1.5-2.1-1.5c-1.5,0-2.6,1.2-2.6,3.2c0,2,1.1,3.2,2.6,3.2
			c1.1,0,1.8-0.6,2.1-1.5h0.6c-0.3,1.3-1.3,2.1-2.7,2.1c-1.8,0-3.2-1.5-3.2-3.8S329.3,86.8,331.1,86.8z"/>
		<path class="st5" d="M338.5,86.9l2.9,7.4h-0.6l-1-2.4h-3.3l-0.9,2.4H335l2.9-7.4H338.5z M336.8,91.3h2.8l-1.4-3.6L336.8,91.3z"/>
		<path class="st5" d="M342,86.9h6v0.6h-2.7v6.8h-0.6v-6.8H342V86.9z"/>
		<path class="st5" d="M350.4,94.3h-0.6v-7.4h0.6V94.3z"/>
		<path class="st5" d="M355.5,94.4c-1.9,0-3.2-1.5-3.2-3.8c0-2.3,1.4-3.8,3.2-3.8c1.9,0,3.3,1.5,3.3,3.8
			C358.8,92.9,357.4,94.4,355.5,94.4z M355.5,87.4c-1.6,0-2.6,1.3-2.6,3.2s1.1,3.2,2.6,3.2c1.6,0,2.6-1.3,2.6-3.2
			S357.1,87.4,355.5,87.4z"/>
		<path class="st5" d="M366.2,94.3h-0.4l-4.5-6.4v6.4h-0.6v-7.4h0.6l4.3,6.1v-6.1h0.6V94.3z"/>
		<path class="st5" d="M368.4,94.3c-0.2,0-0.4-0.2-0.4-0.4c0-0.3,0.2-0.5,0.4-0.5c0.3,0,0.5,0.2,0.5,0.5c0,0.2-0.1,0.4-0.2,0.5
			l-0.6,1.1h-0.4L368.4,94.3z"/>
		<path class="st5" d="M373.9,92.5c0.3,0.9,1.1,1.4,2.1,1.4c1.1,0,1.8-0.5,1.8-1.5c0-0.6-0.3-1.1-1.3-1.4l-1.4-0.4
			c-1-0.3-1.7-0.8-1.7-1.8c0-1.2,1.1-2,2.3-2c1.4,0,2.3,0.8,2.6,1.8h-0.6c-0.3-0.8-0.9-1.3-2-1.3c-1,0-1.7,0.5-1.7,1.4
			c0,0.8,0.5,1.1,1.4,1.3l1.2,0.4c1.2,0.3,1.7,0.9,1.7,1.9c0,1.3-1.1,2.1-2.4,2.1c-1.4,0-2.4-0.7-2.7-1.9H373.9z"/>
		<path class="st5" d="M384.9,86.9v0.6h-4v2.7h3.6v0.6h-3.6v3h4v0.6h-4.6v-7.4H384.9z"/>
		<path class="st5" d="M391.4,93.9c-0.5,0.3-1.1,0.5-1.7,0.5c-1.9,0-3.2-1.5-3.2-3.8c0-2.3,1.4-3.8,3.2-3.8c1.9,0,3.3,1.5,3.3,3.8
			c0,1.3-0.4,2.3-1.1,3l0.6,0.8l-0.4,0.3L391.4,93.9z M389.7,87.4c-1.6,0-2.6,1.3-2.6,3.2s1.1,3.2,2.6,3.2c0.5,0,1-0.1,1.4-0.4
			l-0.6-0.8l0.4-0.3l0.6,0.8c0.6-0.6,0.9-1.4,0.9-2.5C392.4,88.7,391.3,87.4,389.7,87.4z"/>
		<path class="st5" d="M394.7,91.4v-4.5h0.6v4.4c0,1.7,0.9,2.5,2.2,2.5c1.3,0,2.2-0.8,2.2-2.5v-4.4h0.6v4.5c0,2-1.2,3-2.8,3
			S394.7,93.4,394.7,91.4z"/>
		<path class="st5" d="M407.2,86.9v0.6h-4v2.7h3.6v0.6h-3.6v3h4v0.6h-4.6v-7.4H407.2z"/>
		<path class="st5" d="M414.8,94.3h-0.4l-4.5-6.4v6.4h-0.6v-7.4h0.6l4.3,6.1v-6.1h0.6V94.3z"/>
		<path class="st5" d="M419.9,86.8c1.4,0,2.4,0.8,2.7,2.1H422c-0.3-0.9-1-1.5-2.1-1.5c-1.5,0-2.6,1.2-2.6,3.2c0,2,1.1,3.2,2.6,3.2
			c1.1,0,1.8-0.6,2.1-1.5h0.6c-0.3,1.3-1.3,2.1-2.7,2.1c-1.8,0-3.2-1.5-3.2-3.8S418.1,86.8,419.9,86.8z"/>
		<path class="st5" d="M425.1,94.3h-0.6v-7.4h0.6V94.3z"/>
		<path class="st5" d="M433,94.3h-0.4l-4.5-6.4v6.4h-0.6v-7.4h0.6l4.3,6.1v-6.1h0.6V94.3z"/>
		<path class="st5" d="M438.7,91.4v-0.5h2.5v0.4c0,1.9-1.2,3.1-3,3.1c-1.8,0-3.3-1.5-3.3-3.8c0-2.3,1.5-3.8,3.3-3.8
			c1.5,0,2.5,0.8,2.8,2.1h-0.6c-0.3-0.9-1-1.5-2.2-1.5c-1.5,0-2.7,1.2-2.7,3.2c0,2,1.1,3.2,2.7,3.2c1.5,0,2.3-0.9,2.4-2.5H438.7z"/>
	</g>
	<g>
		<path class="st5" d="M545,70.5l1.7,6.6l1.6-6.6h2l-2.6,9.8h-1.9l-1.7-6.5l-1.7,6.5h-1.9l-2.6-9.8h2.1l1.6,6.6l1.7-6.6H545z"/>
		<path class="st5" d="M556.6,70.5l3.8,9.8h-2.1l-0.9-2.4h-3.7l-0.9,2.4h-2l3.8-9.8H556.6z M554.4,76.2h2.4l-1.2-3.3L554.4,76.2z"/>
		<path class="st5" d="M563.5,77.5c0.3,0.9,1,1.3,2,1.3c1,0,1.6-0.4,1.6-1.2c0-0.6-0.4-0.9-1.2-1.1l-1.8-0.4
			c-1.4-0.3-2.5-1.1-2.5-2.7c0-1.8,1.5-3,3.5-3c2.2,0,3.5,1.2,3.9,2.8h-2c-0.2-0.7-0.8-1.2-1.8-1.2c-0.9,0-1.6,0.4-1.6,1.2
			c0,0.6,0.4,0.9,1.1,1.1l1.8,0.4c1.6,0.4,2.6,1.3,2.6,2.8c0,1.9-1.6,3.1-3.6,3.1c-2.2,0-3.7-1.1-4.1-3H563.5z"/>
		<path class="st5" d="M570.5,70.5h8.4v1.8h-3.2v8h-2.1v-8h-3.2V70.5z"/>
		<path class="st5" d="M582.9,80.3h-2v-9.8h2V80.3z"/>
		<path class="st5" d="M593.7,80.3h-1.6l-4.6-6.5v6.5h-2v-9.8h1.9l4.3,6.2v-6.2h2V80.3z"/>
		<path class="st5" d="M600.9,76.8v-1.6h3.9V76c0,2.7-1.8,4.4-4.3,4.4c-2.7,0-4.7-2.1-4.7-5.1s2-5.1,4.7-5.1c2.4,0,3.8,1.4,4.2,3.3
			h-2.1c-0.4-0.9-1-1.5-2.1-1.5c-1.6,0-2.6,1.4-2.6,3.2c0,1.9,1,3.3,2.7,3.3c1.3,0,2-0.8,2.3-1.9H600.9z"/>
		<path class="st5" d="M610.3,70.5h8.4v1.8h-3.2v8h-2.1v-8h-3.2V70.5z"/>
		<path class="st5" d="M629.2,70.5v9.8h-2v-4.1h-4.5v4.1h-2v-9.8h2v3.9h4.5v-3.9H629.2z"/>
		<path class="st5" d="M638.4,70.5v1.8h-4.7v2.1h4.2v1.7h-4.2v2.3h4.7v1.8h-6.7v-9.8H638.4z"/>
		<path class="st5" d="M644.1,70.5h8.4v1.8h-3.2v8h-2.1v-8h-3.2V70.5z"/>
		<path class="st5" d="M661.2,70.5v1.8h-4.7v2.1h4.2v1.7h-4.2v2.3h4.7v1.8h-6.7v-9.8H661.2z"/>
		<path class="st5" d="M667.5,70.3c2.3,0,3.7,1.4,4.1,3.3h-2c-0.3-0.9-0.9-1.5-2.1-1.5c-1.6,0-2.5,1.4-2.5,3.2
			c0,1.9,0.9,3.2,2.5,3.2c1.1,0,1.7-0.6,2.1-1.5h2c-0.4,2-1.8,3.3-4.1,3.3c-2.6,0-4.6-2.1-4.6-5.1S664.9,70.3,667.5,70.3z"/>
		<path class="st5" d="M682.2,70.5v9.8h-2v-4.1h-4.5v4.1h-2v-9.8h2v3.9h4.5v-3.9H682.2z"/>
		<path class="st5" d="M692.9,80.3h-1.6l-4.6-6.5v6.5h-2v-9.8h1.9l4.3,6.2v-6.2h2V80.3z"/>
		<path class="st5" d="M699.6,80.4c-2.7,0-4.6-2.1-4.6-5.1c0-2.9,1.9-5.1,4.6-5.1c2.7,0,4.7,2.1,4.7,5.1
			C704.3,78.3,702.3,80.4,699.6,80.4z M699.6,72.1c-1.6,0-2.6,1.3-2.6,3.2s1,3.2,2.6,3.2c1.6,0,2.6-1.3,2.6-3.2
			S701.2,72.1,699.6,72.1z"/>
		<path class="st5" d="M706.3,70.5h2v8h4.6v1.8h-6.6V70.5z"/>
		<path class="st5" d="M718.8,80.4c-2.7,0-4.6-2.1-4.6-5.1c0-2.9,1.9-5.1,4.6-5.1s4.7,2.1,4.7,5.1C723.5,78.3,721.6,80.4,718.8,80.4
			z M718.8,72.1c-1.6,0-2.6,1.3-2.6,3.2s1,3.2,2.6,3.2c1.6,0,2.6-1.3,2.6-3.2S720.4,72.1,718.8,72.1z"/>
		<path class="st5" d="M730.3,76.8v-1.6h3.9V76c0,2.7-1.8,4.4-4.3,4.4c-2.7,0-4.7-2.1-4.7-5.1s2-5.1,4.7-5.1c2.4,0,3.8,1.4,4.2,3.3
			h-2.1c-0.4-0.9-1-1.5-2.1-1.5c-1.6,0-2.6,1.4-2.6,3.2c0,1.9,1,3.3,2.7,3.3c1.3,0,2-0.8,2.3-1.9H730.3z"/>
		<path class="st5" d="M741.8,70.5h2.2l-3.6,6.1v3.7h-2v-3.7l-3.5-6.1h2.2l2.4,4.2L741.8,70.5z"/>
		<path class="st5" d="M556.8,91.1v3.2h-0.6v-7.4h2.7c1.4,0,2.3,0.7,2.3,2.1c0,1.4-0.9,2.1-2.3,2.1H556.8z M558.8,87.5h-2v3.1h2
			c1.1,0,1.7-0.6,1.7-1.5C560.6,88,560,87.5,558.8,87.5z"/>
		<path class="st5" d="M563.6,91v3.2H563v-7.4h2.6c1.4,0,2.3,0.7,2.3,2.1c0,1.2-0.7,1.9-1.9,2l2.2,3.3h-0.7l-2.2-3.2H563.6z
			 M563.6,90.5h2c1.1,0,1.7-0.6,1.7-1.5c0-1-0.6-1.5-1.7-1.5h-2V90.5z"/>
		<path class="st5" d="M572.8,94.4c-1.9,0-3.2-1.5-3.2-3.8c0-2.3,1.4-3.8,3.2-3.8c1.9,0,3.3,1.5,3.3,3.8
			C576.1,92.9,574.7,94.4,572.8,94.4z M572.8,87.4c-1.6,0-2.6,1.3-2.6,3.2s1.1,3.2,2.6,3.2c1.6,0,2.6-1.3,2.6-3.2
			S574.4,87.4,572.8,87.4z"/>
		<path class="st5" d="M577.9,86.9h0.6v6.8h4v0.6h-4.6V86.9z"/>
		<path class="st5" d="M585.1,94.3h-0.6v-7.4h0.6V94.3z"/>
		<path class="st5" d="M587.4,94.3v-7.4h4.3v0.6h-3.7v2.8h3.5v0.6h-3.5v3.4H587.4z"/>
		<path class="st5" d="M598.2,86.9v0.6h-4v2.7h3.6v0.6h-3.6v3h4v0.6h-4.6v-7.4H598.2z"/>
		<path class="st5" d="M600.9,91v3.2h-0.6v-7.4h2.6c1.4,0,2.3,0.7,2.3,2.1c0,1.2-0.7,1.9-1.9,2l2.2,3.3h-0.7l-2.2-3.2H600.9z
			 M600.9,90.5h2c1.1,0,1.7-0.6,1.7-1.5c0-1-0.6-1.5-1.7-1.5h-2V90.5z"/>
		<path class="st5" d="M610.1,86.9l2.9,7.4h-0.6l-1-2.4h-3.3l-0.9,2.4h-0.6l2.9-7.4H610.1z M608.4,91.3h2.8l-1.4-3.6L608.4,91.3z"/>
		<path class="st5" d="M613.6,86.9h6v0.6h-2.7v6.8h-0.6v-6.8h-2.7V86.9z"/>
		<path class="st5" d="M622,94.3h-0.6v-7.4h0.6V94.3z"/>
		<path class="st5" d="M627.2,94.4c-1.9,0-3.2-1.5-3.2-3.8c0-2.3,1.4-3.8,3.2-3.8c1.9,0,3.3,1.5,3.3,3.8
			C630.4,92.9,629,94.4,627.2,94.4z M627.2,87.4c-1.6,0-2.6,1.3-2.6,3.2s1.1,3.2,2.6,3.2c1.6,0,2.6-1.3,2.6-3.2
			S628.7,87.4,627.2,87.4z"/>
		<path class="st5" d="M637.8,94.3h-0.4l-4.5-6.4v6.4h-0.6v-7.4h0.6l4.3,6.1v-6.1h0.6V94.3z"/>
		<path class="st5" d="M640,94.3c-0.2,0-0.4-0.2-0.4-0.4c0-0.3,0.2-0.5,0.4-0.5c0.3,0,0.5,0.2,0.5,0.5c0,0.2-0.1,0.4-0.2,0.5
			l-0.6,1.1h-0.4L640,94.3z"/>
		<path class="st5" d="M646.1,91.1v3.2h-0.6v-7.4h2.7c1.4,0,2.3,0.7,2.3,2.1c0,1.4-0.9,2.1-2.3,2.1H646.1z M648.1,87.5h-2v3.1h2
			c1.1,0,1.7-0.6,1.7-1.5C649.9,88,649.3,87.5,648.1,87.5z"/>
		<path class="st5" d="M654.7,86.9l2.9,7.4H657l-1-2.4h-3.3l-0.9,2.4h-0.6l2.9-7.4H654.7z M653,91.3h2.8l-1.4-3.6L653,91.3z"/>
		<path class="st5" d="M659.9,91v3.2h-0.6v-7.4h2.6c1.4,0,2.3,0.7,2.3,2.1c0,1.2-0.7,1.9-1.9,2l2.2,3.3h-0.7l-2.2-3.2H659.9z
			 M659.9,90.5h2c1.1,0,1.7-0.6,1.7-1.5c0-1-0.6-1.5-1.7-1.5h-2V90.5z"/>
		<path class="st5" d="M669.2,86.9l2.9,7.4h-0.6l-1-2.4h-3.3l-0.9,2.4h-0.6l2.9-7.4H669.2z M667.5,91.3h2.8l-1.4-3.6L667.5,91.3z"/>
		<path class="st5" d="M673.8,86.9h0.6v6.8h4v0.6h-4.6V86.9z"/>
		<path class="st5" d="M680.3,86.9h0.6v6.8h4v0.6h-4.6V86.9z"/>
		<path class="st5" d="M691.4,86.9v0.6h-4v2.7h3.6v0.6h-3.6v3h4v0.6h-4.6v-7.4H691.4z"/>
		<path class="st5" d="M693.5,86.9h0.6v6.8h4v0.6h-4.6V86.9z"/>
		<path class="st5" d="M700.6,94.3H700v-7.4h0.6V94.3z"/>
		<path class="st5" d="M707.8,94.3h-5.3v-0.5l4.5-6.3h-4.4v-0.6h5.2v0.5l-4.5,6.3h4.5V94.3z"/>
		<path class="st5" d="M710.3,94.3h-0.6v-7.4h0.6V94.3z"/>
		<path class="st5" d="M718.2,94.3h-0.4l-4.5-6.4v6.4h-0.6v-7.4h0.6l4.3,6.1v-6.1h0.6V94.3z"/>
		<path class="st5" d="M723.8,91.4v-0.5h2.5v0.4c0,1.9-1.2,3.1-3,3.1c-1.8,0-3.3-1.5-3.3-3.8c0-2.3,1.5-3.8,3.3-3.8
			c1.5,0,2.5,0.8,2.8,2.1h-0.6c-0.3-0.9-1-1.5-2.2-1.5c-1.5,0-2.7,1.2-2.7,3.2c0,2,1.1,3.2,2.7,3.2c1.5,0,2.3-0.9,2.4-2.5H723.8z"/>
	</g>
	<line class="st6" x1="769" y1="344.6" x2="230" y2="344.6"/>
	<g>
		<path class="st5" d="M56.2,287.1l-2.4-6.4v6.4h-1.9v-9.8h2.4l2.6,6.9l2.6-6.9h2.4v9.8h-1.9v-6.4l-2.4,6.4H56.2z"/>
		<path class="st5" d="M71.1,277.2v1.8h-4.7v2.1h4.2v1.7h-4.2v2.3h4.7v1.8h-6.7v-9.8H71.1z"/>
		<path class="st5" d="M77.6,287.1l-2.4-6.4v6.4h-1.9v-9.8h2.4l2.6,6.9l2.6-6.9h2.4v9.8h-1.9v-6.4l-2.4,6.4H77.6z"/>
		<path class="st5" d="M90,287.2c-2.7,0-4.6-2.1-4.6-5.1c0-2.9,1.9-5.1,4.6-5.1c2.7,0,4.7,2.1,4.7,5.1
			C94.7,285.1,92.8,287.2,90,287.2z M90,278.9c-1.6,0-2.6,1.3-2.6,3.2s1,3.2,2.6,3.2c1.6,0,2.6-1.3,2.6-3.2S91.6,278.9,90,278.9z"/>
		<path class="st5" d="M98.8,283.4v3.7h-2v-9.8h4c2.1,0,3.4,1.1,3.4,3.1c0,1.6-0.9,2.6-2.2,2.9l2.6,3.8h-2.3l-2.4-3.7H98.8z
			 M98.8,281.7h1.9c1,0,1.6-0.5,1.6-1.4c0-0.8-0.5-1.4-1.6-1.4h-1.9V281.7z"/>
		<path class="st5" d="M112.3,277.2h2.2l-3.6,6.1v3.7h-2v-3.7l-3.5-6.1h2.2l2.4,4.2L112.3,277.2z"/>
		<path class="st5" d="M118.3,276.3h1.8l-4,11.7h-1.8L118.3,276.3z"/>
		<path class="st5" d="M123,284.3c0.3,0.9,1,1.3,2,1.3c1,0,1.6-0.4,1.6-1.2c0-0.6-0.4-0.9-1.2-1.1l-1.8-0.4
			c-1.4-0.3-2.5-1.1-2.5-2.7c0-1.8,1.5-3,3.5-3c2.2,0,3.5,1.2,3.9,2.8h-2c-0.2-0.7-0.8-1.2-1.8-1.2c-0.9,0-1.6,0.4-1.6,1.2
			c0,0.6,0.4,0.9,1.1,1.1l1.8,0.4c1.6,0.4,2.6,1.3,2.6,2.8c0,1.9-1.6,3.1-3.6,3.1c-2.2,0-3.7-1.1-4.1-3H123z"/>
		<path class="st5" d="M130,277.2h8.4v1.8h-3.2v8h-2.1v-8H130V277.2z"/>
		<path class="st5" d="M144,287.2c-2.7,0-4.6-2.1-4.6-5.1c0-2.9,1.9-5.1,4.6-5.1c2.7,0,4.7,2.1,4.7,5.1
			C148.7,285.1,146.8,287.2,144,287.2z M144,278.9c-1.6,0-2.6,1.3-2.6,3.2s1,3.2,2.6,3.2c1.6,0,2.6-1.3,2.6-3.2
			S145.6,278.9,144,278.9z"/>
		<path class="st5" d="M152.8,283.4v3.7h-2v-9.8h4c2.1,0,3.4,1.1,3.4,3.1c0,1.6-0.9,2.6-2.2,2.9l2.6,3.8h-2.3l-2.4-3.7H152.8z
			 M152.8,281.7h1.9c1,0,1.6-0.5,1.6-1.4c0-0.8-0.5-1.4-1.6-1.4h-1.9V281.7z"/>
		<path class="st5" d="M165.5,277.2l3.8,9.8h-2.1l-0.9-2.4h-3.7l-0.9,2.4h-2l3.8-9.8H165.5z M163.2,283h2.4l-1.2-3.3L163.2,283z"/>
		<path class="st5" d="M175.3,283.5v-1.6h3.9v0.9c0,2.7-1.8,4.5-4.3,4.5c-2.7,0-4.7-2.1-4.7-5.1c0-3,2-5.1,4.7-5.1
			c2.4,0,3.8,1.4,4.2,3.3h-2.1c-0.4-0.9-1-1.5-2.1-1.5c-1.6,0-2.6,1.4-2.6,3.2c0,1.9,1,3.3,2.7,3.3c1.3,0,2-0.8,2.3-1.9H175.3z"/>
		<path class="st5" d="M187.9,277.2v1.8h-4.7v2.1h4.2v1.7h-4.2v2.3h4.7v1.8h-6.7v-9.8H187.9z"/>
		<path class="st5" d="M82.8,297.6l3.8-3.9h0.8l-3.4,3.4l3.5,4h-0.8l-3.2-3.6l-0.8,0.8v2.7h-0.6v-7.4h0.6V297.6z"/>
		<path class="st5" d="M89.8,297.8v3.2h-0.6v-7.4h2.6c1.4,0,2.3,0.7,2.3,2.1c0,1.2-0.7,1.9-1.9,2l2.2,3.3h-0.7l-2.2-3.2H89.8z
			 M89.8,297.3h2c1.1,0,1.7-0.6,1.7-1.5c0-1-0.6-1.5-1.7-1.5h-2V297.3z"/>
		<path class="st5" d="M100.7,293.7h0.7l-2.7,4.2v3.1h-0.6v-3.1l-2.7-4.2h0.7l2.3,3.7L100.7,293.7z"/>
		<path class="st5" d="M103,293.7h2.2c2.1,0,3.6,1.4,3.6,3.7c0,2.2-1.4,3.7-3.6,3.7H103V293.7z M105.3,300.5c1.8,0,3-1.2,3-3.1
			c0-1.9-1.1-3.1-3-3.1h-1.6v6.2H105.3z"/>
		<path class="st5" d="M115.3,293.7v0.6h-4v2.7h3.6v0.6h-3.6v3h4v0.6h-4.6v-7.4H115.3z"/>
		<path class="st5" d="M118,297.8v3.2h-0.6v-7.4h2.6c1.4,0,2.3,0.7,2.3,2.1c0,1.2-0.7,1.9-1.9,2l2.2,3.3H122l-2.2-3.2H118z
			 M118,297.3h2c1.1,0,1.7-0.6,1.7-1.5c0-1-0.6-1.5-1.7-1.5h-2V297.3z"/>
		<path class="st5" d="M124.4,294.5c-0.2,0-0.4-0.2-0.4-0.4c0-0.3,0.2-0.5,0.4-0.5c0.3,0,0.5,0.2,0.5,0.5c0,0.2-0.1,0.4-0.2,0.5
			l-0.6,1h-0.4L124.4,294.5z"/>
		<path class="st5" d="M126.6,299.3c0.3,0.9,1.1,1.4,2.1,1.4c1.1,0,1.8-0.5,1.8-1.5c0-0.6-0.3-1.1-1.3-1.4l-1.4-0.4
			c-1-0.3-1.7-0.8-1.7-1.8c0-1.2,1.1-2,2.3-2c1.4,0,2.3,0.8,2.6,1.8h-0.6c-0.3-0.8-0.9-1.3-2-1.3c-1,0-1.7,0.5-1.7,1.4
			c0,0.8,0.5,1.1,1.4,1.3l1.2,0.4c1.2,0.3,1.7,0.9,1.7,1.9c0,1.3-1.1,2.1-2.4,2.1c-1.4,0-2.4-0.7-2.7-1.9H126.6z"/>
		<path class="st5" d="M136.2,293.7h0.6v6.8h4v0.6h-4.6V293.7z"/>
		<path class="st5" d="M145.5,293.7l2.9,7.4h-0.6l-1-2.4h-3.3l-0.9,2.4h-0.6l2.9-7.4H145.5z M143.8,298.1h2.8l-1.4-3.6L143.8,298.1z
			"/>
		<path class="st5" d="M153.8,293.7l1.7,6.3l1.7-6.3h0.6l-2,7.4h-0.6l-1.7-6.3l-1.7,6.3h-0.5l-2-7.4h0.6l1.7,6.3l1.7-6.3H153.8z"/>
	</g>
	<g>
		<path class="st5" d="M92.5,403h-1.6l-4.6-6.5v6.5h-2v-9.8h1.9l4.3,6.2v-6.2h2V403z"/>
		<path class="st5" d="M101.7,393.1v1.8H97v2.1h4.2v1.7H97v2.3h4.7v1.8H95v-9.8H101.7z"/>
		<path class="st5" d="M103.4,393.1h8.4v1.8h-3.2v8h-2.1v-8h-3.2V393.1z"/>
		<path class="st5" d="M120,393.1l1.7,6.6l1.6-6.6h2l-2.6,9.8h-1.9l-1.7-6.5l-1.7,6.5h-1.9l-2.6-9.8h2.1l1.6,6.6l1.7-6.6H120z"/>
		<path class="st5" d="M131.1,403.1c-2.7,0-4.6-2.1-4.6-5.1c0-2.9,1.9-5.1,4.6-5.1c2.7,0,4.7,2.1,4.7,5.1
			C135.8,401,133.9,403.1,131.1,403.1z M131.1,394.8c-1.6,0-2.6,1.3-2.6,3.2s1,3.2,2.6,3.2c1.6,0,2.6-1.3,2.6-3.2
			S132.7,394.8,131.1,394.8z"/>
		<path class="st5" d="M139.9,399.3v3.7h-2v-9.8h4c2.1,0,3.4,1.1,3.4,3.1c0,1.6-0.9,2.6-2.2,2.9l2.6,3.8h-2.3l-2.4-3.7H139.9z
			 M139.9,397.6h1.9c1,0,1.6-0.5,1.6-1.4c0-0.8-0.5-1.4-1.6-1.4h-1.9V397.6z"/>
		<path class="st5" d="M149.5,397.6l3.7-4.4h2.5l-3.7,4.4l3.9,5.4h-2.5l-2.9-4l-0.9,1.1v2.9h-2v-9.8h2V397.6z"/>
		<path class="st5" d="M91.6,409.6l2.9,7.4h-0.6l-1-2.4h-3.3l-0.9,2.4h-0.6l2.9-7.4H91.6z M89.9,414h2.8l-1.4-3.6L89.9,414z"/>
		<path class="st5" d="M101.7,417h-0.4l-4.5-6.4v6.4h-0.6v-7.4h0.6l4.3,6.1v-6.1h0.6V417z"/>
		<path class="st5" d="M104.1,409.6h2.2c2.1,0,3.6,1.4,3.6,3.7c0,2.2-1.4,3.7-3.6,3.7h-2.2V409.6z M106.3,416.4c1.8,0,3-1.2,3-3.1
			c0-1.9-1.1-3.1-3-3.1h-1.6v6.2H106.3z"/>
		<path class="st5" d="M115.5,413.8v3.2h-0.6v-7.4h2.7c1.4,0,2.3,0.7,2.3,2.1c0,1.4-0.9,2.1-2.3,2.1H115.5z M117.5,410.2h-2v3.1h2
			c1.1,0,1.7-0.6,1.7-1.5C119.3,410.7,118.7,410.2,117.5,410.2z"/>
		<path class="st5" d="M124.5,417.1c-1.9,0-3.2-1.5-3.2-3.8s1.4-3.8,3.2-3.8c1.9,0,3.3,1.5,3.3,3.8S126.4,417.1,124.5,417.1z
			 M124.5,410.1c-1.6,0-2.6,1.3-2.6,3.2c0,1.9,1.1,3.2,2.6,3.2c1.6,0,2.6-1.3,2.6-3.2C127.1,411.4,126.1,410.1,124.5,410.1z"/>
		<path class="st5" d="M133.5,409.6l1.7,6.3l1.7-6.3h0.6l-2,7.4H135l-1.7-6.3l-1.7,6.3H131l-2-7.4h0.6l1.7,6.3l1.7-6.3H133.5z"/>
		<path class="st5" d="M143.8,409.6v0.6h-4v2.7h3.6v0.6h-3.6v3h4v0.6h-4.6v-7.4H143.8z"/>
		<path class="st5" d="M146.5,413.7v3.2h-0.6v-7.4h2.6c1.4,0,2.3,0.7,2.3,2.1c0,1.2-0.7,1.9-1.9,2l2.2,3.3h-0.7l-2.2-3.2H146.5z
			 M146.5,413.2h2c1.1,0,1.7-0.6,1.7-1.5c0-1-0.6-1.5-1.7-1.5h-2V413.2z"/>
	</g>
	<g>
		<g>
			<path class="st5" d="M97.8,477.4c0,1.8-1.2,2.8-3.3,2.8h-4.1v-9.8h3.8c2,0,3.3,0.9,3.3,2.7c0,1.1-0.6,1.8-1.3,2.1
				C97.1,475.5,97.8,476.4,97.8,477.4z M94,474.4c1,0,1.5-0.4,1.5-1.2s-0.5-1.1-1.5-1.1h-1.7v2.3H94z M92.4,478.5h1.9
				c1,0,1.5-0.5,1.5-1.2c0-0.8-0.5-1.2-1.5-1.2h-1.9V478.5z"/>
			<path class="st5" d="M106.6,470.4v1.8h-4.7v2.1h4.2v1.7h-4.2v2.3h4.7v1.8h-6.7v-9.8H106.6z"/>
			<path class="st5" d="M117,480.2h-1.6l-4.6-6.5v6.5h-2v-9.8h1.9l4.3,6.2v-6.2h2V480.2z"/>
			<path class="st5" d="M126.2,470.4v1.8h-4.7v2.1h4.2v1.7h-4.2v2.3h4.7v1.8h-6.7v-9.8H126.2z"/>
			<path class="st5" d="M128.4,480.2v-9.8h6.5v1.8h-4.5v2.5h4.2v1.8h-4.2v3.8H128.4z"/>
			<path class="st5" d="M139.1,480.2h-2v-9.8h2V480.2z"/>
			<path class="st5" d="M141.1,470.4h8.4v1.8h-3.2v8h-2.1v-8h-3.2V470.4z"/>
		</g>
	</g>
	<g>
		<g>
			<path class="st5" d="M83.9,517.5c0.3,0.9,1,1.3,2,1.3c1,0,1.6-0.4,1.6-1.2c0-0.6-0.4-0.9-1.2-1.1l-1.8-0.4
				c-1.4-0.3-2.5-1.1-2.5-2.7c0-1.8,1.5-3,3.5-3c2.2,0,3.5,1.2,3.9,2.8h-2c-0.2-0.7-0.8-1.2-1.8-1.2c-0.9,0-1.6,0.4-1.6,1.2
				c0,0.6,0.4,0.9,1.1,1.1l1.8,0.4c1.6,0.4,2.6,1.3,2.6,2.8c0,1.9-1.6,3.1-3.6,3.1c-2.2,0-3.7-1.1-4.1-3H83.9z"/>
			<path class="st5" d="M90.9,510.4h8.4v1.8h-3.2v8H94v-8h-3.2V510.4z"/>
			<path class="st5" d="M103.3,516.6v3.7h-2v-9.8h4c2.1,0,3.4,1.1,3.4,3.1c0,1.6-0.9,2.6-2.2,2.9l2.6,3.8h-2.3l-2.4-3.7H103.3z
				 M103.3,514.9h1.9c1,0,1.6-0.5,1.6-1.4c0-0.8-0.5-1.4-1.6-1.4h-1.9V514.9z"/>
			<path class="st5" d="M116,510.4l3.8,9.8h-2.1l-0.9-2.4h-3.7l-0.9,2.4h-2l3.8-9.8H116z M113.7,516.2h2.4l-1.2-3.3L113.7,516.2z"/>
			<path class="st5" d="M120,510.4h8.4v1.8h-3.2v8h-2.1v-8H120V510.4z"/>
			<path class="st5" d="M137.1,510.4v1.8h-4.7v2.1h4.2v1.7h-4.2v2.3h4.7v1.8h-6.7v-9.8H137.1z"/>
			<path class="st5" d="M143.9,516.7v-1.6h3.9v0.9c0,2.7-1.8,4.5-4.3,4.5c-2.7,0-4.7-2.1-4.7-5.1c0-3,2-5.1,4.7-5.1
				c2.4,0,3.8,1.4,4.2,3.3h-2.1c-0.4-0.9-1-1.5-2.1-1.5c-1.6,0-2.6,1.4-2.6,3.2c0,1.9,1,3.3,2.7,3.3c1.3,0,2-0.8,2.3-1.9H143.9z"/>
			<path class="st5" d="M155.5,510.4h2.2l-3.6,6.1v3.7h-2v-3.7l-3.5-6.1h2.2l2.4,4.2L155.5,510.4z"/>
		</g>
	</g>
	<g>
		<g>
			<path class="st2" d="M293.8,477.4c0.3,0.9,1,1.3,2,1.3c1,0,1.6-0.4,1.6-1.2c0-0.6-0.4-0.9-1.2-1.1l-1.8-0.4
				c-1.4-0.3-2.5-1.1-2.5-2.7c0-1.8,1.5-3,3.5-3c2.2,0,3.5,1.2,3.9,2.8h-2c-0.2-0.7-0.8-1.2-1.8-1.2c-0.9,0-1.6,0.4-1.6,1.2
				c0,0.6,0.4,0.9,1.1,1.1l1.8,0.4c1.6,0.4,2.6,1.3,2.6,2.8c0,1.9-1.6,3.1-3.6,3.1c-2.2,0-3.7-1.1-4.1-3H293.8z"/>
			<path class="st2" d="M300.4,470.4h8.4v1.8h-3.2v8h-2.1v-8h-3.2V470.4z"/>
			<path class="st2" d="M314.6,470.4l3.8,9.8h-2.1l-0.9-2.4h-3.7l-0.9,2.4h-2l3.8-9.8H314.6z M312.3,476.1h2.4l-1.2-3.3L312.3,476.1
				z"/>
			<path class="st2" d="M318.3,470.4h8.4v1.8h-3.2v8h-2.1v-8h-3.2V470.4z"/>
			<path class="st2" d="M330.4,480.2h-2v-9.8h2V480.2z"/>
			<path class="st2" d="M336.7,470.2c2.3,0,3.7,1.4,4.1,3.3h-2c-0.3-0.9-0.9-1.5-2.1-1.5c-1.6,0-2.5,1.4-2.5,3.2
				c0,1.9,0.9,3.2,2.5,3.2c1.1,0,1.7-0.6,2.1-1.5h2c-0.4,2-1.8,3.3-4.1,3.3c-2.6,0-4.6-2.1-4.6-5.1
				C332.1,472.3,334,470.2,336.7,470.2z"/>
			<path class="st2" d="M352.9,470.4v1.8h-4.7v2.1h4.2v1.7h-4.2v2.3h4.7v1.8h-6.7v-9.8H352.9z"/>
			<path class="st2" d="M354.8,480.2v-9.8h6.5v1.8h-4.5v2.5h4.2v1.8h-4.2v3.8H354.8z"/>
			<path class="st2" d="M363.1,480.2v-9.8h6.5v1.8h-4.5v2.5h4.2v1.8h-4.2v3.8H363.1z"/>
			<path class="st2" d="M373.5,480.2h-2v-9.8h2V480.2z"/>
			<path class="st2" d="M379.8,470.2c2.3,0,3.7,1.4,4.1,3.3h-2c-0.3-0.9-0.9-1.5-2.1-1.5c-1.6,0-2.5,1.4-2.5,3.2
				c0,1.9,0.9,3.2,2.5,3.2c1.1,0,1.7-0.6,2.1-1.5h2c-0.4,2-1.8,3.3-4.1,3.3c-2.6,0-4.6-2.1-4.6-5.1
				C375.2,472.3,377.1,470.2,379.8,470.2z"/>
			<path class="st2" d="M387.6,480.2h-2v-9.8h2V480.2z"/>
			<path class="st2" d="M396.5,470.4v1.8h-4.7v2.1h4.2v1.7h-4.2v2.3h4.7v1.8h-6.7v-9.8H396.5z"/>
			<path class="st2" d="M406.6,480.2H405l-4.6-6.5v6.5h-2v-9.8h1.9l4.3,6.2v-6.2h2V480.2z"/>
			<path class="st2" d="M412.9,470.2c2.3,0,3.7,1.4,4.1,3.3h-2c-0.3-0.9-0.9-1.5-2.1-1.5c-1.6,0-2.5,1.4-2.5,3.2
				c0,1.9,0.9,3.2,2.5,3.2c1.1,0,1.7-0.6,2.1-1.5h2c-0.4,2-1.8,3.3-4.1,3.3c-2.6,0-4.6-2.1-4.6-5.1
				C408.3,472.3,410.3,470.2,412.9,470.2z"/>
			<path class="st2" d="M424.5,470.4h2.2l-3.6,6.1v3.7h-2v-3.7l-3.5-6.1h2.2l2.4,4.2L424.5,470.4z"/>
		</g>
	</g>
	<g>
		<g>
			<path class="st2" d="M275.8,510.4h8.4v1.8H281v8h-2.1v-8h-3.2V510.4z"/>
			<path class="st2" d="M292.1,510.4h2.2l-3.6,6.1v3.7h-2v-3.7l-3.5-6.1h2.2l2.4,4.2L292.1,510.4z"/>
			<path class="st2" d="M297.7,516.8v3.4h-2v-9.8h4c2.1,0,3.5,1.1,3.5,3.2c0,2.1-1.4,3.2-3.5,3.2H297.7z M299.6,512.2h-1.8v2.9h1.8
				c1.1,0,1.6-0.6,1.6-1.5C301.1,512.8,300.6,512.2,299.6,512.2z"/>
			<path class="st2" d="M306.9,520.3h-2v-9.8h2V520.3z"/>
			<path class="st2" d="M313.2,510.3c2.3,0,3.7,1.4,4.1,3.3h-2c-0.3-0.9-0.9-1.5-2.1-1.5c-1.6,0-2.5,1.4-2.5,3.2
				c0,1.9,0.9,3.2,2.5,3.2c1.1,0,1.7-0.6,2.1-1.5h2c-0.4,2-1.8,3.3-4.1,3.3c-2.6,0-4.6-2.1-4.6-5.1
				C308.6,512.3,310.6,510.3,313.2,510.3z"/>
			<path class="st2" d="M323.8,510.4l3.8,9.8h-2.1l-0.9-2.4h-3.7l-0.9,2.4h-2l3.8-9.8H323.8z M321.5,516.2h2.4l-1.2-3.3L321.5,516.2
				z"/>
			<path class="st2" d="M329,510.4h2v8h4.6v1.8H329V510.4z"/>
			<path class="st2" d="M337.5,510.4h2v8h4.6v1.8h-6.6V510.4z"/>
			<path class="st2" d="M350.8,510.4h2.2l-3.6,6.1v3.7h-2v-3.7l-3.5-6.1h2.2l2.4,4.2L350.8,510.4z"/>
			<path class="st2" d="M359.5,517.5c0.3,0.9,1,1.3,2,1.3c1,0,1.6-0.4,1.6-1.2c0-0.6-0.4-0.9-1.2-1.1l-1.8-0.4
				c-1.4-0.3-2.5-1.1-2.5-2.7c0-1.8,1.5-3,3.5-3c2.2,0,3.5,1.2,3.9,2.8h-2c-0.2-0.7-0.8-1.2-1.8-1.2c-0.9,0-1.6,0.4-1.6,1.2
				c0,0.6,0.4,0.9,1.1,1.1l1.8,0.4c1.6,0.4,2.6,1.3,2.6,2.8c0,1.9-1.6,3.1-3.6,3.1c-2.2,0-3.7-1.1-4.1-3H359.5z"/>
			<path class="st2" d="M366.7,516.3v-5.9h2v5.7c0,1.7,0.7,2.5,2,2.5c1.3,0,2-0.8,2-2.5v-5.7h2v5.9c0,2.7-1.6,4.1-4.1,4.1
				C368.4,520.4,366.7,519,366.7,516.3z"/>
			<path class="st2" d="M378.4,517.5c0.3,0.9,1,1.3,2,1.3c1,0,1.6-0.4,1.6-1.2c0-0.6-0.4-0.9-1.2-1.1l-1.8-0.4
				c-1.4-0.3-2.5-1.1-2.5-2.7c0-1.8,1.5-3,3.5-3c2.2,0,3.5,1.2,3.9,2.8h-2c-0.2-0.7-0.8-1.2-1.8-1.2c-0.9,0-1.6,0.4-1.6,1.2
				c0,0.6,0.4,0.9,1.1,1.1l1.8,0.4c1.6,0.4,2.6,1.3,2.6,2.8c0,1.9-1.6,3.1-3.6,3.1c-2.2,0-3.7-1.1-4.1-3H378.4z"/>
			<path class="st2" d="M385.1,510.4h8.4v1.8h-3.2v8h-2.1v-8h-3.2V510.4z"/>
			<path class="st2" d="M399.2,510.4l3.8,9.8h-2.1l-0.9-2.4h-3.7l-0.9,2.4h-2l3.8-9.8H399.2z M397,516.2h2.4l-1.2-3.3L397,516.2z"/>
			<path class="st2" d="M406.5,520.3h-2v-9.8h2V520.3z"/>
			<path class="st2" d="M416.9,520.3h-1.6l-4.6-6.5v6.5h-2v-9.8h1.9l4.3,6.2v-6.2h2V520.3z"/>
			<path class="st2" d="M421.2,520.3h-2v-9.8h2V520.3z"/>
			<path class="st2" d="M431.6,520.3H430l-4.6-6.5v6.5h-2v-9.8h1.9l4.3,6.2v-6.2h2V520.3z"/>
			<path class="st2" d="M438.5,516.7v-1.6h3.9v0.9c0,2.7-1.8,4.5-4.3,4.5c-2.7,0-4.7-2.1-4.7-5.1c0-3,2-5.1,4.7-5.1
				c2.4,0,3.8,1.4,4.2,3.3h-2.1c-0.4-0.9-1-1.5-2.1-1.5c-1.6,0-2.6,1.4-2.6,3.2c0,1.9,1,3.3,2.7,3.3c1.3,0,2-0.8,2.3-1.9H438.5z"/>
		</g>
	</g>
	<g>
		<g>
			<path class="st2" d="M592.4,462.4l3.8,9.8h-2.1l-0.9-2.4h-3.7l-0.9,2.4h-2l3.8-9.8H592.4z M590.2,468.1h2.4l-1.2-3.3L590.2,468.1
				z"/>
			<path class="st2" d="M597.7,462.4h3.5c3,0,4.8,1.9,4.8,4.9s-1.9,4.9-4.8,4.9h-3.5V462.4z M601.1,470.4c1.9,0,2.9-1.2,2.9-3.1
				c0-1.9-1-3.1-2.9-3.1h-1.4v6.2H601.1z"/>
			<path class="st2" d="M612.4,462.4l3.8,9.8h-2.1l-0.9-2.4h-3.7l-0.9,2.4h-2l3.8-9.8H612.4z M610.2,468.1h2.4l-1.2-3.3L610.2,468.1
				z"/>
			<path class="st2" d="M619.7,468.8v3.4h-2v-9.8h4c2.1,0,3.5,1.1,3.5,3.2c0,2.1-1.4,3.2-3.5,3.2H619.7z M621.5,464.1h-1.8v2.9h1.8
				c1.1,0,1.6-0.6,1.6-1.5C623.1,464.7,622.6,464.1,621.5,464.1z"/>
			<path class="st2" d="M626.1,462.4h8.4v1.8h-3.2v8h-2.1v-8h-3.2V462.4z"/>
			<path class="st2" d="M640.3,462.4l3.8,9.8h-2.1l-0.9-2.4h-3.7l-0.9,2.4h-2l3.8-9.8H640.3z M638,468.1h2.4l-1.2-3.3L638,468.1z"/>
			<path class="st2" d="M652.9,469.4c0,1.8-1.2,2.8-3.3,2.8h-4.1v-9.8h3.8c2,0,3.3,0.9,3.3,2.7c0,1.1-0.6,1.8-1.3,2.1
				C652.2,467.5,652.9,468.4,652.9,469.4z M649.2,466.4c1,0,1.5-0.4,1.5-1.2s-0.5-1.1-1.5-1.1h-1.7v2.3H649.2z M647.5,470.5h1.9
				c1,0,1.5-0.5,1.5-1.2c0-0.8-0.5-1.2-1.5-1.2h-1.9V470.5z"/>
			<path class="st2" d="M656.7,472.2h-2v-9.8h2V472.2z"/>
			<path class="st2" d="M658.9,462.4h2v8h4.6v1.8h-6.6V462.4z"/>
			<path class="st2" d="M669.4,472.2h-2v-9.8h2V472.2z"/>
			<path class="st2" d="M671.1,462.4h8.4v1.8h-3.2v8h-2.1v-8h-3.2V462.4z"/>
			<path class="st2" d="M687.4,462.4h2.2l-3.6,6.1v3.7h-2v-3.7l-3.5-6.1h2.2l2.4,4.2L687.4,462.4z"/>
			<path class="st2" d="M690.2,472.2c-0.5-0.1-1-0.5-1-1.2c0-0.7,0.5-1.2,1.2-1.2c0.7,0,1.2,0.5,1.2,1.4c0,0.5-0.2,1-0.5,1.4
				l-0.9,1.4h-1.3L690.2,472.2z"/>
			<path class="st2" d="M566.8,484.6v3.7h-2v-9.8h4c2.1,0,3.4,1.1,3.4,3.1c0,1.6-0.9,2.6-2.2,2.9l2.6,3.8h-2.3l-2.4-3.7H566.8z
				 M566.8,482.9h1.9c1,0,1.6-0.5,1.6-1.4c0-0.8-0.5-1.4-1.6-1.4h-1.9V482.9z"/>
			<path class="st2" d="M578.3,488.4c-2.7,0-4.6-2.1-4.6-5.1c0-2.9,1.9-5.1,4.6-5.1s4.7,2.1,4.7,5.1
				C582.9,486.2,581,488.4,578.3,488.4z M578.3,480.1c-1.6,0-2.6,1.3-2.6,3.2s1,3.2,2.6,3.2c1.6,0,2.6-1.3,2.6-3.2
				S579.8,480.1,578.3,480.1z"/>
			<path class="st2" d="M592,485.4c0,1.8-1.2,2.8-3.3,2.8h-4.1v-9.8h3.8c2,0,3.3,0.9,3.3,2.7c0,1.1-0.6,1.8-1.3,2.1
				C591.4,483.5,592,484.4,592,485.4z M588.3,482.4c1,0,1.5-0.4,1.5-1.2s-0.5-1.1-1.5-1.1h-1.7v2.3H588.3z M586.6,486.5h1.9
				c1,0,1.5-0.5,1.5-1.2c0-0.8-0.5-1.2-1.5-1.2h-1.9V486.5z"/>
			<path class="st2" d="M593.7,484.3v-5.9h2v5.7c0,1.7,0.7,2.5,2,2.5c1.3,0,2-0.8,2-2.5v-5.7h2v5.9c0,2.7-1.6,4.1-4.1,4.1
				C595.3,488.4,593.7,487,593.7,484.3z"/>
			<path class="st2" d="M605.3,485.4c0.3,0.9,1,1.3,2,1.3c1,0,1.6-0.4,1.6-1.2c0-0.6-0.4-0.9-1.2-1.1L606,484
				c-1.4-0.3-2.5-1.1-2.5-2.7c0-1.8,1.5-3,3.5-3c2.2,0,3.5,1.2,3.9,2.8h-2c-0.2-0.7-0.8-1.2-1.8-1.2c-0.9,0-1.6,0.4-1.6,1.2
				c0,0.6,0.4,0.9,1.1,1.1l1.8,0.4c1.6,0.4,2.6,1.3,2.6,2.8c0,1.9-1.6,3.1-3.6,3.1c-2.2,0-3.7-1.1-4.1-3H605.3z"/>
			<path class="st2" d="M612,478.4h8.4v1.8h-3.2v8h-2.1v-8H612V478.4z"/>
			<path class="st2" d="M630.3,488.2h-1.6l-4.6-6.5v6.5h-2v-9.8h1.9l4.3,6.2v-6.2h2V488.2z"/>
			<path class="st2" d="M639.2,478.4v1.8h-4.7v2.1h4.2v1.7h-4.2v2.3h4.7v1.8h-6.7v-9.8H639.2z"/>
			<path class="st2" d="M642.5,485.4c0.3,0.9,1,1.3,2,1.3c1,0,1.6-0.4,1.6-1.2c0-0.6-0.4-0.9-1.2-1.1l-1.8-0.4
				c-1.4-0.3-2.5-1.1-2.5-2.7c0-1.8,1.5-3,3.5-3c2.2,0,3.5,1.2,3.9,2.8h-2c-0.2-0.7-0.8-1.2-1.8-1.2c-0.9,0-1.6,0.4-1.6,1.2
				c0,0.6,0.4,0.9,1.1,1.1l1.8,0.4c1.6,0.4,2.6,1.3,2.6,2.8c0,1.9-1.6,3.1-3.7,3.1c-2.2,0-3.7-1.1-4.1-3H642.5z"/>
			<path class="st2" d="M651.3,485.4c0.3,0.9,1,1.3,2,1.3c1,0,1.6-0.4,1.6-1.2c0-0.6-0.4-0.9-1.2-1.1l-1.8-0.4
				c-1.4-0.3-2.5-1.1-2.5-2.7c0-1.8,1.5-3,3.5-3c2.2,0,3.5,1.2,3.9,2.8h-2c-0.2-0.7-0.8-1.2-1.8-1.2c-0.9,0-1.6,0.4-1.6,1.2
				c0,0.6,0.4,0.9,1.1,1.1l1.8,0.4c1.6,0.4,2.6,1.3,2.6,2.8c0,1.9-1.6,3.1-3.6,3.1c-2.2,0-3.7-1.1-4.1-3H651.3z"/>
			<path class="st2" d="M659.1,488.2c-0.5-0.1-1-0.5-1-1.2c0-0.7,0.5-1.2,1.2-1.2c0.7,0,1.2,0.5,1.2,1.4c0,0.5-0.2,1-0.5,1.4
				l-0.9,1.4h-1.3L659.1,488.2z"/>
			<path class="st2" d="M665.9,484.3v-5.9h2v5.7c0,1.7,0.7,2.5,2,2.5c1.3,0,2-0.8,2-2.5v-5.7h2v5.9c0,2.7-1.6,4.1-4.1,4.1
				C667.5,488.4,665.9,487,665.9,484.3z"/>
			<path class="st2" d="M678.2,484.8v3.4h-2v-9.8h4c2.1,0,3.5,1.1,3.5,3.2c0,2.1-1.4,3.2-3.5,3.2H678.2z M680,480.1h-1.8v2.9h1.8
				c1.1,0,1.6-0.6,1.6-1.5C681.6,480.7,681.1,480.1,680,480.1z"/>
			<path class="st2" d="M684.6,478.4h8.4v1.8h-3.2v8h-2.1v-8h-3.2V478.4z"/>
			<path class="st2" d="M696.7,488.2h-2v-9.8h2V488.2z"/>
			<path class="st2" d="M703.3,488.2l-2.4-6.4v6.4h-1.9v-9.8h2.4l2.6,6.9l2.6-6.9h2.4v9.8H707v-6.4l-2.4,6.4H703.3z"/>
			<path class="st2" d="M717.9,478.4v1.8h-4.7v2.1h4.2v1.7h-4.2v2.3h4.7v1.8h-6.7v-9.8H717.9z"/>
		</g>
	</g>
	<g>
		<g>
			<path class="st2" d="M558.8,510.4h8.4v1.8h-3.2v8H562v-8h-3.2V510.4z"/>
			<path class="st2" d="M575.2,510.4h2.2l-3.6,6.1v3.7h-2v-3.7l-3.5-6.1h2.2l2.4,4.2L575.2,510.4z"/>
			<path class="st2" d="M580.8,516.8v3.4h-2v-9.8h4c2.1,0,3.5,1.1,3.5,3.2c0,2.1-1.4,3.2-3.5,3.2H580.8z M582.6,512.2h-1.8v2.9h1.8
				c1.1,0,1.6-0.6,1.6-1.5C584.2,512.8,583.7,512.2,582.6,512.2z"/>
			<path class="st2" d="M590,520.3h-2v-9.8h2V520.3z"/>
			<path class="st2" d="M596.2,510.3c2.3,0,3.7,1.4,4.1,3.3h-2c-0.3-0.9-0.9-1.5-2.1-1.5c-1.6,0-2.5,1.4-2.5,3.2
				c0,1.9,0.9,3.2,2.5,3.2c1.1,0,1.7-0.6,2.1-1.5h2c-0.4,2-1.8,3.3-4.1,3.3c-2.6,0-4.6-2.1-4.6-5.1S593.6,510.3,596.2,510.3z"/>
			<path class="st2" d="M606.8,510.4l3.8,9.8h-2.1l-0.9-2.4H604l-0.9,2.4h-2l3.8-9.8H606.8z M604.6,516.2h2.4l-1.2-3.3L604.6,516.2z
				"/>
			<path class="st2" d="M612.1,510.4h2v8h4.6v1.8h-6.6V510.4z"/>
			<path class="st2" d="M620.5,510.4h2v8h4.6v1.8h-6.6V510.4z"/>
			<path class="st2" d="M633.8,510.4h2.2l-3.6,6.1v3.7h-2v-3.7l-3.5-6.1h2.2l2.4,4.2L633.8,510.4z"/>
			<path class="st2" d="M641.2,510.4h3.5c3,0,4.8,1.9,4.8,4.9s-1.9,4.9-4.8,4.9h-3.5V510.4z M644.5,518.4c1.9,0,2.9-1.2,2.9-3.1
				c0-1.9-1-3.1-2.9-3.1h-1.4v6.2H644.5z"/>
			<path class="st2" d="M653.3,520.3h-2v-9.8h2V520.3z"/>
			<path class="st2" d="M656.9,517.5c0.3,0.9,1,1.3,2,1.3c1,0,1.6-0.4,1.6-1.2c0-0.6-0.4-0.9-1.2-1.1l-1.8-0.4
				c-1.4-0.3-2.5-1.1-2.5-2.7c0-1.8,1.5-3,3.5-3c2.2,0,3.5,1.2,3.9,2.8h-2c-0.2-0.7-0.8-1.2-1.8-1.2c-0.9,0-1.6,0.4-1.6,1.2
				c0,0.6,0.4,0.9,1.1,1.1l1.8,0.4c1.6,0.4,2.6,1.3,2.6,2.8c0,1.9-1.6,3.1-3.7,3.1c-2.2,0-3.7-1.1-4.1-3H656.9z"/>
			<path class="st2" d="M666.3,516.6v3.7h-2v-9.8h4c2.1,0,3.4,1.1,3.4,3.1c0,1.6-0.9,2.6-2.2,2.9l2.6,3.8h-2.3l-2.4-3.7H666.3z
				 M666.3,514.9h1.9c1,0,1.6-0.5,1.6-1.4c0-0.8-0.5-1.4-1.6-1.4h-1.9V514.9z"/>
			<path class="st2" d="M673.4,516.3v-5.9h2v5.7c0,1.7,0.7,2.5,2,2.5c1.3,0,2-0.8,2-2.5v-5.7h2v5.9c0,2.7-1.6,4.1-4.1,4.1
				C675.1,520.4,673.4,519,673.4,516.3z"/>
			<path class="st2" d="M685.7,516.8v3.4h-2v-9.8h4c2.1,0,3.5,1.1,3.5,3.2c0,2.1-1.4,3.2-3.5,3.2H685.7z M687.5,512.2h-1.8v2.9h1.8
				c1.1,0,1.6-0.6,1.6-1.5C689.1,512.8,688.6,512.2,687.5,512.2z"/>
			<path class="st2" d="M692.1,510.4h8.4v1.8h-3.2v8h-2.1v-8h-3.2V510.4z"/>
			<path class="st2" d="M704.2,520.3h-2v-9.8h2V520.3z"/>
			<path class="st2" d="M709.4,520.3l-3.7-9.8h2.2l2.5,7.1l2.5-7.1h2.1l-3.7,9.8H709.4z"/>
			<path class="st2" d="M723.3,510.4v1.8h-4.7v2.1h4.2v1.7h-4.2v2.3h4.7v1.8h-6.7v-9.8H723.3z"/>
		</g>
	</g>
	<g>
		<g>
			<path class="st5" d="M36.9,41.6h-6.5V31.4h6.5v0.9h-5.4V36h4v0.9h-4v3.8h5.4V41.6z"/>
			<path class="st5" d="M46.8,41.6h-2.9v-0.9h0.7L43,37.3l-1.6,3.3h0.7v0.9h-2.9v-0.9h1l2.2-4.2l-2.2-4.1h-0.9v-0.9h2.9v0.9h-0.9
				l1.6,3.3l1.5-3.3h-0.8v-0.9h2.9v0.9h-0.9l-2.1,4.1l2.2,4.2h1V41.6z"/>
			<path class="st5" d="M56,34.3c0,1-0.3,1.7-0.9,2.2c-0.6,0.5-1.5,0.7-2.6,0.7h-2.3v4.4h-1.1V31.4h3.4c1.1,0,2,0.2,2.6,0.7
				C55.7,32.6,56,33.3,56,34.3z M54.9,34.3c0-0.7-0.2-1.2-0.7-1.5c-0.4-0.3-1-0.5-1.8-0.5h-2.3v4h2.3c0.7,0,1.3-0.2,1.8-0.5
				C54.7,35.5,54.9,35,54.9,34.3z"/>
			<path class="st5" d="M65,41.6h-6.5V31.4h1.1v9.3H65V41.6z"/>
			<path class="st5" d="M75.1,36.5c0,0.7-0.1,1.3-0.2,2c-0.1,0.6-0.4,1.2-0.7,1.7S73.5,41,73,41.3s-1.1,0.4-1.8,0.4
				s-1.3-0.1-1.8-0.4s-0.9-0.7-1.2-1.2s-0.5-1-0.7-1.7c-0.1-0.6-0.2-1.3-0.2-2c0-0.7,0.1-1.3,0.2-2c0.1-0.6,0.4-1.2,0.7-1.7
				c0.3-0.5,0.7-0.9,1.2-1.2c0.5-0.3,1.1-0.4,1.8-0.4s1.3,0.1,1.8,0.4c0.5,0.3,0.9,0.7,1.2,1.2c0.3,0.5,0.5,1.1,0.7,1.7
				C75,35.2,75.1,35.8,75.1,36.5z M74,36.5c0-0.7-0.1-1.3-0.2-1.8c-0.1-0.5-0.3-1-0.5-1.4c-0.2-0.4-0.5-0.7-0.9-0.9
				c-0.4-0.2-0.8-0.3-1.2-0.3c-0.6,0-1,0.1-1.4,0.4c-0.4,0.3-0.7,0.6-0.9,1c-0.2,0.4-0.4,0.9-0.5,1.4s-0.1,1-0.1,1.5
				c0,0.5,0,1,0.1,1.5c0.1,0.5,0.2,1,0.5,1.4c0.2,0.4,0.5,0.8,0.9,1c0.4,0.3,0.8,0.4,1.4,0.4c0.6,0,1-0.1,1.4-0.4
				c0.4-0.3,0.7-0.6,0.9-1s0.4-0.9,0.5-1.4C73.9,37.5,74,37,74,36.5z"/>
			<path class="st5" d="M82.7,41.6h-4.4v-0.9H80v-8.4h-1.6v-0.9h4.4v0.9h-1.6v8.4h1.6V41.6z"/>
			<path class="st5" d="M93.5,34.8h-0.9v-2.5h-2.2v8.4h1.6v0.9h-4.4v-0.9h1.6v-8.4h-2.2v2.5h-0.9v-3.4h7.3V34.8z"/>
			<path class="st5" d="M101.4,41.6h-4.4v-0.9h1.6v-8.4h-1.6v-0.9h4.4v0.9h-1.6v8.4h1.6V41.6z"/>
			<path class="st5" d="M111.9,41.6h-1.3l-4.1-8.6v8.6h-1.1V31.4h1.5l3.9,8.2v-8.2h1.1V41.6z"/>
			<path class="st5" d="M122,36.5c0,0.7-0.1,1.4-0.2,2c-0.1,0.6-0.4,1.2-0.7,1.7c-0.3,0.5-0.7,0.9-1.2,1.2c-0.5,0.3-1.1,0.4-1.8,0.4
				c-0.7,0-1.3-0.1-1.8-0.4c-0.5-0.3-0.9-0.7-1.2-1.2c-0.3-0.5-0.5-1-0.7-1.7c-0.1-0.6-0.2-1.3-0.2-2c0-0.7,0.1-1.3,0.2-2
				c0.1-0.6,0.4-1.2,0.7-1.7c0.3-0.5,0.7-0.9,1.2-1.2c0.5-0.3,1.1-0.4,1.8-0.4c0.6,0,1.2,0.1,1.6,0.3c0.4,0.2,0.8,0.6,1,1v-1.2h0.9
				v3.3h-0.9c0-0.4-0.1-0.7-0.2-1c-0.1-0.3-0.3-0.6-0.6-0.8c-0.2-0.2-0.5-0.4-0.8-0.5s-0.7-0.2-1-0.2c-0.6,0-1,0.1-1.4,0.4
				c-0.4,0.3-0.7,0.6-0.9,1s-0.4,0.9-0.5,1.4c-0.1,0.5-0.1,1-0.1,1.5c0,0.5,0,1,0.1,1.5c0.1,0.5,0.2,1,0.5,1.4s0.5,0.8,0.9,1
				c0.4,0.3,0.8,0.4,1.4,0.4c0.8,0,1.5-0.3,1.9-1c0.5-0.6,0.8-1.5,0.8-2.7h-2.3v-0.9h3.4V36.5z"/>
			<path class="st5" d="M140.9,41.6h-1.1l-1-2.9h-4l-0.9,2.9h-1.1l3.4-10.2h1.5L140.9,41.6z M138.5,37.7l-1.7-5.3l-1.7,5.3H138.5z"
				/>
			<path class="st5" d="M149.4,41.6h-1.3l-4.1-8.6v8.6h-1.1V31.4h1.5l3.9,8.2v-8.2h1.1V41.6z"/>
			<path class="st5" d="M159.5,36.5c0,0.7-0.1,1.3-0.2,1.9s-0.4,1.2-0.7,1.6c-0.3,0.5-0.7,0.8-1.2,1.1c-0.5,0.3-1.1,0.4-1.8,0.4
				h-3.3V31.4h3.3c0.7,0,1.3,0.1,1.8,0.4c0.5,0.3,0.9,0.7,1.2,1.1s0.5,1,0.7,1.6C159.4,35.2,159.5,35.8,159.5,36.5z M158.4,36.5
				c0-1.3-0.3-2.4-0.8-3.1c-0.5-0.7-1.2-1.1-2.1-1.1h-2.2v8.4h2.2c0.9,0,1.6-0.4,2.1-1.1C158.2,38.9,158.4,37.8,158.4,36.5z"/>
			<path class="st5" d="M178.4,31.4l-1.8,10.2h-1.3l-1-5l-1.1,5h-1.2l-1.8-10.2h1.1l1.4,8.4l1-5.5h1.1l1,5.5l1.4-8.4H178.4z"/>
			<path class="st5" d="M187.8,41.6h-1.1l-1-2.9h-4l-0.9,2.9h-1.1l3.4-10.2h1.5L187.8,41.6z M185.3,37.7l-1.7-5.3l-1.7,5.3H185.3z"
				/>
			<path class="st5" d="M196.4,38.9c0,0.4-0.1,0.8-0.3,1.2c-0.2,0.3-0.4,0.6-0.7,0.9s-0.6,0.4-1,0.6s-0.8,0.2-1.2,0.2
				c-0.6,0-1.1-0.1-1.6-0.3s-0.9-0.5-1.1-0.9v1.1h-0.9v-3.1h0.9c0,0.3,0.1,0.7,0.2,1s0.4,0.5,0.6,0.7c0.2,0.2,0.5,0.4,0.9,0.5
				s0.7,0.2,1,0.2c0.3,0,0.6,0,0.8-0.1s0.5-0.2,0.7-0.4c0.2-0.2,0.3-0.4,0.5-0.6c0.1-0.2,0.2-0.5,0.2-0.8c0-0.3-0.1-0.6-0.2-0.8
				s-0.3-0.4-0.6-0.6c-0.2-0.2-0.5-0.3-0.8-0.4s-0.6-0.2-0.9-0.3c-0.4-0.1-0.7-0.3-1.1-0.4c-0.4-0.1-0.7-0.3-1-0.5s-0.5-0.5-0.7-0.8
				c-0.2-0.3-0.3-0.7-0.3-1.2c0-0.4,0.1-0.8,0.3-1.1c0.2-0.3,0.4-0.6,0.7-0.8c0.3-0.2,0.6-0.4,1-0.5s0.8-0.2,1.2-0.2
				c0.5,0,1,0.1,1.4,0.3s0.7,0.5,1,0.9v-1.1h0.9v2.9h-0.9c0-0.3-0.1-0.6-0.2-0.9c-0.1-0.3-0.3-0.5-0.5-0.7c-0.2-0.2-0.5-0.3-0.8-0.5
				c-0.3-0.1-0.6-0.2-0.9-0.2c-0.3,0-0.5,0-0.8,0.1s-0.5,0.2-0.7,0.3c-0.2,0.1-0.3,0.3-0.4,0.5s-0.2,0.5-0.2,0.8
				c0,0.3,0.1,0.5,0.2,0.7s0.3,0.4,0.5,0.5c0.2,0.1,0.5,0.3,0.8,0.4s0.6,0.2,0.9,0.4c0.4,0.1,0.8,0.3,1.1,0.5c0.4,0.2,0.7,0.4,1,0.6
				s0.5,0.5,0.7,0.9C196.3,38,196.4,38.4,196.4,38.9z"/>
			<path class="st5" d="M206,34.8h-0.9v-2.5h-2.2v8.4h1.6v0.9h-4.4v-0.9h1.6v-8.4h-2.2v2.5h-0.9v-3.4h7.3V34.8z"/>
			<path class="st5" d="M213.9,41.6h-4.4v-0.9h1.6v-8.4h-1.6v-0.9h4.4v0.9h-1.6v8.4h1.6V41.6z"/>
			<path class="st5" d="M224.4,41.6h-1.3l-4.1-8.6v8.6h-1.1V31.4h1.5l3.9,8.2v-8.2h1.1V41.6z"/>
			<path class="st5" d="M234.5,36.5c0,0.7-0.1,1.4-0.2,2c-0.1,0.6-0.4,1.2-0.7,1.7s-0.7,0.9-1.2,1.2s-1.1,0.4-1.8,0.4
				c-0.7,0-1.3-0.1-1.8-0.4s-0.9-0.7-1.2-1.2s-0.5-1-0.7-1.7c-0.1-0.6-0.2-1.3-0.2-2c0-0.7,0.1-1.3,0.2-2c0.1-0.6,0.4-1.2,0.7-1.7
				c0.3-0.5,0.7-0.9,1.2-1.2c0.5-0.3,1.1-0.4,1.8-0.4c0.6,0,1.2,0.1,1.6,0.3c0.4,0.2,0.8,0.6,1,1v-1.2h0.9v3.3h-0.9
				c0-0.4-0.1-0.7-0.2-1s-0.3-0.6-0.6-0.8c-0.2-0.2-0.5-0.4-0.8-0.5s-0.7-0.2-1-0.2c-0.6,0-1,0.1-1.4,0.4c-0.4,0.3-0.7,0.6-0.9,1
				s-0.4,0.9-0.5,1.4s-0.1,1-0.1,1.5c0,0.5,0,1,0.1,1.5c0.1,0.5,0.2,1,0.5,1.4s0.5,0.8,0.9,1c0.4,0.3,0.8,0.4,1.4,0.4
				c0.8,0,1.5-0.3,1.9-1c0.5-0.6,0.8-1.5,0.8-2.7h-2.3v-0.9h3.4V36.5z"/>
			<path class="st5" d="M252.9,34.8H252v-2.5h-2.2v8.4h1.6v0.9h-4.4v-0.9h1.6v-8.4h-2.2v2.5h-0.9v-3.4h7.3V34.8z"/>
			<path class="st5" d="M261.9,41.6h-1.1v-4.7h-4.4v4.7h-1.1V31.4h1.1V36h4.4v-4.6h1.1V41.6z"/>
			<path class="st5" d="M271.3,41.6h-6.5V31.4h6.5v0.9h-5.4V36h4v0.9h-4v3.8h5.4V41.6z"/>
			<path class="st5" d="M290.4,38.7c0,1-0.3,1.7-0.9,2.2s-1.5,0.7-2.7,0.7h-3.2V31.4h3.1c0.4,0,0.8,0,1.3,0.1s0.8,0.2,1.1,0.4
				c0.3,0.2,0.6,0.5,0.8,0.8c0.2,0.3,0.3,0.8,0.3,1.3c0,1.1-0.5,1.8-1.6,2.2C289.7,36.6,290.4,37.4,290.4,38.7z M289,34
				c0-0.4-0.1-0.7-0.2-0.9c-0.2-0.2-0.3-0.4-0.6-0.5c-0.2-0.1-0.5-0.2-0.8-0.2c-0.3,0-0.6-0.1-0.8-0.1h-2v3.5h2c0.3,0,0.6,0,0.9-0.1
				c0.3,0,0.5-0.1,0.8-0.3c0.2-0.1,0.4-0.3,0.6-0.5C288.9,34.7,289,34.4,289,34z M289.3,38.7c0-0.7-0.2-1.2-0.7-1.5
				s-1.1-0.5-1.9-0.5h-2.2v4h2.2c0.8,0,1.4-0.2,1.9-0.5S289.3,39.3,289.3,38.7z"/>
			<path class="st5" d="M298.3,41.6h-4.4v-0.9h1.6v-8.4h-1.6v-0.9h4.4v0.9h-1.6v8.4h1.6V41.6z"/>
			<path class="st5" d="M309.5,36.5c0,0.7-0.1,1.4-0.2,2c-0.1,0.6-0.4,1.2-0.7,1.7s-0.7,0.9-1.2,1.2s-1.1,0.4-1.8,0.4
				c-0.7,0-1.3-0.1-1.8-0.4s-0.9-0.7-1.2-1.2s-0.5-1-0.7-1.7c-0.1-0.6-0.2-1.3-0.2-2c0-0.7,0.1-1.3,0.2-2c0.1-0.6,0.4-1.2,0.7-1.7
				c0.3-0.5,0.7-0.9,1.2-1.2c0.5-0.3,1.1-0.4,1.8-0.4c0.6,0,1.2,0.1,1.6,0.3c0.4,0.2,0.8,0.6,1,1v-1.2h0.9v3.3h-0.9
				c0-0.4-0.1-0.7-0.2-1s-0.3-0.6-0.6-0.8c-0.2-0.2-0.5-0.4-0.8-0.5s-0.7-0.2-1-0.2c-0.6,0-1,0.1-1.4,0.4c-0.4,0.3-0.7,0.6-0.9,1
				s-0.4,0.9-0.5,1.4s-0.1,1-0.1,1.5c0,0.5,0,1,0.1,1.5c0.1,0.5,0.2,1,0.5,1.4s0.5,0.8,0.9,1c0.4,0.3,0.8,0.4,1.4,0.4
				c0.8,0,1.5-0.3,1.9-1c0.5-0.6,0.8-1.5,0.8-2.7h-2.3v-0.9h3.4V36.5z"/>
			<path class="st5" d="M327.5,41.6H321V31.4h6.5v0.9h-5.4V36h4v0.9h-4v3.8h5.4V41.6z"/>
			<path class="st5" d="M337.4,41.6h-2.9v-0.9h0.7l-1.6-3.3l-1.6,3.3h0.7v0.9h-2.9v-0.9h1l2.2-4.2l-2.2-4.1H330v-0.9h2.9v0.9H332
				l1.6,3.3l1.5-3.3h-0.8v-0.9h2.9v0.9h-0.9l-2.1,4.1l2.2,4.2h1V41.6z"/>
			<path class="st5" d="M346.6,34.3c0,1-0.3,1.7-0.9,2.2c-0.6,0.5-1.5,0.7-2.6,0.7h-2.3v4.4h-1.1V31.4h3.4c1.1,0,2,0.2,2.6,0.7
				C346.3,32.6,346.6,33.3,346.6,34.3z M345.5,34.3c0-0.7-0.2-1.2-0.7-1.5c-0.4-0.3-1-0.5-1.8-0.5h-2.3v4h2.3c0.7,0,1.3-0.2,1.8-0.5
				C345.3,35.5,345.5,35,345.5,34.3z"/>
			<path class="st5" d="M356.3,36.5c0,0.7-0.1,1.3-0.2,2c-0.1,0.6-0.4,1.2-0.7,1.7s-0.7,0.9-1.2,1.2s-1.1,0.4-1.8,0.4
				s-1.3-0.1-1.8-0.4s-0.9-0.7-1.2-1.2s-0.5-1-0.7-1.7c-0.1-0.6-0.2-1.3-0.2-2c0-0.7,0.1-1.3,0.2-2c0.1-0.6,0.4-1.2,0.7-1.7
				c0.3-0.5,0.7-0.9,1.2-1.2c0.5-0.3,1.1-0.4,1.8-0.4s1.3,0.1,1.8,0.4c0.5,0.3,0.9,0.7,1.2,1.2c0.3,0.5,0.5,1.1,0.7,1.7
				C356.2,35.2,356.3,35.8,356.3,36.5z M355.2,36.5c0-0.7-0.1-1.3-0.2-1.8c-0.1-0.5-0.3-1-0.5-1.4c-0.2-0.4-0.5-0.7-0.9-0.9
				c-0.4-0.2-0.8-0.3-1.2-0.3c-0.6,0-1,0.1-1.4,0.4c-0.4,0.3-0.7,0.6-0.9,1s-0.4,0.9-0.5,1.4s-0.1,1-0.1,1.5c0,0.5,0,1,0.1,1.5
				c0.1,0.5,0.2,1,0.5,1.4s0.5,0.8,0.9,1c0.4,0.3,0.8,0.4,1.4,0.4c0.6,0,1-0.1,1.4-0.4c0.4-0.3,0.7-0.6,0.9-1
				c0.2-0.4,0.4-0.9,0.5-1.4C355.2,37.5,355.2,37,355.2,36.5z"/>
			<path class="st5" d="M365,41.6h-1.3l-4.1-8.6v8.6h-1.1V31.4h1.5l3.9,8.2v-8.2h1.1V41.6z"/>
			<path class="st5" d="M374.4,41.6h-6.5V31.4h6.5v0.9h-5.4V36h4v0.9h-4v3.8h5.4V41.6z"/>
			<path class="st5" d="M383.8,41.6h-1.3l-4.1-8.6v8.6h-1.1V31.4h1.5l3.9,8.2v-8.2h1.1V41.6z"/>
			<path class="st5" d="M393.5,34.8h-0.9v-2.5h-2.2v8.4h1.6v0.9h-4.4v-0.9h1.6v-8.4h-2.2v2.5h-0.9v-3.4h7.3V34.8z"/>
			<path class="st5" d="M401.4,41.6h-4.4v-0.9h1.6v-8.4h-1.6v-0.9h4.4v0.9h-1.6v8.4h1.6V41.6z"/>
			<path class="st5" d="M412.7,41.6h-1.1l-1-2.9h-4l-0.9,2.9h-1.1l3.4-10.2h1.5L412.7,41.6z M410.3,37.7l-1.7-5.3l-1.7,5.3H410.3z"
				/>
			<path class="st5" d="M421.2,41.6h-6.5V31.4h1.1v9.3h5.4V41.6z"/>
			<path class="st5" d="M430.7,38.9c0,0.4-0.1,0.8-0.3,1.2c-0.2,0.3-0.4,0.6-0.7,0.9s-0.6,0.4-1,0.6s-0.8,0.2-1.2,0.2
				c-0.6,0-1.1-0.1-1.6-0.3s-0.9-0.5-1.1-0.9v1.1h-0.9v-3.1h0.9c0,0.3,0.1,0.7,0.2,1s0.4,0.5,0.6,0.7c0.2,0.2,0.5,0.4,0.9,0.5
				s0.7,0.2,1,0.2c0.3,0,0.6,0,0.8-0.1s0.5-0.2,0.7-0.4c0.2-0.2,0.3-0.4,0.5-0.6c0.1-0.2,0.2-0.5,0.2-0.8c0-0.3-0.1-0.6-0.2-0.8
				s-0.3-0.4-0.6-0.6c-0.2-0.2-0.5-0.3-0.8-0.4s-0.6-0.2-0.9-0.3c-0.4-0.1-0.7-0.3-1.1-0.4c-0.4-0.1-0.7-0.3-1-0.5s-0.5-0.5-0.7-0.8
				c-0.2-0.3-0.3-0.7-0.3-1.2c0-0.4,0.1-0.8,0.3-1.1c0.2-0.3,0.4-0.6,0.7-0.8c0.3-0.2,0.6-0.4,1-0.5s0.8-0.2,1.2-0.2
				c0.5,0,1,0.1,1.4,0.3s0.7,0.5,1,0.9v-1.1h0.9v2.9h-0.9c0-0.3-0.1-0.6-0.2-0.9c-0.1-0.3-0.3-0.5-0.5-0.7c-0.2-0.2-0.5-0.3-0.8-0.5
				c-0.3-0.1-0.6-0.2-0.9-0.2c-0.3,0-0.5,0-0.8,0.1s-0.5,0.2-0.7,0.3c-0.2,0.1-0.3,0.3-0.4,0.5s-0.2,0.5-0.2,0.8
				c0,0.3,0.1,0.5,0.2,0.7s0.3,0.4,0.5,0.5c0.2,0.1,0.5,0.3,0.8,0.4s0.6,0.2,0.9,0.4c0.4,0.1,0.8,0.3,1.1,0.5c0.4,0.2,0.7,0.4,1,0.6
				s0.5,0.5,0.7,0.9C430.7,38,430.7,38.4,430.7,38.9z"/>
		</g>
	</g>
	<rect x="229.7" y="263.8" class="st8" width="259.2" height="49.9"/>
	<g>
		<g>
			<path class="st0" d="M336.9,290.3c0,1.6-1.1,2.4-2.9,2.4h-3.6v-8.6h3.3c1.8,0,2.9,0.8,2.9,2.3c0,0.9-0.5,1.6-1.1,1.8
				C336.3,288.6,336.9,289.4,336.9,290.3z M333.6,287.7c0.9,0,1.3-0.3,1.3-1s-0.4-1-1.3-1h-1.5v2H333.6z M332.2,291.3h1.7
				c0.8,0,1.3-0.4,1.3-1.1c0-0.7-0.4-1.1-1.3-1.1h-1.7V291.3z"/>
			<path class="st0" d="M340.5,292.8h-1.8v-8.6h1.8V292.8z"/>
			<path class="st0" d="M346.8,289.7v-1.4h3.4v0.8c0,2.4-1.6,3.9-3.7,3.9c-2.4,0-4.1-1.8-4.1-4.4c0-2.6,1.8-4.4,4.1-4.4
				c2.1,0,3.3,1.2,3.6,2.9h-1.8c-0.3-0.8-0.8-1.3-1.8-1.3c-1.4,0-2.3,1.2-2.3,2.8c0,1.7,0.9,2.9,2.3,2.9c1.1,0,1.8-0.7,2-1.6H346.8z
				"/>
			<path class="st0" d="M355.5,284.2h3c2.6,0,4.2,1.7,4.2,4.3c0,2.6-1.6,4.3-4.2,4.3h-3V284.2z M358.5,291.2c1.6,0,2.5-1,2.5-2.7
				c0-1.7-0.9-2.7-2.5-2.7h-1.2v5.4H358.5z"/>
			<path class="st0" d="M368.6,284.2l3.3,8.6h-1.8l-0.8-2.1h-3.2l-0.8,2.1h-1.8l3.3-8.6H368.6z M366.7,289.2h2.1l-1.1-2.9
				L366.7,289.2z"/>
			<path class="st0" d="M372.2,284.2h7.3v1.6h-2.8v7h-1.8v-7h-2.8V284.2z"/>
			<path class="st0" d="M384.8,284.2l3.3,8.6h-1.8l-0.8-2.1h-3.2l-0.8,2.1h-1.8l3.3-8.6H384.8z M382.9,289.2h2.1l-1.1-2.9
				L382.9,289.2z"/>
		</g>
	</g>
	<rect x="511.7" y="263.8" class="st8" width="259.2" height="49.9"/>
	<g>
		<g>
			<path class="st0" d="M606.7,290.3c0,1.6-1.1,2.4-2.9,2.4h-3.6v-8.6h3.3c1.8,0,2.9,0.8,2.9,2.3c0,0.9-0.5,1.6-1.1,1.8
				C606.1,288.6,606.7,289.4,606.7,290.3z M603.4,287.7c0.9,0,1.3-0.3,1.3-1s-0.4-1-1.3-1h-1.5v2H603.4z M601.9,291.3h1.7
				c0.8,0,1.3-0.4,1.3-1.1c0-0.7-0.4-1.1-1.3-1.1h-1.7V291.3z"/>
			<path class="st0" d="M608.5,284.2h1.8v7h4v1.6h-5.8V284.2z"/>
			<path class="st0" d="M619.4,292.9c-2.4,0-4.1-1.9-4.1-4.4c0-2.6,1.7-4.4,4.1-4.4c2.4,0,4.1,1.9,4.1,4.4
				C623.5,291,621.8,292.9,619.4,292.9z M619.4,285.6c-1.4,0-2.2,1.2-2.2,2.8c0,1.7,0.9,2.8,2.2,2.8c1.4,0,2.3-1.2,2.3-2.8
				C621.7,286.8,620.8,285.6,619.4,285.6z"/>
			<path class="st0" d="M629,284c2,0,3.3,1.2,3.6,2.9h-1.8c-0.3-0.8-0.8-1.3-1.8-1.3c-1.4,0-2.2,1.2-2.2,2.8c0,1.6,0.8,2.8,2.2,2.8
				c1,0,1.5-0.5,1.8-1.3h1.8c-0.3,1.7-1.6,2.9-3.6,2.9c-2.3,0-4-1.8-4-4.4C625,285.8,626.7,284,629,284z"/>
			<path class="st0" d="M636.1,288l3.2-3.9h2.2l-3.3,3.9l3.4,4.7h-2.2l-2.5-3.5l-0.8,1v2.5h-1.8v-8.6h1.8V288z"/>
			<path class="st0" d="M646.3,284c2,0,3.3,1.2,3.6,2.9h-1.8c-0.3-0.8-0.8-1.3-1.8-1.3c-1.4,0-2.2,1.2-2.2,2.8
				c0,1.6,0.8,2.8,2.2,2.8c1,0,1.5-0.5,1.8-1.3h1.8c-0.3,1.7-1.6,2.9-3.6,2.9c-2.3,0-4-1.8-4-4.4C642.3,285.8,644,284,646.3,284z"/>
			<path class="st0" d="M659.1,284.2v8.6h-1.8v-3.6h-3.9v3.6h-1.8v-8.6h1.8v3.4h3.9v-3.4H659.1z"/>
			<path class="st0" d="M665.8,284.2l3.3,8.6h-1.8l-0.8-2.1h-3.2l-0.8,2.1h-1.8l3.3-8.6H665.8z M663.8,289.2h2.1l-1.1-2.9
				L663.8,289.2z"/>
			<path class="st0" d="M672.5,292.8h-1.8v-8.6h1.8V292.8z"/>
			<path class="st0" d="M681.9,292.8h-1.4l-4.1-5.7v5.7h-1.7v-8.6h1.7l3.8,5.4v-5.4h1.7V292.8z"/>
		</g>
	</g>
	<g>
		<path class="st5" d="M61.2,207.2c2.3,0,3.7,1.4,4.1,3.3h-2c-0.3-0.9-0.9-1.5-2.1-1.5c-1.6,0-2.5,1.4-2.5,3.2
			c0,1.9,0.9,3.2,2.5,3.2c1.1,0,1.7-0.6,2.1-1.5h2c-0.4,2-1.8,3.3-4.1,3.3c-2.6,0-4.6-2.1-4.6-5.1S58.6,207.2,61.2,207.2z"/>
		<path class="st5" d="M71.5,217.4c-2.7,0-4.6-2.1-4.6-5.1c0-2.9,1.9-5.1,4.6-5.1c2.7,0,4.7,2.1,4.7,5.1
			C76.2,215.2,74.3,217.4,71.5,217.4z M71.5,209c-1.6,0-2.6,1.3-2.6,3.2s1,3.2,2.6,3.2c1.6,0,2.6-1.3,2.6-3.2S73.1,209,71.5,209z"/>
		<path class="st5" d="M82.6,217.2l-2.4-6.4v6.4h-1.9v-9.8h2.4l2.6,6.9l2.6-6.9h2.4v9.8h-1.9v-6.4l-2.4,6.4H82.6z"/>
		<path class="st5" d="M95.2,217.2l-2.4-6.4v6.4h-1.9v-9.8h2.4l2.6,6.9l2.6-6.9h2.4v9.8H99v-6.4l-2.4,6.4H95.2z"/>
		<path class="st5" d="M103.3,213.2v-5.9h2v5.7c0,1.7,0.7,2.5,2,2.5c1.3,0,2-0.8,2-2.5v-5.7h2v5.9c0,2.7-1.6,4.1-4.1,4.1
			C104.9,217.4,103.3,216,103.3,213.2z"/>
		<path class="st5" d="M122,217.2h-1.6l-4.6-6.5v6.5h-2v-9.8h1.9l4.3,6.2v-6.2h2V217.2z"/>
		<path class="st5" d="M126.6,217.2h-2v-9.8h2V217.2z"/>
		<path class="st5" d="M133.2,207.2c2.3,0,3.7,1.4,4.1,3.3h-2c-0.3-0.9-0.9-1.5-2.1-1.5c-1.6,0-2.5,1.4-2.5,3.2
			c0,1.9,0.9,3.2,2.5,3.2c1.1,0,1.7-0.6,2.1-1.5h2c-0.4,2-1.8,3.3-4.1,3.3c-2.6,0-4.6-2.1-4.6-5.1S130.6,207.2,133.2,207.2z"/>
		<path class="st5" d="M144.1,207.4l3.8,9.8h-2.1l-0.9-2.4h-3.7l-0.9,2.4h-2l3.8-9.8H144.1z M141.9,213.1h2.4l-1.2-3.3L141.9,213.1z
			"/>
		<path class="st5" d="M148.2,207.4h8.4v1.8h-3.2v8h-2.1v-8h-3.2V207.4z"/>
		<path class="st5" d="M160.6,217.2h-2v-9.8h2V217.2z"/>
		<path class="st5" d="M167.3,217.4c-2.7,0-4.6-2.1-4.6-5.1c0-2.9,1.9-5.1,4.6-5.1c2.7,0,4.7,2.1,4.7,5.1
			C171.9,215.2,170,217.4,167.3,217.4z M167.3,209c-1.6,0-2.6,1.3-2.6,3.2s1,3.2,2.6,3.2c1.6,0,2.6-1.3,2.6-3.2S168.8,209,167.3,209
			z"/>
		<path class="st5" d="M182.2,217.2h-1.6l-4.6-6.5v6.5h-2v-9.8h1.9l4.3,6.2v-6.2h2V217.2z"/>
		<path class="st5" d="M86.8,229.2c0,1.3-0.9,2-2.4,2h-2.5v-7.4h2.3c1.5,0,2.4,0.7,2.4,1.9c0,1-0.6,1.5-1.2,1.6
			C86.2,227.5,86.8,228.3,86.8,229.2z M84.2,227.1c1.1,0,1.8-0.5,1.8-1.4s-0.6-1.4-1.8-1.4h-1.7v2.8H84.2z M82.5,230.6h1.9
			c1.2,0,1.8-0.6,1.8-1.5c0-0.9-0.6-1.5-1.8-1.5h-1.9V230.6z"/>
		<path class="st5" d="M88.5,228.3v-4.5h0.6v4.4c0,1.7,0.9,2.5,2.2,2.5c1.3,0,2.2-0.8,2.2-2.5v-4.4h0.6v4.5c0,2-1.2,3-2.8,3
			S88.5,230.3,88.5,228.3z"/>
		<path class="st5" d="M95.8,223.8h6v0.6h-2.7v6.8h-0.6v-6.8h-2.7V223.8z"/>
		<path class="st5" d="M103.1,223.8h6v0.6h-2.7v6.8h-0.6v-6.8h-2.7V223.8z"/>
		<path class="st5" d="M115.4,223.8v0.6h-4v2.7h3.6v0.6h-3.6v3h4v0.6h-4.6v-7.4H115.4z"/>
		<path class="st5" d="M118.1,227.9v3.2h-0.6v-7.4h2.6c1.4,0,2.3,0.7,2.3,2.1c0,1.2-0.7,1.9-1.9,2l2.2,3.3h-0.7l-2.2-3.2H118.1z
			 M118.1,227.4h2c1.1,0,1.7-0.6,1.7-1.5c0-1-0.6-1.5-1.7-1.5h-2V227.4z"/>
		<path class="st5" d="M124.6,229.4c0.3,0.9,1.1,1.4,2.1,1.4c1.1,0,1.8-0.5,1.8-1.5c0-0.6-0.3-1.1-1.3-1.4l-1.4-0.4
			c-1-0.3-1.7-0.8-1.7-1.8c0-1.2,1.1-2,2.3-2c1.4,0,2.3,0.8,2.6,1.8h-0.6c-0.3-0.8-0.9-1.3-2-1.3c-1,0-1.7,0.5-1.7,1.4
			c0,0.8,0.5,1.1,1.4,1.3l1.2,0.4c1.2,0.3,1.7,0.9,1.7,1.9c0,1.3-1.1,2.1-2.4,2.1c-1.4,0-2.4-0.7-2.7-1.9H124.6z"/>
		<path class="st5" d="M131.1,224.6c-0.2,0-0.4-0.2-0.4-0.4s0.2-0.5,0.4-0.5c0.3,0,0.5,0.2,0.5,0.5c0,0.2-0.1,0.4-0.2,0.5l-0.6,1
			h-0.4L131.1,224.6z"/>
		<path class="st5" d="M136.5,223.8h0.6v6.8h4v0.6h-4.6V223.8z"/>
		<path class="st5" d="M145.8,223.8l2.9,7.4h-0.6l-1-2.4h-3.3l-0.9,2.4h-0.6l2.9-7.4H145.8z M144.1,228.2h2.8l-1.4-3.6L144.1,228.2z
			"/>
		<path class="st5" d="M154.1,223.8l1.7,6.3l1.7-6.3h0.6l-2,7.4h-0.6l-1.7-6.3l-1.7,6.3h-0.5l-2-7.4h0.6l1.7,6.3l1.7-6.3H154.1z"/>
	</g>
	<rect x="229.7" y="193.9" class="st9" width="259.2" height="49.9"/>
	<g>
		<g>
			<path class="st0" d="M323.4,220.5c0,1.6-1.1,2.4-2.9,2.4H317v-8.6h3.3c1.8,0,2.9,0.8,2.9,2.3c0,0.9-0.5,1.6-1.1,1.8
				C322.8,218.7,323.4,219.5,323.4,220.5z M320.2,217.8c0.9,0,1.3-0.3,1.3-1s-0.4-1-1.3-1h-1.5v2H320.2z M318.7,221.4h1.7
				c0.8,0,1.3-0.4,1.3-1.1c0-0.7-0.4-1.1-1.3-1.1h-1.7V221.4z"/>
			<path class="st0" d="M331.1,214.3v1.6H327v1.9h3.7v1.5H327v2h4.1v1.6h-5.8v-8.6H331.1z"/>
			<path class="st0" d="M333.1,214.3h1.8v7h4v1.6h-5.8V214.3z"/>
			<path class="st0" d="M340.7,214.3h1.8v7h4v1.6h-5.8V214.3z"/>
			<path class="st0" d="M353.2,220.5c0.2,0.8,0.9,1.1,1.7,1.1c0.9,0,1.4-0.4,1.4-1.1c0-0.5-0.3-0.8-1.1-1l-1.5-0.4
				c-1.2-0.3-2.2-0.9-2.2-2.4c0-1.6,1.3-2.6,3.1-2.6c2,0,3.1,1,3.4,2.5h-1.8c-0.2-0.6-0.7-1-1.6-1c-0.8,0-1.4,0.4-1.4,1
				c0,0.5,0.3,0.8,1,0.9l1.6,0.4c1.4,0.3,2.3,1.1,2.3,2.4c0,1.7-1.4,2.7-3.2,2.7c-1.9,0-3.3-1-3.6-2.6H353.2z"/>
			<path class="st0" d="M364.9,214.3h1.9l-3.1,5.3v3.3h-1.8v-3.3l-3.1-5.3h1.9l2.1,3.6L364.9,214.3z"/>
			<path class="st0" d="M369.2,220.5c0.2,0.8,0.9,1.1,1.7,1.1c0.9,0,1.4-0.4,1.4-1.1c0-0.5-0.3-0.8-1.1-1l-1.5-0.4
				c-1.2-0.3-2.2-0.9-2.2-2.4c0-1.6,1.3-2.6,3.1-2.6c2,0,3.1,1,3.4,2.5h-1.8c-0.2-0.6-0.7-1-1.6-1c-0.8,0-1.4,0.4-1.4,1
				c0,0.5,0.3,0.8,1,0.9l1.6,0.4c1.4,0.3,2.3,1.1,2.3,2.4c0,1.7-1.4,2.7-3.2,2.7c-1.9,0-3.3-1-3.6-2.6H369.2z"/>
			<path class="st0" d="M375.3,214.3h7.3v1.6h-2.8v7h-1.8v-7h-2.8V214.3z"/>
			<path class="st0" d="M390.2,214.3v1.6h-4.1v1.9h3.7v1.5h-3.7v2h4.1v1.6h-5.8v-8.6H390.2z"/>
			<path class="st0" d="M396,222.9l-2.1-5.6v5.6h-1.7v-8.6h2.1l2.3,6.1l2.3-6.1h2.1v8.6h-1.7v-5.6l-2.1,5.6H396z"/>
		</g>
	</g>
	<rect x="511.7" y="193.9" class="st9" width="259.2" height="49.9"/>
	<g>
		<g>
			<path class="st0" d="M611.9,222.9h-1.8v-8.6h1.8V222.9z"/>
			<path class="st0" d="M621.3,222.9h-1.4l-4.1-5.7v5.7h-1.7v-8.6h1.7l3.8,5.4v-5.4h1.7V222.9z"/>
			<path class="st0" d="M623.1,214.3h7.3v1.6h-2.8v7h-1.8v-7h-2.8V214.3z"/>
			<path class="st0" d="M638,214.3v1.6h-4.1v1.9h3.7v1.5h-3.7v2h4.1v1.6h-5.8v-8.6H638z"/>
			<path class="st0" d="M641.7,219.7v3.2h-1.8v-8.6h3.5c1.8,0,3,1,3,2.7c0,1.4-0.8,2.2-2,2.5l2.3,3.3h-2l-2.1-3.2H641.7z
				 M641.7,218.2h1.7c0.9,0,1.4-0.5,1.4-1.2c0-0.7-0.5-1.2-1.4-1.2h-1.7V218.2z"/>
			<path class="st0" d="M655.6,222.9h-1.4l-4.1-5.7v5.7h-1.7v-8.6h1.7l3.8,5.4v-5.4h1.7V222.9z"/>
			<path class="st0" d="M663.6,214.3v1.6h-4.1v1.9h3.7v1.5h-3.7v2h4.1v1.6h-5.8v-8.6H663.6z"/>
			<path class="st0" d="M665.1,214.3h7.3v1.6h-2.8v7h-1.8v-7h-2.8V214.3z"/>
		</g>
	</g>
	<g>
		<path class="st5" d="M71,137.3c2.3,0,3.7,1.4,4.1,3.3h-2c-0.3-0.9-0.9-1.5-2.1-1.5c-1.6,0-2.5,1.4-2.5,3.2c0,1.9,0.9,3.2,2.5,3.2
			c1.1,0,1.7-0.6,2.1-1.5h2c-0.4,2-1.8,3.3-4.1,3.3c-2.6,0-4.6-2.1-4.6-5.1S68.4,137.3,71,137.3z"/>
		<path class="st5" d="M81.3,147.5c-2.7,0-4.6-2.1-4.6-5.1c0-2.9,1.9-5.1,4.6-5.1c2.7,0,4.7,2.1,4.7,5.1
			C85.9,145.4,84,147.5,81.3,147.5z M81.3,139.2c-1.6,0-2.6,1.3-2.6,3.2s1,3.2,2.6,3.2c1.6,0,2.6-1.3,2.6-3.2S82.8,139.2,81.3,139.2
			z"/>
		<path class="st5" d="M92.3,147.3l-2.4-6.4v6.4H88v-9.8h2.4l2.6,6.9l2.6-6.9h2.4v9.8h-1.9v-6.4l-2.4,6.4H92.3z"/>
		<path class="st5" d="M102.6,143.9v3.4h-2v-9.8h4c2.1,0,3.5,1.1,3.5,3.2c0,2.1-1.4,3.2-3.5,3.2H102.6z M104.5,139.3h-1.8v2.9h1.8
			c1.1,0,1.6-0.6,1.6-1.5C106,139.8,105.5,139.3,104.5,139.3z"/>
		<path class="st5" d="M109.9,143.4v-5.9h2v5.7c0,1.7,0.7,2.5,2,2.5c1.3,0,2-0.8,2-2.5v-5.7h2v5.9c0,2.7-1.6,4.1-4.1,4.1
			C111.5,147.5,109.9,146.1,109.9,143.4z"/>
		<path class="st5" d="M119.9,137.5h8.4v1.8h-3.2v8h-2.1v-8h-3.2V137.5z"/>
		<path class="st5" d="M134.4,137.5l3.8,9.8h-2.1l-0.9-2.4h-3.7l-0.9,2.4h-2l3.8-9.8H134.4z M132.1,143.2h2.4l-1.2-3.3L132.1,143.2z
			"/>
		<path class="st5" d="M138.4,137.5h8.4v1.8h-3.2v8h-2.1v-8h-3.2V137.5z"/>
		<path class="st5" d="M150.8,147.3h-2v-9.8h2V147.3z"/>
		<path class="st5" d="M157.5,147.5c-2.7,0-4.6-2.1-4.6-5.1c0-2.9,1.9-5.1,4.6-5.1c2.7,0,4.7,2.1,4.7,5.1
			C162.2,145.4,160.3,147.5,157.5,147.5z M157.5,139.2c-1.6,0-2.6,1.3-2.6,3.2s1,3.2,2.6,3.2c1.6,0,2.6-1.3,2.6-3.2
			S159.1,139.2,157.5,139.2z"/>
		<path class="st5" d="M172.5,147.3h-1.6l-4.6-6.5v6.5h-2v-9.8h1.9l4.3,6.2v-6.2h2V147.3z"/>
		<path class="st5" d="M87.1,161.3l-2.7-6.2v6.2h-0.6V154h0.7l2.8,6.5l2.8-6.5h0.6v7.4h-0.6v-6.2l-2.6,6.2H87.1z"/>
		<path class="st5" d="M95.9,161.4c-1.9,0-3.2-1.5-3.2-3.8c0-2.3,1.4-3.8,3.2-3.8c1.9,0,3.3,1.5,3.3,3.8
			C99.1,159.9,97.8,161.4,95.9,161.4z M95.9,154.4c-1.6,0-2.6,1.3-2.6,3.2s1.1,3.2,2.6,3.2c1.6,0,2.6-1.3,2.6-3.2
			S97.5,154.4,95.9,154.4z"/>
		<path class="st5" d="M103.9,161.4c-1.9,0-3.2-1.5-3.2-3.8c0-2.3,1.4-3.8,3.2-3.8c1.9,0,3.3,1.5,3.3,3.8
			C107.1,159.9,105.7,161.4,103.9,161.4z M103.9,154.4c-1.6,0-2.6,1.3-2.6,3.2s1.1,3.2,2.6,3.2c1.6,0,2.6-1.3,2.6-3.2
			S105.4,154.4,103.9,154.4z"/>
		<path class="st5" d="M109.6,158.1v3.2H109V154h2.6c1.4,0,2.3,0.7,2.3,2.1c0,1.2-0.7,1.9-1.9,2l2.2,3.3h-0.7l-2.2-3.2H109.6z
			 M109.6,157.5h2c1.1,0,1.7-0.6,1.7-1.5c0-1-0.6-1.5-1.7-1.5h-2V157.5z"/>
		<path class="st5" d="M120.6,154v0.6h-4v2.7h3.6v0.6h-3.6v3h4v0.6h-4.6V154H120.6z"/>
		<path class="st5" d="M122.7,154.8c-0.2,0-0.4-0.2-0.4-0.4s0.2-0.5,0.4-0.5c0.3,0,0.5,0.2,0.5,0.5c0,0.2-0.1,0.4-0.2,0.5l-0.6,1
			h-0.4L122.7,154.8z"/>
		<path class="st5" d="M124.9,159.5c0.3,0.9,1.1,1.4,2.1,1.4c1.1,0,1.8-0.5,1.8-1.5c0-0.6-0.3-1.1-1.3-1.4l-1.4-0.4
			c-1-0.3-1.7-0.8-1.7-1.8c0-1.2,1.1-2,2.3-2c1.4,0,2.3,0.8,2.6,1.8h-0.6c-0.3-0.8-0.9-1.3-2-1.3c-1,0-1.7,0.5-1.7,1.4
			c0,0.8,0.5,1.1,1.4,1.3l1.2,0.4c1.2,0.3,1.7,0.9,1.7,1.9c0,1.3-1.1,2.1-2.4,2.1c-1.4,0-2.4-0.7-2.7-1.9H124.9z"/>
		<path class="st5" d="M134.5,154h0.6v6.8h4v0.6h-4.6V154z"/>
		<path class="st5" d="M143.8,154l2.9,7.4h-0.6l-1-2.4h-3.3l-0.9,2.4h-0.6l2.9-7.4H143.8z M142.1,158.4h2.8l-1.4-3.6L142.1,158.4z"
			/>
		<path class="st5" d="M152.1,154l1.7,6.3l1.7-6.3h0.6l-2,7.4h-0.6l-1.7-6.3l-1.7,6.3h-0.5l-2-7.4h0.6l1.7,6.3l1.7-6.3H152.1z"/>
	</g>
	<rect x="229.7" y="124" class="st2" width="259.2" height="49.9"/>
	<g>
		<g>
			<path class="st0" d="M319.2,147.1l-2.1-5.6v5.6h-1.7v-8.6h2.1l2.3,6.1l2.3-6.1h2.1v8.6h-1.7v-5.6l-2.1,5.6H319.2z"/>
			<path class="st0" d="M330.8,138.5l3.3,8.6h-1.8l-0.8-2.1h-3.2l-0.8,2.1h-1.8l3.3-8.6H330.8z M328.9,143.5h2.1l-1.1-2.9
				L328.9,143.5z"/>
			<path class="st0" d="M337.5,147.1h-1.8v-8.6h1.8V147.1z"/>
			<path class="st0" d="M346.9,147.1h-1.4l-4.1-5.7v5.7h-1.7v-8.6h1.7l3.8,5.4v-5.4h1.7V147.1z"/>
			<path class="st0" d="M349.1,147.1v-8.6h5.7v1.6h-4v2.2h3.7v1.6h-3.7v3.3H349.1z"/>
			<path class="st0" d="M358.5,143.8v3.2h-1.8v-8.6h3.5c1.8,0,3,1,3,2.7c0,1.4-0.8,2.2-2,2.5l2.3,3.3h-2l-2.1-3.2H358.5z
				 M358.5,142.4h1.7c0.9,0,1.4-0.5,1.4-1.2c0-0.7-0.5-1.2-1.4-1.2h-1.7V142.4z"/>
			<path class="st0" d="M369.6,138.5l3.3,8.6h-1.8l-0.8-2.1h-3.2l-0.8,2.1h-1.8l3.3-8.6H369.6z M367.6,143.5h2.1l-1.1-2.9
				L367.6,143.5z"/>
			<path class="st0" d="M378.3,147.1l-2.1-5.6v5.6h-1.7v-8.6h2.1l2.3,6.1l2.3-6.1h2.1v8.6h-1.7v-5.6l-2.1,5.6H378.3z"/>
			<path class="st0" d="M391.3,138.5v1.6h-4.1v1.9h3.7v1.5h-3.7v2h4.1v1.6h-5.8v-8.6H391.3z"/>
			<path class="st0" d="M394.5,144.6c0.2,0.8,0.9,1.1,1.7,1.1c0.9,0,1.4-0.4,1.4-1.1c0-0.5-0.3-0.8-1.1-1l-1.5-0.4
				c-1.2-0.3-2.2-0.9-2.2-2.4c0-1.6,1.3-2.6,3.1-2.6c2,0,3.1,1,3.4,2.5h-1.8c-0.2-0.6-0.7-1-1.6-1c-0.8,0-1.4,0.4-1.4,1
				c0,0.5,0.3,0.8,1,0.9l1.6,0.4c1.4,0.3,2.3,1.1,2.3,2.4c0,1.7-1.4,2.7-3.2,2.7c-1.9,0-3.3-1-3.6-2.6H394.5z"/>
			<path class="st0" d="M300.7,156.6c0.2,0.8,0.9,1.1,1.7,1.1c0.9,0,1.4-0.4,1.4-1.1c0-0.5-0.3-0.8-1.1-1l-1.5-0.4
				c-1.2-0.3-2.2-0.9-2.2-2.4c0-1.6,1.3-2.6,3.1-2.6c2,0,3.1,1,3.4,2.5h-1.8c-0.2-0.6-0.7-1-1.6-1c-0.8,0-1.4,0.4-1.4,1
				c0,0.5,0.3,0.8,1,0.9l1.6,0.4c1.4,0.3,2.3,1.1,2.3,2.4c0,1.7-1.4,2.7-3.2,2.7c-1.9,0-3.3-1-3.6-2.6H300.7z"/>
			<path class="st0" d="M307.3,155.6v-5.1h1.8v5c0,1.5,0.6,2.2,1.8,2.2c1.1,0,1.8-0.7,1.8-2.2v-5h1.8v5.1c0,2.4-1.4,3.6-3.6,3.6
				C308.7,159.2,307.3,158,307.3,155.6z"/>
			<path class="st0" d="M318.3,156.1v3h-1.8v-8.6h3.5c1.8,0,3,1,3,2.8c0,1.8-1.2,2.8-3,2.8H318.3z M319.9,152h-1.6v2.6h1.6
				c0.9,0,1.4-0.5,1.4-1.3C321.3,152.5,320.8,152,319.9,152z"/>
			<path class="st0" d="M330.6,150.5v1.6h-4.1v1.9h3.7v1.5h-3.7v2h4.1v1.6h-5.8v-8.6H330.6z"/>
			<path class="st0" d="M334.3,155.8v3.2h-1.8v-8.6h3.5c1.8,0,3,1,3,2.7c0,1.4-0.8,2.2-2,2.5l2.3,3.3h-2l-2.1-3.2H334.3z
				 M334.3,154.4h1.7c0.9,0,1.4-0.5,1.4-1.2c0-0.7-0.5-1.2-1.4-1.2h-1.7V154.4z"/>
			<path class="st0" d="M344.6,150.3c2,0,3.3,1.2,3.6,2.9h-1.8c-0.3-0.8-0.8-1.3-1.8-1.3c-1.4,0-2.2,1.2-2.2,2.8
				c0,1.6,0.8,2.8,2.2,2.8c1,0,1.5-0.5,1.8-1.3h1.8c-0.3,1.7-1.6,2.9-3.6,2.9c-2.3,0-4-1.8-4-4.4S342.3,150.3,344.6,150.3z"/>
			<path class="st0" d="M353.6,159.2c-2.4,0-4.1-1.9-4.1-4.4c0-2.6,1.7-4.4,4.1-4.4c2.4,0,4.1,1.9,4.1,4.4
				C357.7,157.3,356,159.2,353.6,159.2z M353.6,151.9c-1.4,0-2.2,1.2-2.2,2.8c0,1.7,0.9,2.8,2.2,2.8c1.4,0,2.3-1.2,2.3-2.8
				C355.9,153.1,355,151.9,353.6,151.9z"/>
			<path class="st0" d="M363.3,159.1l-2.1-5.6v5.6h-1.7v-8.6h2.1l2.3,6.1l2.3-6.1h2.1v8.6h-1.7v-5.6l-2.1,5.6H363.3z"/>
			<path class="st0" d="M372.3,156.1v3h-1.8v-8.6h3.5c1.8,0,3,1,3,2.8c0,1.8-1.2,2.8-3,2.8H372.3z M373.9,152h-1.6v2.6h1.6
				c0.9,0,1.4-0.5,1.4-1.3C375.2,152.5,374.8,152,373.9,152z"/>
			<path class="st0" d="M378.6,155.6v-5.1h1.8v5c0,1.5,0.6,2.2,1.8,2.2c1.1,0,1.8-0.7,1.8-2.2v-5h1.8v5.1c0,2.4-1.4,3.6-3.6,3.6
				C380.1,159.2,378.6,158,378.6,155.6z"/>
			<path class="st0" d="M387.4,150.5h7.3v1.6H392v7h-1.8v-7h-2.8V150.5z"/>
			<path class="st0" d="M402.3,150.5v1.6h-4.1v1.9h3.7v1.5h-3.7v2h4.1v1.6h-5.8v-8.6H402.3z"/>
			<path class="st0" d="M406,155.8v3.2h-1.8v-8.6h3.5c1.8,0,3,1,3,2.7c0,1.4-0.8,2.2-2,2.5l2.3,3.3h-2l-2.1-3.2H406z M406,154.4h1.7
				c0.9,0,1.4-0.5,1.4-1.2c0-0.7-0.5-1.2-1.4-1.2H406V154.4z"/>
			<path class="st0" d="M414,156.6c0.2,0.8,0.9,1.1,1.7,1.1c0.9,0,1.4-0.4,1.4-1.1c0-0.5-0.3-0.8-1-1l-1.5-0.4
				c-1.2-0.3-2.2-0.9-2.2-2.4c0-1.6,1.3-2.6,3.1-2.6c2,0,3.1,1,3.4,2.5h-1.8c-0.2-0.6-0.7-1-1.6-1c-0.8,0-1.4,0.4-1.4,1
				c0,0.5,0.3,0.8,1,0.9l1.6,0.4c1.4,0.3,2.3,1.1,2.3,2.4c0,1.7-1.4,2.7-3.2,2.7c-1.9,0-3.3-1-3.6-2.6H414z"/>
		</g>
	</g>
	<rect x="511.7" y="124" class="st2" width="259.2" height="49.9"/>
	<g>
		<g>
			<path class="st0" d="M629.6,144.1v3h-1.8v-8.6h3.5c1.8,0,3,1,3,2.8c0,1.8-1.2,2.8-3,2.8H629.6z M631.2,140h-1.6v2.6h1.6
				c0.9,0,1.4-0.5,1.4-1.3C632.6,140.5,632.1,140,631.2,140z"/>
			<path class="st0" d="M639.7,138.3c2,0,3.3,1.2,3.6,2.9h-1.8c-0.3-0.8-0.8-1.3-1.8-1.3c-1.4,0-2.2,1.2-2.2,2.8
				c0,1.6,0.8,2.8,2.2,2.8c1,0,1.5-0.5,1.8-1.3h1.8c-0.3,1.7-1.6,2.9-3.6,2.9c-2.3,0-4-1.8-4-4.4S637.4,138.3,639.7,138.3z"/>
			<path class="st0" d="M645.6,140.4c-0.5-0.1-0.9-0.4-0.9-1c0-0.6,0.5-1.1,1.1-1.1c0.6,0,1.1,0.4,1.1,1.2c0,0.4-0.2,0.9-0.5,1.3
				l-0.8,1.2h-1.1L645.6,140.4z"/>
			<path class="st0" d="M649.8,144.6c0.2,0.8,0.9,1.1,1.7,1.1c0.9,0,1.4-0.4,1.4-1.1c0-0.5-0.3-0.8-1.1-1l-1.5-0.4
				c-1.2-0.3-2.2-0.9-2.2-2.4c0-1.6,1.3-2.6,3.1-2.6c2,0,3.1,1,3.4,2.5h-1.8c-0.2-0.6-0.7-1-1.6-1c-0.8,0-1.4,0.4-1.4,1
				c0,0.5,0.3,0.8,1,0.9l1.6,0.4c1.4,0.3,2.3,1.1,2.3,2.4c0,1.7-1.4,2.7-3.2,2.7c-1.9,0-3.3-1-3.6-2.6H649.8z"/>
			<path class="st0" d="M582.9,150.3c2,0,3.3,1.2,3.6,2.9h-1.8c-0.3-0.8-0.8-1.3-1.8-1.3c-1.4,0-2.2,1.2-2.2,2.8
				c0,1.6,0.8,2.8,2.2,2.8c1,0,1.5-0.5,1.8-1.3h1.8c-0.3,1.7-1.6,2.9-3.6,2.9c-2.3,0-4-1.8-4-4.4S580.6,150.3,582.9,150.3z"/>
			<path class="st0" d="M588.3,150.5h1.8v7h4v1.6h-5.8V150.5z"/>
			<path class="st0" d="M599.2,159.2c-2.4,0-4.1-1.9-4.1-4.4c0-2.6,1.7-4.4,4.1-4.4c2.4,0,4.1,1.9,4.1,4.4
				C603.3,157.3,601.6,159.2,599.2,159.2z M599.2,151.9c-1.4,0-2.2,1.2-2.2,2.8c0,1.7,0.9,2.8,2.2,2.8c1.4,0,2.3-1.2,2.3-2.8
				C601.5,153.1,600.6,151.9,599.2,151.9z"/>
			<path class="st0" d="M605,155.6v-5.1h1.8v5c0,1.5,0.6,2.2,1.8,2.2s1.8-0.7,1.8-2.2v-5h1.8v5.1c0,2.4-1.4,3.6-3.6,3.6
				C606.4,159.2,605,158,605,155.6z"/>
			<path class="st0" d="M614.2,150.5h3c2.6,0,4.2,1.7,4.2,4.3c0,2.6-1.6,4.3-4.2,4.3h-3V150.5z M617.2,157.5c1.6,0,2.5-1.1,2.5-2.7
				c0-1.7-0.9-2.7-2.5-2.7H616v5.4H617.2z"/>
			<path class="st0" d="M630.4,150.3c2,0,3.3,1.2,3.6,2.9h-1.8c-0.3-0.8-0.8-1.3-1.8-1.3c-1.4,0-2.2,1.2-2.2,2.8
				c0,1.6,0.8,2.8,2.2,2.8c1,0,1.5-0.5,1.8-1.3h1.8c-0.3,1.7-1.6,2.9-3.6,2.9c-2.3,0-4-1.8-4-4.4S628.1,150.3,630.4,150.3z"/>
			<path class="st0" d="M639.4,159.2c-2.4,0-4.1-1.9-4.1-4.4c0-2.6,1.7-4.4,4.1-4.4c2.4,0,4.1,1.9,4.1,4.4
				C643.5,157.3,641.8,159.2,639.4,159.2z M639.4,151.9c-1.4,0-2.2,1.2-2.2,2.8c0,1.7,0.9,2.8,2.2,2.8c1.4,0,2.3-1.2,2.3-2.8
				C641.7,153.1,640.8,151.9,639.4,151.9z"/>
			<path class="st0" d="M649.1,159.1l-2.1-5.6v5.6h-1.7v-8.6h2.1l2.3,6.1l2.3-6.1h2.1v8.6h-1.7v-5.6l-2.1,5.6H649.1z"/>
			<path class="st0" d="M658.1,156.1v3h-1.8v-8.6h3.5c1.8,0,3,1,3,2.8c0,1.8-1.2,2.8-3,2.8H658.1z M659.7,152h-1.6v2.6h1.6
				c0.9,0,1.4-0.5,1.4-1.3C661.1,152.5,660.6,152,659.7,152z"/>
			<path class="st0" d="M664.5,155.6v-5.1h1.8v5c0,1.5,0.6,2.2,1.8,2.2s1.8-0.7,1.8-2.2v-5h1.8v5.1c0,2.4-1.4,3.6-3.6,3.6
				C665.9,159.2,664.5,158,664.5,155.6z"/>
			<path class="st0" d="M673.2,150.5h7.3v1.6h-2.8v7H676v-7h-2.8V150.5z"/>
			<path class="st0" d="M684.1,159.1h-1.8v-8.6h1.8V159.1z"/>
			<path class="st0" d="M693.5,159.1h-1.4l-4.1-5.7v5.7h-1.7v-8.6h1.7l3.8,5.4v-5.4h1.7V159.1z"/>
			<path class="st0" d="M699.8,156v-1.4h3.4v0.8c0,2.4-1.6,3.9-3.7,3.9c-2.4,0-4.1-1.8-4.1-4.4s1.8-4.4,4.1-4.4
				c2.1,0,3.3,1.2,3.6,2.9h-1.8c-0.3-0.8-0.8-1.3-1.8-1.3c-1.4,0-2.3,1.2-2.3,2.8c0,1.7,0.9,2.9,2.3,2.9c1.1,0,1.8-0.7,2-1.6H699.8z
				"/>
		</g>
	</g>
	<g>
		<g>
			<circle class="st10" cx="374.7" cy="428.5" r="4.5"/>
		</g>
		<path class="st10" d="M371.2,421.8l-6.5-9.1c-0.6,0.5-1.2,0.9-1.9,1.3l6.6,9.2C369.9,422.6,370.5,422.1,371.2,421.8z"/>
		<g>
			<circle class="st10" cx="374.7" cy="428.6" r="4.5"/>
		</g>
		<g>
			<circle class="st10" cx="334" cy="398.9" r="4.5"/>
		</g>
		<path class="st10" d="M341.6,400.2c-0.1,0.8-0.4,1.5-0.7,2.1l11,3.5c0.1-0.8,0.4-1.5,0.7-2.2L341.6,400.2z"/>
		<g>
			<circle class="st10" cx="334" cy="398.9" r="4.5"/>
		</g>
		<g>
			<circle class="st10" cx="359.3" cy="380.6" r="4.5"/>
		</g>
		<g>
			<circle class="st10" cx="359.3" cy="380.7" r="4.5"/>
		</g>
		<g>
			<circle class="st10" cx="384.5" cy="399" r="4.5"/>
		</g>
		<g>
			<circle class="st10" cx="384.4" cy="398.9" r="4.5"/>
		</g>
		<g>
			<circle class="st10" cx="343.4" cy="428.5" r="4.5"/>
		</g>
		<path class="st10" d="M348.8,423.2l7-9.3c-0.7-0.4-1.3-0.8-1.8-1.3l-7,9.3C347.7,422.2,348.3,422.6,348.8,423.2z"/>
		<g>
			<circle class="st10" cx="343.3" cy="428.6" r="4.5"/>
		</g>
		<g>
			<circle class="st10" cx="359.3" cy="407.2" r="4.5"/>
		</g>
		<g>
			<path class="st10" d="M359.4,399.5c0.3,0,0.7,0,1,0.1v-11.3c-0.3,0-0.7,0.1-1.1,0.1c-0.4,0-0.8,0-1.2-0.1v11.4
				C358.5,399.5,359,399.5,359.4,399.5z"/>
			<path class="st10" d="M367,405.8l10.7-3.5c-0.3-0.7-0.6-1.4-0.7-2.1l-10.7,3.5C366.6,404.4,366.8,405.1,367,405.8z"/>
		</g>
		<g>
			<circle class="st10" cx="359.3" cy="407.2" r="4.5"/>
		</g>
	</g>
	<g>
		<path class="st22" d="M625.2,431.6c0,0.3,0.1,0.6,0.1,0.9c0,0.5,0,0.9-0.1,1.4l30.8,1.1l0.1-2.3L625.2,431.6z"/>
		<g>
			<circle class="st22" cx="617.6" cy="432.4" r="4.5"/>
		</g>
		<g>
			<circle class="st22" cx="656" cy="433.8" r="4.5"/>
		</g>
		<g>
			<circle class="st22" cx="672.2" cy="404.2" r="4.5"/>
		</g>
		<g>
			<circle class="st22" cx="662" cy="382.6" r="4.5"/>
		</g>
		<g>
			<circle class="st22" cx="610.3" cy="393.6" r="4.5"/>
		</g>
		<g>
			<circle class="st22" cx="639.7" cy="375.4" r="4.5"/>
		</g>
		<g>
			<circle class="st22" cx="628" cy="410.4" r="4.5"/>
		</g>
		<g>
			<circle class="st22" cx="649" cy="402.1" r="4.5"/>
		</g>
		<path class="st22" d="M655.2,379.2l-7.9-2.5c-0.1,0.8-0.4,1.5-0.7,2.2l7.9,2.5C654.6,380.6,654.9,379.9,655.2,379.2z"/>
		<path class="st22" d="M617.4,390.5l16.5-10.2c-0.5-0.6-0.9-1.2-1.2-1.9l-16.5,10.2C616.7,389.2,617.1,389.8,617.4,390.5z"/>
		<path class="st22" d="M623.4,404.3l-6.8-6.4c-0.4,0.6-1,1.2-1.6,1.6l6.8,6.4C622.3,405.3,622.8,404.8,623.4,404.3z"/>
		<path class="st22" d="M654.2,396.4l4.6-6.9c-0.7-0.3-1.3-0.8-1.9-1.3l-4.6,6.9C653,395.5,653.6,395.9,654.2,396.4z"/>
		<path class="st22" d="M641.6,403.8l-6.9,2.7c0.4,0.6,0.7,1.4,0.8,2.1l6.9-2.7C642.1,405.3,641.8,404.6,641.6,403.8z"/>
		<path class="st22" d="M669.9,396.9l-3.7-7.9c-0.6,0.4-1.3,0.7-2.1,1l3.7,8C668.5,397.5,669.2,397.1,669.9,396.9z"/>
		<path class="st22" d="M664.6,404.9c0-0.2,0-0.5,0-0.7c0-0.5,0.1-1,0.2-1.5l-8.1-0.8c0,0.1,0,0.2,0,0.3c0,0.7-0.1,1.4-0.3,2
			L664.6,404.9z"/>
		<g>
			<path class="st22" d="M660.6,427.7l9.1-16.3c-0.7-0.3-1.4-0.6-2-1.1l-9.1,16.3C659.4,426.9,660,427.3,660.6,427.7z"/>
			<path class="st22" d="M655.4,426.2l-3.7-16.9c-0.7,0.3-1.4,0.4-2.2,0.5l3.7,17C653.9,426.4,654.7,426.2,655.4,426.2z"/>
		</g>
		<path class="st22" d="M643.2,382.2c-0.7,0.3-1.4,0.6-2.1,0.7l4.3,12.4c0.7-0.3,1.4-0.6,2.1-0.7L643.2,382.2z"/>
		<path class="st22" d="M610.6,401.1l4.5,24.1c0.7-0.2,1.4-0.4,2.2-0.4l-4.5-24.1C612.1,400.9,611.3,401,610.6,401.1z"/>
		<path class="st22" d="M623.8,416.8l-4,8.4c0.7,0.2,1.4,0.6,2,1l4-8.4C625.1,417.5,624.4,417.2,623.8,416.8z"/>
	</g>
</g>
</svg>
