<?xml version="1.0" encoding="utf-8"?>
<!-- Generator: Adobe Illustrator 20.1.0, SVG Export Plug-In . SVG Version: 6.00 Build 0)  -->
<svg version="1.1" xmlns="http://www.w3.org/2000/svg" xmlns:xlink="http://www.w3.org/1999/xlink" x="0px" y="0px"
	 viewBox="0 0 800 550" style="enable-background:new 0 0 800 550;" xml:space="preserve">
<style type="text/css">
	.st0{fill:#F5F5FA;}
	.st1{fill:none;stroke:#161627;stroke-miterlimit:10;}
	.st2{fill:#009CFF;}
	.st3{fill:none;stroke:#009CFF;stroke-width:3;stroke-linecap:round;stroke-miterlimit:10;}
	.st4{fill:none;stroke:#FFC151;stroke-width:3;stroke-linecap:round;stroke-miterlimit:10;}
	.st5{fill:#161627;}
	
		.st6{fill:none;stroke:#161627;stroke-width:3;stroke-linecap:round;stroke-linejoin:round;stroke-miterlimit:10;stroke-dasharray:0,8;}
	.st7{fill:#FFFFFF;}
	.st8{opacity:0.5;fill:#009CFF;}
	.st9{opacity:0.75;fill:#009CFF;}
	.st10{fill:#F93D72;}
	.st11{fill:#0D2445;}
	.st12{fill:none;}
	.st13{opacity:0.25;fill:#0D2445;}
	.st14{opacity:0.26;fill:#0D2445;}
	.st15{opacity:0.5;fill:#0D2445;}
	.st16{opacity:0.9;fill:#0D2445;}
	.st17{opacity:0.15;fill:#0D2445;}
	.st18{opacity:0.75;fill:#0D2445;}
	.st19{fill:none;stroke:#F93D72;stroke-width:3;stroke-miterlimit:10;}
	.st20{fill:none;stroke:#F93D72;stroke-width:3;stroke-miterlimit:10;stroke-dasharray:5.9114,5.9114;}
	.st21{fill:none;stroke:#161627;stroke-width:3;stroke-miterlimit:10;}
	.st22{fill:#FFC151;}
	
		.st23{fill:none;stroke:#007CCC;stroke-width:3;stroke-linecap:round;stroke-linejoin:round;stroke-miterlimit:10;stroke-dasharray:0,8;}
	.st24{fill:#25CD7F;}
	.st25{fill:#F0593F;}
	.st26{fill:#D0D2D3;}
	.st27{fill:#73737D;}
	.st28{fill:#007CCC;}
</style>
<g id="Background">
	<rect x="0" y="0" class="st0" width="800" height="550"/>
</g>
<g id="Layer_1">
	<line class="st1" x1="283.3" y1="441.3" x2="322.9" y2="393.8"/>
	<line class="st1" x1="516.2" y1="441.1" x2="476.7" y2="393.9"/>
	<line class="st1" x1="106.9" y1="341.9" x2="206.4" y2="257.5"/>
	<line class="st1" x1="129.6" y1="441.3" x2="106.9" y2="391.9"/>
	<line class="st1" x1="692.7" y1="382.1" x2="670" y2="441.1"/>
	<line class="st1" x1="692.7" y1="332.1" x2="593.1" y2="257.6"/>
	<polyline class="st1" points="476.7,298.9 593.1,416.1 593.1,257.6 	"/>
	<polyline class="st1" points="206.4,257.5 206.4,416.3 322.9,298.7 	"/>
	<line class="st1" x1="322.9" y1="298.7" x2="283.3" y2="232.5"/>
	<line class="st1" x1="476.7" y1="298.9" x2="516.2" y2="232.6"/>
	<rect x="323.1" y="141.7" class="st10" width="153.8" height="50"/>
	<g>
		<g>
			<path class="st7" d="M352.8,162.1c0.2,0.6,0.7,0.9,1.5,0.9c0.7,0,1.2-0.3,1.2-0.9c0-0.4-0.3-0.7-0.9-0.8l-1.3-0.3
				c-1.1-0.2-1.9-0.8-1.9-2c0-1.3,1.1-2.3,2.7-2.3c1.7,0,2.7,0.9,2.9,2.1h-1.5c-0.2-0.5-0.6-0.9-1.4-0.9c-0.7,0-1.2,0.3-1.2,0.9
				c0,0.4,0.3,0.7,0.8,0.8l1.3,0.3c1.2,0.3,1.9,1,1.9,2.1c0,1.4-1.2,2.3-2.7,2.3c-1.6,0-2.8-0.8-3.1-2.2H352.8z"/>
			<path class="st7" d="M358.1,156.8h6.3v1.3H362v6h-1.5v-6h-2.4V156.8z"/>
			<path class="st7" d="M368.6,164.3c-2.1,0-3.5-1.6-3.5-3.8c0-2.2,1.4-3.8,3.5-3.8s3.5,1.6,3.5,3.8
				C372.1,162.7,370.6,164.3,368.6,164.3z M368.6,158.1c-1.2,0-1.9,1-1.9,2.4c0,1.4,0.8,2.4,1.9,2.4c1.2,0,1.9-1,1.9-2.4
				C370.5,159.1,369.8,158.1,368.6,158.1z"/>
			<path class="st7" d="M376.8,156.7c1.7,0,2.8,1,3.1,2.5h-1.5c-0.3-0.7-0.7-1.1-1.6-1.1c-1.2,0-1.9,1-1.9,2.4
				c0,1.4,0.7,2.4,1.9,2.4c0.9,0,1.3-0.5,1.6-1.1h1.5c-0.3,1.5-1.3,2.5-3.1,2.5c-2,0-3.4-1.5-3.4-3.8
				C373.3,158.3,374.8,156.7,376.8,156.7z"/>
			<path class="st7" d="M382.9,160.2l2.8-3.3h1.9l-2.8,3.3l2.9,4.1h-1.9l-2.2-3l-0.7,0.8v2.2h-1.5v-7.4h1.5V160.2z"/>
			<path class="st7" d="M391.6,156.8h6.3v1.3h-2.4v6H394v-6h-2.4V156.8z"/>
			<path class="st7" d="M400.9,161.5v2.7h-1.5v-7.4h3c1.5,0,2.6,0.8,2.6,2.3c0,1.2-0.6,1.9-1.7,2.2l1.9,2.9h-1.7l-1.8-2.7H400.9z
				 M400.9,160.2h1.4c0.8,0,1.2-0.4,1.2-1c0-0.6-0.4-1-1.2-1h-1.4V160.2z"/>
			<path class="st7" d="M410.4,156.8l2.8,7.4h-1.6l-0.7-1.8h-2.8l-0.6,1.8h-1.5l2.8-7.4H410.4z M408.7,161.1h1.8l-0.9-2.4
				L408.7,161.1z"/>
			<path class="st7" d="M420.8,164.2h-1.2l-3.5-4.9v4.9h-1.5v-7.4h1.4l3.3,4.7v-4.7h1.5V164.2z"/>
			<path class="st7" d="M423.7,162.1c0.2,0.6,0.7,0.9,1.5,0.9c0.7,0,1.2-0.3,1.2-0.9c0-0.4-0.3-0.7-0.9-0.8l-1.3-0.3
				c-1.1-0.2-1.9-0.8-1.9-2c0-1.3,1.1-2.3,2.7-2.3c1.7,0,2.7,0.9,2.9,2.1h-1.5c-0.2-0.5-0.6-0.9-1.4-0.9c-0.7,0-1.2,0.3-1.2,0.9
				c0,0.4,0.3,0.7,0.8,0.8l1.3,0.3c1.2,0.3,1.9,1,1.9,2.1c0,1.4-1.2,2.3-2.7,2.3c-1.6,0-2.8-0.8-3.1-2.2H423.7z"/>
			<path class="st7" d="M429.5,164.2v-7.4h4.9v1.3H431v1.9h3.1v1.3H431v2.8H429.5z"/>
			<path class="st7" d="M441,156.8v1.3h-3.5v1.6h3.2v1.3h-3.2v1.8h3.5v1.4h-5v-7.4H441z"/>
			<path class="st7" d="M444.2,161.5v2.7h-1.5v-7.4h3c1.5,0,2.6,0.8,2.6,2.3c0,1.2-0.6,1.9-1.7,2.2l1.9,2.9h-1.7l-1.8-2.7H444.2z
				 M444.2,160.2h1.4c0.8,0,1.2-0.4,1.2-1c0-0.6-0.4-1-1.2-1h-1.4V160.2z"/>
			<path class="st7" d="M385.8,168.8l2.8,7.4H387l-0.7-1.8h-2.8l-0.6,1.8h-1.5l2.8-7.4H385.8z M384.1,173.1h1.8l-0.9-2.4
				L384.1,173.1z"/>
			<path class="st7" d="M393.1,173.6v-1.2h2.9v0.6c0,2-1.3,3.3-3.2,3.3c-2.1,0-3.5-1.5-3.5-3.8c0-2.3,1.5-3.8,3.5-3.8
				c1.8,0,2.8,1,3.1,2.5h-1.5c-0.3-0.7-0.7-1.1-1.6-1.1c-1.2,0-2,1-2,2.4c0,1.4,0.8,2.4,2,2.4c0.9,0,1.5-0.6,1.7-1.4H393.1z"/>
			<path class="st7" d="M402.6,168.8v1.3h-3.5v1.6h3.2v1.3h-3.2v1.8h3.5v1.4h-5v-7.4H402.6z"/>
			<path class="st7" d="M410.4,176.2h-1.2l-3.5-4.9v4.9h-1.5v-7.4h1.4l3.3,4.7v-4.7h1.5V176.2z"/>
			<path class="st7" d="M411.9,168.8h6.3v1.3h-2.4v6h-1.5v-6h-2.4V168.8z"/>
		</g>
	</g>
	<rect x="323.1" y="207.6" class="st22" width="153.8" height="50"/>
	<g>
		<g>
			<path class="st7" d="M344.6,222.6c1.7,0,2.8,1,3.1,2.5h-1.5c-0.3-0.7-0.7-1.1-1.6-1.1c-1.2,0-1.9,1-1.9,2.4
				c0,1.4,0.7,2.4,1.9,2.4c0.9,0,1.3-0.5,1.6-1.1h1.5c-0.3,1.5-1.3,2.5-3.1,2.5c-2,0-3.4-1.5-3.4-3.8
				C341.2,224.2,342.7,222.6,344.6,222.6z"/>
			<path class="st7" d="M354.2,222.7v1.3h-3.5v1.6h3.2v1.3h-3.2v1.8h3.5v1.4h-5v-7.4H354.2z"/>
			<path class="st7" d="M362.1,230.1h-1.2l-3.5-4.9v4.9h-1.5v-7.4h1.4l3.3,4.7v-4.7h1.5V230.1z"/>
			<path class="st7" d="M363.6,222.7h6.3v1.3h-2.4v6h-1.5v-6h-2.4V222.7z"/>
			<path class="st7" d="M372.9,227.4v2.7h-1.5v-7.4h3c1.5,0,2.6,0.8,2.6,2.3c0,1.2-0.6,1.9-1.7,2.2l1.9,2.9h-1.7l-1.8-2.7H372.9z
				 M372.9,226.1h1.4c0.8,0,1.2-0.4,1.2-1c0-0.6-0.4-1-1.2-1h-1.4V226.1z"/>
			<path class="st7" d="M382.4,222.7l2.8,7.4h-1.6l-0.7-1.8h-2.8l-0.6,1.8H378l2.8-7.4H382.4z M380.7,227h1.8l-0.9-2.4L380.7,227z"
				/>
			<path class="st7" d="M386.6,222.7h1.5v6h3.4v1.4h-5V222.7z"/>
			<path class="st7" d="M397.2,228c0.2,0.6,0.7,0.9,1.5,0.9c0.7,0,1.2-0.3,1.2-0.9c0-0.4-0.3-0.7-0.9-0.8l-1.3-0.3
				c-1.1-0.2-1.9-0.8-1.9-2c0-1.3,1.1-2.3,2.7-2.3c1.7,0,2.7,0.9,2.9,2.1h-1.5c-0.2-0.5-0.6-0.9-1.4-0.9c-0.7,0-1.2,0.3-1.2,0.9
				c0,0.4,0.3,0.7,0.8,0.8l1.3,0.3c1.2,0.3,1.9,1,1.9,2.1c0,1.4-1.2,2.3-2.7,2.3c-1.6,0-2.8-0.8-3.1-2.2H397.2z"/>
			<path class="st7" d="M408,222.7v1.3h-3.5v1.6h3.2v1.3h-3.2v1.8h3.5v1.4h-5v-7.4H408z"/>
			<path class="st7" d="M412.7,222.6c1.7,0,2.8,1,3.1,2.5h-1.5c-0.3-0.7-0.7-1.1-1.6-1.1c-1.2,0-1.9,1-1.9,2.4
				c0,1.4,0.7,2.4,1.9,2.4c0.9,0,1.3-0.5,1.6-1.1h1.5c-0.3,1.5-1.3,2.5-3.1,2.5c-2,0-3.4-1.5-3.4-3.8
				C409.3,224.2,410.8,222.6,412.7,222.6z"/>
			<path class="st7" d="M417.2,227.1v-4.4h1.5v4.2c0,1.3,0.6,1.9,1.5,1.9s1.5-0.6,1.5-1.9v-4.2h1.5v4.4c0,2-1.2,3.1-3.1,3.1
				C418.5,230.2,417.2,229.2,417.2,227.1z"/>
			<path class="st7" d="M426.7,227.4v2.7h-1.5v-7.4h3c1.5,0,2.6,0.8,2.6,2.3c0,1.2-0.6,1.9-1.7,2.2l1.9,2.9h-1.7l-1.8-2.7H426.7z
				 M426.7,226.1h1.4c0.8,0,1.2-0.4,1.2-1c0-0.6-0.4-1-1.2-1h-1.4V226.1z"/>
			<path class="st7" d="M433.9,230.1h-1.5v-7.4h1.5V230.1z"/>
			<path class="st7" d="M435.4,222.7h6.3v1.3h-2.4v6h-1.5v-6h-2.4V222.7z"/>
			<path class="st7" d="M444.7,230.1h-1.5v-7.4h1.5V230.1z"/>
			<path class="st7" d="M451.6,222.7v1.3h-3.5v1.6h3.2v1.3h-3.2v1.8h3.5v1.4h-5v-7.4H451.6z"/>
			<path class="st7" d="M454.3,228c0.2,0.6,0.7,0.9,1.5,0.9c0.7,0,1.2-0.3,1.2-0.9c0-0.4-0.3-0.7-0.9-0.8l-1.3-0.3
				c-1.1-0.2-1.9-0.8-1.9-2c0-1.3,1.1-2.3,2.7-2.3c1.7,0,2.7,0.9,2.9,2.1H457c-0.2-0.5-0.6-0.9-1.4-0.9c-0.7,0-1.2,0.3-1.2,0.9
				c0,0.4,0.3,0.7,0.8,0.8l1.3,0.3c1.2,0.3,1.9,1,1.9,2.1c0,1.4-1.2,2.3-2.7,2.3c-1.6,0-2.8-0.8-3.1-2.2H454.3z"/>
			<path class="st7" d="M365.9,234.7h2.6c2.2,0,3.6,1.4,3.6,3.7c0,2.2-1.4,3.7-3.6,3.7h-2.6V234.7z M368.5,240.7
				c1.4,0,2.2-0.9,2.2-2.3c0-1.4-0.8-2.3-2.2-2.3h-1v4.7H368.5z"/>
			<path class="st7" d="M378.7,234.7v1.3h-3.5v1.6h3.2v1.3h-3.2v1.8h3.5v1.4h-5v-7.4H378.7z"/>
			<path class="st7" d="M381.9,239.5v2.6h-1.5v-7.4h3c1.6,0,2.6,0.8,2.6,2.4c0,1.6-1,2.4-2.6,2.4H381.9z M383.3,236h-1.4v2.2h1.4
				c0.8,0,1.2-0.5,1.2-1.1C384.5,236.5,384.1,236,383.3,236z"/>
			<path class="st7" d="M390.6,242.2c-2.1,0-3.5-1.6-3.5-3.8c0-2.2,1.4-3.8,3.5-3.8s3.5,1.6,3.5,3.8
				C394.1,240.6,392.7,242.2,390.6,242.2z M390.6,236c-1.2,0-1.9,1-1.9,2.4c0,1.4,0.8,2.4,1.9,2.4c1.2,0,1.9-1,1.9-2.4
				C392.6,237,391.8,236,390.6,236z"/>
			<path class="st7" d="M396.8,240c0.2,0.6,0.7,0.9,1.5,0.9c0.7,0,1.2-0.3,1.2-0.9c0-0.4-0.3-0.7-0.9-0.8l-1.3-0.3
				c-1.1-0.2-1.9-0.8-1.9-2c0-1.3,1.1-2.3,2.7-2.3c1.7,0,2.7,0.9,2.9,2.1h-1.5c-0.2-0.5-0.6-0.9-1.4-0.9c-0.7,0-1.2,0.3-1.2,0.9
				c0,0.4,0.3,0.7,0.8,0.8l1.3,0.3c1.2,0.3,1.9,1,1.9,2.1c0,1.4-1.2,2.3-2.7,2.3c-1.6,0-2.8-0.8-3.1-2.2H396.8z"/>
			<path class="st7" d="M404,242.1h-1.5v-7.4h1.5V242.1z"/>
			<path class="st7" d="M405.5,234.7h6.3v1.3h-2.4v6h-1.5v-6h-2.4V234.7z"/>
			<path class="st7" d="M416.1,242.2c-2.1,0-3.5-1.6-3.5-3.8c0-2.2,1.4-3.8,3.5-3.8s3.5,1.6,3.5,3.8
				C419.5,240.6,418.1,242.2,416.1,242.2z M416.1,236c-1.2,0-1.9,1-1.9,2.4c0,1.4,0.8,2.4,1.9,2.4c1.2,0,1.9-1,1.9-2.4
				C418,237,417.2,236,416.1,236z"/>
			<path class="st7" d="M422.6,239.4v2.7h-1.5v-7.4h3c1.5,0,2.6,0.8,2.6,2.3c0,1.2-0.6,1.9-1.7,2.2l1.9,2.9h-1.7l-1.8-2.7H422.6z
				 M422.6,238.1h1.4c0.8,0,1.2-0.4,1.2-1c0-0.6-0.4-1-1.2-1h-1.4V238.1z"/>
			<path class="st7" d="M432.8,234.7h1.6l-2.7,4.6v2.8h-1.5v-2.8l-2.7-4.6h1.7l1.8,3.1L432.8,234.7z"/>
		</g>
	</g>
	<rect x="323.1" y="273.9" class="st22" width="153.8" height="50"/>
	<g>
		<g>
			<path class="st7" d="M357.2,294.9c1.7,0,2.8,1,3.1,2.5h-1.5c-0.3-0.7-0.7-1.1-1.6-1.1c-1.2,0-1.9,1-1.9,2.4
				c0,1.4,0.7,2.4,1.9,2.4c0.9,0,1.3-0.5,1.6-1.1h1.5c-0.3,1.5-1.3,2.5-3.1,2.5c-2,0-3.4-1.5-3.4-3.8
				C353.8,296.5,355.3,294.9,357.2,294.9z"/>
			<path class="st7" d="M361.8,295.1h1.5v6h3.4v1.4h-5V295.1z"/>
			<path class="st7" d="M373.4,295.1v1.3h-3.5v1.6h3.2v1.3h-3.2v1.8h3.5v1.4h-5v-7.4H373.4z"/>
			<path class="st7" d="M378.9,295.1l2.8,7.4h-1.6l-0.7-1.8h-2.8l-0.6,1.8h-1.5l2.8-7.4H378.9z M377.2,299.3h1.8l-0.9-2.4
				L377.2,299.3z"/>
			<path class="st7" d="M384.6,299.7v2.7h-1.5v-7.4h3c1.5,0,2.6,0.8,2.6,2.3c0,1.2-0.6,1.9-1.7,2.2l1.9,2.9h-1.7l-1.8-2.7H384.6z
				 M384.6,298.4h1.4c0.8,0,1.2-0.4,1.2-1c0-0.6-0.4-1-1.2-1h-1.4V298.4z"/>
			<path class="st7" d="M391.8,302.4h-1.5v-7.4h1.5V302.4z"/>
			<path class="st7" d="M399.9,302.4h-1.2l-3.5-4.9v4.9h-1.5v-7.4h1.4l3.3,4.7v-4.7h1.5V302.4z"/>
			<path class="st7" d="M405.3,299.8v-1.2h2.9v0.6c0,2-1.3,3.3-3.2,3.3c-2.1,0-3.5-1.5-3.5-3.8c0-2.3,1.5-3.8,3.5-3.8
				c1.8,0,2.8,1,3.1,2.5h-1.5c-0.3-0.7-0.7-1.1-1.6-1.1c-1.2,0-2,1-2,2.4c0,1.4,0.8,2.4,2,2.4c0.9,0,1.5-0.6,1.7-1.4H405.3z"/>
			<path class="st7" d="M416.1,295.1v7.4h-1.5v-3.1h-3.3v3.1h-1.5v-7.4h1.5v2.9h3.3v-2.9H416.1z"/>
			<path class="st7" d="M421.1,302.5c-2.1,0-3.5-1.6-3.5-3.8c0-2.2,1.4-3.8,3.5-3.8s3.5,1.6,3.5,3.8
				C424.6,300.9,423.2,302.5,421.1,302.5z M421.1,296.3c-1.2,0-1.9,1-1.9,2.4c0,1.4,0.8,2.4,1.9,2.4c1.2,0,1.9-1,1.9-2.4
				C423.1,297.3,422.3,296.3,421.1,296.3z"/>
			<path class="st7" d="M426.1,299.5v-4.4h1.5v4.2c0,1.3,0.6,1.9,1.5,1.9s1.5-0.6,1.5-1.9v-4.2h1.5v4.4c0,2-1.2,3.1-3.1,3.1
				C427.3,302.5,426.1,301.5,426.1,299.5z"/>
			<path class="st7" d="M435.1,300.3c0.2,0.6,0.7,0.9,1.5,0.9c0.7,0,1.2-0.3,1.2-0.9c0-0.4-0.3-0.7-0.9-0.8l-1.3-0.3
				c-1.1-0.2-1.9-0.8-1.9-2c0-1.3,1.1-2.3,2.7-2.3c1.7,0,2.7,0.9,2.9,2.1h-1.5c-0.2-0.5-0.6-0.9-1.4-0.9c-0.7,0-1.2,0.3-1.2,0.9
				c0,0.4,0.3,0.7,0.8,0.8l1.3,0.3c1.2,0.3,1.9,1,1.9,2.1c0,1.4-1.2,2.3-2.7,2.3c-1.6,0-2.8-0.8-3.1-2.2H435.1z"/>
			<path class="st7" d="M445.8,295.1v1.3h-3.5v1.6h3.2v1.3h-3.2v1.8h3.5v1.4h-5v-7.4H445.8z"/>
		</g>
	</g>
	<rect x="323.1" y="368.9" class="st22" width="153.8" height="50"/>
	<g>
		<g>
			<path class="st7" d="M351.5,395.3c0.2,0.6,0.7,0.9,1.5,0.9c0.7,0,1.2-0.3,1.2-0.9c0-0.4-0.3-0.7-0.9-0.8l-1.3-0.3
				c-1.1-0.2-1.9-0.8-1.9-2c0-1.3,1.1-2.3,2.7-2.3c1.7,0,2.7,0.9,2.9,2.1h-1.5c-0.2-0.5-0.6-0.9-1.4-0.9c-0.7,0-1.2,0.3-1.2,0.9
				c0,0.4,0.3,0.7,0.8,0.8l1.3,0.3c1.2,0.3,1.9,1,1.9,2.1c0,1.4-1.2,2.3-2.7,2.3c-1.6,0-2.8-0.8-3.1-2.2H351.5z"/>
			<path class="st7" d="M356.8,390.1h6.3v1.3h-2.4v6h-1.5v-6h-2.4V390.1z"/>
			<path class="st7" d="M367.3,397.6c-2.1,0-3.5-1.6-3.5-3.8c0-2.2,1.4-3.8,3.5-3.8s3.5,1.6,3.5,3.8
				C370.8,395.9,369.3,397.6,367.3,397.6z M367.3,391.3c-1.2,0-1.9,1-1.9,2.4s0.8,2.4,1.9,2.4c1.2,0,1.9-1,1.9-2.4
				S368.5,391.3,367.3,391.3z"/>
			<path class="st7" d="M375.5,390c1.7,0,2.8,1,3.1,2.5H377c-0.3-0.7-0.7-1.1-1.6-1.1c-1.2,0-1.9,1-1.9,2.4c0,1.4,0.7,2.4,1.9,2.4
				c0.9,0,1.3-0.5,1.6-1.1h1.5c-0.3,1.5-1.3,2.5-3.1,2.5c-2,0-3.4-1.5-3.4-3.8S373.5,390,375.5,390z"/>
			<path class="st7" d="M381.6,393.4l2.8-3.3h1.9l-2.8,3.3l2.9,4.1h-1.9l-2.2-3l-0.7,0.8v2.2h-1.5v-7.4h1.5V393.4z"/>
			<path class="st7" d="M395.7,390.1v1.3h-3.5v1.6h3.2v1.3h-3.2v1.8h3.5v1.4h-5v-7.4H395.7z"/>
			<path class="st7" d="M401,393.7l2.6,3.8h-1.7l-1.7-2.6l-1.7,2.6h-1.7l2.6-3.8l-2.4-3.6h1.7l1.6,2.4l1.6-2.4h1.7L401,393.7z"/>
			<path class="st7" d="M407.6,390c1.7,0,2.8,1,3.1,2.5h-1.5c-0.3-0.7-0.7-1.1-1.6-1.1c-1.2,0-1.9,1-1.9,2.4c0,1.4,0.7,2.4,1.9,2.4
				c0.9,0,1.3-0.5,1.6-1.1h1.5c-0.3,1.5-1.3,2.5-3.1,2.5c-2,0-3.4-1.5-3.4-3.8S405.7,390,407.6,390z"/>
			<path class="st7" d="M418.6,390.1v7.4h-1.5v-3.1h-3.3v3.1h-1.5v-7.4h1.5v2.9h3.3v-2.9H418.6z"/>
			<path class="st7" d="M424.4,390.1l2.8,7.4h-1.6l-0.7-1.8h-2.8l-0.6,1.8H420l2.8-7.4H424.4z M422.7,394.4h1.8l-0.9-2.4
				L422.7,394.4z"/>
			<path class="st7" d="M434.7,397.4h-1.2l-3.5-4.9v4.9h-1.5v-7.4h1.4l3.3,4.7v-4.7h1.5V397.4z"/>
			<path class="st7" d="M440.1,394.8v-1.2h2.9v0.6c0,2-1.3,3.3-3.2,3.3c-2.1,0-3.5-1.5-3.5-3.8s1.5-3.8,3.5-3.8c1.8,0,2.8,1,3.1,2.5
				h-1.5c-0.3-0.7-0.7-1.1-1.6-1.1c-1.2,0-2,1-2,2.4c0,1.4,0.8,2.4,2,2.4c0.9,0,1.5-0.6,1.7-1.4H440.1z"/>
			<path class="st7" d="M449.5,390.1v1.3h-3.5v1.6h3.2v1.3h-3.2v1.8h3.5v1.4h-5v-7.4H449.5z"/>
		</g>
	</g>
	<rect x="323.1" y="434.9" class="st2" width="153.8" height="50"/>
	<g>
		<g>
			<path class="st7" d="M356.3,463.4l-1.8-4.8v4.8h-1.4v-7.4h1.8l2,5.2l2-5.2h1.8v7.4h-1.5v-4.8l-1.8,4.8H356.3z"/>
			<path class="st7" d="M366.3,456.1l2.8,7.4h-1.6l-0.7-1.8h-2.8l-0.6,1.8H362l2.8-7.4H366.3z M364.6,460.4h1.8l-0.9-2.4
				L364.6,460.4z"/>
			<path class="st7" d="M372,460.7v2.7h-1.5v-7.4h3c1.5,0,2.6,0.8,2.6,2.3c0,1.2-0.6,1.9-1.7,2.2l1.9,2.9h-1.7l-1.8-2.7H372z
				 M372,459.4h1.4c0.8,0,1.2-0.4,1.2-1c0-0.6-0.4-1-1.2-1H372V459.4z"/>
			<path class="st7" d="M379.3,459.4l2.8-3.3h1.9l-2.8,3.3l2.9,4.1h-1.9l-2.2-3l-0.7,0.8v2.2h-1.5v-7.4h1.5V459.4z"/>
			<path class="st7" d="M390.3,456.1v1.3h-3.5v1.6h3.2v1.3h-3.2v1.8h3.5v1.4h-5v-7.4H390.3z"/>
			<path class="st7" d="M391.6,456.1h6.3v1.3h-2.4v6H394v-6h-2.4V456.1z"/>
			<path class="st7" d="M405.7,463.4l-1.8-4.8v4.8h-1.4v-7.4h1.8l2,5.2l2-5.2h1.8v7.4h-1.5v-4.8l-1.8,4.8H405.7z"/>
			<path class="st7" d="M415.7,456.1l2.8,7.4h-1.6l-0.7-1.8h-2.8l-0.6,1.8h-1.5l2.8-7.4H415.7z M414,460.4h1.8l-0.9-2.4L414,460.4z"
				/>
			<path class="st7" d="M421.4,460.7v2.7h-1.5v-7.4h3c1.5,0,2.6,0.8,2.6,2.3c0,1.2-0.6,1.9-1.7,2.2l1.9,2.9H424l-1.8-2.7H421.4z
				 M421.4,459.4h1.4c0.8,0,1.2-0.4,1.2-1c0-0.6-0.4-1-1.2-1h-1.4V459.4z"/>
			<path class="st7" d="M428.6,459.4l2.8-3.3h1.9l-2.8,3.3l2.9,4.1h-1.9l-2.2-3l-0.7,0.8v2.2h-1.5v-7.4h1.5V459.4z"/>
			<path class="st7" d="M439.7,456.1v1.3h-3.5v1.6h3.2v1.3h-3.2v1.8h3.5v1.4h-5v-7.4H439.7z"/>
			<path class="st7" d="M442.9,460.7v2.7h-1.5v-7.4h3c1.5,0,2.6,0.8,2.6,2.3c0,1.2-0.6,1.9-1.7,2.2l1.9,2.9h-1.7l-1.8-2.7H442.9z
				 M442.9,459.4h1.4c0.8,0,1.2-0.4,1.2-1c0-0.6-0.4-1-1.2-1h-1.4V459.4z"/>
		</g>
	</g>
	<line class="st1" x1="399.9" y1="418.9" x2="399.9" y2="434.9"/>
	<line class="st1" x1="399.9" y1="191.7" x2="399.9" y2="207.7"/>
	<line class="st1" x1="322.9" y1="166.6" x2="184.1" y2="166.6"/>
	<line class="st1" x1="322.9" y1="232.4" x2="283.3" y2="232.4"/>
	<line class="st1" x1="516.4" y1="232.4" x2="476.9" y2="232.4"/>
	<rect x="615.8" y="332.1" class="st2" width="153.8" height="50"/>
	<g>
		<g>
			<path class="st7" d="M654.3,358.5c0.2,0.6,0.7,0.9,1.5,0.9c0.7,0,1.2-0.3,1.2-0.9c0-0.4-0.3-0.7-0.9-0.8l-1.3-0.3
				c-1.1-0.2-1.9-0.8-1.9-2c0-1.3,1.1-2.3,2.7-2.3c1.7,0,2.7,0.9,2.9,2.1h-1.5c-0.2-0.5-0.6-0.9-1.4-0.9c-0.7,0-1.2,0.3-1.2,0.9
				c0,0.4,0.3,0.7,0.8,0.8l1.3,0.3c1.2,0.3,1.9,1,1.9,2.1c0,1.4-1.2,2.3-2.7,2.3c-1.6,0-2.8-0.8-3.1-2.2H654.3z"/>
			<path class="st7" d="M666.5,353.2v7.4h-1.5v-3.1h-3.3v3.1H660v-7.4h1.5v2.9h3.3v-2.9H666.5z"/>
			<path class="st7" d="M672.2,353.2l2.8,7.4h-1.6l-0.7-1.8H670l-0.6,1.8h-1.5l2.8-7.4H672.2z M670.5,357.5h1.8l-0.9-2.4
				L670.5,357.5z"/>
			<path class="st7" d="M677.9,357.8v2.7h-1.5v-7.4h3c1.5,0,2.6,0.8,2.6,2.3c0,1.2-0.6,1.9-1.7,2.2l1.9,2.9h-1.7l-1.8-2.7H677.9z
				 M677.9,356.6h1.4c0.8,0,1.2-0.4,1.2-1c0-0.6-0.4-1-1.2-1h-1.4V356.6z"/>
			<path class="st7" d="M688.6,353.2v1.3h-3.5v1.6h3.2v1.3h-3.2v1.8h3.5v1.4h-5v-7.4H688.6z"/>
			<path class="st7" d="M694.4,358.5c0.2,0.6,0.7,0.9,1.5,0.9c0.7,0,1.2-0.3,1.2-0.9c0-0.4-0.3-0.7-0.9-0.8l-1.3-0.3
				c-1.1-0.2-1.9-0.8-1.9-2c0-1.3,1.1-2.3,2.7-2.3c1.7,0,2.7,0.9,2.9,2.1H697c-0.2-0.5-0.6-0.9-1.4-0.9c-0.7,0-1.2,0.3-1.2,0.9
				c0,0.4,0.3,0.7,0.8,0.8l1.3,0.3c1.2,0.3,1.9,1,1.9,2.1c0,1.4-1.2,2.3-2.7,2.3c-1.6,0-2.8-0.8-3.1-2.2H694.4z"/>
			<path class="st7" d="M705.1,353.2v1.3h-3.5v1.6h3.2v1.3h-3.2v1.8h3.5v1.4h-5v-7.4H705.1z"/>
			<path class="st7" d="M706.8,353.2h1.5v6h3.4v1.4h-5V353.2z"/>
			<path class="st7" d="M713.4,353.2h1.5v6h3.4v1.4h-5V353.2z"/>
			<path class="st7" d="M724.9,353.2v1.3h-3.5v1.6h3.2v1.3h-3.2v1.8h3.5v1.4h-5v-7.4H724.9z"/>
			<path class="st7" d="M728.1,357.8v2.7h-1.5v-7.4h3c1.5,0,2.6,0.8,2.6,2.3c0,1.2-0.6,1.9-1.7,2.2l1.9,2.9h-1.7l-1.8-2.7H728.1z
				 M728.1,356.6h1.4c0.8,0,1.2-0.4,1.2-1c0-0.6-0.4-1-1.2-1h-1.4V356.6z"/>
		</g>
	</g>
	<polygon class="st10" points="670,466.1 516.2,466.1 516.2,416.1 593,416.1 670,416.1 	"/>
	<g>
		<g>
			<path class="st7" d="M569.8,436.5c0.2,0.6,0.7,0.9,1.5,0.9c0.7,0,1.2-0.3,1.2-0.9c0-0.4-0.3-0.7-0.9-0.8l-1.3-0.3
				c-1.1-0.2-1.9-0.8-1.9-2c0-1.3,1.1-2.3,2.7-2.3c1.7,0,2.7,0.9,2.9,2.1h-1.5c-0.2-0.5-0.6-0.9-1.4-0.9c-0.7,0-1.2,0.3-1.2,0.9
				c0,0.4,0.3,0.7,0.8,0.8l1.3,0.3c1.2,0.3,1.9,1,1.9,2.1c0,1.4-1.2,2.3-2.7,2.3c-1.6,0-2.8-0.8-3.1-2.2H569.8z"/>
			<path class="st7" d="M580.6,431.2v1.3h-3.5v1.6h3.2v1.3h-3.2v1.8h3.5v1.4h-5v-7.4H580.6z"/>
			<path class="st7" d="M582.3,431.2h1.5v6h3.4v1.4h-5V431.2z"/>
			<path class="st7" d="M588.8,431.2h1.5v6h3.4v1.4h-5V431.2z"/>
			<path class="st7" d="M600.4,431.2v1.3h-3.5v1.6h3.2v1.3h-3.2v1.8h3.5v1.4h-5v-7.4H600.4z"/>
			<path class="st7" d="M603.6,435.9v2.7h-1.5v-7.4h3c1.5,0,2.6,0.8,2.6,2.3c0,1.2-0.6,1.9-1.7,2.2l1.9,2.9h-1.7l-1.8-2.7H603.6z
				 M603.6,434.6h1.4c0.8,0,1.2-0.4,1.2-1c0-0.6-0.4-1-1.2-1h-1.4V434.6z"/>
			<path class="st7" d="M609.7,432.9c-0.4-0.1-0.7-0.4-0.7-0.9c0-0.5,0.4-0.9,0.9-0.9c0.5,0,0.9,0.4,0.9,1c0,0.4-0.2,0.8-0.4,1.1
				l-0.7,1h-0.9L609.7,432.9z"/>
			<path class="st7" d="M613.3,436.5c0.2,0.6,0.7,0.9,1.5,0.9c0.7,0,1.2-0.3,1.2-0.9c0-0.4-0.3-0.7-0.9-0.8l-1.3-0.3
				c-1.1-0.2-1.9-0.8-1.9-2c0-1.3,1.1-2.3,2.7-2.3c1.7,0,2.7,0.9,2.9,2.1H616c-0.2-0.5-0.6-0.9-1.4-0.9c-0.7,0-1.2,0.3-1.2,0.9
				c0,0.4,0.3,0.7,0.8,0.8l1.3,0.3c1.2,0.3,1.9,1,1.9,2.1c0,1.4-1.2,2.3-2.7,2.3c-1.6,0-2.8-0.8-3.1-2.2H613.3z"/>
			<path class="st7" d="M577.5,448.5c0,1.4-0.9,2.1-2.5,2.1h-3.1v-7.4h2.8c1.5,0,2.5,0.7,2.5,2c0,0.8-0.4,1.4-1,1.6
				C576.9,447,577.5,447.7,577.5,448.5z M574.6,446.3c0.7,0,1.1-0.3,1.1-0.9c0-0.6-0.4-0.9-1.1-0.9h-1.2v1.7H574.6z M573.4,449.3
				h1.5c0.7,0,1.1-0.4,1.1-0.9c0-0.6-0.4-0.9-1.1-0.9h-1.5V449.3z"/>
			<path class="st7" d="M580.6,447.9v2.7H579v-7.4h3c1.5,0,2.6,0.8,2.6,2.3c0,1.2-0.6,1.9-1.7,2.2l1.9,2.9h-1.7l-1.8-2.7H580.6z
				 M580.6,446.6h1.4c0.8,0,1.2-0.4,1.2-1c0-0.6-0.4-1-1.2-1h-1.4V446.6z"/>
			<path class="st7" d="M589.4,450.7c-2.1,0-3.5-1.6-3.5-3.8c0-2.2,1.4-3.8,3.5-3.8s3.5,1.6,3.5,3.8
				C592.9,449.1,591.4,450.7,589.4,450.7z M589.4,444.5c-1.2,0-1.9,1-1.9,2.4c0,1.4,0.8,2.4,1.9,2.4c1.2,0,1.9-1,1.9-2.4
				C591.3,445.5,590.6,444.5,589.4,444.5z"/>
			<path class="st7" d="M596,446.6l2.8-3.3h1.9l-2.8,3.3l2.9,4.1h-1.9l-2.2-3l-0.7,0.8v2.2h-1.5v-7.4h1.5V446.6z"/>
			<path class="st7" d="M607,443.2v1.3h-3.5v1.6h3.2v1.3h-3.2v1.8h3.5v1.4h-5v-7.4H607z"/>
			<path class="st7" d="M610.2,447.9v2.7h-1.5v-7.4h3c1.5,0,2.6,0.8,2.6,2.3c0,1.2-0.6,1.9-1.7,2.2l1.9,2.9h-1.7l-1.8-2.7H610.2z
				 M610.2,446.6h1.4c0.8,0,1.2-0.4,1.2-1c0-0.6-0.4-1-1.2-1h-1.4V446.6z"/>
		</g>
	</g>
	<rect x="516.2" y="207.6" class="st10" width="153.8" height="50"/>
	<g>
		<g>
			<path class="st7" d="M536,234c0.2,0.6,0.7,0.9,1.5,0.9c0.7,0,1.2-0.3,1.2-0.9c0-0.4-0.3-0.7-0.9-0.8l-1.3-0.3
				c-1.1-0.2-1.9-0.8-1.9-2c0-1.3,1.1-2.3,2.7-2.3c1.7,0,2.7,0.9,2.9,2.1h-1.5c-0.2-0.5-0.6-0.9-1.4-0.9c-0.7,0-1.2,0.3-1.2,0.9
				c0,0.4,0.3,0.7,0.8,0.8l1.3,0.3c1.2,0.3,1.9,1,1.9,2.1c0,1.4-1.2,2.3-2.7,2.3c-1.6,0-2.8-0.8-3.1-2.2H536z"/>
			<path class="st7" d="M546.8,228.7v1.3h-3.5v1.6h3.2v1.3h-3.2v1.8h3.5v1.4h-5v-7.4H546.8z"/>
			<path class="st7" d="M548.5,228.7h1.5v6h3.4v1.4h-5V228.7z"/>
			<path class="st7" d="M555,228.7h1.5v6h3.4v1.4h-5V228.7z"/>
			<path class="st7" d="M566.6,228.7v1.3h-3.5v1.6h3.2v1.3h-3.2v1.8h3.5v1.4h-5v-7.4H566.6z"/>
			<path class="st7" d="M569.8,233.3v2.7h-1.5v-7.4h3c1.5,0,2.6,0.8,2.6,2.3c0,1.2-0.6,1.9-1.7,2.2l1.9,2.9h-1.7l-1.8-2.7H569.8z
				 M569.8,232.1h1.4c0.8,0,1.2-0.4,1.2-1c0-0.6-0.4-1-1.2-1h-1.4V232.1z"/>
			<path class="st7" d="M575.9,230.4c-0.4-0.1-0.7-0.4-0.7-0.9c0-0.5,0.4-0.9,0.9-0.9c0.5,0,0.9,0.4,0.9,1c0,0.4-0.2,0.8-0.4,1.1
				l-0.7,1h-0.9L575.9,230.4z"/>
			<path class="st7" d="M579.5,234c0.2,0.6,0.7,0.9,1.5,0.9c0.7,0,1.2-0.3,1.2-0.9c0-0.4-0.3-0.7-0.9-0.8l-1.3-0.3
				c-1.1-0.2-1.9-0.8-1.9-2c0-1.3,1.1-2.3,2.7-2.3c1.7,0,2.7,0.9,2.9,2.1h-1.5c-0.2-0.5-0.6-0.9-1.4-0.9c-0.7,0-1.2,0.3-1.2,0.9
				c0,0.4,0.3,0.7,0.8,0.8l1.3,0.3c1.2,0.3,1.9,1,1.9,2.1c0,1.4-1.2,2.3-2.7,2.3c-1.6,0-2.8-0.8-3.1-2.2H579.5z"/>
			<path class="st7" d="M591.4,228.6c1.7,0,2.8,1,3.1,2.5h-1.5c-0.3-0.7-0.7-1.1-1.6-1.1c-1.2,0-1.9,1-1.9,2.4
				c0,1.4,0.7,2.4,1.9,2.4c0.9,0,1.3-0.5,1.6-1.1h1.5c-0.3,1.5-1.3,2.5-3.1,2.5c-2,0-3.4-1.5-3.4-3.8
				C587.9,230.2,589.4,228.6,591.4,228.6z"/>
			<path class="st7" d="M595.9,233.1v-4.4h1.5v4.2c0,1.3,0.6,1.9,1.5,1.9s1.5-0.6,1.5-1.9v-4.2h1.5v4.4c0,2-1.2,3.1-3.1,3.1
				C597.1,236.2,595.9,235.2,595.9,233.1z"/>
			<path class="st7" d="M604.8,234c0.2,0.6,0.7,0.9,1.5,0.9c0.7,0,1.2-0.3,1.2-0.9c0-0.4-0.3-0.7-0.9-0.8l-1.3-0.3
				c-1.1-0.2-1.9-0.8-1.9-2c0-1.3,1.1-2.3,2.7-2.3c1.7,0,2.7,0.9,2.9,2.1h-1.5c-0.2-0.5-0.6-0.9-1.4-0.9c-0.7,0-1.2,0.3-1.2,0.9
				c0,0.4,0.3,0.7,0.8,0.8l1.3,0.3c1.2,0.3,1.9,1,1.9,2.1c0,1.4-1.2,2.3-2.7,2.3c-1.6,0-2.8-0.8-3.1-2.2H604.8z"/>
			<path class="st7" d="M610.1,228.7h6.3v1.3H614v6h-1.5v-6h-2.4V228.7z"/>
			<path class="st7" d="M620.6,236.2c-2.1,0-3.5-1.6-3.5-3.8c0-2.2,1.4-3.8,3.5-3.8s3.5,1.6,3.5,3.8
				C624.1,234.6,622.7,236.2,620.6,236.2z M620.6,230c-1.2,0-1.9,1-1.9,2.4c0,1.4,0.8,2.4,1.9,2.4c1.2,0,1.9-1,1.9-2.4
				C622.5,231,621.8,230,620.6,230z"/>
			<path class="st7" d="M625.6,228.7h2.6c2.2,0,3.6,1.4,3.6,3.7c0,2.2-1.4,3.7-3.6,3.7h-2.6V228.7z M628.2,234.7
				c1.4,0,2.2-0.9,2.2-2.3c0-1.4-0.8-2.3-2.2-2.3h-1v4.7H628.2z"/>
			<path class="st7" d="M635,236.1h-1.5v-7.4h1.5V236.1z"/>
			<path class="st7" d="M640.7,228.7l2.8,7.4h-1.6l-0.7-1.8h-2.8l-0.6,1.8h-1.5l2.8-7.4H640.7z M639,233h1.8l-0.9-2.4L639,233z"/>
			<path class="st7" d="M651,236.1h-1.2l-3.5-4.9v4.9h-1.5v-7.4h1.4l3.3,4.7v-4.7h1.5V236.1z"/>
		</g>
	</g>
	<circle class="st10" cx="670" cy="441.1" r="4.5"/>
	<circle class="st10" cx="516.2" cy="441.1" r="4.5"/>
	<circle class="st22" cx="476.7" cy="393.9" r="4.5"/>
	<circle class="st22" cx="476.7" cy="298.9" r="4.5"/>
	<circle class="st22" cx="476.7" cy="232.6" r="4.5"/>
	<circle class="st10" cx="516.2" cy="232.6" r="4.5"/>
	<circle class="st10" cx="593.1" cy="257.6" r="4.5"/>
	<circle class="st10" cx="593.1" cy="416.1" r="4.5"/>
	<circle class="st2" cx="692.7" cy="332.1" r="4.5"/>
	<circle class="st2" cx="692.7" cy="382.1" r="4.5"/>
	
		<rect x="30.3" y="341.9" transform="matrix(-1 -4.489798e-11 4.489798e-11 -1 214.3638 733.8643)" class="st2" width="153.8" height="50"/>
	<polygon class="st10" points="129.3,466.4 283.1,466.4 283.1,416.4 206.3,416.4 129.3,416.4 	"/>
	
		<rect x="129.2" y="207.5" transform="matrix(-1 -4.489798e-11 4.489798e-11 -1 412.1108 465.0282)" class="st10" width="153.8" height="50"/>
	<circle class="st10" cx="283.3" cy="232.5" r="4.5"/>
	<circle class="st10" cx="129.6" cy="441.3" r="4.5"/>
	<circle class="st10" cx="283.3" cy="441.3" r="4.5"/>
	<circle class="st22" cx="322.9" cy="393.8" r="4.5"/>
	<circle class="st22" cx="322.9" cy="298.7" r="4.5"/>
	<circle class="st22" cx="322.9" cy="232.4" r="4.5"/>
	<circle class="st10" cx="206.4" cy="257.5" r="4.5"/>
	<circle class="st10" cx="206.4" cy="416.3" r="4.5"/>
	<circle class="st2" cx="106.9" cy="341.9" r="4.5"/>
	<circle class="st2" cx="106.9" cy="391.9" r="4.5"/>
	<g>
		<g>
			<path class="st7" d="M168.6,227.5v2.6h-1.5v-7.4h3c1.6,0,2.6,0.8,2.6,2.4c0,1.6-1,2.4-2.6,2.4H168.6z M170,223.9h-1.4v2.2h1.4
				c0.8,0,1.2-0.5,1.2-1.1C171.2,224.4,170.8,223.9,170,223.9z"/>
			<path class="st7" d="M174.1,227v-4.4h1.5v4.2c0,1.3,0.6,1.9,1.5,1.9s1.5-0.6,1.5-1.9v-4.2h1.5v4.4c0,2-1.2,3.1-3.1,3.1
				C175.3,230.1,174.1,229.1,174.1,227z"/>
			<path class="st7" d="M183.5,227.3v2.7H182v-7.4h3c1.5,0,2.6,0.8,2.6,2.3c0,1.2-0.6,1.9-1.7,2.2l1.9,2.9h-1.7l-1.8-2.7H183.5z
				 M183.5,226h1.4c0.8,0,1.2-0.4,1.2-1c0-0.6-0.4-1-1.2-1h-1.4V226z"/>
			<path class="st7" d="M192.3,222.5c1.7,0,2.8,1,3.1,2.5h-1.5c-0.3-0.7-0.7-1.1-1.6-1.1c-1.2,0-1.9,1-1.9,2.4
				c0,1.4,0.7,2.4,1.9,2.4c0.9,0,1.3-0.5,1.6-1.1h1.5c-0.3,1.5-1.3,2.5-3.1,2.5c-2,0-3.4-1.5-3.4-3.8
				C188.9,224.1,190.3,222.5,192.3,222.5z"/>
			<path class="st7" d="M203.3,222.6v7.4h-1.5v-3.1h-3.3v3.1h-1.5v-7.4h1.5v2.9h3.3v-2.9H203.3z"/>
			<path class="st7" d="M209,222.6l2.8,7.4h-1.6l-0.7-1.8h-2.8l-0.6,1.8h-1.5l2.8-7.4H209z M207.3,226.9h1.8l-0.9-2.4L207.3,226.9z"
				/>
			<path class="st7" d="M214.2,227.9c0.2,0.6,0.7,0.9,1.5,0.9c0.7,0,1.2-0.3,1.2-0.9c0-0.4-0.3-0.7-0.9-0.8l-1.3-0.3
				c-1.1-0.2-1.9-0.8-1.9-2c0-1.3,1.1-2.3,2.7-2.3c1.7,0,2.7,0.9,2.9,2.1h-1.5c-0.2-0.5-0.6-0.9-1.4-0.9c-0.7,0-1.2,0.3-1.2,0.9
				c0,0.4,0.3,0.7,0.8,0.8l1.3,0.3c1.2,0.3,1.9,1,1.9,2.1c0,1.4-1.2,2.3-2.7,2.3c-1.6,0-2.8-0.8-3.1-2.2H214.2z"/>
			<path class="st7" d="M225,222.6v1.3h-3.5v1.6h3.2v1.3h-3.2v1.8h3.5v1.4h-5v-7.4H225z"/>
			<path class="st7" d="M228.2,227.3v2.7h-1.5v-7.4h3c1.5,0,2.6,0.8,2.6,2.3c0,1.2-0.6,1.9-1.7,2.2l1.9,2.9h-1.7l-1.8-2.7H228.2z
				 M228.2,226h1.4c0.8,0,1.2-0.4,1.2-1c0-0.6-0.4-1-1.2-1h-1.4V226z"/>
			<path class="st7" d="M234.3,224.3c-0.4-0.1-0.7-0.4-0.7-0.9c0-0.5,0.4-0.9,0.9-0.9c0.5,0,0.9,0.4,0.9,1c0,0.4-0.2,0.8-0.4,1.1
				l-0.7,1h-0.9L234.3,224.3z"/>
			<path class="st7" d="M237.9,227.9c0.2,0.6,0.7,0.9,1.5,0.9c0.7,0,1.2-0.3,1.2-0.9c0-0.4-0.3-0.7-0.9-0.8l-1.3-0.3
				c-1.1-0.2-1.9-0.8-1.9-2c0-1.3,1.1-2.3,2.7-2.3c1.7,0,2.7,0.9,2.9,2.1h-1.5c-0.2-0.5-0.6-0.9-1.4-0.9c-0.7,0-1.2,0.3-1.2,0.9
				c0,0.4,0.3,0.7,0.8,0.8l1.3,0.3c1.2,0.3,1.9,1,1.9,2.1c0,1.4-1.2,2.3-2.7,2.3c-1.6,0-2.8-0.8-3.1-2.2H237.9z"/>
			<path class="st7" d="M177.6,234.5c1.7,0,2.8,1,3.1,2.5h-1.5c-0.3-0.7-0.7-1.1-1.6-1.1c-1.2,0-1.9,1-1.9,2.4
				c0,1.4,0.7,2.4,1.9,2.4c0.9,0,1.3-0.5,1.6-1.1h1.5c-0.3,1.5-1.3,2.5-3.1,2.5c-2,0-3.4-1.5-3.4-3.8
				C174.2,236.1,175.7,234.5,177.6,234.5z"/>
			<path class="st7" d="M182.1,239v-4.4h1.5v4.2c0,1.3,0.6,1.9,1.5,1.9s1.5-0.6,1.5-1.9v-4.2h1.5v4.4c0,2-1.2,3.1-3.1,3.1
				C183.4,242.1,182.1,241.1,182.1,239z"/>
			<path class="st7" d="M191.1,239.9c0.2,0.6,0.7,0.9,1.5,0.9c0.7,0,1.2-0.3,1.2-0.9c0-0.4-0.3-0.7-0.9-0.8l-1.3-0.3
				c-1.1-0.2-1.9-0.8-1.9-2c0-1.3,1.1-2.3,2.7-2.3c1.7,0,2.7,0.9,2.9,2.1h-1.5c-0.2-0.5-0.6-0.9-1.4-0.9c-0.7,0-1.2,0.3-1.2,0.9
				c0,0.4,0.3,0.7,0.8,0.8l1.3,0.3c1.2,0.3,1.9,1,1.9,2.1c0,1.4-1.2,2.3-2.7,2.3c-1.6,0-2.8-0.8-3.1-2.2H191.1z"/>
			<path class="st7" d="M196.4,234.6h6.3v1.3h-2.4v6h-1.5v-6h-2.4V234.6z"/>
			<path class="st7" d="M206.9,242.1c-2.1,0-3.5-1.6-3.5-3.8c0-2.2,1.4-3.8,3.5-3.8s3.5,1.6,3.5,3.8
				C210.4,240.5,208.9,242.1,206.9,242.1z M206.9,235.9c-1.2,0-1.9,1-1.9,2.4c0,1.4,0.8,2.4,1.9,2.4c1.2,0,1.9-1,1.9-2.4
				C208.8,236.9,208.1,235.9,206.9,235.9z"/>
			<path class="st7" d="M211.9,234.6h2.6c2.2,0,3.6,1.4,3.6,3.7c0,2.2-1.4,3.7-3.6,3.7h-2.6V234.6z M214.5,240.7
				c1.4,0,2.2-0.9,2.2-2.3c0-1.4-0.8-2.3-2.2-2.3h-1v4.7H214.5z"/>
			<path class="st7" d="M221.2,242h-1.5v-7.4h1.5V242z"/>
			<path class="st7" d="M226.9,234.6l2.8,7.4h-1.6l-0.7-1.8h-2.8l-0.6,1.8h-1.5l2.8-7.4H226.9z M225.3,238.9h1.8l-0.9-2.4
				L225.3,238.9z"/>
			<path class="st7" d="M237.3,242h-1.2l-3.5-4.9v4.9h-1.5v-7.4h1.4l3.3,4.7v-4.7h1.5V242z"/>
		</g>
	</g>
	<g>
		<g>
			<path class="st7" d="M55.7,368.3c0.2,0.6,0.7,0.9,1.5,0.9c0.7,0,1.2-0.3,1.2-0.9c0-0.4-0.3-0.7-0.9-0.8l-1.3-0.3
				c-1.1-0.2-1.9-0.8-1.9-2c0-1.3,1.1-2.3,2.7-2.3c1.7,0,2.7,0.9,2.9,2.1h-1.5c-0.2-0.5-0.6-0.9-1.4-0.9c-0.7,0-1.2,0.3-1.2,0.9
				c0,0.4,0.3,0.7,0.8,0.8l1.3,0.3c1.2,0.3,1.9,1,1.9,2.1c0,1.4-1.2,2.3-2.7,2.3c-1.6,0-2.8-0.8-3.1-2.2H55.7z"/>
			<path class="st7" d="M67.8,363.1v7.4h-1.5v-3.1H63v3.1h-1.5v-7.4H63v2.9h3.3v-2.9H67.8z"/>
			<path class="st7" d="M73.5,363.1l2.8,7.4h-1.6l-0.7-1.8h-2.8l-0.6,1.8h-1.5l2.8-7.4H73.5z M71.9,367.4h1.8l-0.9-2.4L71.9,367.4z"
				/>
			<path class="st7" d="M79.2,367.7v2.7h-1.5v-7.4h3c1.5,0,2.6,0.8,2.6,2.3c0,1.2-0.6,1.9-1.7,2.2l1.9,2.9h-1.7l-1.8-2.7H79.2z
				 M79.2,366.4h1.4c0.8,0,1.2-0.4,1.2-1c0-0.6-0.4-1-1.2-1h-1.4V366.4z"/>
			<path class="st7" d="M90,363.1v1.3h-3.5v1.6h3.2v1.3h-3.2v1.8H90v1.4h-5v-7.4H90z"/>
			<path class="st7" d="M96.2,367.9v2.6h-1.5v-7.4h3c1.6,0,2.6,0.8,2.6,2.4c0,1.6-1,2.4-2.6,2.4H96.2z M97.6,364.4h-1.4v2.2h1.4
				c0.8,0,1.2-0.5,1.2-1.1C98.7,364.8,98.3,364.4,97.6,364.4z"/>
			<path class="st7" d="M101.7,367.5v-4.4h1.5v4.2c0,1.3,0.6,1.9,1.5,1.9s1.5-0.6,1.5-1.9v-4.2h1.5v4.4c0,2-1.2,3.1-3.1,3.1
				C102.9,370.5,101.7,369.5,101.7,367.5z"/>
			<path class="st7" d="M111.1,367.7v2.7h-1.5v-7.4h3c1.5,0,2.6,0.8,2.6,2.3c0,1.2-0.6,1.9-1.7,2.2l1.9,2.9h-1.7l-1.8-2.7H111.1z
				 M111.1,366.4h1.4c0.8,0,1.2-0.4,1.2-1c0-0.6-0.4-1-1.2-1h-1.4V366.4z"/>
			<path class="st7" d="M119.9,362.9c1.7,0,2.8,1,3.1,2.5h-1.5c-0.3-0.7-0.7-1.1-1.6-1.1c-1.2,0-1.9,1-1.9,2.4
				c0,1.4,0.7,2.4,1.9,2.4c0.9,0,1.3-0.5,1.6-1.1h1.5c-0.3,1.5-1.3,2.5-3.1,2.5c-2,0-3.4-1.5-3.4-3.8S117.9,362.9,119.9,362.9z"/>
			<path class="st7" d="M130.9,363.1v7.4h-1.5v-3.1H126v3.1h-1.5v-7.4h1.5v2.9h3.3v-2.9H130.9z"/>
			<path class="st7" d="M136.6,363.1l2.8,7.4h-1.6l-0.7-1.8h-2.8l-0.6,1.8h-1.5l2.8-7.4H136.6z M134.9,367.4h1.8l-0.9-2.4
				L134.9,367.4z"/>
			<path class="st7" d="M141.8,368.3c0.2,0.6,0.7,0.9,1.5,0.9c0.7,0,1.2-0.3,1.2-0.9c0-0.4-0.3-0.7-0.9-0.8l-1.3-0.3
				c-1.1-0.2-1.9-0.8-1.9-2c0-1.3,1.1-2.3,2.7-2.3c1.7,0,2.7,0.9,2.9,2.1h-1.5c-0.2-0.5-0.6-0.9-1.4-0.9c-0.7,0-1.2,0.3-1.2,0.9
				c0,0.4,0.3,0.7,0.8,0.8l1.3,0.3c1.2,0.3,1.9,1,1.9,2.1c0,1.4-1.2,2.3-2.7,2.3c-1.6,0-2.8-0.8-3.1-2.2H141.8z"/>
			<path class="st7" d="M152.5,363.1v1.3h-3.5v1.6h3.2v1.3h-3.2v1.8h3.5v1.4h-5v-7.4H152.5z"/>
			<path class="st7" d="M155.7,367.7v2.7h-1.5v-7.4h3c1.5,0,2.6,0.8,2.6,2.3c0,1.2-0.6,1.9-1.7,2.2l1.9,2.9h-1.7l-1.8-2.7H155.7z
				 M155.7,366.4h1.4c0.8,0,1.2-0.4,1.2-1c0-0.6-0.4-1-1.2-1h-1.4V366.4z"/>
		</g>
	</g>
	<g>
		<g>
			<path class="st7" d="M170.3,436.3v2.6h-1.5v-7.4h3c1.6,0,2.6,0.8,2.6,2.4c0,1.6-1,2.4-2.6,2.4H170.3z M171.6,432.8h-1.4v2.2h1.4
				c0.8,0,1.2-0.5,1.2-1.1C172.8,433.3,172.4,432.8,171.6,432.8z"/>
			<path class="st7" d="M175.7,435.9v-4.4h1.5v4.2c0,1.3,0.6,1.9,1.5,1.9s1.5-0.6,1.5-1.9v-4.2h1.5v4.4c0,2-1.2,3.1-3.1,3.1
				C177,439,175.7,437.9,175.7,435.9z"/>
			<path class="st7" d="M185.2,436.1v2.7h-1.5v-7.4h3c1.5,0,2.6,0.8,2.6,2.3c0,1.2-0.6,1.9-1.7,2.2l1.9,2.9h-1.7l-1.8-2.7H185.2z
				 M185.2,434.9h1.4c0.8,0,1.2-0.4,1.2-1c0-0.6-0.4-1-1.2-1h-1.4V434.9z"/>
			<path class="st7" d="M194,431.4c1.7,0,2.8,1,3.1,2.5h-1.5c-0.3-0.7-0.7-1.1-1.6-1.1c-1.2,0-1.9,1-1.9,2.4c0,1.4,0.7,2.4,1.9,2.4
				c0.9,0,1.3-0.5,1.6-1.1h1.5c-0.3,1.5-1.3,2.5-3.1,2.5c-2,0-3.4-1.5-3.4-3.8C190.5,432.9,192,431.4,194,431.4z"/>
			<path class="st7" d="M205,431.5v7.4h-1.5v-3.1h-3.3v3.1h-1.5v-7.4h1.5v2.9h3.3v-2.9H205z"/>
			<path class="st7" d="M210.7,431.5l2.8,7.4h-1.6l-0.7-1.8h-2.8l-0.6,1.8h-1.5l2.8-7.4H210.7z M209,435.8h1.8l-0.9-2.4L209,435.8z"
				/>
			<path class="st7" d="M215.9,436.8c0.2,0.6,0.7,0.9,1.5,0.9c0.7,0,1.2-0.3,1.2-0.9c0-0.4-0.3-0.7-0.9-0.8l-1.3-0.3
				c-1.1-0.2-1.9-0.8-1.9-2c0-1.3,1.1-2.3,2.7-2.3c1.7,0,2.7,0.9,2.9,2.1h-1.5c-0.2-0.5-0.6-0.9-1.4-0.9c-0.7,0-1.2,0.3-1.2,0.9
				c0,0.4,0.3,0.7,0.8,0.8l1.3,0.3c1.2,0.3,1.9,1,1.9,2.1c0,1.4-1.2,2.3-2.7,2.3c-1.6,0-2.8-0.8-3.1-2.2H215.9z"/>
			<path class="st7" d="M226.6,431.5v1.3h-3.5v1.6h3.2v1.3h-3.2v1.8h3.5v1.4h-5v-7.4H226.6z"/>
			<path class="st7" d="M229.8,436.1v2.7h-1.5v-7.4h3c1.5,0,2.6,0.8,2.6,2.3c0,1.2-0.6,1.9-1.7,2.2l1.9,2.9h-1.7l-1.8-2.7H229.8z
				 M229.8,434.9h1.4c0.8,0,1.2-0.4,1.2-1c0-0.6-0.4-1-1.2-1h-1.4V434.9z"/>
			<path class="st7" d="M236,433.2c-0.4-0.1-0.7-0.4-0.7-0.9c0-0.5,0.4-0.9,0.9-0.9c0.5,0,0.9,0.4,0.9,1c0,0.4-0.2,0.8-0.4,1.1
				l-0.7,1h-0.9L236,433.2z"/>
			<path class="st7" d="M239.6,436.8c0.2,0.6,0.7,0.9,1.5,0.9c0.7,0,1.2-0.3,1.2-0.9c0-0.4-0.3-0.7-0.9-0.8l-1.3-0.3
				c-1.1-0.2-1.9-0.8-1.9-2c0-1.3,1.1-2.3,2.7-2.3c1.7,0,2.7,0.9,2.9,2.1h-1.5c-0.2-0.5-0.6-0.9-1.4-0.9c-0.7,0-1.2,0.3-1.2,0.9
				c0,0.4,0.3,0.7,0.8,0.8l1.3,0.3c1.2,0.3,1.9,1,1.9,2.1c0,1.4-1.2,2.3-2.7,2.3c-1.6,0-2.8-0.8-3.1-2.2H239.6z"/>
			<path class="st7" d="M190.6,448.8c0,1.4-0.9,2.1-2.5,2.1H185v-7.4h2.8c1.5,0,2.5,0.7,2.5,2c0,0.8-0.4,1.4-1,1.6
				C190,447.3,190.6,448,190.6,448.8z M187.7,446.5c0.7,0,1.1-0.3,1.1-0.9c0-0.6-0.4-0.9-1.1-0.9h-1.2v1.7H187.7z M186.5,449.6h1.5
				c0.7,0,1.1-0.4,1.1-0.9c0-0.6-0.4-0.9-1.1-0.9h-1.5V449.6z"/>
			<path class="st7" d="M193.7,448.1v2.7h-1.5v-7.4h3c1.5,0,2.6,0.8,2.6,2.3c0,1.2-0.6,1.9-1.7,2.2l1.9,2.9h-1.7l-1.8-2.7H193.7z
				 M193.7,446.9h1.4c0.8,0,1.2-0.4,1.2-1c0-0.6-0.4-1-1.2-1h-1.4V446.9z"/>
			<path class="st7" d="M202.5,451c-2.1,0-3.5-1.6-3.5-3.8c0-2.2,1.4-3.8,3.5-3.8s3.5,1.6,3.5,3.8C206,449.4,204.5,451,202.5,451z
				 M202.5,444.7c-1.2,0-1.9,1-1.9,2.4c0,1.4,0.8,2.4,1.9,2.4c1.2,0,1.9-1,1.9-2.4C204.4,445.7,203.7,444.7,202.5,444.7z"/>
			<path class="st7" d="M209.1,446.8l2.8-3.3h1.9l-2.8,3.3l2.9,4.1h-1.9l-2.2-3l-0.7,0.8v2.2h-1.5v-7.4h1.5V446.8z"/>
			<path class="st7" d="M220.1,443.5v1.3h-3.5v1.6h3.2v1.3h-3.2v1.8h3.5v1.4h-5v-7.4H220.1z"/>
			<path class="st7" d="M223.3,448.1v2.7h-1.5v-7.4h3c1.5,0,2.6,0.8,2.6,2.3c0,1.2-0.6,1.9-1.7,2.2l1.9,2.9H226l-1.8-2.7H223.3z
				 M223.3,446.9h1.4c0.8,0,1.2-0.4,1.2-1c0-0.6-0.4-1-1.2-1h-1.4V446.9z"/>
		</g>
	</g>
	<circle class="st10" cx="323.1" cy="166.7" r="4.5"/>
	<circle class="st10" cx="400" cy="191.7" r="4.5"/>
	<circle class="st2" cx="399.7" cy="434.7" r="4.5"/>
	<circle class="st22" cx="400" cy="418.9" r="4.5"/>
	<circle class="st22" cx="400" cy="207.7" r="4.5"/>
	<g>
		<g>
			<path class="st5" d="M37.3,34.3c0,1-0.3,1.7-0.9,2.2c-0.6,0.5-1.5,0.7-2.6,0.7h-2.3v4.4h-1.1V31.4h3.4c1.1,0,2,0.2,2.6,0.7
				C37,32.6,37.3,33.3,37.3,34.3z M36.2,34.3c0-0.7-0.2-1.2-0.7-1.5c-0.4-0.3-1-0.5-1.8-0.5h-2.3v4h2.3c0.7,0,1.3-0.2,1.8-0.5
				C36,35.5,36.2,35,36.2,34.3z"/>
			<path class="st5" d="M46.9,36.5c0,0.7-0.1,1.3-0.2,2c-0.1,0.6-0.4,1.2-0.7,1.7s-0.7,0.9-1.2,1.2s-1.1,0.4-1.8,0.4
				s-1.3-0.1-1.8-0.4s-0.9-0.7-1.2-1.2s-0.5-1-0.7-1.7c-0.1-0.6-0.2-1.3-0.2-2c0-0.7,0.1-1.3,0.2-2c0.1-0.6,0.4-1.2,0.7-1.7
				c0.3-0.5,0.7-0.9,1.2-1.2c0.5-0.3,1.1-0.4,1.8-0.4s1.3,0.1,1.8,0.4c0.5,0.3,0.9,0.7,1.2,1.2c0.3,0.5,0.5,1.1,0.7,1.7
				C46.9,35.2,46.9,35.8,46.9,36.5z M45.8,36.5c0-0.7-0.1-1.3-0.2-1.8c-0.1-0.5-0.3-1-0.5-1.4c-0.2-0.4-0.5-0.7-0.9-0.9
				c-0.4-0.2-0.8-0.3-1.2-0.3c-0.6,0-1,0.1-1.4,0.4c-0.4,0.3-0.7,0.6-0.9,1c-0.2,0.4-0.4,0.9-0.5,1.4s-0.1,1-0.1,1.5
				c0,0.5,0,1,0.1,1.5c0.1,0.5,0.2,1,0.5,1.4c0.2,0.4,0.5,0.8,0.9,1c0.4,0.3,0.8,0.4,1.4,0.4c0.6,0,1-0.1,1.4-0.4
				c0.4-0.3,0.7-0.6,0.9-1s0.4-0.9,0.5-1.4C45.8,37.5,45.8,37,45.8,36.5z"/>
			<path class="st5" d="M55.8,38.9c0,0.4-0.1,0.8-0.3,1.2c-0.2,0.3-0.4,0.6-0.7,0.9s-0.6,0.4-1,0.6s-0.8,0.2-1.2,0.2
				c-0.6,0-1.1-0.1-1.6-0.3s-0.9-0.5-1.1-0.9v1.1h-0.9v-3.1h0.9c0,0.3,0.1,0.7,0.2,1s0.4,0.5,0.6,0.7c0.2,0.2,0.5,0.4,0.9,0.5
				s0.7,0.2,1,0.2c0.3,0,0.6,0,0.8-0.1s0.5-0.2,0.7-0.4c0.2-0.2,0.3-0.4,0.5-0.6c0.1-0.2,0.2-0.5,0.2-0.8c0-0.3-0.1-0.6-0.2-0.8
				s-0.3-0.4-0.6-0.6c-0.2-0.2-0.5-0.3-0.8-0.4s-0.6-0.2-0.9-0.3c-0.4-0.1-0.7-0.3-1.1-0.4c-0.4-0.1-0.7-0.3-1-0.5s-0.5-0.5-0.7-0.8
				c-0.2-0.3-0.3-0.7-0.3-1.2c0-0.4,0.1-0.8,0.3-1.1c0.2-0.3,0.4-0.6,0.7-0.8c0.3-0.2,0.6-0.4,1-0.5s0.8-0.2,1.2-0.2
				c0.5,0,1,0.1,1.4,0.3s0.7,0.5,1,0.9v-1.1h0.9v2.9h-0.9c0-0.3-0.1-0.6-0.2-0.9c-0.1-0.3-0.3-0.5-0.5-0.7c-0.2-0.2-0.5-0.3-0.8-0.5
				c-0.3-0.1-0.6-0.2-0.9-0.2c-0.3,0-0.5,0-0.8,0.1s-0.5,0.2-0.7,0.3c-0.2,0.1-0.3,0.3-0.4,0.5s-0.2,0.5-0.2,0.8
				c0,0.3,0.1,0.5,0.2,0.7s0.3,0.4,0.5,0.5c0.2,0.1,0.5,0.3,0.8,0.4s0.6,0.2,0.9,0.4c0.4,0.1,0.8,0.3,1.1,0.5c0.4,0.2,0.7,0.4,1,0.6
				s0.5,0.5,0.7,0.9C55.7,38,55.8,38.4,55.8,38.9z"/>
			<path class="st5" d="M65.4,34.8h-0.9v-2.5h-2.2v8.4H64v0.9h-4.4v-0.9h1.6v-8.4H59v2.5h-0.9v-3.4h7.3V34.8z"/>
			<path class="st5" d="M74.8,38.3h-7.3v-0.9h7.3V38.3z"/>
			<path class="st5" d="M84.2,34.8h-0.9v-2.5h-2.2v8.4h1.6v0.9h-4.4v-0.9H80v-8.4h-2.2v2.5h-0.9v-3.4h7.3V34.8z"/>
			<path class="st5" d="M93.6,41.6h-1.4l-3-4.4h-1.6v4.4h-1.1V31.4H90c1.1,0,2,0.2,2.6,0.7c0.6,0.5,0.9,1.2,0.9,2.2
				c0,0.4-0.1,0.8-0.2,1.2c-0.2,0.3-0.4,0.6-0.6,0.9c-0.3,0.2-0.6,0.4-0.9,0.6c-0.4,0.1-0.8,0.2-1.2,0.3L93.6,41.6z M92.4,34.3
				c0-0.7-0.2-1.2-0.6-1.5s-1-0.5-1.8-0.5h-2.3v4H90c0.8,0,1.3-0.2,1.8-0.5C92.2,35.5,92.4,35,92.4,34.3z"/>
			<path class="st5" d="M103.4,41.6h-1.1l-1-2.9h-4l-0.9,2.9h-1.1l3.4-10.2h1.5L103.4,41.6z M101,37.7l-1.7-5.3l-1.7,5.3H101z"/>
			<path class="st5" d="M112.6,36.5c0,0.7-0.1,1.3-0.2,1.9c-0.1,0.6-0.4,1.2-0.7,1.6c-0.3,0.5-0.7,0.8-1.2,1.1
				c-0.5,0.3-1.1,0.4-1.8,0.4h-3.3V31.4h3.3c0.7,0,1.3,0.1,1.8,0.4c0.5,0.3,0.9,0.7,1.2,1.1c0.3,0.5,0.5,1,0.7,1.6
				C112.5,35.2,112.6,35.8,112.6,36.5z M111.5,36.5c0-1.3-0.3-2.4-0.8-3.1c-0.5-0.7-1.2-1.1-2.1-1.1h-2.2v8.4h2.2
				c0.9,0,1.6-0.4,2.1-1.1C111.3,38.9,111.5,37.8,111.5,36.5z"/>
			<path class="st5" d="M121.3,41.6h-6.5V31.4h6.5v0.9h-5.4V36h4v0.9h-4v3.8h5.4V41.6z"/>
			<path class="st5" d="M140.1,38.9c0,0.4-0.1,0.8-0.3,1.2c-0.2,0.3-0.4,0.6-0.7,0.9s-0.6,0.4-1,0.6c-0.4,0.1-0.8,0.2-1.2,0.2
				c-0.6,0-1.1-0.1-1.6-0.3c-0.5-0.2-0.9-0.5-1.1-0.9v1.1h-0.9v-3.1h0.9c0,0.3,0.1,0.7,0.2,1c0.2,0.3,0.4,0.5,0.6,0.7
				c0.2,0.2,0.5,0.4,0.9,0.5c0.3,0.1,0.7,0.2,1,0.2c0.3,0,0.6,0,0.8-0.1c0.3-0.1,0.5-0.2,0.7-0.4c0.2-0.2,0.3-0.4,0.5-0.6
				c0.1-0.2,0.2-0.5,0.2-0.8c0-0.3-0.1-0.6-0.2-0.8c-0.1-0.2-0.3-0.4-0.6-0.6c-0.2-0.2-0.5-0.3-0.8-0.4c-0.3-0.1-0.6-0.2-0.9-0.3
				c-0.4-0.1-0.7-0.3-1.1-0.4c-0.4-0.1-0.7-0.3-1-0.5c-0.3-0.2-0.5-0.5-0.7-0.8c-0.2-0.3-0.3-0.7-0.3-1.2c0-0.4,0.1-0.8,0.3-1.1
				c0.2-0.3,0.4-0.6,0.7-0.8c0.3-0.2,0.6-0.4,1-0.5c0.4-0.1,0.8-0.2,1.2-0.2c0.5,0,1,0.1,1.4,0.3c0.4,0.2,0.7,0.5,1,0.9v-1.1h0.9
				v2.9h-0.9c0-0.3-0.1-0.6-0.2-0.9c-0.1-0.3-0.3-0.5-0.5-0.7c-0.2-0.2-0.5-0.3-0.8-0.5c-0.3-0.1-0.6-0.2-0.9-0.2
				c-0.3,0-0.5,0-0.8,0.1s-0.5,0.2-0.7,0.3c-0.2,0.1-0.3,0.3-0.4,0.5c-0.1,0.2-0.2,0.5-0.2,0.8c0,0.3,0.1,0.5,0.2,0.7
				s0.3,0.4,0.5,0.5c0.2,0.1,0.5,0.3,0.8,0.4c0.3,0.1,0.6,0.2,0.9,0.4c0.4,0.1,0.8,0.3,1.1,0.5c0.4,0.2,0.7,0.4,1,0.6
				c0.3,0.2,0.5,0.5,0.7,0.9C140,38,140.1,38.4,140.1,38.9z"/>
			<path class="st5" d="M149.4,41.6h-6.5V31.4h6.5v0.9h-5.4V36h4v0.9h-4v3.8h5.4V41.6z"/>
			<path class="st5" d="M159.2,38.9c-0.3,0.9-0.7,1.6-1.3,2.1c-0.6,0.5-1.4,0.8-2.3,0.8c-0.7,0-1.3-0.1-1.8-0.4s-0.9-0.7-1.2-1.2
				s-0.5-1-0.7-1.7c-0.1-0.6-0.2-1.3-0.2-2c0-0.7,0.1-1.3,0.2-2c0.1-0.6,0.4-1.2,0.7-1.7c0.3-0.5,0.7-0.9,1.2-1.2
				c0.5-0.3,1.1-0.4,1.8-0.4c0.6,0,1.2,0.1,1.6,0.3c0.4,0.2,0.8,0.6,1,1v-1.2h0.9v3.3h-0.9c0-0.4-0.1-0.7-0.2-1s-0.3-0.6-0.6-0.8
				s-0.5-0.4-0.8-0.6s-0.7-0.2-1-0.2c-0.6,0-1,0.1-1.4,0.4c-0.4,0.3-0.7,0.6-0.9,1s-0.4,0.9-0.5,1.4s-0.1,1-0.1,1.5
				c0,0.5,0,1,0.1,1.5c0.1,0.5,0.2,1,0.5,1.4s0.5,0.8,0.9,1c0.4,0.3,0.8,0.4,1.4,0.4c1.3,0,2.2-0.8,2.7-2.3L159.2,38.9z"/>
			<path class="st5" d="M168.1,38c0,0.6-0.1,1.1-0.2,1.6s-0.3,0.9-0.6,1.2c-0.3,0.3-0.6,0.6-1,0.8s-0.9,0.3-1.5,0.3
				c-0.6,0-1.1-0.1-1.5-0.3s-0.7-0.4-1-0.8c-0.3-0.3-0.5-0.7-0.6-1.2c-0.1-0.5-0.2-1-0.2-1.6v-6.5h1.1V38c0,0.3,0,0.6,0.1,1
				s0.2,0.7,0.3,0.9c0.2,0.3,0.4,0.5,0.7,0.7s0.7,0.3,1.1,0.3s0.8-0.1,1.1-0.3c0.3-0.2,0.5-0.4,0.7-0.7c0.2-0.3,0.3-0.6,0.3-0.9
				s0.1-0.7,0.1-1v-6.6h1.1V38z"/>
			<path class="st5" d="M178,41.6h-1.4l-3-4.4h-1.6v4.4H171V31.4h3.4c1.1,0,2,0.2,2.6,0.7c0.6,0.5,0.9,1.2,0.9,2.2
				c0,0.4-0.1,0.8-0.2,1.2c-0.2,0.3-0.4,0.6-0.6,0.9c-0.3,0.2-0.6,0.4-0.9,0.6c-0.4,0.1-0.8,0.2-1.2,0.3L178,41.6z M176.8,34.3
				c0-0.7-0.2-1.2-0.6-1.5s-1-0.5-1.8-0.5h-2.3v4h2.3c0.8,0,1.3-0.2,1.8-0.5C176.6,35.5,176.8,35,176.8,34.3z"/>
			<path class="st5" d="M185.8,41.6h-4.4v-0.9h1.6v-8.4h-1.6v-0.9h4.4v0.9h-1.6v8.4h1.6V41.6z"/>
			<path class="st5" d="M196.6,34.8h-0.9v-2.5h-2.2v8.4h1.6v0.9h-4.4v-0.9h1.6v-8.4h-2.2v2.5h-0.9v-3.4h7.3V34.8z"/>
			<path class="st5" d="M204.6,41.6h-4.4v-0.9h1.6v-8.4h-1.6v-0.9h4.4v0.9h-1.6v8.4h1.6V41.6z"/>
			<path class="st5" d="M215,41.6h-6.5V31.4h6.5v0.9h-5.4V36h4v0.9h-4v3.8h5.4V41.6z"/>
			<path class="st5" d="M224.5,38.9c0,0.4-0.1,0.8-0.3,1.2c-0.2,0.3-0.4,0.6-0.7,0.9s-0.6,0.4-1,0.6s-0.8,0.2-1.2,0.2
				c-0.6,0-1.1-0.1-1.6-0.3s-0.9-0.5-1.1-0.9v1.1h-0.9v-3.1h0.9c0,0.3,0.1,0.7,0.2,1s0.4,0.5,0.6,0.7c0.2,0.2,0.5,0.4,0.9,0.5
				s0.7,0.2,1,0.2c0.3,0,0.6,0,0.8-0.1s0.5-0.2,0.7-0.4c0.2-0.2,0.3-0.4,0.5-0.6c0.1-0.2,0.2-0.5,0.2-0.8c0-0.3-0.1-0.6-0.2-0.8
				s-0.3-0.4-0.6-0.6c-0.2-0.2-0.5-0.3-0.8-0.4s-0.6-0.2-0.9-0.3c-0.4-0.1-0.7-0.3-1.1-0.4c-0.4-0.1-0.7-0.3-1-0.5s-0.5-0.5-0.7-0.8
				c-0.2-0.3-0.3-0.7-0.3-1.2c0-0.4,0.1-0.8,0.3-1.1c0.2-0.3,0.4-0.6,0.7-0.8c0.3-0.2,0.6-0.4,1-0.5s0.8-0.2,1.2-0.2
				c0.5,0,1,0.1,1.4,0.3s0.7,0.5,1,0.9v-1.1h0.9v2.9h-0.9c0-0.3-0.1-0.6-0.2-0.9c-0.1-0.3-0.3-0.5-0.5-0.7c-0.2-0.2-0.5-0.3-0.8-0.5
				c-0.3-0.1-0.6-0.2-0.9-0.2c-0.3,0-0.5,0-0.8,0.1s-0.5,0.2-0.7,0.3c-0.2,0.1-0.3,0.3-0.4,0.5s-0.2,0.5-0.2,0.8
				c0,0.3,0.1,0.5,0.2,0.7s0.3,0.4,0.5,0.5c0.2,0.1,0.5,0.3,0.8,0.4s0.6,0.2,0.9,0.4c0.4,0.1,0.8,0.3,1.1,0.5c0.4,0.2,0.7,0.4,1,0.6
				s0.5,0.5,0.7,0.9C224.4,38,224.5,38.4,224.5,38.9z"/>
			<path class="st5" d="M243.6,38.9c-0.3,0.9-0.7,1.6-1.3,2.1c-0.6,0.5-1.4,0.8-2.3,0.8c-0.7,0-1.3-0.1-1.8-0.4s-0.9-0.7-1.2-1.2
				s-0.5-1-0.7-1.7c-0.1-0.6-0.2-1.3-0.2-2c0-0.7,0.1-1.3,0.2-2c0.1-0.6,0.4-1.2,0.7-1.7c0.3-0.5,0.7-0.9,1.2-1.2
				c0.5-0.3,1.1-0.4,1.8-0.4c0.6,0,1.2,0.1,1.6,0.3c0.4,0.2,0.8,0.6,1,1v-1.2h0.9v3.3h-0.9c0-0.4-0.1-0.7-0.2-1s-0.3-0.6-0.6-0.8
				s-0.5-0.4-0.8-0.6s-0.7-0.2-1-0.2c-0.6,0-1,0.1-1.4,0.4c-0.4,0.3-0.7,0.6-0.9,1s-0.4,0.9-0.5,1.4s-0.1,1-0.1,1.5
				c0,0.5,0,1,0.1,1.5c0.1,0.5,0.2,1,0.5,1.4s0.5,0.8,0.9,1c0.4,0.3,0.8,0.4,1.4,0.4c1.3,0,2.2-0.8,2.7-2.3L243.6,38.9z"/>
			<path class="st5" d="M252.5,41.6H246V31.4h1.1v9.3h5.4V41.6z"/>
			<path class="st5" d="M261.9,41.6h-6.5V31.4h6.5v0.9h-5.4V36h4v0.9h-4v3.8h5.4V41.6z"/>
			<path class="st5" d="M272.1,41.6H271l-1-2.9h-4l-0.9,2.9h-1.1l3.4-10.2h1.5L272.1,41.6z M269.7,37.7l-1.7-5.3l-1.7,5.3H269.7z"/>
			<path class="st5" d="M281.1,41.6h-1.4l-3-4.4h-1.6v4.4h-1.1V31.4h3.4c1.1,0,2,0.2,2.6,0.7c0.6,0.5,0.9,1.2,0.9,2.2
				c0,0.4-0.1,0.8-0.2,1.2c-0.2,0.3-0.4,0.6-0.6,0.9c-0.3,0.2-0.6,0.4-0.9,0.6c-0.4,0.1-0.8,0.2-1.2,0.3L281.1,41.6z M279.9,34.3
				c0-0.7-0.2-1.2-0.6-1.5s-1-0.5-1.8-0.5h-2.3v4h2.3c0.8,0,1.3-0.2,1.8-0.5C279.7,35.5,279.9,35,279.9,34.3z"/>
			<path class="st5" d="M288.9,41.6h-4.4v-0.9h1.6v-8.4h-1.6v-0.9h4.4v0.9h-1.6v8.4h1.6V41.6z"/>
			<path class="st5" d="M299.4,41.6h-1.3l-4.1-8.6v8.6h-1.1V31.4h1.5l3.9,8.2v-8.2h1.1V41.6z"/>
			<path class="st5" d="M309.5,36.5c0,0.7-0.1,1.4-0.2,2c-0.1,0.6-0.4,1.2-0.7,1.7s-0.7,0.9-1.2,1.2s-1.1,0.4-1.8,0.4
				c-0.7,0-1.3-0.1-1.8-0.4s-0.9-0.7-1.2-1.2s-0.5-1-0.7-1.7c-0.1-0.6-0.2-1.3-0.2-2c0-0.7,0.1-1.3,0.2-2c0.1-0.6,0.4-1.2,0.7-1.7
				c0.3-0.5,0.7-0.9,1.2-1.2c0.5-0.3,1.1-0.4,1.8-0.4c0.6,0,1.2,0.1,1.6,0.3c0.4,0.2,0.8,0.6,1,1v-1.2h0.9v3.3h-0.9
				c0-0.4-0.1-0.7-0.2-1s-0.3-0.6-0.6-0.8c-0.2-0.2-0.5-0.4-0.8-0.5s-0.7-0.2-1-0.2c-0.6,0-1,0.1-1.4,0.4c-0.4,0.3-0.7,0.6-0.9,1
				s-0.4,0.9-0.5,1.4s-0.1,1-0.1,1.5c0,0.5,0,1,0.1,1.5c0.1,0.5,0.2,1,0.5,1.4s0.5,0.8,0.9,1c0.4,0.3,0.8,0.4,1.4,0.4
				c0.8,0,1.5-0.3,1.9-1c0.5-0.6,0.8-1.5,0.8-2.7h-2.3v-0.9h3.4V36.5z"/>
			<path class="st5" d="M327.9,34.8H327v-2.5h-2.2v8.4h1.6v0.9h-4.4v-0.9h1.6v-8.4h-2.2v2.5h-0.9v-3.4h7.3V34.8z"/>
			<path class="st5" d="M337.5,36.5c0,0.7-0.1,1.3-0.2,2c-0.1,0.6-0.4,1.2-0.7,1.7s-0.7,0.9-1.2,1.2s-1.1,0.4-1.8,0.4
				s-1.3-0.1-1.8-0.4s-0.9-0.7-1.2-1.2s-0.5-1-0.7-1.7c-0.1-0.6-0.2-1.3-0.2-2c0-0.7,0.1-1.3,0.2-2c0.1-0.6,0.4-1.2,0.7-1.7
				c0.3-0.5,0.7-0.9,1.2-1.2c0.5-0.3,1.1-0.4,1.8-0.4s1.3,0.1,1.8,0.4c0.5,0.3,0.9,0.7,1.2,1.2c0.3,0.5,0.5,1.1,0.7,1.7
				C337.5,35.2,337.5,35.8,337.5,36.5z M336.4,36.5c0-0.7-0.1-1.3-0.2-1.8c-0.1-0.5-0.3-1-0.5-1.4c-0.2-0.4-0.5-0.7-0.9-0.9
				c-0.4-0.2-0.8-0.3-1.2-0.3c-0.6,0-1,0.1-1.4,0.4c-0.4,0.3-0.7,0.6-0.9,1s-0.4,0.9-0.5,1.4s-0.1,1-0.1,1.5c0,0.5,0,1,0.1,1.5
				c0.1,0.5,0.2,1,0.5,1.4s0.5,0.8,0.9,1c0.4,0.3,0.8,0.4,1.4,0.4c0.6,0,1-0.1,1.4-0.4c0.4-0.3,0.7-0.6,0.9-1
				c0.2-0.4,0.4-0.9,0.5-1.4C336.4,37.5,336.4,37,336.4,36.5z"/>
			<path class="st5" d="M347,36.5c0,0.7-0.1,1.3-0.2,1.9s-0.4,1.2-0.7,1.6c-0.3,0.5-0.7,0.8-1.2,1.1c-0.5,0.3-1.1,0.4-1.8,0.4h-3.3
				V31.4h3.3c0.7,0,1.3,0.1,1.8,0.4c0.5,0.3,0.9,0.7,1.2,1.1s0.5,1,0.7,1.6C346.9,35.2,347,35.8,347,36.5z M345.9,36.5
				c0-1.3-0.3-2.4-0.8-3.1c-0.5-0.7-1.2-1.1-2.1-1.1h-2.2v8.4h2.2c0.9,0,1.6-0.4,2.1-1.1C345.7,38.9,345.9,37.8,345.9,36.5z"/>
			<path class="st5" d="M356.5,41.6h-1.1l-1-2.9h-4l-0.9,2.9h-1.1l3.4-10.2h1.5L356.5,41.6z M354.1,37.7l-1.7-5.3l-1.7,5.3H354.1z"
				/>
			<path class="st5" d="M365.5,32.3h-0.8l-2.4,4.9v3.5h1.6v0.9h-4.4v-0.9h1.6v-3.5l-2.4-4.9h-0.8v-0.9h2.9v0.9H360l1.8,3.8l1.8-3.8
				h-0.8v-0.9h2.9V32.3z"/>
		</g>
	</g>
	<rect x="30" y="509.6" class="st2" width="35.6" height="10.7"/>
	<rect x="152.2" y="509.6" class="st10" width="35.6" height="10.7"/>
	<rect x="258.4" y="509.6" class="st22" width="35.6" height="10.7"/>
	<g>
		<g>
			<path class="st5" d="M77.3,516.6v3.7h-0.7v-8.6h3.1c1.7,0,2.7,0.8,2.7,2.4c0,1.6-1,2.5-2.7,2.5H77.3z M79.7,512.3h-2.4v3.6h2.4
				c1.3,0,2-0.7,2-1.8C81.7,513,81,512.3,79.7,512.3z"/>
			<path class="st5" d="M87.3,514.7c-0.2-0.1-0.3-0.1-0.6-0.1c-0.8,0-1.4,0.5-1.7,1.3v4.3h-0.7v-6.2h0.7v1c0.3-0.6,0.9-1.1,1.7-1.1
				c0.2,0,0.4,0,0.5,0.1V514.7z"/>
			<path class="st5" d="M89.5,512.6c-0.3,0-0.5-0.2-0.5-0.5c0-0.3,0.2-0.5,0.5-0.5s0.5,0.2,0.5,0.5C90,512.4,89.8,512.6,89.5,512.6z
				 M89.8,520.3h-0.7v-6.2h0.7V520.3z"/>
			<path class="st5" d="M92.4,514.1h0.7v1c0.4-0.6,1.1-1.1,2-1.1c1.4,0,2.2,0.9,2.2,2.2v4.1h-0.7v-4c0-1-0.5-1.7-1.6-1.7
				c-0.9,0-1.6,0.6-1.9,1.3v4.4h-0.7V514.1z"/>
			<path class="st5" d="M102,513.9c1.3,0,2.2,0.8,2.4,1.9h-0.7c-0.2-0.8-0.8-1.3-1.7-1.3c-1.2,0-2,1-2,2.6c0,1.6,0.8,2.6,2,2.6
				c0.9,0,1.5-0.5,1.7-1.3h0.7c-0.2,1.1-1.1,1.9-2.4,1.9c-1.6,0-2.7-1.3-2.7-3.2C99.3,515.2,100.4,513.9,102,513.9z"/>
			<path class="st5" d="M106.8,512.6c-0.3,0-0.5-0.2-0.5-0.5c0-0.3,0.2-0.5,0.5-0.5s0.5,0.2,0.5,0.5
				C107.3,512.4,107.1,512.6,106.8,512.6z M107.2,520.3h-0.7v-6.2h0.7V520.3z"/>
			<path class="st5" d="M110.4,522.7h-0.7v-8.6h0.7v0.9c0.3-0.5,1.1-1.1,1.9-1.1c1.8,0,2.7,1.5,2.7,3.2s-0.9,3.2-2.7,3.2
				c-0.9,0-1.6-0.5-1.9-1.1V522.7z M110.4,518.5c0.4,0.8,1.1,1.2,1.9,1.2c1.3,0,2.1-1.1,2.1-2.6c0-1.5-0.8-2.6-2.1-2.6
				c-0.8,0-1.4,0.4-1.9,1.2V518.5z"/>
			<path class="st5" d="M120.7,520.3v-0.6c-0.3,0.3-1,0.7-1.7,0.7c-1.3,0-2.3-0.7-2.3-1.9c0-1.1,1-1.9,2.3-1.9
				c0.7,0,1.4,0.3,1.7,0.7v-1.1c0-0.9-0.6-1.6-1.6-1.6c-0.8,0-1.3,0.3-1.5,1.1H117c0.2-1.1,1.1-1.7,2.2-1.7c1.4,0,2.2,0.8,2.2,2.1
				v4.2H120.7z M120.7,518.1c-0.2-0.5-0.9-0.9-1.7-0.9c-0.9,0-1.7,0.4-1.7,1.3c0,0.9,0.8,1.3,1.7,1.3c0.8,0,1.5-0.4,1.7-0.9V518.1z"
				/>
			<path class="st5" d="M124.6,520.3h-0.7v-9.1h0.7V520.3z"/>
			<path class="st5" d="M127.2,518.7c0.3,0.8,0.9,1.1,1.7,1.1c0.8,0,1.5-0.4,1.5-1.1c0-0.5-0.4-0.9-1.1-1.1l-1.2-0.3
				c-0.9-0.2-1.5-0.7-1.5-1.6c0-1.1,1-1.7,2.1-1.7c1.3,0,2.1,0.7,2.3,1.7h-0.7c-0.2-0.7-0.7-1.1-1.6-1.1c-0.8,0-1.4,0.4-1.4,1.1
				c0,0.6,0.4,0.8,1.1,1l1.1,0.3c1.1,0.3,1.6,0.9,1.6,1.7c0,1.1-0.9,1.8-2.2,1.8c-1.2,0-2.2-0.6-2.4-1.7H127.2z"/>
		</g>
	</g>
	<g>
		<g>
			<path class="st5" d="M202.2,511.7l3.4,8.6h-0.7l-1.1-2.8h-3.8l-1.1,2.8h-0.7l3.4-8.6H202.2z M200.2,516.8h3.3l-1.7-4.2
				L200.2,516.8z"/>
			<path class="st5" d="M211.6,519.2c-0.3,0.5-1.1,1-1.9,1c-1.8,0-2.7-1.5-2.7-3.2c0-1.7,0.9-3.2,2.7-3.2c0.9,0,1.6,0.5,1.9,1v-0.9
				h0.7v5.8c0,2-1.1,3-2.6,3c-1.4,0-2.3-0.7-2.5-1.9h0.7c0.2,0.9,0.9,1.3,1.8,1.3c1.2,0,1.9-0.8,1.9-2.3V519.2z M211.6,515.8
				c-0.4-0.8-1.1-1.2-1.8-1.2c-1.3,0-2,1-2,2.5c0,1.5,0.8,2.5,2,2.5c0.8,0,1.4-0.4,1.8-1.2V515.8z"/>
			<path class="st5" d="M219.5,518.5c-0.2,1.1-1.1,1.9-2.4,1.9c-1.6,0-2.8-1.3-2.8-3.2c0-1.8,1.1-3.2,2.7-3.2c1.7,0,2.5,1.3,2.5,3
				v0.3h-4.6c0,1.6,0.9,2.6,2.1,2.6c0.9,0,1.5-0.5,1.7-1.3H219.5z M215.1,516.7h3.9c0-1.1-0.6-2.1-1.8-2.1
				C216,514.5,215.2,515.4,215.1,516.7z"/>
			<path class="st5" d="M221.7,514.1h0.7v1c0.4-0.6,1.1-1.1,2-1.1c1.4,0,2.2,0.9,2.2,2.2v4.1h-0.7v-4c0-1-0.5-1.7-1.6-1.7
				c-0.9,0-1.6,0.6-1.9,1.3v4.4h-0.7V514.1z"/>
			<path class="st5" d="M229.3,514.7h-1.1v-0.6h1.1v-1.6h0.7v1.6h1.6v0.6H230v4.1c0,0.7,0.3,1,0.9,1c0.3,0,0.6-0.1,0.9-0.2v0.7
				c-0.2,0.1-0.6,0.2-0.9,0.2c-0.9,0-1.5-0.5-1.5-1.6V514.7z"/>
			<path class="st5" d="M233.9,518.7c0.3,0.8,0.9,1.1,1.7,1.1c0.8,0,1.5-0.4,1.5-1.1c0-0.5-0.4-0.9-1.1-1.1l-1.2-0.3
				c-0.9-0.2-1.5-0.7-1.5-1.6c0-1.1,1-1.7,2.1-1.7c1.3,0,2.1,0.7,2.3,1.7h-0.7c-0.2-0.7-0.7-1.1-1.6-1.1c-0.8,0-1.4,0.4-1.4,1.1
				c0,0.6,0.4,0.8,1.1,1l1.1,0.3c1.1,0.3,1.6,0.9,1.6,1.7c0,1.1-0.9,1.8-2.2,1.8c-1.2,0-2.2-0.6-2.4-1.7H233.9z"/>
		</g>
	</g>
	<g>
		<g>
			<path class="st5" d="M310.4,511.7v0.7h-4.6v3.2h4.2v0.7h-4.2v3.4h4.6v0.7h-5.3v-8.6H310.4z"/>
			<path class="st5" d="M315.2,517.1l2.3,3.2h-0.8l-1.9-2.7l-1.9,2.7h-0.7l2.3-3.2l-2.2-3.1h0.8l1.8,2.5l1.8-2.5h0.7L315.2,517.1z"
				/>
			<path class="st5" d="M321.5,513.9c1.3,0,2.2,0.8,2.4,1.9h-0.7c-0.2-0.8-0.8-1.3-1.7-1.3c-1.2,0-2,1-2,2.6c0,1.6,0.8,2.6,2,2.6
				c0.9,0,1.5-0.5,1.7-1.3h0.7c-0.2,1.1-1.1,1.9-2.4,1.9c-1.6,0-2.7-1.3-2.7-3.2C318.8,515.2,319.9,513.9,321.5,513.9z"/>
			<path class="st5" d="M325.9,511.2h0.7v3.9c0.4-0.6,1.1-1.1,2-1.1c1.4,0,2.2,0.9,2.2,2.2v4.1h-0.7v-4c0-1-0.5-1.7-1.6-1.7
				c-0.9,0-1.6,0.6-1.9,1.3v4.4h-0.7V511.2z"/>
			<path class="st5" d="M336.8,520.3v-0.6c-0.3,0.3-1,0.7-1.7,0.7c-1.3,0-2.3-0.7-2.3-1.9c0-1.1,1-1.9,2.3-1.9
				c0.7,0,1.4,0.3,1.7,0.7v-1.1c0-0.9-0.6-1.6-1.6-1.6c-0.8,0-1.3,0.3-1.5,1.1h-0.7c0.2-1.1,1.1-1.7,2.2-1.7c1.4,0,2.2,0.8,2.2,2.1
				v4.2H336.8z M336.8,518.1c-0.2-0.5-0.9-0.9-1.7-0.9c-0.9,0-1.7,0.4-1.7,1.3c0,0.9,0.8,1.3,1.7,1.3c0.8,0,1.5-0.4,1.7-0.9V518.1z"
				/>
			<path class="st5" d="M340,514.1h0.7v1c0.4-0.6,1.1-1.1,2-1.1c1.4,0,2.2,0.9,2.2,2.2v4.1h-0.7v-4c0-1-0.5-1.7-1.6-1.7
				c-0.9,0-1.6,0.6-1.9,1.3v4.4H340V514.1z"/>
			<path class="st5" d="M351.4,519.2c-0.3,0.5-1.1,1-1.9,1c-1.8,0-2.7-1.5-2.7-3.2c0-1.7,0.9-3.2,2.7-3.2c0.9,0,1.6,0.5,1.9,1v-0.9
				h0.7v5.8c0,2-1.1,3-2.6,3c-1.4,0-2.3-0.7-2.5-1.9h0.7c0.2,0.9,0.9,1.3,1.8,1.3c1.2,0,1.9-0.8,1.9-2.3V519.2z M351.4,515.8
				c-0.4-0.8-1.1-1.2-1.8-1.2c-1.3,0-2,1-2,2.5c0,1.5,0.8,2.5,2,2.5c0.8,0,1.4-0.4,1.8-1.2V515.8z"/>
			<path class="st5" d="M359.4,518.5c-0.2,1.1-1.1,1.9-2.4,1.9c-1.6,0-2.8-1.3-2.8-3.2c0-1.8,1.1-3.2,2.7-3.2c1.7,0,2.5,1.3,2.5,3
				v0.3h-4.6c0,1.6,0.9,2.6,2.1,2.6c0.9,0,1.5-0.5,1.7-1.3H359.4z M355,516.7h3.9c0-1.1-0.6-2.1-1.8-2.1
				C355.9,514.5,355.1,515.4,355,516.7z"/>
			<path class="st5" d="M366.1,516.6v3.7h-0.7v-8.6h3.1c1.7,0,2.7,0.8,2.7,2.4c0,1.6-1,2.5-2.7,2.5H366.1z M368.4,512.3h-2.4v3.6
				h2.4c1.3,0,2-0.7,2-1.8C370.5,513,369.8,512.3,368.4,512.3z"/>
			<path class="st5" d="M373.9,520.3h-0.7v-9.1h0.7V520.3z"/>
			<path class="st5" d="M380,520.3v-0.6c-0.3,0.3-1,0.7-1.7,0.7c-1.3,0-2.3-0.7-2.3-1.9c0-1.1,1-1.9,2.3-1.9c0.7,0,1.4,0.3,1.7,0.7
				v-1.1c0-0.9-0.6-1.6-1.6-1.6c-0.8,0-1.3,0.3-1.5,1.1h-0.7c0.2-1.1,1.1-1.7,2.2-1.7c1.4,0,2.2,0.8,2.2,2.1v4.2H380z M380,518.1
				c-0.2-0.5-0.9-0.9-1.7-0.9c-0.9,0-1.7,0.4-1.7,1.3c0,0.9,0.8,1.3,1.7,1.3c0.8,0,1.5-0.4,1.7-0.9V518.1z"/>
			<path class="st5" d="M383.4,514.7h-1.1v-0.6h1.1v-1.6h0.7v1.6h1.6v0.6h-1.6v4.1c0,0.7,0.3,1,0.9,1c0.3,0,0.6-0.1,0.9-0.2v0.7
				c-0.2,0.1-0.6,0.2-0.9,0.2c-0.9,0-1.5-0.5-1.5-1.6V514.7z"/>
			<path class="st5" d="M390.6,511.8c-0.2-0.1-0.4-0.2-0.6-0.2c-0.7,0-1.1,0.5-1.1,1.3v1h1.5v0.6h-1.5v5.6h-0.7v-5.6h-1v-0.6h1v-1.1
				c0-1.1,0.7-1.9,1.8-1.9c0.3,0,0.5,0,0.7,0.1V511.8z"/>
			<path class="st5" d="M394.3,520.4c-1.6,0-2.7-1.3-2.7-3.2s1.1-3.2,2.7-3.2c1.7,0,2.8,1.3,2.8,3.2S395.9,520.4,394.3,520.4z
				 M394.3,514.5c-1.2,0-2,1.1-2,2.6c0,1.6,0.8,2.6,2,2.6c1.2,0,2.1-1.1,2.1-2.6C396.3,515.6,395.5,514.5,394.3,514.5z"/>
			<path class="st5" d="M402.1,514.7c-0.2-0.1-0.3-0.1-0.6-0.1c-0.8,0-1.4,0.5-1.7,1.3v4.3h-0.7v-6.2h0.7v1c0.3-0.6,0.9-1.1,1.7-1.1
				c0.2,0,0.4,0,0.5,0.1V514.7z"/>
			<path class="st5" d="M410.1,513.9c1.3,0,1.9,0.9,1.9,2.1v4.2h-0.7v-4.1c0-1-0.4-1.6-1.3-1.6c-0.8,0-1.4,0.6-1.7,1.3v4.4h-0.7
				v-4.1c0-1-0.4-1.6-1.3-1.6c-0.8,0-1.4,0.6-1.7,1.3v4.4h-0.7v-6.2h0.7v1c0.3-0.6,1-1.1,1.8-1.1c0.9,0,1.5,0.5,1.7,1.2
				C408.5,514.5,409.2,513.9,410.1,513.9z"/>
			<path class="st5" d="M414.6,518.7c0.3,0.8,0.9,1.1,1.7,1.1c0.8,0,1.5-0.4,1.5-1.1c0-0.5-0.4-0.9-1.1-1.1l-1.2-0.3
				c-0.9-0.2-1.5-0.7-1.5-1.6c0-1.1,1-1.7,2.1-1.7c1.3,0,2.1,0.7,2.3,1.7h-0.7c-0.2-0.7-0.7-1.1-1.6-1.1c-0.8,0-1.4,0.4-1.4,1.1
				c0,0.6,0.4,0.8,1.1,1l1.1,0.3c1.1,0.3,1.6,0.9,1.6,1.7c0,1.1-0.9,1.8-2.2,1.8c-1.2,0-2.2-0.6-2.4-1.7H414.6z"/>
		</g>
	</g>
	<rect x="29.5" y="141.6" class="st2" width="153.8" height="50"/>
	<g>
		<g>
			<path class="st7" d="M46.1,156.6c1.7,0,2.8,1,3.1,2.5h-1.5c-0.3-0.7-0.7-1.1-1.6-1.1c-1.2,0-1.9,1-1.9,2.4c0,1.4,0.7,2.4,1.9,2.4
				c0.9,0,1.3-0.5,1.6-1.1h1.5c-0.3,1.5-1.3,2.5-3.1,2.5c-2,0-3.4-1.5-3.4-3.8C42.7,158.2,44.1,156.6,46.1,156.6z"/>
			<path class="st7" d="M53.8,164.2c-2.1,0-3.5-1.6-3.5-3.8c0-2.2,1.4-3.8,3.5-3.8s3.5,1.6,3.5,3.8
				C57.3,162.6,55.9,164.2,53.8,164.2z M53.8,158c-1.2,0-1.9,1-1.9,2.4c0,1.4,0.8,2.4,1.9,2.4c1.2,0,1.9-1,1.9-2.4
				C55.8,159,55,158,53.8,158z"/>
			<path class="st7" d="M60.4,161.4v2.7h-1.5v-7.4h3c1.5,0,2.6,0.8,2.6,2.3c0,1.2-0.6,1.9-1.7,2.2l1.9,2.9H63l-1.8-2.7H60.4z
				 M60.4,160.1h1.4c0.8,0,1.2-0.4,1.2-1c0-0.6-0.4-1-1.2-1h-1.4V160.1z"/>
			<path class="st7" d="M67.6,161.6v2.6h-1.5v-7.4h3c1.6,0,2.6,0.8,2.6,2.4c0,1.6-1,2.4-2.6,2.4H67.6z M69,158.1h-1.4v2.2H69
				c0.8,0,1.2-0.5,1.2-1.1C70.2,158.5,69.8,158.1,69,158.1z"/>
			<path class="st7" d="M76.3,164.2c-2.1,0-3.5-1.6-3.5-3.8c0-2.2,1.4-3.8,3.5-3.8s3.5,1.6,3.5,3.8
				C79.8,162.6,78.4,164.2,76.3,164.2z M76.3,158c-1.2,0-1.9,1-1.9,2.4c0,1.4,0.8,2.4,1.9,2.4c1.2,0,1.9-1,1.9-2.4
				C78.3,159,77.5,158,76.3,158z"/>
			<path class="st7" d="M82.9,161.4v2.7h-1.5v-7.4h3c1.5,0,2.6,0.8,2.6,2.3c0,1.2-0.6,1.9-1.7,2.2l1.9,2.9h-1.7l-1.8-2.7H82.9z
				 M82.9,160.1h1.4c0.8,0,1.2-0.4,1.2-1c0-0.6-0.4-1-1.2-1h-1.4V160.1z"/>
			<path class="st7" d="M92.4,156.8l2.8,7.4h-1.6l-0.7-1.8h-2.8l-0.6,1.8h-1.5l2.8-7.4H92.4z M90.7,161.1h1.8l-0.9-2.4L90.7,161.1z"
				/>
			<path class="st7" d="M95.4,156.8h6.3v1.3h-2.4v6h-1.5v-6h-2.4V156.8z"/>
			<path class="st7" d="M104.8,164.1h-1.5v-7.4h1.5V164.1z"/>
			<path class="st7" d="M109.8,164.2c-2.1,0-3.5-1.6-3.5-3.8c0-2.2,1.4-3.8,3.5-3.8s3.5,1.6,3.5,3.8
				C113.3,162.6,111.8,164.2,109.8,164.2z M109.8,158c-1.2,0-1.9,1-1.9,2.4c0,1.4,0.8,2.4,1.9,2.4c1.2,0,1.9-1,1.9-2.4
				C111.7,159,110.9,158,109.8,158z"/>
			<path class="st7" d="M121,164.1h-1.2l-3.5-4.9v4.9h-1.5v-7.4h1.4l3.3,4.7v-4.7h1.5V164.1z"/>
			<path class="st7" d="M127.4,164.1h-1.5v-7.4h1.5V164.1z"/>
			<path class="st7" d="M130.4,162c0.2,0.6,0.7,0.9,1.5,0.9c0.7,0,1.2-0.3,1.2-0.9c0-0.4-0.3-0.7-0.9-0.8l-1.3-0.3
				c-1.1-0.2-1.9-0.8-1.9-2c0-1.3,1.1-2.3,2.7-2.3c1.7,0,2.7,0.9,2.9,2.1H133c-0.2-0.5-0.6-0.9-1.4-0.9c-0.7,0-1.2,0.3-1.2,0.9
				c0,0.4,0.3,0.7,0.8,0.8l1.3,0.3c1.2,0.3,1.9,1,1.9,2.1c0,1.4-1.2,2.3-2.7,2.3c-1.6,0-2.8-0.8-3.1-2.2H130.4z"/>
			<path class="st7" d="M137.2,162c0.2,0.6,0.7,0.9,1.5,0.9c0.7,0,1.2-0.3,1.2-0.9c0-0.4-0.3-0.7-0.9-0.8l-1.3-0.3
				c-1.1-0.2-1.9-0.8-1.9-2c0-1.3,1.1-2.3,2.7-2.3c1.7,0,2.7,0.9,2.9,2.1h-1.5c-0.2-0.5-0.6-0.9-1.4-0.9c-0.7,0-1.2,0.3-1.2,0.9
				c0,0.4,0.3,0.7,0.8,0.8l1.3,0.3c1.2,0.3,1.9,1,1.9,2.1c0,1.4-1.2,2.3-2.7,2.3c-1.6,0-2.8-0.8-3.1-2.2H137.2z"/>
			<path class="st7" d="M142.9,161.2v-4.4h1.5v4.2c0,1.3,0.6,1.9,1.5,1.9s1.5-0.6,1.5-1.9v-4.2h1.5v4.4c0,2-1.2,3.1-3.1,3.1
				C144.1,164.2,142.9,163.2,142.9,161.2z"/>
			<path class="st7" d="M152.3,164.1h-1.5v-7.4h1.5V164.1z"/>
			<path class="st7" d="M160.4,164.1h-1.2l-3.5-4.9v4.9h-1.5v-7.4h1.4l3.3,4.7v-4.7h1.5V164.1z"/>
			<path class="st7" d="M165.8,161.5v-1.2h2.9v0.6c0,2-1.3,3.3-3.2,3.3c-2.1,0-3.5-1.5-3.5-3.8c0-2.3,1.5-3.8,3.5-3.8
				c1.8,0,2.8,1,3.1,2.5H167c-0.3-0.7-0.7-1.1-1.6-1.1c-1.2,0-2,1-2,2.4c0,1.4,0.8,2.4,2,2.4c0.9,0,1.5-0.6,1.7-1.4H165.8z"/>
			<path class="st7" d="M77.2,174c0.2,0.6,0.7,0.9,1.5,0.9c0.7,0,1.2-0.3,1.2-0.9c0-0.4-0.3-0.7-0.9-0.8l-1.3-0.3
				c-1.1-0.2-1.9-0.8-1.9-2c0-1.3,1.1-2.3,2.7-2.3c1.7,0,2.7,0.9,2.9,2.1h-1.5c-0.2-0.5-0.6-0.9-1.4-0.9c-0.7,0-1.2,0.3-1.2,0.9
				c0,0.4,0.3,0.7,0.8,0.8l1.3,0.3c1.2,0.3,1.9,1,1.9,2.1c0,1.4-1.2,2.3-2.7,2.3c-1.6,0-2.8-0.8-3.1-2.2H77.2z"/>
			<path class="st7" d="M88,168.8v1.3h-3.5v1.6h3.2v1.3h-3.2v1.8H88v1.4h-5v-7.4H88z"/>
			<path class="st7" d="M92.7,168.6c1.7,0,2.8,1,3.1,2.5h-1.5c-0.3-0.7-0.7-1.1-1.6-1.1c-1.2,0-1.9,1-1.9,2.4c0,1.4,0.7,2.4,1.9,2.4
				c0.9,0,1.3-0.5,1.6-1.1h1.5c-0.3,1.5-1.3,2.5-3.1,2.5c-2,0-3.4-1.5-3.4-3.8C89.3,170.2,90.8,168.6,92.7,168.6z"/>
			<path class="st7" d="M97.2,173.2v-4.4h1.5v4.2c0,1.3,0.6,1.9,1.5,1.9s1.5-0.6,1.5-1.9v-4.2h1.5v4.4c0,2-1.2,3.1-3.1,3.1
				C98.5,176.2,97.2,175.2,97.2,173.2z"/>
			<path class="st7" d="M106.7,173.4v2.7h-1.5v-7.4h3c1.5,0,2.6,0.8,2.6,2.3c0,1.2-0.6,1.9-1.7,2.2l1.9,2.9h-1.7l-1.8-2.7H106.7z
				 M106.7,172.1h1.4c0.8,0,1.2-0.4,1.2-1c0-0.6-0.4-1-1.2-1h-1.4V172.1z"/>
			<path class="st7" d="M113.9,176.1h-1.5v-7.4h1.5V176.1z"/>
			<path class="st7" d="M115.4,168.8h6.3v1.3h-2.4v6h-1.5v-6h-2.4V168.8z"/>
			<path class="st7" d="M124.7,176.1h-1.5v-7.4h1.5V176.1z"/>
			<path class="st7" d="M131.6,168.8v1.3h-3.5v1.6h3.2v1.3h-3.2v1.8h3.5v1.4h-5v-7.4H131.6z"/>
			<path class="st7" d="M134.3,174c0.2,0.6,0.7,0.9,1.5,0.9c0.7,0,1.2-0.3,1.2-0.9c0-0.4-0.3-0.7-0.9-0.8l-1.3-0.3
				c-1.1-0.2-1.9-0.8-1.9-2c0-1.3,1.1-2.3,2.7-2.3c1.7,0,2.7,0.9,2.9,2.1H137c-0.2-0.5-0.6-0.9-1.4-0.9c-0.7,0-1.2,0.3-1.2,0.9
				c0,0.4,0.3,0.7,0.8,0.8l1.3,0.3c1.2,0.3,1.9,1,1.9,2.1c0,1.4-1.2,2.3-2.7,2.3c-1.6,0-2.8-0.8-3.1-2.2H134.3z"/>
		</g>
	</g>
	<circle class="st2" cx="182.9" cy="166.4" r="4.5"/>
	<line class="st1" x1="386" y1="92" x2="410" y2="92"/>
	<polyline class="st1" points="567,92 667.5,92 692.6,117.1 	"/>
	<polyline class="st1" points="233,92 132.5,92 107.4,117.1 	"/>
	<rect x="233" y="67" class="st27" width="153.8" height="50"/>
	<g>
		<g>
			<path class="st7" d="M275.9,92.7v2.7h-1.5v-7.4h3c1.5,0,2.6,0.8,2.6,2.3c0,1.2-0.6,1.9-1.7,2.2l1.9,2.9h-1.7l-1.8-2.7H275.9z
				 M275.9,91.5h1.4c0.8,0,1.2-0.4,1.2-1c0-0.6-0.4-1-1.2-1h-1.4V91.5z"/>
			<path class="st7" d="M286.6,88.1v1.3h-3.5v1.6h3.2v1.3h-3.2v1.8h3.5v1.4h-5v-7.4H286.6z"/>
			<path class="st7" d="M291.8,92.9v-1.2h2.9v0.6c0,2-1.3,3.3-3.2,3.3c-2.1,0-3.5-1.5-3.5-3.8c0-2.3,1.5-3.8,3.5-3.8
				c1.8,0,2.8,1,3.1,2.5H293c-0.3-0.7-0.7-1.1-1.6-1.1c-1.2,0-2,1-2,2.4c0,1.4,0.8,2.4,2,2.4c0.9,0,1.5-0.6,1.7-1.4H291.8z"/>
			<path class="st7" d="M296.1,92.5v-4.4h1.5v4.2c0,1.3,0.6,1.9,1.5,1.9s1.5-0.6,1.5-1.9v-4.2h1.5v4.4c0,2-1.2,3.1-3.1,3.1
				C297.3,95.6,296.1,94.6,296.1,92.5z"/>
			<path class="st7" d="M304,88.1h1.5v6h3.4v1.4h-5V88.1z"/>
			<path class="st7" d="M314.4,88.1l2.8,7.4h-1.6l-0.7-1.8h-2.8l-0.6,1.8h-1.5l2.8-7.4H314.4z M312.7,92.4h1.8l-0.9-2.4L312.7,92.4z
				"/>
			<path class="st7" d="M317.4,88.1h6.3v1.3h-2.4v6h-1.5v-6h-2.4V88.1z"/>
			<path class="st7" d="M328,95.6c-2.1,0-3.5-1.6-3.5-3.8c0-2.2,1.4-3.8,3.5-3.8s3.5,1.6,3.5,3.8C331.4,94,330,95.6,328,95.6z
				 M328,89.4c-1.2,0-1.9,1-1.9,2.4c0,1.4,0.8,2.4,1.9,2.4c1.2,0,1.9-1,1.9-2.4C329.9,90.4,329.1,89.4,328,89.4z"/>
			<path class="st7" d="M334.5,92.7v2.7H333v-7.4h3c1.5,0,2.6,0.8,2.6,2.3c0,1.2-0.6,1.9-1.7,2.2l1.9,2.9h-1.7l-1.8-2.7H334.5z
				 M334.5,91.5h1.4c0.8,0,1.2-0.4,1.2-1c0-0.6-0.4-1-1.2-1h-1.4V91.5z"/>
			<path class="st7" d="M341.4,93.4c0.2,0.6,0.7,0.9,1.5,0.9c0.7,0,1.2-0.3,1.2-0.9c0-0.4-0.3-0.7-0.9-0.8l-1.3-0.3
				c-1.1-0.2-1.9-0.8-1.9-2c0-1.3,1.1-2.3,2.7-2.3c1.7,0,2.7,0.9,2.9,2.1H344c-0.2-0.5-0.6-0.9-1.4-0.9c-0.7,0-1.2,0.3-1.2,0.9
				c0,0.4,0.3,0.7,0.8,0.8l1.3,0.3c1.2,0.3,1.9,1,1.9,2.1c0,1.4-1.2,2.3-2.7,2.3c-1.6,0-2.8-0.8-3.1-2.2H341.4z"/>
		</g>
	</g>
	<circle class="st27" cx="233" cy="92" r="4.5"/>
	<circle class="st27" cx="386.8" cy="92" r="4.5"/>
	<rect x="413.2" y="67" class="st27" width="153.8" height="50"/>
	<g>
		<g>
			<path class="st7" d="M440.7,88.1h6.3v1.3h-2.4v6h-1.5v-6h-2.4V88.1z"/>
			<path class="st7" d="M451.6,88.1l2.8,7.4h-1.6l-0.7-1.8h-2.8l-0.6,1.8h-1.5l2.8-7.4H451.6z M449.9,92.4h1.8l-0.9-2.4L449.9,92.4z
				"/>
			<path class="st7" d="M459.4,91.7l2.6,3.8h-1.7l-1.7-2.6l-1.7,2.6h-1.7l2.6-3.8l-2.4-3.6h1.7l1.6,2.4l1.6-2.4h1.7L459.4,91.7z"/>
			<path class="st7" d="M470.1,88.1l2.8,7.4h-1.6l-0.7-1.8H468l-0.6,1.8h-1.5l2.8-7.4H470.1z M468.4,92.4h1.8l-0.9-2.4L468.4,92.4z"
				/>
			<path class="st7" d="M473.9,92.5v-4.4h1.5v4.2c0,1.3,0.6,1.9,1.5,1.9s1.5-0.6,1.5-1.9v-4.2h1.5v4.4c0,2-1.2,3.1-3.1,3.1
				C475.1,95.6,473.9,94.6,473.9,92.5z"/>
			<path class="st7" d="M481.4,88.1h6.3v1.3h-2.4v6h-1.5v-6h-2.4V88.1z"/>
			<path class="st7" d="M495.6,88.1v7.4h-1.5v-3.1h-3.3v3.1h-1.5v-7.4h1.5v2.9h3.3v-2.9H495.6z"/>
			<path class="st7" d="M500.6,95.6c-2.1,0-3.5-1.6-3.5-3.8c0-2.2,1.4-3.8,3.5-3.8s3.5,1.6,3.5,3.8C504.1,94,502.7,95.6,500.6,95.6z
				 M500.6,89.4c-1.2,0-1.9,1-1.9,2.4c0,1.4,0.8,2.4,1.9,2.4c1.2,0,1.9-1,1.9-2.4C502.6,90.4,501.8,89.4,500.6,89.4z"/>
			<path class="st7" d="M507.2,92.7v2.7h-1.5v-7.4h3c1.5,0,2.6,0.8,2.6,2.3c0,1.2-0.6,1.9-1.7,2.2l1.9,2.9h-1.7l-1.8-2.7H507.2z
				 M507.2,91.5h1.4c0.8,0,1.2-0.4,1.2-1c0-0.6-0.4-1-1.2-1h-1.4V91.5z"/>
			<path class="st7" d="M514.4,95.5h-1.5v-7.4h1.5V95.5z"/>
			<path class="st7" d="M515.9,88.1h6.3v1.3h-2.4v6h-1.5v-6h-2.4V88.1z"/>
			<path class="st7" d="M525.2,95.5h-1.5v-7.4h1.5V95.5z"/>
			<path class="st7" d="M532.1,88.1v1.3h-3.5v1.6h3.2v1.3h-3.2v1.8h3.5v1.4h-5v-7.4H532.1z"/>
			<path class="st7" d="M534.9,93.4c0.2,0.6,0.7,0.9,1.5,0.9c0.7,0,1.2-0.3,1.2-0.9c0-0.4-0.3-0.7-0.9-0.8l-1.3-0.3
				c-1.1-0.2-1.9-0.8-1.9-2c0-1.3,1.1-2.3,2.7-2.3c1.7,0,2.7,0.9,2.9,2.1h-1.5c-0.2-0.5-0.6-0.9-1.4-0.9c-0.7,0-1.2,0.3-1.2,0.9
				c0,0.4,0.3,0.7,0.8,0.8l1.3,0.3c1.2,0.3,1.9,1,1.9,2.1c0,1.4-1.2,2.3-2.7,2.3c-1.6,0-2.8-0.8-3.1-2.2H534.9z"/>
		</g>
	</g>
	<circle class="st27" cx="413.2" cy="92" r="4.5"/>
	<circle class="st27" cx="567" cy="92" r="4.5"/>
</g>
</svg>
