<?xml version="1.0" encoding="utf-8"?>
<!-- Generator: Adobe Illustrator 20.1.0, SVG Export Plug-In . SVG Version: 6.00 Build 0)  -->
<svg version="1.1" xmlns="http://www.w3.org/2000/svg" xmlns:xlink="http://www.w3.org/1999/xlink" x="0px" y="0px"
	 viewBox="0 0 580 375" style="enable-background:new 0 0 580 375;" xml:space="preserve">
<style type="text/css">
	.st0{fill:#F5F5FA;}
	.st1{fill:none;stroke:#161627;stroke-miterlimit:10;}
	.st2{fill:#009CFF;}
	.st3{fill:none;stroke:#009CFF;stroke-width:3;stroke-linecap:round;stroke-miterlimit:10;}
	.st4{fill:none;stroke:#FFC151;stroke-width:3;stroke-linecap:round;stroke-miterlimit:10;}
	.st5{fill:#161627;}
	
		.st6{fill:none;stroke:#161627;stroke-width:3;stroke-linecap:round;stroke-linejoin:round;stroke-miterlimit:10;stroke-dasharray:0,8;}
	.st7{fill:#FFFFFF;}
	.st8{opacity:0.5;fill:#009CFF;}
	.st9{opacity:0.75;fill:#009CFF;}
	.st10{fill:#F93D72;}
	.st11{fill:#0D2445;}
	.st12{fill:none;}
	.st13{opacity:0.25;fill:#0D2445;}
	.st14{opacity:0.26;fill:#0D2445;}
	.st15{opacity:0.5;fill:#0D2445;}
	.st16{opacity:0.9;fill:#0D2445;}
	.st17{opacity:0.15;fill:#0D2445;}
	.st18{opacity:0.75;fill:#0D2445;}
	.st19{fill:none;stroke:#F93D72;stroke-width:3;stroke-miterlimit:10;}
	.st20{fill:none;stroke:#F93D72;stroke-width:3;stroke-miterlimit:10;stroke-dasharray:5.9114,5.9114;}
	.st21{fill:none;stroke:#161627;stroke-width:3;stroke-miterlimit:10;}
	.st22{fill:#FFC151;}
	
		.st23{fill:none;stroke:#007CCC;stroke-width:3;stroke-linecap:round;stroke-linejoin:round;stroke-miterlimit:10;stroke-dasharray:0,8;}
	.st24{fill:#25CD7F;}
	.st25{fill:#F0593F;}
	.st26{fill:#D0D2D3;}
	.st27{fill:#73737D;}
	.st28{fill:#007CCC;}
</style>
<g id="Background">
	<rect x="0" class="st0" width="580" height="375"/>
</g>
<g id="Layer_1">
	<g>
		<g>
			<path class="st5" d="M37.2,34.8h-0.9v-2.5h-2.2v8.4h1.6v0.9h-4.4v-0.9H33v-8.4h-2.2v2.5h-0.9v-3.4h7.3V34.8z"/>
			<path class="st5" d="M46.7,41.6h-1.4l-3-4.4h-1.6v4.4h-1.1V31.4H43c1.1,0,2,0.2,2.6,0.7c0.6,0.5,0.9,1.2,0.9,2.2
				c0,0.4-0.1,0.8-0.2,1.2c-0.2,0.3-0.4,0.6-0.6,0.9c-0.3,0.2-0.6,0.4-0.9,0.6c-0.4,0.1-0.8,0.2-1.2,0.3L46.7,41.6z M45.4,34.3
				c0-0.7-0.2-1.2-0.6-1.5s-1-0.5-1.8-0.5h-2.3v4H43c0.8,0,1.3-0.2,1.8-0.5C45.2,35.5,45.4,35,45.4,34.3z"/>
			<path class="st5" d="M56.4,41.6h-1.1l-1-2.9h-4l-0.9,2.9h-1.1l3.4-10.2H53L56.4,41.6z M54,37.7l-1.7-5.3l-1.7,5.3H54z"/>
			<path class="st5" d="M64.9,41.6h-1.3L59.5,33v8.6h-1.1V31.4h1.5l3.9,8.2v-8.2h1.1V41.6z"/>
			<path class="st5" d="M74.4,38.9c0,0.4-0.1,0.8-0.3,1.2c-0.2,0.3-0.4,0.6-0.7,0.9s-0.6,0.4-1,0.6c-0.4,0.1-0.8,0.2-1.2,0.2
				c-0.6,0-1.1-0.1-1.6-0.3c-0.5-0.2-0.9-0.5-1.1-0.9v1.1h-0.9v-3.1h0.9c0,0.3,0.1,0.7,0.2,1c0.2,0.3,0.4,0.5,0.6,0.7
				c0.2,0.2,0.5,0.4,0.9,0.5c0.3,0.1,0.7,0.2,1,0.2c0.3,0,0.6,0,0.8-0.1c0.3-0.1,0.5-0.2,0.7-0.4c0.2-0.2,0.3-0.4,0.5-0.6
				c0.1-0.2,0.2-0.5,0.2-0.8c0-0.3-0.1-0.6-0.2-0.8c-0.1-0.2-0.3-0.4-0.6-0.6c-0.2-0.2-0.5-0.3-0.8-0.4c-0.3-0.1-0.6-0.2-0.9-0.3
				c-0.4-0.1-0.7-0.3-1.1-0.4c-0.4-0.1-0.7-0.3-1-0.5c-0.3-0.2-0.5-0.5-0.7-0.8c-0.2-0.3-0.3-0.7-0.3-1.2c0-0.4,0.1-0.8,0.3-1.1
				c0.2-0.3,0.4-0.6,0.7-0.8c0.3-0.2,0.6-0.4,1-0.5c0.4-0.1,0.8-0.2,1.2-0.2c0.5,0,1,0.1,1.4,0.3c0.4,0.2,0.7,0.5,1,0.9v-1.1h0.9
				v2.9h-0.9c0-0.3-0.1-0.6-0.2-0.9c-0.1-0.3-0.3-0.5-0.5-0.7c-0.2-0.2-0.5-0.3-0.8-0.5c-0.3-0.1-0.6-0.2-0.9-0.2
				c-0.3,0-0.5,0-0.8,0.1s-0.5,0.2-0.7,0.3c-0.2,0.1-0.3,0.3-0.4,0.5c-0.1,0.2-0.2,0.5-0.2,0.8c0,0.3,0.1,0.5,0.2,0.7
				s0.3,0.4,0.5,0.5c0.2,0.1,0.5,0.3,0.8,0.4c0.3,0.1,0.6,0.2,0.9,0.4c0.4,0.1,0.8,0.3,1.1,0.5c0.4,0.2,0.7,0.4,1,0.6
				c0.3,0.2,0.5,0.5,0.7,0.9C74.3,38,74.4,38.4,74.4,38.9z"/>
			<path class="st5" d="M84.6,41.6h-1.1l-1-2.9h-4l-0.9,2.9h-1.1l3.4-10.2h1.5L84.6,41.6z M82.1,37.7l-1.7-5.3l-1.7,5.3H82.1z"/>
			<path class="st5" d="M93.5,38.9c-0.3,0.9-0.7,1.6-1.3,2.1c-0.6,0.5-1.4,0.8-2.3,0.8c-0.7,0-1.3-0.1-1.8-0.4s-0.9-0.7-1.2-1.2
				s-0.5-1-0.7-1.7c-0.1-0.6-0.2-1.3-0.2-2c0-0.7,0.1-1.3,0.2-2c0.1-0.6,0.4-1.2,0.7-1.7c0.3-0.5,0.7-0.9,1.2-1.2
				c0.5-0.3,1.1-0.4,1.8-0.4c0.6,0,1.2,0.1,1.6,0.3c0.4,0.2,0.8,0.6,1,1v-1.2h0.9v3.3h-0.9c0-0.4-0.1-0.7-0.2-1s-0.3-0.6-0.6-0.8
				s-0.5-0.4-0.8-0.6s-0.7-0.2-1-0.2c-0.6,0-1,0.1-1.4,0.4c-0.4,0.3-0.7,0.6-0.9,1s-0.4,0.9-0.5,1.4s-0.1,1-0.1,1.5
				c0,0.5,0,1,0.1,1.5c0.1,0.5,0.2,1,0.5,1.4s0.5,0.8,0.9,1c0.4,0.3,0.8,0.4,1.4,0.4c1.3,0,2.2-0.8,2.7-2.3L93.5,38.9z"/>
			<path class="st5" d="M102.8,34.8h-0.9v-2.5h-2.2v8.4h1.6v0.9H97v-0.9h1.6v-8.4h-2.2v2.5h-0.9v-3.4h7.3V34.8z"/>
			<path class="st5" d="M110.7,41.6h-4.4v-0.9h1.6v-8.4h-1.6v-0.9h4.4v0.9h-1.6v8.4h1.6V41.6z"/>
			<path class="st5" d="M121.8,36.5c0,0.7-0.1,1.3-0.2,2c-0.1,0.6-0.4,1.2-0.7,1.7s-0.7,0.9-1.2,1.2s-1.1,0.4-1.8,0.4
				s-1.3-0.1-1.8-0.4s-0.9-0.7-1.2-1.2s-0.5-1-0.7-1.7c-0.1-0.6-0.2-1.3-0.2-2c0-0.7,0.1-1.3,0.2-2c0.1-0.6,0.4-1.2,0.7-1.7
				c0.3-0.5,0.7-0.9,1.2-1.2c0.5-0.3,1.1-0.4,1.8-0.4s1.3,0.1,1.8,0.4c0.5,0.3,0.9,0.7,1.2,1.2c0.3,0.5,0.5,1.1,0.7,1.7
				C121.8,35.2,121.8,35.8,121.8,36.5z M120.8,36.5c0-0.7-0.1-1.3-0.2-1.8c-0.1-0.5-0.3-1-0.5-1.4c-0.2-0.4-0.5-0.7-0.9-0.9
				c-0.4-0.2-0.8-0.3-1.2-0.3c-0.6,0-1,0.1-1.4,0.4c-0.4,0.3-0.7,0.6-0.9,1c-0.2,0.4-0.4,0.9-0.5,1.4s-0.1,1-0.1,1.5
				c0,0.5,0,1,0.1,1.5c0.1,0.5,0.2,1,0.5,1.4c0.2,0.4,0.5,0.8,0.9,1c0.4,0.3,0.8,0.4,1.4,0.4c0.6,0,1-0.1,1.4-0.4
				c0.4-0.3,0.7-0.6,0.9-1s0.4-0.9,0.5-1.4C120.7,37.5,120.8,37,120.8,36.5z"/>
			<path class="st5" d="M130.6,41.6h-1.3l-4.1-8.6v8.6H124V31.4h1.5l3.9,8.2v-8.2h1.1V41.6z"/>
			<path class="st5" d="M149.8,38.9c-0.3,0.9-0.7,1.6-1.3,2.1c-0.6,0.5-1.4,0.8-2.3,0.8c-0.7,0-1.3-0.1-1.8-0.4s-0.9-0.7-1.2-1.2
				c-0.3-0.5-0.5-1-0.7-1.7c-0.1-0.6-0.2-1.3-0.2-2c0-0.7,0.1-1.3,0.2-2c0.1-0.6,0.4-1.2,0.7-1.7c0.3-0.5,0.7-0.9,1.2-1.2
				c0.5-0.3,1.1-0.4,1.8-0.4c0.6,0,1.2,0.1,1.6,0.3c0.4,0.2,0.8,0.6,1,1v-1.2h0.9v3.3h-0.9c0-0.4-0.1-0.7-0.2-1s-0.3-0.6-0.6-0.8
				s-0.5-0.4-0.8-0.6s-0.7-0.2-1-0.2c-0.6,0-1,0.1-1.4,0.4c-0.4,0.3-0.7,0.6-0.9,1s-0.4,0.9-0.5,1.4c-0.1,0.5-0.1,1-0.1,1.5
				c0,0.5,0,1,0.1,1.5c0.1,0.5,0.2,1,0.5,1.4s0.5,0.8,0.9,1c0.4,0.3,0.8,0.4,1.4,0.4c1.3,0,2.2-0.8,2.7-2.3L149.8,38.9z"/>
			<path class="st5" d="M159.3,36.5c0,0.7-0.1,1.3-0.2,2c-0.1,0.6-0.4,1.2-0.7,1.7s-0.7,0.9-1.2,1.2s-1.1,0.4-1.8,0.4
				s-1.3-0.1-1.8-0.4s-0.9-0.7-1.2-1.2s-0.5-1-0.7-1.7c-0.1-0.6-0.2-1.3-0.2-2c0-0.7,0.1-1.3,0.2-2c0.1-0.6,0.4-1.2,0.7-1.7
				c0.3-0.5,0.7-0.9,1.2-1.2c0.5-0.3,1.1-0.4,1.8-0.4s1.3,0.1,1.8,0.4c0.5,0.3,0.9,0.7,1.2,1.2c0.3,0.5,0.5,1.1,0.7,1.7
				C159.3,35.2,159.3,35.8,159.3,36.5z M158.3,36.5c0-0.7-0.1-1.3-0.2-1.8c-0.1-0.5-0.3-1-0.5-1.4c-0.2-0.4-0.5-0.7-0.9-0.9
				c-0.4-0.2-0.8-0.3-1.2-0.3c-0.6,0-1,0.1-1.4,0.4c-0.4,0.3-0.7,0.6-0.9,1s-0.4,0.9-0.5,1.4s-0.1,1-0.1,1.5c0,0.5,0,1,0.1,1.5
				c0.1,0.5,0.2,1,0.5,1.4s0.5,0.8,0.9,1c0.4,0.3,0.8,0.4,1.4,0.4c0.6,0,1-0.1,1.4-0.4c0.4-0.3,0.7-0.6,0.9-1
				c0.2-0.4,0.4-0.9,0.5-1.4C158.2,37.5,158.3,37,158.3,36.5z"/>
			<path class="st5" d="M168.2,38.9c0,0.4-0.1,0.8-0.3,1.2c-0.2,0.3-0.4,0.6-0.7,0.9s-0.6,0.4-1,0.6c-0.4,0.1-0.8,0.2-1.2,0.2
				c-0.6,0-1.1-0.1-1.6-0.3c-0.5-0.2-0.9-0.5-1.1-0.9v1.1h-0.9v-3.1h0.9c0,0.3,0.1,0.7,0.2,1s0.4,0.5,0.6,0.7
				c0.2,0.2,0.5,0.4,0.9,0.5s0.7,0.2,1,0.2c0.3,0,0.6,0,0.8-0.1s0.5-0.2,0.7-0.4c0.2-0.2,0.3-0.4,0.5-0.6c0.1-0.2,0.2-0.5,0.2-0.8
				c0-0.3-0.1-0.6-0.2-0.8s-0.3-0.4-0.6-0.6c-0.2-0.2-0.5-0.3-0.8-0.4s-0.6-0.2-0.9-0.3c-0.4-0.1-0.7-0.3-1.1-0.4
				c-0.4-0.1-0.7-0.3-1-0.5s-0.5-0.5-0.7-0.8c-0.2-0.3-0.3-0.7-0.3-1.2c0-0.4,0.1-0.8,0.3-1.1c0.2-0.3,0.4-0.6,0.7-0.8
				c0.3-0.2,0.6-0.4,1-0.5s0.8-0.2,1.2-0.2c0.5,0,1,0.1,1.4,0.3s0.7,0.5,1,0.9v-1.1h0.9v2.9H167c0-0.3-0.1-0.6-0.2-0.9
				c-0.1-0.3-0.3-0.5-0.5-0.7c-0.2-0.2-0.5-0.3-0.8-0.5c-0.3-0.1-0.6-0.2-0.9-0.2c-0.3,0-0.5,0-0.8,0.1s-0.5,0.2-0.7,0.3
				c-0.2,0.1-0.3,0.3-0.4,0.5s-0.2,0.5-0.2,0.8c0,0.3,0.1,0.5,0.2,0.7s0.3,0.4,0.5,0.5c0.2,0.1,0.5,0.3,0.8,0.4s0.6,0.2,0.9,0.4
				c0.4,0.1,0.8,0.3,1.1,0.5c0.4,0.2,0.7,0.4,1,0.6s0.5,0.5,0.7,0.9C168.1,38,168.2,38.4,168.2,38.9z"/>
			<path class="st5" d="M177.8,34.8h-0.9v-2.5h-2.2v8.4h1.6v0.9H172v-0.9h1.6v-8.4h-2.2v2.5h-0.9v-3.4h7.3V34.8z"/>
			<path class="st5" d="M196.6,34.8h-0.9v-2.5h-2.2v8.4h1.6v0.9h-4.4v-0.9h1.6v-8.4h-2.2v2.5h-0.9v-3.4h7.3V34.8z"/>
			<path class="st5" d="M205.6,41.6h-1.1v-4.7h-4.4v4.7H199V31.4h1.1V36h4.4v-4.6h1.1V41.6z"/>
			<path class="st5" d="M214.9,41.6h-6.5V31.4h6.5v0.9h-5.4V36h4v0.9h-4v3.8h5.4V41.6z"/>
			<path class="st5" d="M225,36.5c0,0.7-0.1,1.3-0.2,2c-0.1,0.6-0.4,1.2-0.7,1.7s-0.7,0.9-1.2,1.2s-1.1,0.4-1.8,0.4
				s-1.3-0.1-1.8-0.4s-0.9-0.7-1.2-1.2s-0.5-1-0.7-1.7c-0.1-0.6-0.2-1.3-0.2-2c0-0.7,0.1-1.3,0.2-2c0.1-0.6,0.4-1.2,0.7-1.7
				c0.3-0.5,0.7-0.9,1.2-1.2c0.5-0.3,1.1-0.4,1.8-0.4s1.3,0.1,1.8,0.4c0.5,0.3,0.9,0.7,1.2,1.2c0.3,0.5,0.5,1.1,0.7,1.7
				C224.9,35.2,225,35.8,225,36.5z M223.9,36.5c0-0.7-0.1-1.3-0.2-1.8c-0.1-0.5-0.3-1-0.5-1.4c-0.2-0.4-0.5-0.7-0.9-0.9
				c-0.4-0.2-0.8-0.3-1.2-0.3c-0.6,0-1,0.1-1.4,0.4c-0.4,0.3-0.7,0.6-0.9,1s-0.4,0.9-0.5,1.4s-0.1,1-0.1,1.5c0,0.5,0,1,0.1,1.5
				c0.1,0.5,0.2,1,0.5,1.4s0.5,0.8,0.9,1c0.4,0.3,0.8,0.4,1.4,0.4c0.6,0,1-0.1,1.4-0.4c0.4-0.3,0.7-0.6,0.9-1
				c0.2-0.4,0.4-0.9,0.5-1.4C223.8,37.5,223.9,37,223.9,36.5z"/>
			<path class="st5" d="M234.2,41.6h-1.4l-3-4.4h-1.6v4.4h-1.1V31.4h3.4c1.1,0,2,0.2,2.6,0.7c0.6,0.5,0.9,1.2,0.9,2.2
				c0,0.4-0.1,0.8-0.2,1.2c-0.2,0.3-0.4,0.6-0.6,0.9c-0.3,0.2-0.6,0.4-0.9,0.6c-0.4,0.1-0.8,0.2-1.2,0.3L234.2,41.6z M232.9,34.3
				c0-0.7-0.2-1.2-0.6-1.5s-1-0.5-1.8-0.5h-2.3v4h2.3c0.8,0,1.3-0.2,1.8-0.5C232.7,35.5,232.9,35,232.9,34.3z"/>
			<path class="st5" d="M243.6,32.3h-0.8l-2.4,4.9v3.5h1.6v0.9h-4.4v-0.9h1.6v-3.5l-2.4-4.9H236v-0.9h2.9v0.9H238l1.8,3.8l1.8-3.8
				h-0.8v-0.9h2.9V32.3z"/>
			<path class="st5" d="M262.5,36.5c0,0.7-0.1,1.3-0.2,2c-0.1,0.6-0.4,1.2-0.7,1.7s-0.7,0.9-1.2,1.2s-1.1,0.4-1.8,0.4
				s-1.3-0.1-1.8-0.4s-0.9-0.7-1.2-1.2s-0.5-1-0.7-1.7c-0.1-0.6-0.2-1.3-0.2-2c0-0.7,0.1-1.3,0.2-2c0.1-0.6,0.4-1.2,0.7-1.7
				c0.3-0.5,0.7-0.9,1.2-1.2c0.5-0.3,1.1-0.4,1.8-0.4s1.3,0.1,1.8,0.4c0.5,0.3,0.9,0.7,1.2,1.2c0.3,0.5,0.5,1.1,0.7,1.7
				C262.4,35.2,262.5,35.8,262.5,36.5z M261.4,36.5c0-0.7-0.1-1.3-0.2-1.8c-0.1-0.5-0.3-1-0.5-1.4c-0.2-0.4-0.5-0.7-0.9-0.9
				c-0.4-0.2-0.8-0.3-1.2-0.3c-0.6,0-1,0.1-1.4,0.4c-0.4,0.3-0.7,0.6-0.9,1s-0.4,0.9-0.5,1.4s-0.1,1-0.1,1.5c0,0.5,0,1,0.1,1.5
				c0.1,0.5,0.2,1,0.5,1.4s0.5,0.8,0.9,1c0.4,0.3,0.8,0.4,1.4,0.4c0.6,0,1-0.1,1.4-0.4c0.4-0.3,0.7-0.6,0.9-1
				c0.2-0.4,0.4-0.9,0.5-1.4C261.3,37.5,261.4,37,261.4,36.5z"/>
			<path class="st5" d="M271.2,32.3h-5.4V36h4v0.9h-4v4.7h-1.1V31.4h6.5V32.3z"/>
			<path class="st5" d="M290.3,38.7c0,1-0.3,1.7-0.9,2.2s-1.5,0.7-2.7,0.7h-3.2V31.4h3.1c0.4,0,0.8,0,1.3,0.1s0.8,0.2,1.1,0.4
				c0.3,0.2,0.6,0.5,0.8,0.8c0.2,0.3,0.3,0.8,0.3,1.3c0,1.1-0.5,1.8-1.6,2.2C289.6,36.6,290.3,37.4,290.3,38.7z M288.9,34
				c0-0.4-0.1-0.7-0.2-0.9c-0.2-0.2-0.3-0.4-0.6-0.5c-0.2-0.1-0.5-0.2-0.8-0.2c-0.3,0-0.6-0.1-0.8-0.1h-2v3.5h2c0.3,0,0.6,0,0.9-0.1
				c0.3,0,0.5-0.1,0.8-0.3c0.2-0.1,0.4-0.3,0.6-0.5C288.8,34.7,288.9,34.4,288.9,34z M289.2,38.7c0-0.7-0.2-1.2-0.7-1.5
				s-1.1-0.5-1.9-0.5h-2.2v4h2.2c0.8,0,1.4-0.2,1.9-0.5S289.2,39.3,289.2,38.7z"/>
			<path class="st5" d="M299.3,41.6h-6.5V31.4h1.1v9.3h5.4V41.6z"/>
			<path class="st5" d="M309.3,36.5c0,0.7-0.1,1.3-0.2,2c-0.1,0.6-0.4,1.2-0.7,1.7s-0.7,0.9-1.2,1.2s-1.1,0.4-1.8,0.4
				s-1.3-0.1-1.8-0.4s-0.9-0.7-1.2-1.2s-0.5-1-0.7-1.7c-0.1-0.6-0.2-1.3-0.2-2c0-0.7,0.1-1.3,0.2-2c0.1-0.6,0.4-1.2,0.7-1.7
				c0.3-0.5,0.7-0.9,1.2-1.2c0.5-0.3,1.1-0.4,1.8-0.4s1.3,0.1,1.8,0.4c0.5,0.3,0.9,0.7,1.2,1.2c0.3,0.5,0.5,1.1,0.7,1.7
				C309.3,35.2,309.3,35.8,309.3,36.5z M308.2,36.5c0-0.7-0.1-1.3-0.2-1.8c-0.1-0.5-0.3-1-0.5-1.4c-0.2-0.4-0.5-0.7-0.9-0.9
				c-0.4-0.2-0.8-0.3-1.2-0.3c-0.6,0-1,0.1-1.4,0.4c-0.4,0.3-0.7,0.6-0.9,1s-0.4,0.9-0.5,1.4s-0.1,1-0.1,1.5c0,0.5,0,1,0.1,1.5
				c0.1,0.5,0.2,1,0.5,1.4s0.5,0.8,0.9,1c0.4,0.3,0.8,0.4,1.4,0.4c0.6,0,1-0.1,1.4-0.4c0.4-0.3,0.7-0.6,0.9-1
				c0.2-0.4,0.4-0.9,0.5-1.4C308.2,37.5,308.2,37,308.2,36.5z"/>
			<path class="st5" d="M318.5,38.9c-0.3,0.9-0.7,1.6-1.3,2.1c-0.6,0.5-1.4,0.8-2.3,0.8c-0.7,0-1.3-0.1-1.8-0.4s-0.9-0.7-1.2-1.2
				s-0.5-1-0.7-1.7c-0.1-0.6-0.2-1.3-0.2-2c0-0.7,0.1-1.3,0.2-2c0.1-0.6,0.4-1.2,0.7-1.7c0.3-0.5,0.7-0.9,1.2-1.2
				c0.5-0.3,1.1-0.4,1.8-0.4c0.6,0,1.2,0.1,1.6,0.3c0.4,0.2,0.8,0.6,1,1v-1.2h0.9v3.3h-0.9c0-0.4-0.1-0.7-0.2-1s-0.3-0.6-0.6-0.8
				s-0.5-0.4-0.8-0.6s-0.7-0.2-1-0.2c-0.6,0-1,0.1-1.4,0.4c-0.4,0.3-0.7,0.6-0.9,1s-0.4,0.9-0.5,1.4s-0.1,1-0.1,1.5
				c0,0.5,0,1,0.1,1.5c0.1,0.5,0.2,1,0.5,1.4s0.5,0.8,0.9,1c0.4,0.3,0.8,0.4,1.4,0.4c1.3,0,2.2-0.8,2.7-2.3L318.5,38.9z"/>
			<path class="st5" d="M327.8,41.6h-1.3l-3.4-5l-1.1,1.2v3.8h-1.1V31.4h1.1v5l4.4-5h1.4l-4,4.5L327.8,41.6z"/>
			<path class="st5" d="M337.2,38.9c-0.3,0.9-0.7,1.6-1.3,2.1c-0.6,0.5-1.4,0.8-2.3,0.8c-0.7,0-1.3-0.1-1.8-0.4s-0.9-0.7-1.2-1.2
				s-0.5-1-0.7-1.7c-0.1-0.6-0.2-1.3-0.2-2c0-0.7,0.1-1.3,0.2-2c0.1-0.6,0.4-1.2,0.7-1.7c0.3-0.5,0.7-0.9,1.2-1.2
				c0.5-0.3,1.1-0.4,1.8-0.4c0.6,0,1.2,0.1,1.6,0.3c0.4,0.2,0.8,0.6,1,1v-1.2h0.9v3.3h-0.9c0-0.4-0.1-0.7-0.2-1s-0.3-0.6-0.6-0.8
				s-0.5-0.4-0.8-0.6s-0.7-0.2-1-0.2c-0.6,0-1,0.1-1.4,0.4c-0.4,0.3-0.7,0.6-0.9,1s-0.4,0.9-0.5,1.4s-0.1,1-0.1,1.5
				c0,0.5,0,1,0.1,1.5c0.1,0.5,0.2,1,0.5,1.4s0.5,0.8,0.9,1c0.4,0.3,0.8,0.4,1.4,0.4c1.3,0,2.2-0.8,2.7-2.3L337.2,38.9z"/>
			<path class="st5" d="M346.2,41.6h-1.1v-4.7h-4.4v4.7h-1.1V31.4h1.1V36h4.4v-4.6h1.1V41.6z"/>
			<path class="st5" d="M356.4,41.6h-1.1l-1-2.9h-4l-0.9,2.9h-1.1l3.4-10.2h1.5L356.4,41.6z M354,37.7l-1.7-5.3l-1.7,5.3H354z"/>
			<path class="st5" d="M363.9,41.6h-4.4v-0.9h1.6v-8.4h-1.6v-0.9h4.4v0.9h-1.6v8.4h1.6V41.6z"/>
			<path class="st5" d="M374.3,41.6H373l-4.1-8.6v8.6h-1.1V31.4h1.5l3.9,8.2v-8.2h1.1V41.6z"/>
		</g>
	</g>
	<g>
		<g>
			<path class="st5" d="M223.4,339.7c0,0.7-0.2,1.3-0.7,1.6s-1.1,0.5-2,0.5h-2.4v-7.6h2.3c0.3,0,0.6,0,0.9,0.1s0.6,0.2,0.8,0.3
				s0.4,0.3,0.6,0.6s0.2,0.6,0.2,1c0,0.8-0.4,1.3-1.2,1.6C223,338.1,223.4,338.7,223.4,339.7z M222.4,336.2c0-0.3-0.1-0.5-0.2-0.7
				s-0.3-0.3-0.4-0.4s-0.4-0.2-0.6-0.2s-0.4,0-0.6,0h-1.5v2.6h1.5c0.2,0,0.4,0,0.6,0s0.4-0.1,0.6-0.2s0.3-0.2,0.4-0.4
				S222.4,336.4,222.4,336.2z M222.6,339.7c0-0.5-0.2-0.9-0.5-1.2s-0.8-0.4-1.4-0.4h-1.6v3h1.6c0.6,0,1.1-0.1,1.4-0.4
				S222.6,340.2,222.6,339.7z"/>
			<path class="st5" d="M229.4,341.8h-3.3v-0.7h1.2v-6.3h-1.2v-0.7h2v7h1.2V341.8z"/>
			<path class="st5" d="M237.7,339.1c0,0.4-0.1,0.8-0.2,1.2s-0.3,0.6-0.6,0.9s-0.6,0.4-0.9,0.6s-0.7,0.2-1.2,0.2
				c-0.4,0-0.8-0.1-1.2-0.2s-0.7-0.3-0.9-0.6s-0.4-0.5-0.6-0.9s-0.2-0.7-0.2-1.2c0-0.4,0.1-0.8,0.2-1.2s0.3-0.7,0.6-0.9
				s0.6-0.4,0.9-0.6s0.7-0.2,1.2-0.2c0.4,0,0.8,0.1,1.2,0.2s0.7,0.3,0.9,0.6s0.4,0.6,0.6,0.9S237.7,338.7,237.7,339.1z M236.8,339.1
				c0-0.3,0-0.6-0.1-0.9c-0.1-0.3-0.2-0.5-0.4-0.7s-0.4-0.4-0.7-0.5s-0.5-0.2-0.9-0.2s-0.6,0.1-0.9,0.2s-0.5,0.3-0.6,0.5
				s-0.3,0.4-0.4,0.7c-0.1,0.3-0.1,0.6-0.1,0.9c0,0.3,0,0.6,0.1,0.9c0.1,0.3,0.2,0.5,0.4,0.7s0.4,0.3,0.6,0.5s0.5,0.2,0.9,0.2
				s0.6-0.1,0.9-0.2s0.5-0.3,0.7-0.5s0.3-0.4,0.4-0.7C236.8,339.7,236.8,339.4,236.8,339.1z"/>
			<path class="st5" d="M244.3,340.8c-0.2,0.4-0.5,0.6-0.9,0.9s-0.9,0.3-1.4,0.3c-0.4,0-0.8-0.1-1.2-0.2s-0.7-0.3-0.9-0.6
				s-0.4-0.6-0.6-0.9s-0.2-0.7-0.2-1.2c0-0.4,0.1-0.8,0.2-1.2s0.3-0.7,0.6-0.9s0.5-0.4,0.9-0.6s0.7-0.2,1.2-0.2c0.2,0,0.3,0,0.5,0.1
				s0.3,0.1,0.5,0.2s0.3,0.2,0.4,0.3s0.2,0.2,0.3,0.4v-0.8h0.7v2.2h-0.7c0-0.2,0-0.5-0.1-0.7s-0.2-0.4-0.4-0.5s-0.3-0.3-0.5-0.3
				s-0.4-0.1-0.7-0.1c-0.3,0-0.6,0.1-0.9,0.2s-0.4,0.3-0.6,0.5s-0.3,0.4-0.4,0.7c-0.1,0.3-0.1,0.6-0.1,0.9c0,0.3,0,0.6,0.1,0.9
				c0.1,0.3,0.2,0.5,0.4,0.7s0.4,0.3,0.7,0.5s0.5,0.2,0.9,0.2c0.4,0,0.8-0.1,1.1-0.2s0.6-0.4,0.7-0.6L244.3,340.8z"/>
			<path class="st5" d="M251.6,341.8h-1.1l-2.2-2.4l-1,0.9v1.5h-0.8v-7.6h0.8v5.1l3.1-2.9h1.1l-2.7,2.5L251.6,341.8z"/>
			<path class="st5" d="M258.4,340.8c-0.2,0.4-0.5,0.6-0.9,0.9s-0.9,0.3-1.4,0.3c-0.4,0-0.8-0.1-1.2-0.2s-0.7-0.3-0.9-0.6
				s-0.4-0.6-0.6-0.9s-0.2-0.7-0.2-1.2c0-0.4,0.1-0.8,0.2-1.2s0.3-0.7,0.6-0.9s0.5-0.4,0.9-0.6s0.7-0.2,1.2-0.2c0.2,0,0.3,0,0.5,0.1
				s0.3,0.1,0.5,0.2s0.3,0.2,0.4,0.3s0.2,0.2,0.3,0.4v-0.8h0.7v2.2h-0.7c0-0.2,0-0.5-0.1-0.7s-0.2-0.4-0.4-0.5s-0.3-0.3-0.5-0.3
				s-0.4-0.1-0.7-0.1c-0.3,0-0.6,0.1-0.9,0.2s-0.4,0.3-0.6,0.5s-0.3,0.4-0.4,0.7c-0.1,0.3-0.1,0.6-0.1,0.9c0,0.3,0,0.6,0.1,0.9
				c0.1,0.3,0.2,0.5,0.4,0.7s0.4,0.3,0.7,0.5s0.5,0.2,0.9,0.2c0.4,0,0.8-0.1,1.1-0.2s0.6-0.4,0.7-0.6L258.4,340.8z"/>
			<path class="st5" d="M265.3,341.8h-0.8v-3.4c0-0.5-0.1-0.9-0.3-1.1c-0.2-0.3-0.6-0.4-1-0.4c-0.3,0-0.6,0.1-0.8,0.2
				c-0.2,0.1-0.4,0.3-0.6,0.5s-0.3,0.5-0.4,0.8c-0.1,0.3-0.1,0.6-0.1,0.9v2.4h-0.8v-7.6h0.8v3.6c0.4-1,1.1-1.5,2.1-1.5
				c1.3,0,2,0.7,2,2.2V341.8z"/>
			<path class="st5" d="M267.2,340.4c0-0.3,0.1-0.6,0.3-0.9c0.2-0.2,0.4-0.4,0.7-0.6c0.3-0.1,0.6-0.2,1-0.3c0.4-0.1,0.7-0.1,1.1-0.1
				c0.1,0,0.3,0,0.4,0s0.2,0,0.3,0s0.2,0,0.3,0c0.1,0,0.2,0,0.3,0v-0.4c0-0.3-0.1-0.5-0.2-0.7c-0.1-0.2-0.3-0.3-0.4-0.4
				s-0.3-0.2-0.5-0.2s-0.3-0.1-0.5-0.1c-0.4,0-0.8,0.1-1.1,0.2s-0.7,0.3-1,0.4l-0.4-0.6c0.3-0.2,0.7-0.4,1.1-0.5s0.9-0.2,1.3-0.2
				c0.3,0,0.6,0,0.9,0.1s0.5,0.2,0.8,0.4s0.4,0.4,0.6,0.6c0.1,0.3,0.2,0.6,0.2,0.9v3.6h-0.8l0-0.9c-0.1,0.2-0.3,0.3-0.5,0.5
				s-0.4,0.2-0.6,0.3s-0.4,0.1-0.6,0.2s-0.4,0.1-0.6,0.1c-0.7,0-1.3-0.1-1.6-0.4S267.2,340.9,267.2,340.4z M269.4,341.3
				c0.3,0,0.6,0,0.9-0.1c0.3-0.1,0.5-0.2,0.7-0.4s0.3-0.3,0.4-0.5s0.2-0.3,0.2-0.5v-0.5c-0.3,0-0.5-0.1-0.8-0.1c-0.2,0-0.4,0-0.6,0
				c-0.3,0-0.6,0-0.8,0.1c-0.3,0-0.5,0.1-0.7,0.2c-0.2,0.1-0.4,0.2-0.5,0.3c-0.1,0.1-0.2,0.3-0.2,0.5c0,0.2,0.1,0.4,0.3,0.6
				C268.6,341.2,268.9,341.3,269.4,341.3z"/>
			<path class="st5" d="M278.6,341.8h-3.3v-0.7h1.2v-4.1h-1.2v-0.7h2v4.8h1.2V341.8z M277.5,335.3h-1.1v-1.1h1.1V335.3z"/>
			<path class="st5" d="M286.4,341.8h-0.8v-3.4c0-0.5-0.1-0.9-0.3-1.1c-0.2-0.3-0.6-0.4-1-0.4c-0.3,0-0.6,0.1-0.8,0.2
				c-0.2,0.1-0.4,0.3-0.6,0.5s-0.3,0.5-0.4,0.8c-0.1,0.3-0.1,0.6-0.1,0.9v2.4h-0.8v-5.5h0.8v1.4c0.4-1,1.1-1.5,2.1-1.5
				c1.3,0,2,0.7,2,2.2V341.8z"/>
			<path class="st5" d="M300.6,339.8c0,0.3-0.1,0.6-0.2,0.9s-0.3,0.5-0.5,0.7s-0.5,0.3-0.8,0.4s-0.6,0.2-0.9,0.2
				c-0.4,0-0.8-0.1-1.2-0.2s-0.6-0.4-0.9-0.7v0.8h-0.7v-2.3h0.7c0,0.3,0.1,0.5,0.2,0.7s0.3,0.4,0.5,0.6s0.4,0.3,0.6,0.4
				s0.5,0.1,0.7,0.1c0.2,0,0.4,0,0.6-0.1s0.4-0.2,0.5-0.3s0.3-0.3,0.3-0.4s0.1-0.4,0.1-0.6c0-0.2-0.1-0.5-0.2-0.6s-0.3-0.3-0.4-0.5
				s-0.4-0.2-0.6-0.3s-0.5-0.2-0.7-0.3c-0.3-0.1-0.6-0.2-0.8-0.3s-0.5-0.2-0.7-0.4s-0.4-0.4-0.5-0.6s-0.2-0.5-0.2-0.9
				c0-0.3,0.1-0.6,0.2-0.8s0.3-0.5,0.5-0.6s0.5-0.3,0.8-0.4s0.6-0.1,0.9-0.1c0.4,0,0.7,0.1,1,0.2s0.6,0.4,0.7,0.7v-0.8h0.7v2.2h-0.7
				c0-0.2,0-0.4-0.1-0.6s-0.2-0.4-0.4-0.5s-0.4-0.3-0.6-0.3s-0.4-0.1-0.7-0.1c-0.2,0-0.4,0-0.6,0.1s-0.4,0.1-0.5,0.2
				s-0.3,0.2-0.3,0.4s-0.1,0.4-0.1,0.6c0,0.2,0,0.4,0.1,0.5s0.2,0.3,0.4,0.4s0.4,0.2,0.6,0.3s0.4,0.2,0.7,0.3
				c0.3,0.1,0.6,0.2,0.9,0.3s0.5,0.3,0.8,0.5s0.4,0.4,0.6,0.6S300.6,339.5,300.6,339.8z"/>
			<path class="st5" d="M306.7,341.8h-3.3v-0.7h1.2v-4.1h-1.2v-0.7h2v4.8h1.2V341.8z M305.6,335.3h-1.1v-1.1h1.1V335.3z"/>
			<path class="st5" d="M314.6,341.8h-4.9v-0.7l3.7-4.1h-3v1.5h-0.7v-2.2h4.8v0.7l-3.7,4.1h3.2v-1.5h0.7V341.8z"/>
			<path class="st5" d="M317.2,339.4c0.1,0.6,0.3,1,0.6,1.4s0.8,0.5,1.4,0.5c0.4,0,0.8-0.1,1.1-0.3s0.6-0.4,0.7-0.6l0.6,0.4
				c-0.3,0.4-0.6,0.7-1,0.9s-0.8,0.3-1.4,0.3c-0.4,0-0.8-0.1-1.2-0.2s-0.7-0.3-0.9-0.6s-0.5-0.6-0.6-0.9s-0.2-0.7-0.2-1.2
				c0-0.4,0.1-0.8,0.2-1.1s0.3-0.7,0.6-0.9s0.5-0.5,0.9-0.6s0.7-0.2,1.2-0.2c0.5,0,0.9,0.1,1.2,0.2s0.6,0.4,0.9,0.6s0.4,0.6,0.5,1
				s0.2,0.8,0.2,1.3H317.2z M321.1,338.7c-0.1-0.6-0.3-1-0.7-1.3c-0.3-0.3-0.8-0.4-1.3-0.4c-0.3,0-0.5,0-0.7,0.1
				c-0.2,0.1-0.4,0.2-0.6,0.4c-0.2,0.2-0.3,0.3-0.4,0.6c-0.1,0.2-0.2,0.5-0.2,0.7H321.1z"/>
			<path class="st5" d="M335.8,334.2l-4.5,9l-0.6-0.3l4.5-9L335.8,334.2z"/>
			<path class="st5" d="M349.7,341.8h-4.9v-7.6h4.9v0.7h-4.1v2.7h3v0.7h-3v2.9h4.1V341.8z"/>
			<path class="st5" d="M357.2,341.8h-2.3v-0.7h0.5l-1.1-1.6l-1.1,1.6h0.4v0.7h-2.2v-0.7h0.8l1.5-2.1l-1.4-2h-0.8v-0.7h2.2v0.7h-0.5
				l1,1.5l1-1.5h-0.6v-0.7h2.3v0.7h-0.8l-1.4,2l1.5,2.1h0.8V341.8z"/>
			<path class="st5" d="M364.1,340.1c-0.1,0.6-0.3,1-0.7,1.4s-0.9,0.5-1.5,0.5c-0.3,0-0.6-0.1-0.9-0.2s-0.5-0.3-0.7-0.4
				s-0.3-0.4-0.4-0.7s-0.2-0.6-0.2-0.9v-2.8h-1.2v-0.7h1.2v-2.2h0.8v2.2h2.3v0.7h-2.3v2.8c0,0.2,0,0.4,0.1,0.6s0.2,0.3,0.3,0.5
				s0.3,0.2,0.4,0.3s0.4,0.1,0.6,0.1c0.4,0,0.7-0.1,1-0.4s0.4-0.6,0.5-1L364.1,340.1z"/>
			<path class="st5" d="M366.4,339.4c0.1,0.6,0.3,1,0.6,1.4s0.8,0.5,1.4,0.5c0.4,0,0.8-0.1,1.1-0.3s0.6-0.4,0.7-0.6l0.6,0.4
				c-0.3,0.4-0.6,0.7-1,0.9s-0.8,0.3-1.4,0.3c-0.4,0-0.8-0.1-1.2-0.2s-0.7-0.3-0.9-0.6s-0.5-0.6-0.6-0.9s-0.2-0.7-0.2-1.2
				c0-0.4,0.1-0.8,0.2-1.1s0.3-0.7,0.6-0.9s0.5-0.5,0.9-0.6s0.7-0.2,1.2-0.2c0.5,0,0.9,0.1,1.2,0.2s0.6,0.4,0.9,0.6s0.4,0.6,0.5,1
				s0.2,0.8,0.2,1.3H366.4z M370.3,338.7c-0.1-0.6-0.3-1-0.7-1.3c-0.3-0.3-0.8-0.4-1.3-0.4c-0.3,0-0.5,0-0.7,0.1
				c-0.2,0.1-0.4,0.2-0.6,0.4c-0.2,0.2-0.3,0.3-0.4,0.6c-0.1,0.2-0.2,0.5-0.2,0.7H370.3z"/>
			<path class="st5" d="M377.8,341.8H377v-3.4c0-0.5-0.1-0.9-0.3-1.1c-0.2-0.3-0.6-0.4-1-0.4c-0.3,0-0.6,0.1-0.8,0.2
				c-0.2,0.1-0.4,0.3-0.6,0.5s-0.3,0.5-0.4,0.8c-0.1,0.3-0.1,0.6-0.1,0.9v2.4H373v-5.5h0.8v1.4c0.4-1,1.1-1.5,2.1-1.5
				c1.3,0,2,0.7,2,2.2V341.8z"/>
			<path class="st5" d="M385.2,340.1c-0.1,0.6-0.3,1-0.7,1.4s-0.9,0.5-1.5,0.5c-0.3,0-0.6-0.1-0.9-0.2s-0.5-0.3-0.7-0.4
				s-0.3-0.4-0.4-0.7s-0.2-0.6-0.2-0.9v-2.8h-1.2v-0.7h1.2v-2.2h0.8v2.2h2.3v0.7h-2.3v2.8c0,0.2,0,0.4,0.1,0.6s0.2,0.3,0.3,0.5
				s0.3,0.2,0.4,0.3s0.4,0.1,0.6,0.1c0.4,0,0.7-0.1,1-0.4s0.4-0.6,0.5-1L385.2,340.1z"/>
			<path class="st5" d="M119.7,356.5c-0.4-0.3-0.8-0.7-1.1-1.1s-0.6-0.9-0.8-1.3s-0.4-1-0.5-1.5s-0.2-1-0.2-1.6s0.1-1,0.2-1.6
				s0.3-1,0.5-1.5s0.5-0.9,0.8-1.3s0.7-0.8,1.1-1.1l0.4,0.5c-0.4,0.3-0.7,0.6-1,1s-0.5,0.8-0.7,1.2s-0.4,0.9-0.5,1.3
				s-0.2,0.9-0.2,1.4c0,0.5,0.1,1,0.2,1.4s0.3,0.9,0.5,1.3s0.4,0.8,0.7,1.2s0.6,0.7,1,1L119.7,356.5z"/>
			<path class="st5" d="M128.2,354.3h-0.8V351c0-0.5-0.1-0.9-0.3-1.1c-0.2-0.3-0.6-0.4-1-0.4c-0.3,0-0.6,0.1-0.8,0.2
				c-0.2,0.1-0.4,0.3-0.6,0.5s-0.3,0.5-0.4,0.8c-0.1,0.3-0.1,0.6-0.1,0.9v2.4h-0.8v-5.5h0.8v1.4c0.4-1,1.1-1.5,2.1-1.5
				c1.3,0,2,0.7,2,2.2V354.3z"/>
			<path class="st5" d="M130.4,348.9h0.8v3.4c0,0.5,0.1,0.9,0.3,1.1c0.2,0.3,0.6,0.4,1,0.4c0.3,0,0.6-0.1,0.8-0.2s0.4-0.3,0.6-0.5
				s0.3-0.5,0.4-0.8s0.1-0.6,0.1-0.9v-2.4h0.8v5.5h-0.8l0-1.4c-0.4,1-1.1,1.5-2.1,1.5c-1.3,0-2-0.7-2-2.2V348.9z"/>
			<path class="st5" d="M142.6,354.3h-0.8v-3.9c0-0.3-0.1-0.6-0.2-0.7c-0.1-0.2-0.3-0.3-0.5-0.3c-0.3,0-0.5,0.2-0.7,0.5
				c-0.1,0.3-0.2,0.8-0.2,1.3v3.1h-0.8v-3.9c0-0.3-0.1-0.6-0.2-0.7s-0.3-0.3-0.5-0.3c-0.2,0-0.3,0.1-0.5,0.2s-0.2,0.3-0.3,0.4
				c-0.1,0.2-0.1,0.4-0.1,0.6c0,0.2,0,0.4,0,0.6v3.1h-0.8v-5.5h0.8v0.8c0.2-0.6,0.5-0.9,1.1-0.9c0.5,0,0.9,0.3,1.1,0.8
				c0.3-0.5,0.6-0.8,1.1-0.8c0.5,0,0.8,0.1,1,0.4s0.3,0.7,0.3,1.3V354.3z"/>
			<path class="st5" d="M149.6,351.6c0,0.4-0.1,0.8-0.2,1.2s-0.3,0.7-0.6,0.9s-0.5,0.4-0.9,0.6s-0.7,0.2-1.1,0.2
				c-0.3,0-0.6-0.1-0.9-0.2s-0.5-0.3-0.8-0.5v0.5h-0.8v-7.6h0.8v2.7c0.2-0.2,0.5-0.4,0.8-0.5c0.3-0.1,0.6-0.2,0.9-0.2
				c0.4,0,0.8,0.1,1.1,0.2s0.6,0.3,0.9,0.6s0.4,0.6,0.6,0.9S149.6,351.2,149.6,351.6z M148.8,351.6c0-0.3,0-0.6-0.1-0.9
				c-0.1-0.3-0.2-0.5-0.4-0.7s-0.4-0.3-0.6-0.5s-0.5-0.2-0.8-0.2c-0.6,0-1.2,0.2-1.6,0.7v2.9c0.2,0.3,0.5,0.4,0.8,0.5
				s0.6,0.2,0.9,0.2c0.3,0,0.6-0.1,0.8-0.2s0.4-0.3,0.6-0.5s0.3-0.4,0.4-0.7C148.8,352.2,148.8,351.9,148.8,351.6z"/>
			<path class="st5" d="M152,351.9c0.1,0.6,0.3,1,0.6,1.4s0.8,0.5,1.4,0.5c0.4,0,0.8-0.1,1.1-0.3s0.6-0.4,0.7-0.6l0.6,0.4
				c-0.3,0.4-0.6,0.7-1,0.9s-0.8,0.3-1.4,0.3c-0.4,0-0.8-0.1-1.2-0.2s-0.7-0.3-0.9-0.6s-0.5-0.6-0.6-0.9s-0.2-0.7-0.2-1.2
				c0-0.4,0.1-0.8,0.2-1.1s0.3-0.7,0.6-0.9s0.5-0.5,0.9-0.6s0.7-0.2,1.2-0.2c0.5,0,0.9,0.1,1.2,0.2s0.6,0.4,0.9,0.6s0.4,0.6,0.5,1
				s0.2,0.8,0.2,1.3H152z M155.9,351.2c-0.1-0.6-0.3-1-0.7-1.3c-0.3-0.3-0.8-0.4-1.3-0.4c-0.3,0-0.5,0-0.7,0.1
				c-0.2,0.1-0.4,0.2-0.6,0.4c-0.2,0.2-0.3,0.3-0.4,0.6c-0.1,0.2-0.2,0.5-0.2,0.7H155.9z"/>
			<path class="st5" d="M163.4,349.7c-0.3-0.1-0.6-0.2-1-0.2c-0.3,0-0.6,0.1-0.9,0.2s-0.5,0.3-0.7,0.6s-0.3,0.5-0.4,0.8
				c-0.1,0.3-0.1,0.6-0.1,0.9v1.8h1.2v0.7h-3.3v-0.7h1.2v-4.1h-1.2v-0.7h2v1.4c0.4-1,1.1-1.5,2.1-1.5c0.3,0,0.5,0,0.7,0.1
				c0.2,0,0.4,0.1,0.6,0.2L163.4,349.7z"/>
			<path class="st5" d="M177.9,351.6c0,0.4-0.1,0.8-0.2,1.2s-0.3,0.6-0.6,0.9s-0.6,0.4-0.9,0.6s-0.7,0.2-1.2,0.2
				c-0.4,0-0.8-0.1-1.2-0.2s-0.7-0.3-0.9-0.6s-0.4-0.5-0.6-0.9s-0.2-0.7-0.2-1.2c0-0.4,0.1-0.8,0.2-1.2s0.3-0.7,0.6-0.9
				s0.6-0.4,0.9-0.6s0.7-0.2,1.2-0.2c0.4,0,0.8,0.1,1.2,0.2s0.7,0.3,0.9,0.6s0.4,0.6,0.6,0.9S177.9,351.2,177.9,351.6z M177.1,351.6
				c0-0.3,0-0.6-0.1-0.9c-0.1-0.3-0.2-0.5-0.4-0.7s-0.4-0.4-0.7-0.5s-0.5-0.2-0.9-0.2s-0.6,0.1-0.9,0.2s-0.5,0.3-0.6,0.5
				s-0.3,0.4-0.4,0.7c-0.1,0.3-0.1,0.6-0.1,0.9c0,0.3,0,0.6,0.1,0.9c0.1,0.3,0.2,0.5,0.4,0.7s0.4,0.3,0.6,0.5s0.5,0.2,0.9,0.2
				s0.6-0.1,0.9-0.2s0.5-0.3,0.7-0.5s0.3-0.4,0.4-0.7C177,352.2,177.1,351.9,177.1,351.6z"/>
			<path class="st5" d="M184.8,349.6h-2.3v4.1h1.2v0.7h-3.3v-0.7h1.2v-4.1h-1.2v-0.7h1.2c0-0.8,0.2-1.3,0.6-1.7s1-0.6,1.8-0.6
				c0.2,0,0.3,0,0.5,0s0.2,0,0.3,0v0.7c-0.1,0-0.2,0-0.4,0s-0.3,0-0.4,0c-0.5,0-0.9,0.1-1.2,0.4s-0.4,0.7-0.4,1.2h2.3V349.6z"/>
			<path class="st5" d="M198.8,351.6c0,0.4-0.1,0.8-0.2,1.2s-0.3,0.6-0.6,0.9s-0.5,0.4-0.9,0.6s-0.7,0.2-1.1,0.2
				c-0.3,0-0.6-0.1-0.8-0.2s-0.5-0.3-0.8-0.5v2.7h-0.8v-7.6h0.8v0.5c0.5-0.4,1-0.6,1.6-0.6c0.4,0,0.8,0.1,1.1,0.2s0.6,0.3,0.9,0.6
				s0.4,0.6,0.6,0.9S198.8,351.2,198.8,351.6z M198,351.6c0-0.3,0-0.6-0.1-0.9c-0.1-0.3-0.2-0.5-0.4-0.7s-0.4-0.3-0.6-0.5
				s-0.5-0.2-0.8-0.2c-0.3,0-0.6,0.1-0.9,0.2s-0.5,0.3-0.7,0.5v2.9c0.2,0.3,0.5,0.4,0.7,0.5s0.5,0.2,0.9,0.2c0.3,0,0.6-0.1,0.8-0.2
				s0.5-0.3,0.6-0.5s0.3-0.4,0.4-0.7C198,352.2,198,351.9,198,351.6z"/>
			<path class="st5" d="M200.4,352.9c0-0.3,0.1-0.6,0.3-0.9c0.2-0.2,0.4-0.4,0.7-0.6c0.3-0.1,0.6-0.2,1-0.3c0.4-0.1,0.7-0.1,1.1-0.1
				c0.1,0,0.3,0,0.4,0s0.2,0,0.3,0s0.2,0,0.3,0c0.1,0,0.2,0,0.3,0v-0.4c0-0.3-0.1-0.5-0.2-0.7c-0.1-0.2-0.3-0.3-0.4-0.4
				s-0.3-0.2-0.5-0.2s-0.3-0.1-0.5-0.1c-0.4,0-0.8,0.1-1.1,0.2s-0.7,0.3-1,0.4l-0.4-0.6c0.3-0.2,0.7-0.4,1.1-0.5s0.9-0.2,1.3-0.2
				c0.3,0,0.6,0,0.9,0.1s0.5,0.2,0.8,0.4s0.4,0.4,0.6,0.6c0.1,0.3,0.2,0.6,0.2,0.9v3.6h-0.8l0-0.9c-0.1,0.2-0.3,0.3-0.5,0.5
				s-0.4,0.2-0.6,0.3s-0.4,0.1-0.6,0.2s-0.4,0.1-0.6,0.1c-0.7,0-1.3-0.1-1.6-0.4S200.4,353.4,200.4,352.9z M202.6,353.8
				c0.3,0,0.6,0,0.9-0.1c0.3-0.1,0.5-0.2,0.7-0.4s0.3-0.3,0.4-0.5s0.2-0.3,0.2-0.5v-0.5c-0.3,0-0.5-0.1-0.8-0.1c-0.2,0-0.4,0-0.6,0
				c-0.3,0-0.6,0-0.8,0.1c-0.3,0-0.5,0.1-0.7,0.2c-0.2,0.1-0.4,0.2-0.5,0.3c-0.1,0.1-0.2,0.3-0.2,0.5c0,0.2,0.1,0.4,0.3,0.6
				C201.8,353.7,202.1,353.8,202.6,353.8z"/>
			<path class="st5" d="M212.6,349.7c-0.3-0.1-0.6-0.2-1-0.2c-0.3,0-0.6,0.1-0.9,0.2s-0.5,0.3-0.7,0.6s-0.3,0.5-0.4,0.8
				c-0.1,0.3-0.1,0.6-0.1,0.9v1.8h1.2v0.7h-3.3v-0.7h1.2v-4.1h-1.2v-0.7h2v1.4c0.4-1,1.1-1.5,2.1-1.5c0.3,0,0.5,0,0.7,0.1
				c0.2,0,0.4,0.1,0.6,0.2L212.6,349.7z"/>
			<path class="st5" d="M220,352.6c-0.1,0.6-0.3,1-0.7,1.4s-0.9,0.5-1.5,0.5c-0.3,0-0.6-0.1-0.9-0.2s-0.5-0.3-0.7-0.4
				s-0.3-0.4-0.4-0.7s-0.2-0.6-0.2-0.9v-2.8h-1.2v-0.7h1.2v-2.2h0.8v2.2h2.3v0.7h-2.3v2.8c0,0.2,0,0.4,0.1,0.6s0.2,0.3,0.3,0.5
				s0.3,0.2,0.4,0.3s0.4,0.1,0.6,0.1c0.4,0,0.7-0.1,1-0.4s0.4-0.6,0.5-1L220,352.6z"/>
			<path class="st5" d="M225.9,354.3h-3.3v-0.7h1.2v-4.1h-1.2v-0.7h2v4.8h1.2V354.3z M224.8,347.8h-1.1v-1.1h1.1V347.8z"/>
			<path class="st5" d="M233.8,353.3c-0.2,0.4-0.5,0.6-0.9,0.9s-0.9,0.3-1.4,0.3c-0.4,0-0.8-0.1-1.2-0.2s-0.7-0.3-0.9-0.6
				s-0.4-0.6-0.6-0.9s-0.2-0.7-0.2-1.2c0-0.4,0.1-0.8,0.2-1.2s0.3-0.7,0.6-0.9s0.5-0.4,0.9-0.6s0.7-0.2,1.2-0.2c0.2,0,0.3,0,0.5,0.1
				s0.3,0.1,0.5,0.2s0.3,0.2,0.4,0.3s0.2,0.2,0.3,0.4v-0.8h0.7v2.2H233c0-0.2,0-0.5-0.1-0.7s-0.2-0.4-0.4-0.5s-0.3-0.3-0.5-0.3
				s-0.4-0.1-0.7-0.1c-0.3,0-0.6,0.1-0.9,0.2s-0.4,0.3-0.6,0.5s-0.3,0.4-0.4,0.7c-0.1,0.3-0.1,0.6-0.1,0.9c0,0.3,0,0.6,0.1,0.9
				c0.1,0.3,0.2,0.5,0.4,0.7s0.4,0.3,0.7,0.5s0.5,0.2,0.9,0.2c0.4,0,0.8-0.1,1.1-0.2s0.6-0.4,0.7-0.6L233.8,353.3z"/>
			<path class="st5" d="M239.9,354.3h-3.3v-0.7h1.2v-4.1h-1.2v-0.7h2v4.8h1.2V354.3z M238.8,347.8h-1.1v-1.1h1.1V347.8z"/>
			<path class="st5" d="M248.1,351.6c0,0.4-0.1,0.8-0.2,1.2s-0.3,0.6-0.6,0.9s-0.5,0.4-0.9,0.6s-0.7,0.2-1.1,0.2
				c-0.3,0-0.6-0.1-0.8-0.2s-0.5-0.3-0.8-0.5v2.7h-0.8v-7.6h0.8v0.5c0.5-0.4,1-0.6,1.6-0.6c0.4,0,0.8,0.1,1.1,0.2s0.6,0.3,0.9,0.6
				s0.4,0.6,0.6,0.9S248.1,351.2,248.1,351.6z M247.3,351.6c0-0.3,0-0.6-0.1-0.9c-0.1-0.3-0.2-0.5-0.4-0.7s-0.4-0.3-0.6-0.5
				s-0.5-0.2-0.8-0.2c-0.3,0-0.6,0.1-0.9,0.2s-0.5,0.3-0.7,0.5v2.9c0.2,0.3,0.5,0.4,0.7,0.5s0.5,0.2,0.9,0.2c0.3,0,0.6-0.1,0.8-0.2
				s0.5-0.3,0.6-0.5s0.3-0.4,0.4-0.7C247.2,352.2,247.3,351.9,247.3,351.6z"/>
			<path class="st5" d="M249.6,352.9c0-0.3,0.1-0.6,0.3-0.9c0.2-0.2,0.4-0.4,0.7-0.6c0.3-0.1,0.6-0.2,1-0.3c0.4-0.1,0.7-0.1,1.1-0.1
				c0.1,0,0.3,0,0.4,0s0.2,0,0.3,0s0.2,0,0.3,0c0.1,0,0.2,0,0.3,0v-0.4c0-0.3-0.1-0.5-0.2-0.7c-0.1-0.2-0.3-0.3-0.4-0.4
				s-0.3-0.2-0.5-0.2s-0.3-0.1-0.5-0.1c-0.4,0-0.8,0.1-1.1,0.2s-0.7,0.3-1,0.4l-0.4-0.6c0.3-0.2,0.7-0.4,1.1-0.5s0.9-0.2,1.3-0.2
				c0.3,0,0.6,0,0.9,0.1s0.5,0.2,0.8,0.4s0.4,0.4,0.6,0.6c0.1,0.3,0.2,0.6,0.2,0.9v3.6H254l0-0.9c-0.1,0.2-0.3,0.3-0.5,0.5
				s-0.4,0.2-0.6,0.3s-0.4,0.1-0.6,0.2s-0.4,0.1-0.6,0.1c-0.7,0-1.3-0.1-1.6-0.4S249.6,353.4,249.6,352.9z M251.8,353.8
				c0.3,0,0.6,0,0.9-0.1c0.3-0.1,0.5-0.2,0.7-0.4s0.3-0.3,0.4-0.5s0.2-0.3,0.2-0.5v-0.5c-0.3,0-0.5-0.1-0.8-0.1c-0.2,0-0.4,0-0.6,0
				c-0.3,0-0.6,0-0.8,0.1c-0.3,0-0.5,0.1-0.7,0.2c-0.2,0.1-0.4,0.2-0.5,0.3c-0.1,0.1-0.2,0.3-0.2,0.5c0,0.2,0.1,0.4,0.3,0.6
				C251,353.7,251.3,353.8,251.8,353.8z"/>
			<path class="st5" d="M261.8,354.3H261V351c0-0.5-0.1-0.9-0.3-1.1c-0.2-0.3-0.6-0.4-1-0.4c-0.3,0-0.6,0.1-0.8,0.2
				c-0.2,0.1-0.4,0.3-0.6,0.5s-0.3,0.5-0.4,0.8c-0.1,0.3-0.1,0.6-0.1,0.9v2.4h-0.8v-5.5h0.8v1.4c0.4-1,1.1-1.5,2.1-1.5
				c1.3,0,2,0.7,2,2.2V354.3z"/>
			<path class="st5" d="M269.2,352.6c-0.1,0.6-0.3,1-0.7,1.4s-0.9,0.5-1.5,0.5c-0.3,0-0.6-0.1-0.9-0.2s-0.5-0.3-0.7-0.4
				s-0.3-0.4-0.4-0.7s-0.2-0.6-0.2-0.9v-2.8h-1.2v-0.7h1.2v-2.2h0.8v2.2h2.3v0.7h-2.3v2.8c0,0.2,0,0.4,0.1,0.6s0.2,0.3,0.3,0.5
				s0.3,0.2,0.4,0.3s0.4,0.1,0.6,0.1c0.4,0,0.7-0.1,1-0.4s0.4-0.6,0.5-1L269.2,352.6z"/>
			<path class="st5" d="M276,352.8c0,0.3-0.1,0.6-0.2,0.8c-0.2,0.2-0.4,0.4-0.6,0.5c-0.3,0.1-0.5,0.2-0.8,0.3s-0.6,0.1-0.9,0.1
				c-0.5,0-1-0.1-1.5-0.2s-0.9-0.3-1.3-0.6l0.4-0.7c0.4,0.3,0.8,0.4,1.2,0.6s0.8,0.2,1.2,0.2c1.2,0,1.8-0.3,1.8-0.9
				c0-0.2,0-0.3-0.1-0.4s-0.2-0.2-0.4-0.2s-0.4-0.1-0.6-0.1s-0.4-0.1-0.7-0.1c-0.3,0-0.6-0.1-0.9-0.2s-0.6-0.1-0.8-0.3
				s-0.4-0.3-0.6-0.5s-0.2-0.5-0.2-0.8c0-0.3,0.1-0.5,0.2-0.7s0.3-0.4,0.6-0.5s0.5-0.2,0.8-0.3s0.6-0.1,1-0.1c0.5,0,0.9,0.1,1.3,0.2
				c0.4,0.1,0.7,0.3,1,0.5l-0.3,0.6c-0.3-0.2-0.6-0.4-0.9-0.5s-0.7-0.1-1-0.1c-0.2,0-0.4,0-0.6,0s-0.4,0.1-0.6,0.2s-0.3,0.2-0.4,0.3
				s-0.2,0.3-0.2,0.4c0,0.2,0,0.3,0.1,0.4s0.2,0.2,0.4,0.2s0.4,0.1,0.6,0.1s0.4,0.1,0.7,0.1c0.3,0,0.6,0.1,0.9,0.2s0.6,0.1,0.8,0.3
				s0.4,0.3,0.6,0.5C276,352.3,276,352.5,276,352.8z"/>
			<path class="st5" d="M281.3,353.3l-1.6,3.3h-0.6l1.1-3.3H281.3z"/>
			<path class="st5" d="M297,354.3h-0.8v-0.5c-0.2,0.2-0.5,0.4-0.8,0.5s-0.6,0.2-0.8,0.2c-0.4,0-0.8-0.1-1.2-0.2
				c-0.3-0.1-0.6-0.3-0.9-0.6s-0.4-0.6-0.5-0.9c-0.1-0.4-0.2-0.7-0.2-1.2c0-0.4,0.1-0.8,0.2-1.2c0.1-0.4,0.3-0.7,0.5-0.9
				s0.5-0.4,0.9-0.6c0.3-0.1,0.7-0.2,1.2-0.2c0.3,0,0.6,0.1,0.8,0.2s0.5,0.3,0.8,0.5v-2h-1.1v-0.7h1.9V354.3z M296.2,350.2
				c-0.2-0.3-0.5-0.4-0.8-0.5c-0.3-0.1-0.6-0.2-0.9-0.2c-0.3,0-0.6,0.1-0.8,0.2c-0.2,0.1-0.4,0.3-0.6,0.5s-0.3,0.4-0.4,0.7
				c-0.1,0.3-0.1,0.6-0.1,0.9c0,0.3,0,0.6,0.1,0.9c0.1,0.3,0.2,0.5,0.4,0.7s0.4,0.3,0.6,0.5c0.2,0.1,0.5,0.2,0.8,0.2
				c0.6,0,1.2-0.2,1.6-0.7V350.2z"/>
			<path class="st5" d="M299.6,351.9c0.1,0.6,0.3,1,0.6,1.4s0.8,0.5,1.4,0.5c0.4,0,0.8-0.1,1.1-0.3s0.6-0.4,0.7-0.6l0.6,0.4
				c-0.3,0.4-0.6,0.7-1,0.9s-0.8,0.3-1.4,0.3c-0.4,0-0.8-0.1-1.2-0.2s-0.7-0.3-0.9-0.6s-0.5-0.6-0.6-0.9s-0.2-0.7-0.2-1.2
				c0-0.4,0.1-0.8,0.2-1.1s0.3-0.7,0.6-0.9s0.5-0.5,0.9-0.6s0.7-0.2,1.2-0.2c0.5,0,0.9,0.1,1.2,0.2s0.6,0.4,0.9,0.6s0.4,0.6,0.5,1
				s0.2,0.8,0.2,1.3H299.6z M303.5,351.2c-0.1-0.6-0.3-1-0.7-1.3c-0.3-0.3-0.8-0.4-1.3-0.4c-0.3,0-0.5,0-0.7,0.1
				c-0.2,0.1-0.4,0.2-0.6,0.4c-0.2,0.2-0.3,0.3-0.4,0.6c-0.1,0.2-0.2,0.5-0.2,0.7H303.5z"/>
			<path class="st5" d="M311,354.3c0,0.4-0.1,0.7-0.2,1s-0.3,0.5-0.5,0.7s-0.5,0.4-0.8,0.5s-0.7,0.2-1.1,0.2c-0.5,0-1-0.1-1.4-0.3
				s-0.7-0.5-1-0.9l0.6-0.4c0.2,0.3,0.4,0.5,0.7,0.6c0.3,0.2,0.7,0.3,1.1,0.3c0.6,0,1-0.1,1.3-0.4c0.3-0.3,0.5-0.7,0.5-1.2v-0.6
				c-0.5,0.4-1,0.6-1.6,0.6c-0.9,0-1.5-0.2-2-0.7s-0.7-1.2-0.7-2c0-0.4,0.1-0.8,0.2-1.1c0.1-0.3,0.3-0.7,0.5-0.9s0.5-0.5,0.9-0.6
				c0.3-0.1,0.7-0.2,1.1-0.2c0.3,0,0.6,0.1,0.9,0.2c0.3,0.1,0.5,0.3,0.8,0.5v-0.5h0.8V354.3z M310.2,350.2c-0.2-0.3-0.5-0.4-0.8-0.5
				c-0.3-0.1-0.6-0.2-0.9-0.2c-0.3,0-0.6,0.1-0.8,0.2c-0.2,0.1-0.4,0.3-0.6,0.5s-0.3,0.4-0.4,0.7c-0.1,0.3-0.1,0.6-0.1,0.9
				c0,0.6,0.2,1.1,0.5,1.5c0.3,0.4,0.8,0.6,1.5,0.6c0.3,0,0.6-0.1,0.9-0.2c0.3-0.1,0.5-0.3,0.8-0.6V350.2z"/>
			<path class="st5" d="M318.1,349.7c-0.3-0.1-0.6-0.2-1-0.2c-0.3,0-0.6,0.1-0.9,0.2s-0.5,0.3-0.7,0.6s-0.3,0.5-0.4,0.8
				c-0.1,0.3-0.1,0.6-0.1,0.9v1.8h1.2v0.7h-3.3v-0.7h1.2v-4.1h-1.2v-0.7h2v1.4c0.4-1,1.1-1.5,2.1-1.5c0.3,0,0.5,0,0.7,0.1
				c0.2,0,0.4,0.1,0.6,0.2L318.1,349.7z"/>
			<path class="st5" d="M320.7,351.9c0.1,0.6,0.3,1,0.6,1.4s0.8,0.5,1.4,0.5c0.4,0,0.8-0.1,1.1-0.3s0.6-0.4,0.7-0.6l0.6,0.4
				c-0.3,0.4-0.6,0.7-1,0.9s-0.8,0.3-1.4,0.3c-0.4,0-0.8-0.1-1.2-0.2s-0.7-0.3-0.9-0.6s-0.5-0.6-0.6-0.9s-0.2-0.7-0.2-1.2
				c0-0.4,0.1-0.8,0.2-1.1s0.3-0.7,0.6-0.9s0.5-0.5,0.9-0.6s0.7-0.2,1.2-0.2c0.5,0,0.9,0.1,1.2,0.2s0.6,0.4,0.9,0.6s0.4,0.6,0.5,1
				s0.2,0.8,0.2,1.3H320.7z M324.6,351.2c-0.1-0.6-0.3-1-0.7-1.3c-0.3-0.3-0.8-0.4-1.3-0.4c-0.3,0-0.5,0-0.7,0.1
				c-0.2,0.1-0.4,0.2-0.6,0.4c-0.2,0.2-0.3,0.3-0.4,0.6c-0.1,0.2-0.2,0.5-0.2,0.7H324.6z"/>
			<path class="st5" d="M327.8,351.9c0.1,0.6,0.3,1,0.6,1.4s0.8,0.5,1.4,0.5c0.4,0,0.8-0.1,1.1-0.3s0.6-0.4,0.7-0.6l0.6,0.4
				c-0.3,0.4-0.6,0.7-1,0.9s-0.8,0.3-1.4,0.3c-0.4,0-0.8-0.1-1.2-0.2s-0.7-0.3-0.9-0.6s-0.5-0.6-0.6-0.9s-0.2-0.7-0.2-1.2
				c0-0.4,0.1-0.8,0.2-1.1s0.3-0.7,0.6-0.9s0.5-0.5,0.9-0.6s0.7-0.2,1.2-0.2c0.5,0,0.9,0.1,1.2,0.2s0.6,0.4,0.9,0.6s0.4,0.6,0.5,1
				s0.2,0.8,0.2,1.3H327.8z M331.6,351.2c-0.1-0.6-0.3-1-0.7-1.3c-0.3-0.3-0.8-0.4-1.3-0.4c-0.3,0-0.5,0-0.7,0.1
				c-0.2,0.1-0.4,0.2-0.6,0.4c-0.2,0.2-0.3,0.3-0.4,0.6c-0.1,0.2-0.2,0.5-0.2,0.7H331.6z"/>
			<path class="st5" d="M346.6,351.6c0,0.4-0.1,0.8-0.2,1.2s-0.3,0.6-0.6,0.9s-0.6,0.4-0.9,0.6s-0.7,0.2-1.2,0.2
				c-0.4,0-0.8-0.1-1.2-0.2s-0.7-0.3-0.9-0.6s-0.4-0.5-0.6-0.9s-0.2-0.7-0.2-1.2c0-0.4,0.1-0.8,0.2-1.2s0.3-0.7,0.6-0.9
				s0.6-0.4,0.9-0.6s0.7-0.2,1.2-0.2c0.4,0,0.8,0.1,1.2,0.2s0.7,0.3,0.9,0.6s0.4,0.6,0.6,0.9S346.6,351.2,346.6,351.6z M345.8,351.6
				c0-0.3,0-0.6-0.1-0.9c-0.1-0.3-0.2-0.5-0.4-0.7s-0.4-0.4-0.7-0.5s-0.5-0.2-0.9-0.2s-0.6,0.1-0.9,0.2s-0.5,0.3-0.6,0.5
				s-0.3,0.4-0.4,0.7c-0.1,0.3-0.1,0.6-0.1,0.9c0,0.3,0,0.6,0.1,0.9c0.1,0.3,0.2,0.5,0.4,0.7s0.4,0.3,0.6,0.5s0.5,0.2,0.9,0.2
				s0.6-0.1,0.9-0.2s0.5-0.3,0.7-0.5s0.3-0.4,0.4-0.7C345.8,352.2,345.8,351.9,345.8,351.6z"/>
			<path class="st5" d="M353.5,349.6h-2.3v4.1h1.2v0.7h-3.3v-0.7h1.2v-4.1h-1.2v-0.7h1.2c0-0.8,0.2-1.3,0.6-1.7s1-0.6,1.8-0.6
				c0.2,0,0.3,0,0.5,0s0.2,0,0.3,0v0.7c-0.1,0-0.2,0-0.4,0s-0.3,0-0.4,0c-0.5,0-0.9,0.1-1.2,0.4s-0.4,0.7-0.4,1.2h2.3V349.6z"/>
			<path class="st5" d="M367.3,354.3h-0.8v-0.5c-0.2,0.2-0.5,0.4-0.8,0.5s-0.6,0.2-0.8,0.2c-0.4,0-0.8-0.1-1.2-0.2
				c-0.3-0.1-0.6-0.3-0.9-0.6s-0.4-0.6-0.5-0.9c-0.1-0.4-0.2-0.7-0.2-1.2c0-0.4,0.1-0.8,0.2-1.2c0.1-0.4,0.3-0.7,0.5-0.9
				s0.5-0.4,0.9-0.6c0.3-0.1,0.7-0.2,1.2-0.2c0.3,0,0.6,0.1,0.8,0.2s0.5,0.3,0.8,0.5v-2h-1.1v-0.7h1.9V354.3z M366.5,350.2
				c-0.2-0.3-0.5-0.4-0.8-0.5c-0.3-0.1-0.6-0.2-0.9-0.2c-0.3,0-0.6,0.1-0.8,0.2c-0.2,0.1-0.4,0.3-0.6,0.5s-0.3,0.4-0.4,0.7
				c-0.1,0.3-0.1,0.6-0.1,0.9c0,0.3,0,0.6,0.1,0.9c0.1,0.3,0.2,0.5,0.4,0.7s0.4,0.3,0.6,0.5c0.2,0.1,0.5,0.2,0.8,0.2
				c0.6,0,1.2-0.2,1.6-0.7V350.2z"/>
			<path class="st5" d="M373.5,354.3h-3.3v-0.7h1.2v-4.1h-1.2v-0.7h2v4.8h1.2V354.3z M372.4,347.8h-1.1v-1.1h1.1V347.8z"/>
			<path class="st5" d="M381.5,352.8c0,0.3-0.1,0.6-0.2,0.8c-0.2,0.2-0.4,0.4-0.6,0.5c-0.3,0.1-0.5,0.2-0.8,0.3s-0.6,0.1-0.9,0.1
				c-0.5,0-1-0.1-1.5-0.2s-0.9-0.3-1.3-0.6l0.4-0.7c0.4,0.3,0.8,0.4,1.2,0.6s0.8,0.2,1.2,0.2c1.2,0,1.8-0.3,1.8-0.9
				c0-0.2,0-0.3-0.1-0.4s-0.2-0.2-0.4-0.2s-0.4-0.1-0.6-0.1s-0.4-0.1-0.7-0.1c-0.3,0-0.6-0.1-0.9-0.2s-0.6-0.1-0.8-0.3
				s-0.4-0.3-0.6-0.5s-0.2-0.5-0.2-0.8c0-0.3,0.1-0.5,0.2-0.7s0.3-0.4,0.6-0.5s0.5-0.2,0.8-0.3s0.6-0.1,1-0.1c0.5,0,0.9,0.1,1.3,0.2
				c0.4,0.1,0.7,0.3,1,0.5l-0.3,0.6c-0.3-0.2-0.6-0.4-0.9-0.5s-0.7-0.1-1-0.1c-0.2,0-0.4,0-0.6,0s-0.4,0.1-0.6,0.2s-0.3,0.2-0.4,0.3
				s-0.2,0.3-0.2,0.4c0,0.2,0,0.3,0.1,0.4s0.2,0.2,0.4,0.2s0.4,0.1,0.6,0.1s0.4,0.1,0.7,0.1c0.3,0,0.6,0.1,0.9,0.2s0.6,0.1,0.8,0.3
				s0.4,0.3,0.6,0.5C381.4,352.3,381.5,352.5,381.5,352.8z"/>
			<path class="st5" d="M387.6,354.3h-3.3v-0.7h1.2v-4.1h-1.2v-0.7h2v4.8h1.2V354.3z M386.5,347.8h-1.1v-1.1h1.1V347.8z"/>
			<path class="st5" d="M395.4,354.3h-0.8V351c0-0.5-0.1-0.9-0.3-1.1c-0.2-0.3-0.6-0.4-1-0.4c-0.3,0-0.6,0.1-0.8,0.2
				c-0.2,0.1-0.4,0.3-0.6,0.5s-0.3,0.5-0.4,0.8c-0.1,0.3-0.1,0.6-0.1,0.9v2.4h-0.8v-5.5h0.8v1.4c0.4-1,1.1-1.5,2.1-1.5
				c1.3,0,2,0.7,2,2.2V354.3z"/>
			<path class="st5" d="M402.8,352.6c-0.1,0.6-0.3,1-0.7,1.4s-0.9,0.5-1.5,0.5c-0.3,0-0.6-0.1-0.9-0.2s-0.5-0.3-0.7-0.4
				s-0.3-0.4-0.4-0.7s-0.2-0.6-0.2-0.9v-2.8h-1.2v-0.7h1.2v-2.2h0.8v2.2h2.3v0.7h-2.3v2.8c0,0.2,0,0.4,0.1,0.6s0.2,0.3,0.3,0.5
				s0.3,0.2,0.4,0.3s0.4,0.1,0.6,0.1c0.4,0,0.7-0.1,1-0.4s0.4-0.6,0.5-1L402.8,352.6z"/>
			<path class="st5" d="M405.1,351.9c0.1,0.6,0.3,1,0.6,1.4s0.8,0.5,1.4,0.5c0.4,0,0.8-0.1,1.1-0.3s0.6-0.4,0.7-0.6l0.6,0.4
				c-0.3,0.4-0.6,0.7-1,0.9s-0.8,0.3-1.4,0.3c-0.4,0-0.8-0.1-1.2-0.2s-0.7-0.3-0.9-0.6s-0.5-0.6-0.6-0.9s-0.2-0.7-0.2-1.2
				c0-0.4,0.1-0.8,0.2-1.1s0.3-0.7,0.6-0.9s0.5-0.5,0.9-0.6s0.7-0.2,1.2-0.2c0.5,0,0.9,0.1,1.2,0.2s0.6,0.4,0.9,0.6s0.4,0.6,0.5,1
				s0.2,0.8,0.2,1.3H405.1z M409,351.2c-0.1-0.6-0.3-1-0.7-1.3c-0.3-0.3-0.8-0.4-1.3-0.4c-0.3,0-0.5,0-0.7,0.1
				c-0.2,0.1-0.4,0.2-0.6,0.4c-0.2,0.2-0.3,0.3-0.4,0.6c-0.1,0.2-0.2,0.5-0.2,0.7H409z"/>
			<path class="st5" d="M416.5,349.7c-0.3-0.1-0.6-0.2-1-0.2c-0.3,0-0.6,0.1-0.9,0.2s-0.5,0.3-0.7,0.6s-0.3,0.5-0.4,0.8
				c-0.1,0.3-0.1,0.6-0.1,0.9v1.8h1.2v0.7h-3.3v-0.7h1.2v-4.1h-1.2v-0.7h2v1.4c0.4-1,1.1-1.5,2.1-1.5c0.3,0,0.5,0,0.7,0.1
				c0.2,0,0.4,0.1,0.6,0.2L416.5,349.7z"/>
			<path class="st5" d="M423.8,354.3H423v-3.9c0-0.3-0.1-0.6-0.2-0.7c-0.1-0.2-0.3-0.3-0.5-0.3c-0.3,0-0.5,0.2-0.7,0.5
				c-0.1,0.3-0.2,0.8-0.2,1.3v3.1h-0.8v-3.9c0-0.3-0.1-0.6-0.2-0.7s-0.3-0.3-0.5-0.3c-0.2,0-0.3,0.1-0.5,0.2s-0.2,0.3-0.3,0.4
				c-0.1,0.2-0.1,0.4-0.1,0.6c0,0.2,0,0.4,0,0.6v3.1h-0.8v-5.5h0.8v0.8c0.2-0.6,0.5-0.9,1.1-0.9c0.5,0,0.9,0.3,1.1,0.8
				c0.3-0.5,0.6-0.8,1.1-0.8c0.5,0,0.8,0.1,1,0.4s0.3,0.7,0.3,1.3V354.3z"/>
			<path class="st5" d="M426.2,351.9c0.1,0.6,0.3,1,0.6,1.4s0.8,0.5,1.4,0.5c0.4,0,0.8-0.1,1.1-0.3s0.6-0.4,0.7-0.6l0.6,0.4
				c-0.3,0.4-0.6,0.7-1,0.9s-0.8,0.3-1.4,0.3c-0.4,0-0.8-0.1-1.2-0.2s-0.7-0.3-0.9-0.6s-0.5-0.6-0.6-0.9s-0.2-0.7-0.2-1.2
				c0-0.4,0.1-0.8,0.2-1.1s0.3-0.7,0.6-0.9s0.5-0.5,0.9-0.6s0.7-0.2,1.2-0.2c0.5,0,0.9,0.1,1.2,0.2s0.6,0.4,0.9,0.6s0.4,0.6,0.5,1
				s0.2,0.8,0.2,1.3H426.2z M430.1,351.2c-0.1-0.6-0.3-1-0.7-1.3c-0.3-0.3-0.8-0.4-1.3-0.4c-0.3,0-0.5,0-0.7,0.1
				c-0.2,0.1-0.4,0.2-0.6,0.4c-0.2,0.2-0.3,0.3-0.4,0.6c-0.1,0.2-0.2,0.5-0.2,0.7H430.1z"/>
			<path class="st5" d="M437.6,354.3h-0.8v-0.5c-0.2,0.2-0.5,0.4-0.8,0.5s-0.6,0.2-0.8,0.2c-0.4,0-0.8-0.1-1.2-0.2
				c-0.3-0.1-0.6-0.3-0.9-0.6s-0.4-0.6-0.5-0.9c-0.1-0.4-0.2-0.7-0.2-1.2c0-0.4,0.1-0.8,0.2-1.2c0.1-0.4,0.3-0.7,0.5-0.9
				s0.5-0.4,0.9-0.6c0.3-0.1,0.7-0.2,1.2-0.2c0.3,0,0.6,0.1,0.8,0.2s0.5,0.3,0.8,0.5v-2h-1.1v-0.7h1.9V354.3z M436.8,350.2
				c-0.2-0.3-0.5-0.4-0.8-0.5c-0.3-0.1-0.6-0.2-0.9-0.2c-0.3,0-0.6,0.1-0.8,0.2c-0.2,0.1-0.4,0.3-0.6,0.5s-0.3,0.4-0.4,0.7
				c-0.1,0.3-0.1,0.6-0.1,0.9c0,0.3,0,0.6,0.1,0.9c0.1,0.3,0.2,0.5,0.4,0.7s0.4,0.3,0.6,0.5c0.2,0.1,0.5,0.2,0.8,0.2
				c0.6,0,1.2-0.2,1.6-0.7V350.2z"/>
			<path class="st5" d="M443.8,354.3h-3.3v-0.7h1.2v-4.1h-1.2v-0.7h2v4.8h1.2V354.3z M442.7,347.8h-1.1v-1.1h1.1V347.8z"/>
			<path class="st5" d="M446.5,352.9c0-0.3,0.1-0.6,0.3-0.9c0.2-0.2,0.4-0.4,0.7-0.6c0.3-0.1,0.6-0.2,1-0.3c0.4-0.1,0.7-0.1,1.1-0.1
				c0.1,0,0.3,0,0.4,0s0.2,0,0.3,0s0.2,0,0.3,0c0.1,0,0.2,0,0.3,0v-0.4c0-0.3-0.1-0.5-0.2-0.7c-0.1-0.2-0.3-0.3-0.4-0.4
				s-0.3-0.2-0.5-0.2s-0.3-0.1-0.5-0.1c-0.4,0-0.8,0.1-1.1,0.2s-0.7,0.3-1,0.4l-0.4-0.6c0.3-0.2,0.7-0.4,1.1-0.5s0.9-0.2,1.3-0.2
				c0.3,0,0.6,0,0.9,0.1s0.5,0.2,0.8,0.4s0.4,0.4,0.6,0.6c0.1,0.3,0.2,0.6,0.2,0.9v3.6h-0.8l0-0.9c-0.1,0.2-0.3,0.3-0.5,0.5
				s-0.4,0.2-0.6,0.3s-0.4,0.1-0.6,0.2s-0.4,0.1-0.6,0.1c-0.7,0-1.3-0.1-1.6-0.4S446.5,353.4,446.5,352.9z M448.7,353.8
				c0.3,0,0.6,0,0.9-0.1c0.3-0.1,0.5-0.2,0.7-0.4s0.3-0.3,0.4-0.5s0.2-0.3,0.2-0.5v-0.5c-0.3,0-0.5-0.1-0.8-0.1c-0.2,0-0.4,0-0.6,0
				c-0.3,0-0.6,0-0.8,0.1c-0.3,0-0.5,0.1-0.7,0.2c-0.2,0.1-0.4,0.2-0.5,0.3c-0.1,0.1-0.2,0.3-0.2,0.5c0,0.2,0.1,0.4,0.3,0.6
				C447.8,353.7,448.2,353.8,448.7,353.8z"/>
			<path class="st5" d="M459,352.6c-0.1,0.6-0.3,1-0.7,1.4s-0.9,0.5-1.5,0.5c-0.3,0-0.6-0.1-0.9-0.2s-0.5-0.3-0.7-0.4
				s-0.3-0.4-0.4-0.7s-0.2-0.6-0.2-0.9v-2.8h-1.2v-0.7h1.2v-2.2h0.8v2.2h2.3v0.7h-2.3v2.8c0,0.2,0,0.4,0.1,0.6s0.2,0.3,0.3,0.5
				s0.3,0.2,0.4,0.3s0.4,0.1,0.6,0.1c0.4,0,0.7-0.1,1-0.4s0.4-0.6,0.5-1L459,352.6z"/>
			<path class="st5" d="M464.9,354.3h-3.3v-0.7h1.2v-4.1h-1.2v-0.7h2v4.8h1.2V354.3z M463.8,347.8h-1.1v-1.1h1.1V347.8z"/>
			<path class="st5" d="M473.2,351.6c0,0.4-0.1,0.8-0.2,1.2s-0.3,0.6-0.6,0.9s-0.6,0.4-0.9,0.6s-0.7,0.2-1.2,0.2
				c-0.4,0-0.8-0.1-1.2-0.2s-0.7-0.3-0.9-0.6s-0.4-0.5-0.6-0.9s-0.2-0.7-0.2-1.2c0-0.4,0.1-0.8,0.2-1.2s0.3-0.7,0.6-0.9
				s0.6-0.4,0.9-0.6s0.7-0.2,1.2-0.2c0.4,0,0.8,0.1,1.2,0.2s0.7,0.3,0.9,0.6s0.4,0.6,0.6,0.9S473.2,351.2,473.2,351.6z M472.4,351.6
				c0-0.3,0-0.6-0.1-0.9c-0.1-0.3-0.2-0.5-0.4-0.7s-0.4-0.4-0.7-0.5s-0.5-0.2-0.9-0.2s-0.6,0.1-0.9,0.2s-0.5,0.3-0.6,0.5
				s-0.3,0.4-0.4,0.7c-0.1,0.3-0.1,0.6-0.1,0.9c0,0.3,0,0.6,0.1,0.9c0.1,0.3,0.2,0.5,0.4,0.7s0.4,0.3,0.6,0.5s0.5,0.2,0.9,0.2
				s0.6-0.1,0.9-0.2s0.5-0.3,0.7-0.5s0.3-0.4,0.4-0.7C472.3,352.2,472.4,351.9,472.4,351.6z"/>
			<path class="st5" d="M479.8,354.3H479V351c0-0.5-0.1-0.9-0.3-1.1c-0.2-0.3-0.6-0.4-1-0.4c-0.3,0-0.6,0.1-0.8,0.2
				c-0.2,0.1-0.4,0.3-0.6,0.5s-0.3,0.5-0.4,0.8c-0.1,0.3-0.1,0.6-0.1,0.9v2.4h-0.8v-5.5h0.8v1.4c0.4-1,1.1-1.5,2.1-1.5
				c1.3,0,2,0.7,2,2.2V354.3z"/>
			<path class="st5" d="M486,351c0,0.5-0.1,1-0.2,1.6s-0.3,1-0.5,1.5s-0.5,0.9-0.8,1.3s-0.7,0.8-1.1,1.1L483,356
				c0.4-0.3,0.7-0.6,1-1s0.5-0.8,0.7-1.2s0.4-0.9,0.5-1.3s0.2-0.9,0.2-1.4s-0.1-0.9-0.2-1.4s-0.3-0.9-0.5-1.3s-0.5-0.8-0.7-1.2
				s-0.6-0.7-1-1l0.4-0.5c0.4,0.3,0.8,0.7,1.1,1.1s0.6,0.9,0.8,1.3s0.4,1,0.5,1.5S486,350.5,486,351z"/>
		</g>
	</g>
	<g>
		<g>
			<path class="st5" d="M38.2,203.4c0.7,0.2,1.2,0.5,1.6,1s0.6,1,0.6,1.7c0,0.5-0.1,1-0.3,1.4s-0.5,0.7-0.9,0.9s-0.8,0.4-1.3,0.5
				s-1,0.2-1.5,0.2s-1-0.1-1.5-0.2s-0.9-0.3-1.3-0.5s-0.7-0.5-0.9-0.9s-0.3-0.8-0.3-1.4c0-0.5,0.1-0.9,0.3-1.2s0.4-0.6,0.8-0.7h-0.9
				v-0.7h2.5v0.7c-0.3,0-0.5,0.1-0.8,0.2s-0.4,0.2-0.6,0.4s-0.3,0.4-0.4,0.6s-0.1,0.5-0.1,0.8c0,0.4,0.1,0.8,0.3,1s0.5,0.5,0.8,0.7
				s0.7,0.3,1.1,0.3s0.8,0.1,1.2,0.1c0.4,0,0.8,0,1.2-0.1s0.7-0.2,1-0.3s0.6-0.4,0.8-0.7s0.3-0.6,0.3-1c0-1-0.6-1.6-1.7-2
				L38.2,203.4z"/>
			<path class="st5" d="M37.5,196.3c0.4,0,0.8,0.1,1.2,0.2s0.6,0.3,0.9,0.6s0.4,0.6,0.6,0.9s0.2,0.7,0.2,1.2c0,0.4-0.1,0.8-0.2,1.2
				s-0.3,0.7-0.6,0.9s-0.5,0.4-0.9,0.6s-0.7,0.2-1.2,0.2c-0.4,0-0.8-0.1-1.2-0.2s-0.7-0.3-0.9-0.6s-0.4-0.6-0.6-0.9
				s-0.2-0.7-0.2-1.2c0-0.4,0.1-0.8,0.2-1.2s0.3-0.7,0.6-0.9s0.6-0.4,0.9-0.6S37.1,196.3,37.5,196.3z M37.5,197.1
				c-0.3,0-0.6,0-0.9,0.1c-0.3,0.1-0.5,0.2-0.7,0.4s-0.4,0.4-0.5,0.7s-0.2,0.5-0.2,0.9s0.1,0.6,0.2,0.9s0.3,0.5,0.5,0.6
				s0.4,0.3,0.7,0.4c0.3,0.1,0.6,0.1,0.9,0.1c0.3,0,0.6,0,0.9-0.1c0.3-0.1,0.5-0.2,0.7-0.4s0.3-0.4,0.5-0.6s0.2-0.5,0.2-0.9
				s-0.1-0.6-0.2-0.9s-0.3-0.5-0.5-0.7s-0.4-0.3-0.7-0.4C38.1,197.1,37.8,197.1,37.5,197.1z"/>
			<path class="st5" d="M38.7,189.6c0.3,0,0.6,0.1,0.8,0.2c0.2,0.2,0.4,0.4,0.5,0.6c0.1,0.3,0.2,0.5,0.3,0.8s0.1,0.6,0.1,0.9
				c0,0.5-0.1,1-0.2,1.5s-0.3,0.9-0.6,1.3l-0.7-0.4c0.3-0.4,0.4-0.8,0.6-1.2s0.2-0.8,0.2-1.2c0-1.2-0.3-1.8-0.9-1.8
				c-0.2,0-0.3,0-0.4,0.1s-0.2,0.2-0.2,0.4s-0.1,0.4-0.1,0.6s-0.1,0.4-0.1,0.7c0,0.3-0.1,0.6-0.2,0.9s-0.1,0.6-0.3,0.8
				s-0.3,0.4-0.5,0.6s-0.5,0.2-0.8,0.2c-0.3,0-0.5-0.1-0.7-0.2s-0.4-0.3-0.5-0.6s-0.2-0.5-0.3-0.8s-0.1-0.6-0.1-1
				c0-0.5,0.1-0.9,0.2-1.3c0.1-0.4,0.3-0.7,0.5-1l0.6,0.3c-0.2,0.3-0.4,0.6-0.5,0.9s-0.1,0.7-0.1,1c0,0.2,0,0.4,0,0.6
				s0.1,0.4,0.2,0.6s0.2,0.3,0.3,0.4s0.3,0.2,0.4,0.2c0.2,0,0.3-0.1,0.4-0.2s0.2-0.2,0.2-0.4s0.1-0.4,0.1-0.6s0.1-0.4,0.1-0.7
				c0-0.3,0.1-0.6,0.2-0.9s0.1-0.6,0.3-0.8s0.3-0.4,0.5-0.6C38.1,189.6,38.4,189.6,38.7,189.6z"/>
			<path class="st5" d="M38.5,182.3c0.6,0.1,1,0.3,1.4,0.7s0.5,0.9,0.5,1.5c0,0.3-0.1,0.6-0.2,0.9s-0.3,0.5-0.4,0.7
				s-0.4,0.3-0.7,0.4s-0.6,0.2-0.9,0.2h-2.8v1.2h-0.7v-1.2h-2.2v-0.8h2.2v-2.3h0.7v2.3h2.8c0.2,0,0.4,0,0.6-0.1s0.3-0.2,0.5-0.3
				s0.2-0.3,0.3-0.4s0.1-0.4,0.1-0.6c0-0.4-0.1-0.7-0.4-1s-0.6-0.4-1-0.5L38.5,182.3z"/>
			<path class="st5" d="M38.7,175.5c0.3,0,0.6,0.1,0.8,0.2c0.2,0.2,0.4,0.4,0.5,0.6c0.1,0.3,0.2,0.5,0.3,0.8s0.1,0.6,0.1,0.9
				c0,0.5-0.1,1-0.2,1.5s-0.3,0.9-0.6,1.3l-0.7-0.4c0.3-0.4,0.4-0.8,0.6-1.2s0.2-0.8,0.2-1.2c0-1.2-0.3-1.8-0.9-1.8
				c-0.2,0-0.3,0.1-0.4,0.2s-0.2,0.2-0.2,0.4s-0.1,0.4-0.1,0.6s-0.1,0.4-0.1,0.7c0,0.3-0.1,0.6-0.2,0.9s-0.1,0.6-0.3,0.8
				s-0.3,0.4-0.5,0.6s-0.5,0.2-0.8,0.2c-0.3,0-0.5-0.1-0.7-0.2s-0.4-0.3-0.5-0.6s-0.2-0.5-0.3-0.8s-0.1-0.6-0.1-1
				c0-0.5,0.1-0.9,0.2-1.3c0.1-0.4,0.3-0.7,0.5-1l0.6,0.3c-0.2,0.3-0.4,0.6-0.5,0.9s-0.1,0.7-0.1,1c0,0.2,0,0.4,0,0.6
				s0.1,0.4,0.2,0.6s0.2,0.3,0.3,0.4s0.3,0.2,0.4,0.2c0.2,0,0.3,0,0.4-0.1s0.2-0.2,0.2-0.4s0.1-0.4,0.1-0.6s0.1-0.4,0.1-0.7
				c0-0.3,0.1-0.6,0.2-0.9s0.1-0.6,0.3-0.8s0.3-0.4,0.5-0.6C38.1,175.6,38.4,175.5,38.7,175.5z"/>
		</g>
	</g>
	<polyline class="st1" points="55.1,62.3 55.1,320.5 549.7,320.5 	"/>
	<g>
		<g>
			<path class="st19" d="M76,66c0.7,0.6,1.5,1.2,2.3,1.9"/>
			<path class="st20" d="M82.8,71.8c28.9,25.7,87.3,83.5,181.7,68.6c98.7-15.5,152.7-32.5,203.5-45.9"/>
			<path class="st19" d="M470.9,93.8c1-0.3,1.9-0.5,2.9-0.7"/>
		</g>
	</g>
	<g>
		<g>
			<path class="st5" d="M419.1,252.9h7.3v1.6h-2.8v7h-1.8v-7h-2.8V252.9z"/>
			<path class="st5" d="M431.2,256.9c-0.2-0.1-0.5-0.2-0.9-0.2c-0.6,0-1.1,0.3-1.2,0.9v3.9h-1.7v-6.3h1.7v0.6
				c0.3-0.4,0.8-0.8,1.4-0.8c0.3,0,0.6,0.1,0.7,0.1V256.9z"/>
			<path class="st5" d="M436.2,261.5v-0.3c-0.2,0.2-0.8,0.4-1.5,0.4c-1.3,0-2.3-0.7-2.3-2c0-1.2,1.1-2,2.4-2c0.5,0,1.2,0.2,1.4,0.4
				v-0.5c0-0.5-0.3-1-1-1c-0.5,0-0.8,0.2-0.9,0.6h-1.7c0.2-1.1,1.2-2,2.6-2c1.7,0,2.6,0.9,2.6,2.4v4H436.2z M436.2,259.3
				c-0.2-0.3-0.6-0.5-1.1-0.5c-0.5,0-1.1,0.2-1.1,0.8c0,0.5,0.6,0.8,1.1,0.8c0.5,0,1-0.2,1.1-0.5V259.3z"/>
			<path class="st5" d="M439.8,255.2h1.7v0.6c0.3-0.4,1-0.7,1.7-0.7c1.4,0,2.2,0.9,2.2,2.3v4.1h-1.7v-3.7c0-0.7-0.3-1.1-1-1.1
				c-0.5,0-1,0.3-1.1,0.9v4h-1.7V255.2z"/>
			<path class="st5" d="M448.8,259.6c0.1,0.4,0.5,0.7,1.1,0.7c0.5,0,0.9-0.2,0.9-0.6c0-0.3-0.2-0.4-0.6-0.5l-1.3-0.3
				c-1-0.2-1.6-0.7-1.6-1.8c0-1.2,1.1-2,2.5-2c1.6,0,2.5,0.8,2.7,1.9h-1.7c-0.1-0.3-0.4-0.6-1-0.6c-0.4,0-0.8,0.2-0.8,0.6
				c0,0.3,0.2,0.4,0.6,0.5l1.3,0.3c1.1,0.3,1.7,0.9,1.7,1.8c0,1.3-1.1,2-2.6,2c-1.5,0-2.6-0.7-2.8-2H448.8z"/>
			<path class="st5" d="M457.6,261.5v-0.3c-0.2,0.2-0.8,0.4-1.5,0.4c-1.3,0-2.3-0.7-2.3-2c0-1.2,1.1-2,2.4-2c0.5,0,1.2,0.2,1.4,0.4
				v-0.5c0-0.5-0.3-1-1-1c-0.5,0-0.8,0.2-0.9,0.6H454c0.2-1.1,1.2-2,2.6-2c1.7,0,2.6,0.9,2.6,2.4v4H457.6z M457.6,259.3
				c-0.2-0.3-0.6-0.5-1.1-0.5c-0.5,0-1.1,0.2-1.1,0.8c0,0.5,0.6,0.8,1.1,0.8c0.5,0,1-0.2,1.1-0.5V259.3z"/>
			<path class="st5" d="M463.9,255.1c1.6,0,2.6,0.9,2.7,2.3h-1.7c-0.1-0.5-0.5-0.8-1-0.8c-0.8,0-1.3,0.7-1.3,1.8
				c0,1.1,0.5,1.8,1.3,1.8c0.6,0,0.9-0.3,1-0.8h1.7c-0.2,1.3-1.2,2.3-2.7,2.3c-1.8,0-3-1.3-3-3.3
				C460.9,256.4,462.1,255.1,463.9,255.1z"/>
			<path class="st5" d="M468.7,256.6h-1v-1.4h1v-1.7h1.7v1.7h1.4v1.4h-1.4v2.7c0,0.5,0.3,0.7,0.7,0.7c0.3,0,0.6-0.1,0.8-0.2v1.5
				c-0.2,0.1-0.7,0.2-1.1,0.2c-1.3,0-2.1-0.6-2.1-2V256.6z"/>
			<path class="st5" d="M474.6,254.4c-0.6,0-1-0.4-1-1c0-0.6,0.5-1,1-1c0.5,0,1,0.4,1,1C475.6,254,475.1,254.4,474.6,254.4z
				 M475.4,261.5h-1.7v-6.3h1.7V261.5z"/>
			<path class="st5" d="M480.2,261.6c-1.8,0-3.1-1.3-3.1-3.3c0-1.9,1.2-3.3,3.1-3.3c1.8,0,3.1,1.3,3.1,3.3
				C483.2,260.3,482,261.6,480.2,261.6z M480.2,256.5c-0.9,0-1.3,0.8-1.3,1.8c0,1,0.5,1.8,1.3,1.8c0.9,0,1.3-0.8,1.3-1.8
				C481.5,257.3,481,256.5,480.2,256.5z"/>
			<path class="st5" d="M484.9,255.2h1.7v0.6c0.3-0.4,1-0.7,1.7-0.7c1.4,0,2.2,0.9,2.2,2.3v4.1h-1.7v-3.7c0-0.7-0.3-1.1-1-1.1
				c-0.5,0-1,0.3-1.1,0.9v4h-1.7V255.2z"/>
			<path class="st5" d="M499.7,252.7c2,0,3.3,1.2,3.6,2.9h-1.8c-0.3-0.8-0.8-1.3-1.8-1.3c-1.4,0-2.2,1.2-2.2,2.8
				c0,1.6,0.8,2.8,2.2,2.8c1,0,1.5-0.5,1.8-1.3h1.8c-0.3,1.7-1.6,2.9-3.6,2.9c-2.3,0-4-1.8-4-4.4
				C495.7,254.5,497.4,252.7,499.7,252.7z"/>
			<path class="st5" d="M507.7,261.6c-1.8,0-3.1-1.3-3.1-3.3c0-1.9,1.2-3.3,3.1-3.3c1.8,0,3.1,1.3,3.1,3.3
				C510.8,260.3,509.5,261.6,507.7,261.6z M507.7,256.5c-0.9,0-1.3,0.8-1.3,1.8c0,1,0.5,1.8,1.3,1.8c0.9,0,1.3-0.8,1.3-1.8
				C509.1,257.3,508.6,256.5,507.7,256.5z"/>
			<path class="st5" d="M513.8,259.6c0.1,0.4,0.5,0.7,1.1,0.7c0.5,0,0.9-0.2,0.9-0.6c0-0.3-0.2-0.4-0.6-0.5l-1.3-0.3
				c-1-0.2-1.6-0.7-1.6-1.8c0-1.2,1.1-2,2.5-2c1.6,0,2.5,0.8,2.7,1.9h-1.7c-0.1-0.3-0.4-0.6-1-0.6c-0.4,0-0.8,0.2-0.8,0.6
				c0,0.3,0.2,0.4,0.6,0.5l1.3,0.3c1.1,0.3,1.7,0.9,1.7,1.8c0,1.3-1.1,2-2.6,2c-1.5,0-2.6-0.7-2.8-2H513.8z"/>
			<path class="st5" d="M519.5,256.6h-1v-1.4h1v-1.7h1.7v1.7h1.4v1.4h-1.4v2.7c0,0.5,0.3,0.7,0.7,0.7c0.3,0,0.6-0.1,0.8-0.2v1.5
				c-0.2,0.1-0.7,0.2-1.1,0.2c-1.3,0-2.1-0.6-2.1-2V256.6z"/>
			<path class="st5" d="M525.8,259.6c0.1,0.4,0.5,0.7,1.1,0.7c0.5,0,0.9-0.2,0.9-0.6c0-0.3-0.2-0.4-0.6-0.5l-1.3-0.3
				c-1-0.2-1.6-0.7-1.6-1.8c0-1.2,1.1-2,2.5-2c1.6,0,2.5,0.8,2.7,1.9h-1.7c-0.1-0.3-0.4-0.6-1-0.6c-0.4,0-0.8,0.2-0.8,0.6
				c0,0.3,0.2,0.4,0.6,0.5l1.3,0.3c1.1,0.3,1.7,0.9,1.7,1.8c0,1.3-1.1,2-2.6,2c-1.5,0-2.6-0.7-2.8-2H525.8z"/>
			<path class="st5" d="M422.4,268c1.4,0,2.4,0.8,2.7,2.1h-0.6c-0.3-0.9-1-1.5-2.1-1.5c-1.5,0-2.6,1.2-2.6,3.2c0,2,1.1,3.2,2.6,3.2
				c1.1,0,1.8-0.6,2.1-1.5h0.6c-0.3,1.3-1.3,2.1-2.7,2.1c-1.8,0-3.2-1.5-3.2-3.8C419.2,269.5,420.6,268,422.4,268z"/>
			<path class="st5" d="M428.9,275.6c-1.4,0-2.4-1.1-2.4-2.8c0-1.6,0.9-2.8,2.4-2.8c1.4,0,2.4,1.1,2.4,2.8
				C431.3,274.5,430.4,275.6,428.9,275.6z M428.9,270.6c-1.1,0-1.8,0.9-1.8,2.2c0,1.3,0.7,2.2,1.8,2.2c1.1,0,1.8-0.9,1.8-2.2
				C430.7,271.5,430,270.6,428.9,270.6z"/>
			<path class="st5" d="M433.2,274.1c0.2,0.6,0.8,1,1.5,1c0.7,0,1.3-0.3,1.3-1c0-0.5-0.3-0.8-1-0.9l-1-0.3c-0.8-0.2-1.3-0.6-1.3-1.3
				c0-0.9,0.8-1.5,1.8-1.5c1.1,0,1.8,0.6,2,1.5h-0.6c-0.2-0.6-0.6-0.9-1.4-0.9c-0.7,0-1.2,0.3-1.2,0.9c0,0.5,0.3,0.7,1,0.9l0.9,0.3
				c0.9,0.2,1.3,0.8,1.3,1.5c0,1-0.8,1.5-1.9,1.5c-1.1,0-1.9-0.6-2.1-1.5H433.2z"/>
			<path class="st5" d="M438.6,270.7h-0.9v-0.5h0.9v-1.4h0.6v1.4h1.4v0.5h-1.4v3.5c0,0.6,0.3,0.9,0.8,0.9c0.3,0,0.5-0.1,0.7-0.2v0.6
				c-0.2,0.1-0.5,0.2-0.8,0.2c-0.8,0-1.3-0.4-1.3-1.3V270.7z"/>
			<path class="st5" d="M447.5,275.6c-1.4,0-2.4-1.1-2.4-2.8c0-1.6,0.9-2.8,2.4-2.8c1.4,0,2.4,1.1,2.4,2.8
				C449.9,274.5,448.9,275.6,447.5,275.6z M447.5,270.6c-1.1,0-1.8,0.9-1.8,2.2c0,1.3,0.7,2.2,1.8,2.2c1.1,0,1.8-0.9,1.8-2.2
				C449.3,271.5,448.6,270.6,447.5,270.6z"/>
			<path class="st5" d="M454.1,268.2c-0.2-0.1-0.3-0.1-0.5-0.1c-0.6,0-1,0.4-1,1.2v0.9h1.2v0.5h-1.2v4.8H452v-4.8h-0.9v-0.5h0.9v-1
				c0-1,0.6-1.6,1.5-1.6c0.2,0,0.4,0,0.6,0.1V268.2z"/>
			<path class="st5" d="M462,274.7c-0.3,0.5-0.9,0.9-1.7,0.9c-1.6,0-2.3-1.3-2.3-2.8c0-1.5,0.8-2.8,2.3-2.8c0.7,0,1.4,0.4,1.7,0.9
				v-3.3h0.6v7.8H462V274.7z M462,271.6c-0.4-0.7-1-1.1-1.6-1.1c-1.1,0-1.8,0.9-1.8,2.2s0.7,2.2,1.8,2.2c0.6,0,1.2-0.4,1.6-1.1
				V271.6z"/>
			<path class="st5" d="M468.8,275.5h-0.6v-0.9c-0.3,0.5-0.9,1-1.7,1c-1.2,0-1.8-0.8-1.8-1.9v-3.5h0.6v3.4c0,0.8,0.4,1.4,1.4,1.4
				c0.7,0,1.3-0.5,1.6-1.2v-3.7h0.6V275.5z"/>
			<path class="st5" d="M471.6,277.5H471v-7.4h0.6v0.8c0.3-0.5,0.9-0.9,1.7-0.9c1.6,0,2.3,1.3,2.3,2.8c0,1.5-0.8,2.8-2.3,2.8
				c-0.7,0-1.4-0.4-1.7-0.9V277.5z M471.6,274c0.4,0.7,0.9,1.1,1.6,1.1c1.1,0,1.8-0.9,1.8-2.2s-0.7-2.2-1.8-2.2
				c-0.6,0-1.2,0.4-1.6,1.1V274z"/>
			<path class="st5" d="M478,275.5h-0.6v-7.8h0.6V275.5z"/>
			<path class="st5" d="M480.5,268.9c-0.2,0-0.4-0.2-0.4-0.4c0-0.2,0.2-0.4,0.4-0.4s0.4,0.2,0.4,0.4
				C480.9,268.8,480.7,268.9,480.5,268.9z M480.8,275.5h-0.6v-5.3h0.6V275.5z"/>
			<path class="st5" d="M484.9,270c1.1,0,1.8,0.7,2,1.7h-0.6c-0.2-0.7-0.7-1.1-1.4-1.1c-1,0-1.8,0.9-1.8,2.2c0,1.3,0.7,2.2,1.8,2.2
				c0.8,0,1.3-0.4,1.4-1.1h0.6c-0.2,1-0.9,1.7-2,1.7c-1.4,0-2.4-1.1-2.4-2.8C482.6,271.2,483.5,270,484.9,270z"/>
			<path class="st5" d="M491.8,275.5V275c-0.2,0.3-0.8,0.6-1.5,0.6c-1.1,0-2-0.6-2-1.6c0-1,0.9-1.6,2-1.6c0.6,0,1.2,0.3,1.5,0.6
				v-0.9c0-0.8-0.5-1.3-1.3-1.3c-0.7,0-1.1,0.3-1.3,0.9h-0.6c0.2-0.9,0.9-1.4,1.9-1.4c1.2,0,1.9,0.7,1.9,1.8v3.6H491.8z
				 M491.8,273.6c-0.2-0.5-0.8-0.8-1.4-0.8c-0.8,0-1.5,0.4-1.5,1.1s0.7,1.1,1.5,1.1c0.6,0,1.2-0.3,1.4-0.8V273.6z"/>
			<path class="st5" d="M494.7,270.7h-0.9v-0.5h0.9v-1.4h0.6v1.4h1.4v0.5h-1.4v3.5c0,0.6,0.3,0.9,0.8,0.9c0.3,0,0.5-0.1,0.7-0.2v0.6
				c-0.2,0.1-0.5,0.2-0.8,0.2c-0.8,0-1.3-0.4-1.3-1.3V270.7z"/>
			<path class="st5" d="M498.8,268.9c-0.2,0-0.4-0.2-0.4-0.4c0-0.2,0.2-0.4,0.4-0.4s0.4,0.2,0.4,0.4
				C499.2,268.8,499.1,268.9,498.8,268.9z M499.1,275.5h-0.6v-5.3h0.6V275.5z"/>
			<path class="st5" d="M503.3,275.6c-1.4,0-2.4-1.1-2.4-2.8c0-1.6,0.9-2.8,2.4-2.8c1.4,0,2.4,1.1,2.4,2.8
				C505.7,274.5,504.7,275.6,503.3,275.6z M503.3,270.6c-1.1,0-1.8,0.9-1.8,2.2c0,1.3,0.7,2.2,1.8,2.2c1.1,0,1.8-0.9,1.8-2.2
				C505.1,271.5,504.4,270.6,503.3,270.6z"/>
			<path class="st5" d="M507.5,270.1h0.6v0.9c0.3-0.5,0.9-1,1.7-1c1.2,0,1.8,0.8,1.8,1.9v3.5H511V272c0-0.8-0.4-1.4-1.4-1.4
				c-0.7,0-1.3,0.5-1.6,1.2v3.7h-0.6V270.1z"/>
			<path class="st5" d="M422.6,289.5V289c-0.2,0.3-0.8,0.6-1.5,0.6c-1.1,0-2-0.6-2-1.6c0-1,0.9-1.6,2-1.6c0.6,0,1.2,0.3,1.5,0.6
				v-0.9c0-0.8-0.5-1.3-1.3-1.3c-0.7,0-1.1,0.3-1.3,0.9h-0.6c0.2-0.9,0.9-1.4,1.9-1.4c1.2,0,1.9,0.7,1.9,1.8v3.6H422.6z
				 M422.6,287.6c-0.2-0.5-0.8-0.8-1.4-0.8c-0.8,0-1.5,0.4-1.5,1.1s0.7,1.1,1.5,1.1c0.6,0,1.2-0.3,1.4-0.8V287.6z"/>
			<path class="st5" d="M425.3,284.1h0.6v0.9c0.3-0.5,0.9-1,1.7-1c1.2,0,1.8,0.8,1.8,1.9v3.5h-0.6V286c0-0.8-0.4-1.4-1.4-1.4
				c-0.7,0-1.3,0.5-1.6,1.2v3.7h-0.6V284.1z"/>
			<path class="st5" d="M435.2,288.7c-0.3,0.5-0.9,0.9-1.7,0.9c-1.6,0-2.3-1.3-2.3-2.8c0-1.5,0.8-2.8,2.3-2.8c0.7,0,1.4,0.4,1.7,0.9
				v-3.3h0.6v7.8h-0.6V288.7z M435.2,285.6c-0.4-0.7-1-1.1-1.6-1.1c-1.1,0-1.8,0.9-1.8,2.2s0.7,2.2,1.8,2.2c0.6,0,1.2-0.4,1.6-1.1
				V285.6z"/>
			<path class="st5" d="M443.6,284.7c-0.1-0.1-0.3-0.1-0.5-0.1c-0.6,0-1.2,0.5-1.4,1.2v3.7h-0.6v-5.3h0.6v0.9c0.2-0.5,0.8-1,1.4-1
				c0.2,0,0.3,0,0.5,0.1V284.7z"/>
			<path class="st5" d="M449.1,287.9c-0.2,1-0.9,1.7-2.1,1.7c-1.4,0-2.4-1.1-2.4-2.8c0-1.6,0.9-2.8,2.4-2.8c1.4,0,2.2,1.1,2.2,2.6
				v0.2h-3.9c0,1.4,0.7,2.2,1.8,2.2c0.8,0,1.3-0.4,1.5-1.1H449.1z M445.3,286.4h3.3c0-0.9-0.5-1.8-1.6-1.8
				C446.1,284.6,445.4,285.3,445.3,286.4z"/>
			<path class="st5" d="M453,284c1.1,0,1.8,0.7,2,1.7h-0.6c-0.2-0.7-0.7-1.1-1.4-1.1c-1,0-1.8,0.9-1.8,2.2c0,1.3,0.7,2.2,1.8,2.2
				c0.8,0,1.3-0.4,1.4-1.1h0.6c-0.2,1-0.9,1.7-2,1.7c-1.4,0-2.4-1.1-2.4-2.8C450.6,285.2,451.6,284,453,284z"/>
			<path class="st5" d="M458.7,289.6c-1.4,0-2.4-1.1-2.4-2.8c0-1.6,0.9-2.8,2.4-2.8c1.4,0,2.4,1.1,2.4,2.8
				C461.1,288.5,460.1,289.6,458.7,289.6z M458.7,284.6c-1.1,0-1.8,0.9-1.8,2.2c0,1.3,0.7,2.2,1.8,2.2c1.1,0,1.8-0.9,1.8-2.2
				C460.5,285.5,459.8,284.6,458.7,284.6z"/>
			<path class="st5" d="M462.9,284.1h0.6v0.9c0.3-0.5,0.9-1,1.7-1c1.2,0,1.8,0.8,1.8,1.9v3.5h-0.6V286c0-0.8-0.4-1.4-1.4-1.4
				c-0.7,0-1.3,0.5-1.6,1.2v3.7h-0.6V284.1z"/>
			<path class="st5" d="M471.1,284c1.1,0,1.8,0.7,2,1.7h-0.6c-0.2-0.7-0.7-1.1-1.4-1.1c-1,0-1.8,0.9-1.8,2.2c0,1.3,0.7,2.2,1.8,2.2
				c0.8,0,1.3-0.4,1.4-1.1h0.6c-0.2,1-0.9,1.7-2,1.7c-1.4,0-2.4-1.1-2.4-2.8C468.8,285.2,469.7,284,471.1,284z"/>
			<path class="st5" d="M475.2,282.9c-0.2,0-0.4-0.2-0.4-0.4c0-0.2,0.2-0.4,0.4-0.4s0.4,0.2,0.4,0.4
				C475.6,282.8,475.5,282.9,475.2,282.9z M475.5,289.5h-0.6v-5.3h0.6V289.5z"/>
			<path class="st5" d="M478.3,289.5h-0.6v-7.8h0.6V289.5z"/>
			<path class="st5" d="M480.8,282.9c-0.2,0-0.4-0.2-0.4-0.4c0-0.2,0.2-0.4,0.4-0.4s0.4,0.2,0.4,0.4
				C481.2,282.8,481,282.9,480.8,282.9z M481.1,289.5h-0.6v-5.3h0.6V289.5z"/>
			<path class="st5" d="M486.3,289.5V289c-0.2,0.3-0.8,0.6-1.5,0.6c-1.1,0-2-0.6-2-1.6c0-1,0.9-1.6,2-1.6c0.6,0,1.2,0.3,1.5,0.6
				v-0.9c0-0.8-0.5-1.3-1.3-1.3c-0.7,0-1.1,0.3-1.3,0.9h-0.6c0.2-0.9,0.9-1.4,1.9-1.4c1.2,0,1.9,0.7,1.9,1.8v3.6H486.3z
				 M486.3,287.6c-0.2-0.5-0.8-0.8-1.4-0.8c-0.8,0-1.5,0.4-1.5,1.1s0.7,1.1,1.5,1.1c0.6,0,1.2-0.3,1.4-0.8V287.6z"/>
			<path class="st5" d="M489.3,284.7h-0.9v-0.5h0.9v-1.4h0.6v1.4h1.4v0.5h-1.4v3.5c0,0.6,0.3,0.9,0.8,0.9c0.3,0,0.5-0.1,0.7-0.2v0.6
				c-0.2,0.1-0.5,0.2-0.8,0.2c-0.8,0-1.3-0.4-1.3-1.3V284.7z"/>
			<path class="st5" d="M493.4,282.9c-0.2,0-0.4-0.2-0.4-0.4c0-0.2,0.2-0.4,0.4-0.4s0.4,0.2,0.4,0.4
				C493.8,282.8,493.6,282.9,493.4,282.9z M493.7,289.5h-0.6v-5.3h0.6V289.5z"/>
			<path class="st5" d="M497.8,289.6c-1.4,0-2.4-1.1-2.4-2.8c0-1.6,0.9-2.8,2.4-2.8c1.4,0,2.4,1.1,2.4,2.8
				C500.2,288.5,499.2,289.6,497.8,289.6z M497.8,284.6c-1.1,0-1.8,0.9-1.8,2.2c0,1.3,0.7,2.2,1.8,2.2c1.1,0,1.8-0.9,1.8-2.2
				C499.6,285.5,498.9,284.6,497.8,284.6z"/>
			<path class="st5" d="M502,284.1h0.6v0.9c0.3-0.5,0.9-1,1.7-1c1.2,0,1.8,0.8,1.8,1.9v3.5h-0.6V286c0-0.8-0.4-1.4-1.4-1.4
				c-0.7,0-1.3,0.5-1.6,1.2v3.7H502V284.1z"/>
		</g>
	</g>
	<g>
		<g>
			<path class="st5" d="M415.1,166.6c2,0,3.3,1.2,3.6,2.9H417c-0.3-0.8-0.8-1.3-1.8-1.3c-1.4,0-2.2,1.2-2.2,2.8
				c0,1.6,0.8,2.8,2.2,2.8c1,0,1.5-0.5,1.8-1.3h1.8c-0.3,1.7-1.6,2.9-3.6,2.9c-2.3,0-4-1.8-4-4.4
				C411.1,168.4,412.8,166.6,415.1,166.6z"/>
			<path class="st5" d="M423.1,175.4c-1.8,0-3.1-1.3-3.1-3.3c0-1.9,1.2-3.3,3.1-3.3c1.8,0,3.1,1.3,3.1,3.3
				C426.2,174.1,425,175.4,423.1,175.4z M423.1,170.4c-0.9,0-1.3,0.8-1.3,1.8c0,1,0.5,1.8,1.3,1.8c0.9,0,1.3-0.8,1.3-1.8
				C424.5,171.1,424,170.4,423.1,170.4z"/>
			<path class="st5" d="M429.2,173.4c0.1,0.4,0.5,0.7,1.1,0.7c0.5,0,0.9-0.2,0.9-0.6c0-0.3-0.2-0.4-0.6-0.5l-1.3-0.3
				c-1-0.2-1.6-0.7-1.6-1.8c0-1.2,1.1-2,2.5-2c1.6,0,2.5,0.8,2.7,1.9h-1.7c-0.1-0.4-0.4-0.6-1-0.6c-0.4,0-0.8,0.2-0.8,0.6
				c0,0.3,0.2,0.4,0.6,0.5l1.3,0.3c1.1,0.3,1.7,0.9,1.7,1.8c0,1.3-1.1,2-2.6,2c-1.5,0-2.6-0.7-2.8-2H429.2z"/>
			<path class="st5" d="M434.9,170.4h-1V169h1v-1.7h1.7v1.7h1.4v1.4h-1.4v2.7c0,0.5,0.3,0.7,0.7,0.7c0.3,0,0.6-0.1,0.8-0.2v1.5
				c-0.2,0.1-0.7,0.2-1.1,0.2c-1.3,0-2.1-0.6-2.1-2V170.4z"/>
			<path class="st5" d="M446.2,175.4c-1.8,0-3.1-1.3-3.1-3.3c0-1.9,1.2-3.3,3.1-3.3c1.8,0,3.1,1.3,3.1,3.3
				C449.2,174.1,448,175.4,446.2,175.4z M446.2,170.4c-0.9,0-1.3,0.8-1.3,1.8c0,1,0.5,1.8,1.3,1.8c0.9,0,1.3-0.8,1.3-1.8
				C447.5,171.1,447,170.4,446.2,170.4z"/>
			<path class="st5" d="M454.6,167.7c-0.2-0.1-0.4-0.2-0.6-0.2c-0.5,0-0.9,0.3-0.9,0.9v0.6h1.3v1.4h-1.3v4.9h-1.7v-4.9h-1V169h1
				v-0.7c0-1.4,0.9-2.2,2.2-2.2c0.4,0,0.7,0.1,1,0.2V167.7z"/>
			<path class="st5" d="M461.4,172.3v3h-1.8v-8.6h3.5c1.8,0,3,1,3,2.8c0,1.8-1.2,2.8-3,2.8H461.4z M463,168.2h-1.6v2.6h1.6
				c0.9,0,1.4-0.5,1.4-1.3C464.4,168.7,463.9,168.2,463,168.2z"/>
			<path class="st5" d="M473,173.3c-0.2,1.3-1.2,2.2-2.8,2.2c-1.8,0-3-1.3-3-3.3c0-1.9,1.3-3.3,3-3.3c1.8,0,2.8,1.3,2.8,3.1v0.5
				h-4.2c0.1,0.9,0.6,1.5,1.4,1.5c0.6,0,1-0.3,1.2-0.8H473z M468.9,171.5h2.4c0-0.7-0.4-1.2-1.1-1.2
				C469.5,170.3,469,170.7,468.9,171.5z"/>
			<path class="st5" d="M478.5,170.7c-0.2-0.1-0.5-0.2-0.9-0.2c-0.6,0-1.1,0.3-1.2,0.9v3.9h-1.7V169h1.7v0.6
				c0.3-0.4,0.8-0.8,1.4-0.8c0.3,0,0.6,0.1,0.7,0.1V170.7z"/>
			<path class="st5" d="M481,168.2c-0.6,0-1-0.4-1-1c0-0.6,0.5-1,1-1c0.5,0,1,0.4,1,1C482.1,167.8,481.6,168.2,481,168.2z
				 M481.9,175.3h-1.7V169h1.7V175.3z"/>
			<path class="st5" d="M485.7,177.6H484V169h1.7v0.5c0.3-0.3,0.9-0.7,1.6-0.7c1.8,0,2.9,1.5,2.9,3.3c0,1.8-1,3.3-2.9,3.3
				c-0.7,0-1.3-0.3-1.6-0.7V177.6z M485.7,173.2c0.2,0.4,0.7,0.7,1.2,0.7c0.9,0,1.5-0.8,1.5-1.8c0-1-0.6-1.8-1.5-1.8
				c-0.5,0-1,0.3-1.2,0.7V173.2z"/>
			<path class="st5" d="M491.8,166.2h1.7v3.4c0.3-0.4,1-0.7,1.7-0.7c1.4,0,2.2,0.9,2.2,2.3v4.1h-1.7v-3.7c0-0.7-0.3-1.1-1-1.1
				c-0.5,0-1,0.3-1.1,0.9v4h-1.7V166.2z"/>
			<path class="st5" d="M504.8,173.3c-0.2,1.3-1.2,2.2-2.8,2.2c-1.8,0-3-1.3-3-3.3c0-1.9,1.3-3.3,3-3.3c1.8,0,2.8,1.3,2.8,3.1v0.5
				h-4.2c0.1,0.9,0.6,1.5,1.4,1.5c0.6,0,1-0.3,1.2-0.8H504.8z M500.8,171.5h2.4c0-0.7-0.4-1.2-1.1-1.2
				C501.4,170.3,500.9,170.7,500.8,171.5z"/>
			<path class="st5" d="M510.3,170.7c-0.2-0.1-0.5-0.2-0.9-0.2c-0.6,0-1.1,0.3-1.2,0.9v3.9h-1.7V169h1.7v0.6
				c0.3-0.4,0.8-0.8,1.4-0.8c0.3,0,0.6,0.1,0.7,0.1V170.7z"/>
			<path class="st5" d="M515.3,175.3V175c-0.2,0.2-0.8,0.4-1.5,0.4c-1.3,0-2.3-0.7-2.3-2c0-1.2,1.1-2,2.4-2c0.5,0,1.2,0.2,1.4,0.4
				v-0.5c0-0.5-0.3-1-1-1c-0.5,0-0.8,0.2-0.9,0.6h-1.7c0.2-1.1,1.2-2,2.6-2c1.7,0,2.6,0.9,2.6,2.4v4H515.3z M515.3,173.1
				c-0.2-0.3-0.6-0.5-1.1-0.5c-0.5,0-1.1,0.2-1.1,0.8c0,0.5,0.6,0.8,1.1,0.8c0.5,0,1-0.2,1.1-0.5V173.1z"/>
			<path class="st5" d="M520.7,175.3h-1.7v-9.1h1.7V175.3z"/>
			<path class="st5" d="M525.9,166.7h7.3v1.6h-2.8v7h-1.8v-7h-2.8V166.7z"/>
			<path class="st5" d="M538,170.7c-0.2-0.1-0.5-0.2-0.9-0.2c-0.6,0-1.1,0.3-1.2,0.9v3.9h-1.7V169h1.7v0.6c0.3-0.4,0.8-0.8,1.4-0.8
				c0.3,0,0.6,0.1,0.7,0.1V170.7z"/>
			<path class="st5" d="M545.3,175.3h-1.7v-0.6c-0.4,0.4-1,0.7-1.7,0.7c-1.4,0-2.2-0.9-2.2-2.3V169h1.7v3.7c0,0.7,0.3,1.1,1,1.1
				c0.5,0,1-0.3,1.1-0.9v-4h1.8V175.3z"/>
			<path class="st5" d="M548.6,173.4c0.1,0.4,0.5,0.7,1.1,0.7c0.5,0,0.9-0.2,0.9-0.6c0-0.3-0.2-0.4-0.6-0.5l-1.3-0.3
				c-1-0.2-1.6-0.7-1.6-1.8c0-1.2,1.1-2,2.5-2c1.6,0,2.5,0.8,2.7,1.9h-1.7c-0.1-0.4-0.4-0.6-1-0.6c-0.4,0-0.8,0.2-0.8,0.6
				c0,0.3,0.2,0.4,0.6,0.5l1.3,0.3c1.1,0.3,1.7,0.9,1.7,1.8c0,1.3-1.1,2-2.6,2c-1.5,0-2.6-0.7-2.8-2H548.6z"/>
			<path class="st5" d="M554.4,170.4h-1V169h1v-1.7h1.7v1.7h1.4v1.4h-1.4v2.7c0,0.5,0.3,0.7,0.7,0.7c0.3,0,0.6-0.1,0.8-0.2v1.5
				c-0.2,0.1-0.7,0.2-1.1,0.2c-1.3,0-2.1-0.6-2.1-2V170.4z"/>
			<path class="st5" d="M414.4,181.8c1.4,0,2.4,0.8,2.7,2.1h-0.6c-0.3-0.9-1-1.5-2.1-1.5c-1.5,0-2.6,1.2-2.6,3.2
				c0,2,1.1,3.2,2.6,3.2c1.1,0,1.8-0.6,2.1-1.5h0.6c-0.3,1.3-1.3,2.1-2.7,2.1c-1.8,0-3.2-1.5-3.2-3.8
				C411.2,183.3,412.6,181.8,414.4,181.8z"/>
			<path class="st5" d="M420.9,189.4c-1.4,0-2.4-1.1-2.4-2.8c0-1.6,0.9-2.8,2.4-2.8c1.4,0,2.4,1.1,2.4,2.8
				C423.3,188.3,422.3,189.4,420.9,189.4z M420.9,184.4c-1.1,0-1.8,0.9-1.8,2.2c0,1.3,0.7,2.2,1.8,2.2c1.1,0,1.8-0.9,1.8-2.2
				C422.7,185.3,422,184.4,420.9,184.4z"/>
			<path class="st5" d="M425.2,187.9c0.2,0.6,0.8,1,1.5,1c0.7,0,1.3-0.3,1.3-1c0-0.5-0.3-0.8-1-0.9l-1-0.3c-0.8-0.2-1.3-0.6-1.3-1.3
				c0-0.9,0.8-1.5,1.8-1.5c1.1,0,1.8,0.6,2,1.5h-0.6c-0.2-0.6-0.6-0.9-1.4-0.9c-0.7,0-1.2,0.3-1.2,0.9c0,0.5,0.3,0.7,1,0.9l0.9,0.3
				c0.9,0.2,1.3,0.8,1.3,1.5c0,1-0.8,1.5-1.9,1.5c-1.1,0-1.9-0.6-2.1-1.5H425.2z"/>
			<path class="st5" d="M430.6,184.5h-0.9V184h0.9v-1.4h0.6v1.4h1.4v0.5h-1.4v3.5c0,0.6,0.3,0.9,0.8,0.9c0.3,0,0.5-0.1,0.7-0.2v0.6
				c-0.2,0.1-0.5,0.2-0.8,0.2c-0.8,0-1.3-0.4-1.3-1.3V184.5z"/>
			<path class="st5" d="M439.5,189.4c-1.4,0-2.4-1.1-2.4-2.8c0-1.6,0.9-2.8,2.4-2.8c1.4,0,2.4,1.1,2.4,2.8
				C441.9,188.3,440.9,189.4,439.5,189.4z M439.5,184.4c-1.1,0-1.8,0.9-1.8,2.2c0,1.3,0.7,2.2,1.8,2.2c1.1,0,1.8-0.9,1.8-2.2
				C441.3,185.3,440.6,184.4,439.5,184.4z"/>
			<path class="st5" d="M446,182.1c-0.2-0.1-0.3-0.1-0.5-0.1c-0.6,0-1,0.4-1,1.2v0.9h1.2v0.5h-1.2v4.8h-0.6v-4.8h-0.9V184h0.9v-1
				c0-1,0.6-1.6,1.5-1.6c0.2,0,0.4,0,0.6,0.1V182.1z"/>
			<path class="st5" d="M454.4,187.8c-0.2,1-0.9,1.7-2.1,1.7c-1.4,0-2.4-1.1-2.4-2.8c0-1.6,0.9-2.8,2.4-2.8c1.4,0,2.2,1.1,2.2,2.6
				v0.2h-3.9c0,1.4,0.7,2.2,1.8,2.2c0.8,0,1.3-0.4,1.5-1.1H454.4z M450.6,186.2h3.3c0-0.9-0.5-1.8-1.6-1.8
				C451.4,184.4,450.7,185.1,450.6,186.2z"/>
			<path class="st5" d="M456.5,187.9c0.2,0.6,0.8,1,1.5,1c0.7,0,1.3-0.3,1.3-1c0-0.5-0.3-0.8-1-0.9l-1-0.3c-0.8-0.2-1.3-0.6-1.3-1.3
				c0-0.9,0.8-1.5,1.8-1.5c1.1,0,1.8,0.6,2,1.5h-0.6c-0.2-0.6-0.6-0.9-1.4-0.9c-0.7,0-1.2,0.3-1.2,0.9c0,0.5,0.3,0.7,1,0.9l0.9,0.3
				c0.9,0.2,1.3,0.8,1.3,1.5c0,1-0.8,1.5-1.9,1.5c-1.1,0-1.9-0.6-2.1-1.5H456.5z"/>
			<path class="st5" d="M461.9,184.5H461V184h0.9v-1.4h0.6v1.4h1.4v0.5h-1.4v3.5c0,0.6,0.3,0.9,0.8,0.9c0.3,0,0.5-0.1,0.7-0.2v0.6
				c-0.2,0.1-0.5,0.2-0.8,0.2c-0.8,0-1.3-0.4-1.3-1.3V184.5z"/>
			<path class="st5" d="M468.7,189.3v-0.5c-0.2,0.3-0.8,0.6-1.5,0.6c-1.1,0-2-0.6-2-1.6c0-1,0.9-1.6,2-1.6c0.6,0,1.2,0.3,1.5,0.6
				v-0.9c0-0.8-0.5-1.3-1.3-1.3c-0.7,0-1.1,0.3-1.3,0.9h-0.6c0.2-0.9,0.9-1.4,1.9-1.4c1.2,0,1.9,0.7,1.9,1.8v3.6H468.7z
				 M468.7,187.4c-0.2-0.5-0.8-0.8-1.4-0.8c-0.8,0-1.5,0.4-1.5,1.1c0,0.8,0.7,1.1,1.5,1.1c0.6,0,1.2-0.3,1.4-0.8V187.4z"/>
			<path class="st5" d="M472,189.3h-0.6v-7.8h0.6v3.3c0.3-0.5,0.9-0.9,1.7-0.9c1.6,0,2.3,1.3,2.3,2.8c0,1.5-0.8,2.8-2.3,2.8
				c-0.7,0-1.4-0.4-1.7-0.9V189.3z M472,187.8c0.4,0.7,1,1.1,1.6,1.1c1.1,0,1.8-0.9,1.8-2.2s-0.7-2.2-1.8-2.2
				c-0.6,0-1.2,0.4-1.6,1.1V187.8z"/>
			<path class="st5" d="M478.4,189.3h-0.6v-7.8h0.6V189.3z"/>
			<path class="st5" d="M480.8,182.8c-0.2,0-0.4-0.2-0.4-0.4c0-0.2,0.2-0.4,0.4-0.4s0.4,0.2,0.4,0.4
				C481.2,182.6,481.1,182.8,480.8,182.8z M481.1,189.3h-0.6V184h0.6V189.3z"/>
			<path class="st5" d="M483.4,187.9c0.2,0.6,0.8,1,1.5,1c0.7,0,1.3-0.3,1.3-1c0-0.5-0.3-0.8-1-0.9l-1-0.3c-0.8-0.2-1.3-0.6-1.3-1.3
				c0-0.9,0.8-1.5,1.8-1.5c1.1,0,1.8,0.6,2,1.5h-0.6c-0.2-0.6-0.6-0.9-1.4-0.9c-0.7,0-1.2,0.3-1.2,0.9c0,0.5,0.3,0.7,1,0.9l0.9,0.3
				c0.9,0.2,1.3,0.8,1.3,1.5c0,1-0.8,1.5-1.9,1.5c-1.1,0-1.9-0.6-2.1-1.5H483.4z"/>
			<path class="st5" d="M488.6,181.5h0.6v3.3c0.3-0.5,0.9-1,1.7-1c1.2,0,1.8,0.8,1.8,1.9v3.5h-0.6v-3.4c0-0.8-0.4-1.4-1.4-1.4
				c-0.7,0-1.3,0.5-1.6,1.2v3.7h-0.6V181.5z"/>
			<path class="st5" d="M495.2,182.8c-0.2,0-0.4-0.2-0.4-0.4c0-0.2,0.2-0.4,0.4-0.4s0.4,0.2,0.4,0.4
				C495.6,182.6,495.4,182.8,495.2,182.8z M495.5,189.3h-0.6V184h0.6V189.3z"/>
			<path class="st5" d="M497.6,184h0.6v0.9c0.3-0.5,0.9-1,1.7-1c1.2,0,1.8,0.8,1.8,1.9v3.5h-0.6v-3.4c0-0.8-0.4-1.4-1.4-1.4
				c-0.7,0-1.3,0.5-1.6,1.2v3.7h-0.6V184z"/>
			<path class="st5" d="M507.5,188.4c-0.3,0.5-0.9,0.9-1.6,0.9c-1.5,0-2.3-1.3-2.3-2.7c0-1.4,0.7-2.7,2.3-2.7c0.7,0,1.3,0.4,1.6,0.9
				V184h0.6v4.9c0,1.7-0.9,2.5-2.2,2.5c-1.2,0-2-0.6-2.2-1.6h0.6c0.2,0.7,0.8,1.1,1.6,1.1c1.1,0,1.6-0.7,1.6-2V188.4z M507.5,185.5
				c-0.3-0.7-0.9-1-1.6-1c-1.1,0-1.8,0.9-1.8,2.1c0,1.3,0.6,2.2,1.8,2.2c0.6,0,1.2-0.4,1.6-1V185.5z"/>
			<path class="st5" d="M513.6,184.5h-0.9V184h0.9v-1.4h0.6v1.4h1.4v0.5h-1.4v3.5c0,0.6,0.3,0.9,0.8,0.9c0.3,0,0.5-0.1,0.7-0.2v0.6
				c-0.2,0.1-0.5,0.2-0.8,0.2c-0.8,0-1.3-0.4-1.3-1.3V184.5z"/>
			<path class="st5" d="M519.9,184.5c-0.1-0.1-0.3-0.1-0.5-0.1c-0.6,0-1.2,0.5-1.4,1.2v3.7h-0.6V184h0.6v0.9c0.2-0.5,0.8-1,1.4-1
				c0.2,0,0.3,0,0.5,0.1V184.5z"/>
			<path class="st5" d="M525.6,189.3H525v-0.9c-0.3,0.5-0.9,1-1.7,1c-1.2,0-1.8-0.8-1.8-1.9V184h0.6v3.4c0,0.8,0.4,1.4,1.4,1.4
				c0.7,0,1.3-0.5,1.6-1.2V184h0.6V189.3z"/>
			<path class="st5" d="M527.9,187.9c0.2,0.6,0.8,1,1.5,1c0.7,0,1.3-0.3,1.3-1c0-0.5-0.3-0.8-1-0.9l-1-0.3c-0.8-0.2-1.3-0.6-1.3-1.3
				c0-0.9,0.8-1.5,1.8-1.5c1.1,0,1.8,0.6,2,1.5h-0.6c-0.2-0.6-0.6-0.9-1.4-0.9c-0.7,0-1.2,0.3-1.2,0.9c0,0.5,0.3,0.7,1,0.9l0.9,0.3
				c0.9,0.2,1.3,0.8,1.3,1.5c0,1-0.8,1.5-1.9,1.5c-1.1,0-1.9-0.6-2.1-1.5H527.9z"/>
			<path class="st5" d="M533.3,184.5h-0.9V184h0.9v-1.4h0.6v1.4h1.4v0.5h-1.4v3.5c0,0.6,0.3,0.9,0.8,0.9c0.3,0,0.5-0.1,0.7-0.2v0.6
				c-0.2,0.1-0.5,0.2-0.8,0.2c-0.8,0-1.3-0.4-1.3-1.3V184.5z"/>
			<path class="st5" d="M544.5,188.4l1.3-4.4h0.6l-1.6,5.3h-0.5l-1.3-4.4l-1.3,4.4h-0.5l-1.6-5.3h0.6l1.3,4.4l1.3-4.4h0.5
				L544.5,188.4z"/>
			<path class="st5" d="M548.3,182.8c-0.2,0-0.4-0.2-0.4-0.4c0-0.2,0.2-0.4,0.4-0.4s0.4,0.2,0.4,0.4
				C548.7,182.6,548.5,182.8,548.3,182.8z M548.6,189.3H548V184h0.6V189.3z"/>
			<path class="st5" d="M551,184.5h-0.9V184h0.9v-1.4h0.6v1.4h1.4v0.5h-1.4v3.5c0,0.6,0.3,0.9,0.8,0.9c0.3,0,0.5-0.1,0.7-0.2v0.6
				c-0.2,0.1-0.5,0.2-0.8,0.2c-0.8,0-1.3-0.4-1.3-1.3V184.5z"/>
			<path class="st5" d="M554.8,181.5h0.6v3.3c0.3-0.5,0.9-1,1.7-1c1.2,0,1.8,0.8,1.8,1.9v3.5h-0.6v-3.4c0-0.8-0.4-1.4-1.4-1.4
				c-0.7,0-1.3,0.5-1.6,1.2v3.7h-0.6V181.5z"/>
			<path class="st5" d="M411.8,198.5h-0.9V198h0.9v-1.4h0.6v1.4h1.4v0.5h-1.4v3.5c0,0.6,0.3,0.9,0.8,0.9c0.3,0,0.5-0.1,0.7-0.2v0.6
				c-0.2,0.1-0.5,0.2-0.8,0.2c-0.8,0-1.3-0.4-1.3-1.3V198.5z"/>
			<path class="st5" d="M415.6,195.5h0.6v3.3c0.3-0.5,0.9-1,1.7-1c1.2,0,1.8,0.8,1.8,1.9v3.5h-0.6v-3.4c0-0.8-0.4-1.4-1.4-1.4
				c-0.7,0-1.3,0.5-1.6,1.2v3.7h-0.6V195.5z"/>
			<path class="st5" d="M425.9,201.8c-0.2,1-0.9,1.7-2.1,1.7c-1.4,0-2.4-1.1-2.4-2.8c0-1.6,0.9-2.8,2.4-2.8c1.4,0,2.2,1.1,2.2,2.6
				v0.2h-3.9c0,1.4,0.7,2.2,1.8,2.2c0.8,0,1.3-0.4,1.5-1.1H425.9z M422.1,200.2h3.3c0-0.9-0.5-1.8-1.6-1.8
				C422.9,198.4,422.2,199.1,422.1,200.2z"/>
			<path class="st5" d="M431.5,203.3h-0.6v-7.8h0.6V203.3z"/>
			<path class="st5" d="M437.8,201.8c-0.2,1-0.9,1.7-2.1,1.7c-1.4,0-2.4-1.1-2.4-2.8c0-1.6,0.9-2.8,2.4-2.8c1.4,0,2.2,1.1,2.2,2.6
				v0.2h-3.9c0,1.4,0.7,2.2,1.8,2.2c0.8,0,1.3-0.4,1.5-1.1H437.8z M434,200.2h3.3c0-0.9-0.5-1.8-1.6-1.8
				C434.7,198.4,434.1,199.1,434,200.2z"/>
			<path class="st5" d="M442.7,203.3v-0.5c-0.2,0.3-0.8,0.6-1.5,0.6c-1.1,0-2-0.6-2-1.6c0-1,0.9-1.6,2-1.6c0.6,0,1.2,0.3,1.5,0.6
				v-0.9c0-0.8-0.5-1.3-1.3-1.3c-0.7,0-1.1,0.3-1.3,0.9h-0.6c0.2-0.9,0.9-1.4,1.9-1.4c1.2,0,1.9,0.7,1.9,1.8v3.6H442.7z
				 M442.7,201.4c-0.2-0.5-0.8-0.8-1.4-0.8c-0.8,0-1.5,0.4-1.5,1.1c0,0.8,0.7,1.1,1.5,1.1c0.6,0,1.2-0.3,1.4-0.8V201.4z"/>
			<path class="st5" d="M445.5,201.9c0.2,0.6,0.8,1,1.5,1c0.7,0,1.3-0.3,1.3-1c0-0.5-0.3-0.8-1-0.9l-1-0.3c-0.8-0.2-1.3-0.6-1.3-1.3
				c0-0.9,0.8-1.5,1.8-1.5c1.1,0,1.8,0.6,2,1.5h-0.6c-0.2-0.6-0.6-0.9-1.4-0.9c-0.7,0-1.2,0.3-1.2,0.9c0,0.5,0.3,0.7,1,0.9l0.9,0.3
				c0.9,0.2,1.3,0.8,1.3,1.5c0,1-0.8,1.5-1.9,1.5c-1.1,0-1.9-0.6-2.1-1.5H445.5z"/>
			<path class="st5" d="M450.9,198.5H450V198h0.9v-1.4h0.6v1.4h1.4v0.5h-1.4v3.5c0,0.6,0.3,0.9,0.8,0.9c0.3,0,0.5-0.1,0.7-0.2v0.6
				c-0.2,0.1-0.5,0.2-0.8,0.2c-0.8,0-1.3-0.4-1.3-1.3V198.5z"/>
			<path class="st5" d="M458.1,198.5h-0.9V198h0.9v-1.4h0.6v1.4h1.4v0.5h-1.4v3.5c0,0.6,0.3,0.9,0.8,0.9c0.3,0,0.5-0.1,0.7-0.2v0.6
				c-0.2,0.1-0.5,0.2-0.8,0.2c-0.8,0-1.3-0.4-1.3-1.3V198.5z"/>
			<path class="st5" d="M464.4,198.5c-0.1-0.1-0.3-0.1-0.5-0.1c-0.6,0-1.2,0.5-1.4,1.2v3.7h-0.6V198h0.6v0.9c0.2-0.5,0.8-1,1.4-1
				c0.2,0,0.3,0,0.5,0.1V198.5z"/>
			<path class="st5" d="M470,203.3h-0.6v-0.9c-0.3,0.5-0.9,1-1.7,1c-1.2,0-1.8-0.8-1.8-1.9V198h0.6v3.4c0,0.8,0.4,1.4,1.4,1.4
				c0.7,0,1.3-0.5,1.6-1.2V198h0.6V203.3z"/>
			<path class="st5" d="M472.3,201.9c0.2,0.6,0.8,1,1.5,1c0.7,0,1.3-0.3,1.3-1c0-0.5-0.3-0.8-1-0.9l-1-0.3c-0.8-0.2-1.3-0.6-1.3-1.3
				c0-0.9,0.8-1.5,1.8-1.5c1.1,0,1.8,0.6,2,1.5h-0.6c-0.2-0.6-0.6-0.9-1.4-0.9c-0.7,0-1.2,0.3-1.2,0.9c0,0.5,0.3,0.7,1,0.9l0.9,0.3
				c0.9,0.2,1.3,0.8,1.3,1.5c0,1-0.8,1.5-1.9,1.5c-1.1,0-1.9-0.6-2.1-1.5H472.3z"/>
			<path class="st5" d="M477.7,198.5h-0.9V198h0.9v-1.4h0.6v1.4h1.4v0.5h-1.4v3.5c0,0.6,0.3,0.9,0.8,0.9c0.3,0,0.5-0.1,0.7-0.2v0.6
				c-0.2,0.1-0.5,0.2-0.8,0.2c-0.8,0-1.3-0.4-1.3-1.3V198.5z"/>
			<path class="st5" d="M485.5,201.8c-0.2,1-0.9,1.7-2.1,1.7c-1.4,0-2.4-1.1-2.4-2.8c0-1.6,0.9-2.8,2.4-2.8c1.4,0,2.2,1.1,2.2,2.6
				v0.2h-3.9c0,1.4,0.7,2.2,1.8,2.2c0.8,0,1.3-0.4,1.5-1.1H485.5z M481.7,200.2h3.3c0-0.9-0.5-1.8-1.6-1.8
				C482.5,198.4,481.8,199.1,481.7,200.2z"/>
			<path class="st5" d="M491,202.5c-0.3,0.5-0.9,0.9-1.7,0.9c-1.6,0-2.3-1.3-2.3-2.8c0-1.5,0.8-2.8,2.3-2.8c0.7,0,1.4,0.4,1.7,0.9
				v-3.3h0.6v7.8H491V202.5z M491,199.5c-0.4-0.7-1-1.1-1.6-1.1c-1.1,0-1.8,0.9-1.8,2.2s0.7,2.2,1.8,2.2c0.6,0,1.2-0.4,1.6-1.1
				V199.5z"/>
			<path class="st5" d="M502.2,197.9c1.1,0,1.6,0.8,1.6,1.8v3.6h-0.6v-3.5c0-0.8-0.4-1.4-1.1-1.4c-0.7,0-1.2,0.5-1.4,1.1v3.8h-0.6
				v-3.5c0-0.8-0.4-1.4-1.1-1.4c-0.7,0-1.2,0.5-1.4,1.1v3.8h-0.6V198h0.6v0.8c0.3-0.5,0.8-0.9,1.5-0.9c0.8,0,1.3,0.4,1.5,1
				C500.8,198.4,501.4,197.9,502.2,197.9z"/>
			<path class="st5" d="M510,201.8c-0.2,1-0.9,1.7-2.1,1.7c-1.4,0-2.4-1.1-2.4-2.8c0-1.6,0.9-2.8,2.4-2.8c1.4,0,2.2,1.1,2.2,2.6v0.2
				h-3.9c0,1.4,0.7,2.2,1.8,2.2c0.8,0,1.3-0.4,1.5-1.1H510z M506.2,200.2h3.3c0-0.9-0.5-1.8-1.6-1.8
				C507,198.4,506.3,199.1,506.2,200.2z"/>
			<path class="st5" d="M517.1,197.9c1.1,0,1.6,0.8,1.6,1.8v3.6h-0.6v-3.5c0-0.8-0.4-1.4-1.1-1.4c-0.7,0-1.2,0.5-1.4,1.1v3.8H515
				v-3.5c0-0.8-0.4-1.4-1.1-1.4c-0.7,0-1.2,0.5-1.4,1.1v3.8h-0.6V198h0.6v0.8c0.3-0.5,0.8-0.9,1.5-0.9c0.8,0,1.3,0.4,1.5,1
				C515.8,198.4,516.4,197.9,517.1,197.9z"/>
			<path class="st5" d="M521.5,203.3h-0.6v-7.8h0.6v3.3c0.3-0.5,0.9-0.9,1.7-0.9c1.6,0,2.3,1.3,2.3,2.8c0,1.5-0.8,2.8-2.3,2.8
				c-0.7,0-1.4-0.4-1.7-0.9V203.3z M521.5,201.8c0.4,0.7,1,1.1,1.6,1.1c1.1,0,1.8-0.9,1.8-2.2s-0.7-2.2-1.8-2.2
				c-0.6,0-1.2,0.4-1.6,1.1V201.8z"/>
			<path class="st5" d="M531.3,201.8c-0.2,1-0.9,1.7-2.1,1.7c-1.4,0-2.4-1.1-2.4-2.8c0-1.6,0.9-2.8,2.4-2.8c1.4,0,2.2,1.1,2.2,2.6
				v0.2h-3.9c0,1.4,0.7,2.2,1.8,2.2c0.8,0,1.3-0.4,1.5-1.1H531.3z M527.5,200.2h3.3c0-0.9-0.5-1.8-1.6-1.8
				C528.3,198.4,527.6,199.1,527.5,200.2z"/>
			<path class="st5" d="M535.7,198.5c-0.1-0.1-0.3-0.1-0.5-0.1c-0.6,0-1.2,0.5-1.4,1.2v3.7h-0.6V198h0.6v0.9c0.2-0.5,0.8-1,1.4-1
				c0.2,0,0.3,0,0.5,0.1V198.5z"/>
		</g>
	</g>
	<g>
		<g>
			<path class="st5" d="M487,92.3c0.2,0.8,0.9,1.1,1.7,1.1c0.9,0,1.4-0.4,1.4-1.1c0-0.5-0.3-0.8-1.1-1l-1.5-0.4
				c-1.2-0.3-2.2-0.9-2.2-2.4c0-1.6,1.3-2.6,3.1-2.6c2,0,3.1,1,3.4,2.5h-1.8c-0.2-0.6-0.7-1-1.6-1c-0.8,0-1.4,0.4-1.4,1
				c0,0.5,0.3,0.8,1,0.9l1.6,0.4c1.4,0.3,2.3,1.1,2.3,2.4c0,1.7-1.4,2.7-3.2,2.7c-1.9,0-3.3-1-3.6-2.6H487z"/>
			<path class="st5" d="M499.2,94.7h-1.7v-0.6c-0.4,0.4-1,0.7-1.7,0.7c-1.4,0-2.2-0.9-2.2-2.3v-4.1h1.7v3.7c0,0.7,0.3,1.1,1,1.1
				c0.5,0,1-0.3,1.1-0.9v-4h1.8V94.7z"/>
			<path class="st5" d="M508.2,88.3c1.3,0,2.1,0.9,2.1,2.3v4.1h-1.7V91c0-0.7-0.3-1.1-0.9-1.1c-0.4,0-0.9,0.3-1,0.8v4h-1.8V91
				c0-0.7-0.3-1.1-0.9-1.1c-0.4,0-0.9,0.3-1,0.8v4h-1.7v-6.3h1.7V89c0.3-0.4,0.9-0.7,1.6-0.7c0.7,0,1.3,0.3,1.7,0.8
				C506.7,88.7,507.3,88.3,508.2,88.3z"/>
		</g>
	</g>
	<line class="st21" x1="348.5" y1="252.8" x2="298.9" y2="252.8"/>
	<line class="st21" x1="348.5" y1="276.7" x2="298.9" y2="276.7"/>
	<line class="st21" x1="348.5" y1="301.7" x2="298.9" y2="301.7"/>
	<rect x="75.7" y="291.8" class="st5" width="20.1" height="20.1"/>
	<rect x="79.4" y="303.7" class="st0" width="4.4" height="4.4"/>
	<circle class="st0" cx="90" cy="297.7" r="2.2"/>
	<path class="st0" d="M88.2,305.9c0-0.3,0-0.6,0.1-0.9c0.1-0.3,0.2-0.6,0.3-0.8s0.3-0.4,0.6-0.5s0.5-0.2,0.8-0.2s0.6,0.1,0.8,0.2
		s0.4,0.3,0.6,0.5s0.2,0.5,0.3,0.8s0.1,0.6,0.1,0.9c0,0.3,0,0.6-0.1,0.9s-0.2,0.6-0.3,0.8c-0.1,0.2-0.3,0.4-0.6,0.5
		s-0.5,0.2-0.8,0.2s-0.6-0.1-0.8-0.2c-0.2-0.1-0.4-0.3-0.6-0.5c-0.1-0.2-0.2-0.5-0.3-0.8S88.2,306.2,88.2,305.9z M88.7,305.9
		c0,0.3,0,0.7,0.1,1l2.2-2.3c-0.1-0.2-0.3-0.4-0.4-0.5s-0.4-0.2-0.6-0.2c-0.4,0-0.7,0.2-1,0.5C88.8,304.8,88.7,305.3,88.7,305.9z
		 M89,307.3c0.2,0.4,0.6,0.6,1,0.6c0.4,0,0.7-0.2,1-0.5c0.2-0.4,0.3-0.9,0.3-1.5c0-0.2,0-0.3,0-0.5c0-0.2-0.1-0.3-0.1-0.4L89,307.3z
		"/>
	<path class="st0" d="M83,300.1h-2v-0.4h0.8v-3.2c0,0.1-0.1,0.2-0.2,0.3c-0.1,0.1-0.2,0.2-0.3,0.3c-0.1,0.1-0.3,0.2-0.4,0.2
		c-0.2,0.1-0.3,0.1-0.5,0.1v-0.5c0.1,0,0.3,0,0.5-0.1c0.2-0.1,0.3-0.2,0.5-0.3c0.1-0.1,0.3-0.3,0.4-0.5c0.1-0.2,0.1-0.4,0.1-0.5h0.5
		v4.3H83V300.1z"/>
	<rect x="288.5" y="291.8" class="st5" width="20.1" height="20.1"/>
	<rect x="292.2" y="303.7" class="st0" width="4.4" height="4.4"/>
	<circle class="st0" cx="302.7" cy="297.7" r="2.2"/>
	<path class="st0" d="M300.9,305.9c0-0.3,0-0.6,0.1-0.9s0.2-0.6,0.3-0.8c0.1-0.2,0.3-0.4,0.6-0.5s0.5-0.2,0.8-0.2s0.6,0.1,0.8,0.2
		s0.4,0.3,0.6,0.5s0.2,0.5,0.3,0.8s0.1,0.6,0.1,0.9c0,0.3,0,0.6-0.1,0.9s-0.2,0.6-0.3,0.8c-0.1,0.2-0.3,0.4-0.6,0.5
		s-0.5,0.2-0.8,0.2c-0.3,0-0.6-0.1-0.8-0.2s-0.4-0.3-0.6-0.5c-0.1-0.2-0.2-0.5-0.3-0.8S300.9,306.2,300.9,305.9z M301.4,305.9
		c0,0.3,0,0.7,0.1,1l2.2-2.3c-0.1-0.2-0.3-0.4-0.4-0.5s-0.4-0.2-0.6-0.2c-0.4,0-0.7,0.2-1,0.5C301.5,304.8,301.4,305.3,301.4,305.9z
		 M301.7,307.3c0.2,0.4,0.6,0.6,1,0.6c0.4,0,0.7-0.2,1-0.5c0.2-0.4,0.3-0.9,0.3-1.5c0-0.2,0-0.3,0-0.5c0-0.2-0.1-0.3-0.1-0.4
		L301.7,307.3z"/>
	<path class="st0" d="M295.7,300.1h-2v-0.4h0.8v-3.2c0,0.1-0.1,0.2-0.2,0.3c-0.1,0.1-0.2,0.2-0.3,0.3c-0.1,0.1-0.3,0.2-0.4,0.2
		c-0.2,0.1-0.3,0.1-0.5,0.1v-0.5c0.1,0,0.3,0,0.5-0.1c0.2-0.1,0.3-0.2,0.5-0.3c0.1-0.1,0.3-0.3,0.4-0.5s0.1-0.4,0.1-0.5h0.5v4.3h0.8
		V300.1z"/>
	<rect x="313.5" y="291.8" class="st5" width="20.1" height="20.1"/>
	<rect x="317.2" y="303.7" class="st0" width="4.4" height="4.4"/>
	<circle class="st0" cx="327.7" cy="297.7" r="2.2"/>
	<path class="st0" d="M325.9,305.9c0-0.3,0-0.6,0.1-0.9c0.1-0.3,0.2-0.6,0.3-0.8c0.1-0.2,0.3-0.4,0.6-0.5s0.5-0.2,0.8-0.2
		c0.3,0,0.6,0.1,0.8,0.2s0.4,0.3,0.6,0.5c0.1,0.2,0.2,0.5,0.3,0.8c0.1,0.3,0.1,0.6,0.1,0.9c0,0.3,0,0.6-0.1,0.9
		c-0.1,0.3-0.2,0.6-0.3,0.8c-0.1,0.2-0.3,0.4-0.6,0.5s-0.5,0.2-0.8,0.2c-0.3,0-0.6-0.1-0.8-0.2s-0.4-0.3-0.6-0.5
		c-0.1-0.2-0.2-0.5-0.3-0.8C325.9,306.5,325.9,306.2,325.9,305.9z M326.4,305.9c0,0.3,0,0.7,0.1,1l2.2-2.3c-0.1-0.2-0.3-0.4-0.4-0.5
		s-0.4-0.2-0.6-0.2c-0.4,0-0.7,0.2-1,0.5C326.5,304.8,326.4,305.3,326.4,305.9z M326.7,307.3c0.2,0.4,0.6,0.6,1,0.6
		c0.4,0,0.7-0.2,1-0.5c0.2-0.4,0.3-0.9,0.3-1.5c0-0.2,0-0.3,0-0.5c0-0.2-0.1-0.3-0.1-0.4L326.7,307.3z"/>
	<path class="st0" d="M320.7,300.1h-2v-0.4h0.8v-3.2c0,0.1-0.1,0.2-0.2,0.3c-0.1,0.1-0.2,0.2-0.3,0.3c-0.1,0.1-0.3,0.2-0.4,0.2
		c-0.2,0.1-0.3,0.1-0.5,0.1v-0.5c0.1,0,0.3,0,0.5-0.1c0.2-0.1,0.3-0.2,0.5-0.3c0.1-0.1,0.3-0.3,0.4-0.5s0.1-0.4,0.1-0.5h0.5v4.3h0.8
		V300.1z"/>
	<rect x="338.5" y="291.8" class="st5" width="20.1" height="20.1"/>
	<rect x="342.2" y="303.7" class="st0" width="4.4" height="4.4"/>
	<circle class="st0" cx="352.7" cy="297.7" r="2.2"/>
	<path class="st0" d="M350.9,305.9c0-0.3,0-0.6,0.1-0.9s0.2-0.6,0.3-0.8s0.3-0.4,0.6-0.5s0.5-0.2,0.8-0.2s0.6,0.1,0.8,0.2
		s0.4,0.3,0.6,0.5c0.1,0.2,0.2,0.5,0.3,0.8s0.1,0.6,0.1,0.9c0,0.3,0,0.6-0.1,0.9s-0.2,0.6-0.3,0.8c-0.1,0.2-0.3,0.4-0.6,0.5
		s-0.5,0.2-0.8,0.2c-0.3,0-0.6-0.1-0.8-0.2s-0.4-0.3-0.6-0.5c-0.1-0.2-0.2-0.5-0.3-0.8S350.9,306.2,350.9,305.9z M351.4,305.9
		c0,0.3,0,0.7,0.1,1l2.2-2.3c-0.1-0.2-0.3-0.4-0.4-0.5s-0.4-0.2-0.6-0.2c-0.4,0-0.7,0.2-1,0.5C351.5,304.8,351.4,305.3,351.4,305.9z
		 M351.7,307.3c0.2,0.4,0.6,0.6,1,0.6c0.4,0,0.7-0.2,1-0.5c0.2-0.4,0.3-0.9,0.3-1.5c0-0.2,0-0.3,0-0.5c0-0.2-0.1-0.3-0.1-0.4
		L351.7,307.3z"/>
	<path class="st0" d="M345.7,300.1h-2v-0.4h0.8v-3.2c0,0.1-0.1,0.2-0.2,0.3c-0.1,0.1-0.2,0.2-0.3,0.3c-0.1,0.1-0.3,0.2-0.4,0.2
		c-0.2,0.1-0.3,0.1-0.5,0.1v-0.5c0.1,0,0.3,0,0.5-0.1c0.2-0.1,0.3-0.2,0.5-0.3c0.1-0.1,0.3-0.3,0.4-0.5s0.1-0.4,0.1-0.5h0.5v4.3h0.8
		V300.1z"/>
	<rect x="288.5" y="266.9" class="st5" width="20.1" height="20.1"/>
	<rect x="292.2" y="278.8" class="st0" width="4.4" height="4.4"/>
	<circle class="st0" cx="302.7" cy="272.7" r="2.2"/>
	<path class="st0" d="M300.9,281c0-0.3,0-0.6,0.1-0.9s0.2-0.6,0.3-0.8c0.1-0.2,0.3-0.4,0.6-0.5s0.5-0.2,0.8-0.2s0.6,0.1,0.8,0.2
		s0.4,0.3,0.6,0.5s0.2,0.5,0.3,0.8s0.1,0.6,0.1,0.9s0,0.6-0.1,0.9s-0.2,0.6-0.3,0.8c-0.1,0.2-0.3,0.4-0.6,0.5s-0.5,0.2-0.8,0.2
		c-0.3,0-0.6-0.1-0.8-0.2s-0.4-0.3-0.6-0.5c-0.1-0.2-0.2-0.5-0.3-0.8S300.9,281.3,300.9,281z M301.4,281c0,0.3,0,0.7,0.1,1l2.2-2.3
		c-0.1-0.2-0.3-0.4-0.4-0.5c-0.2-0.1-0.4-0.2-0.6-0.2c-0.4,0-0.7,0.2-1,0.5C301.5,279.8,301.4,280.3,301.4,281z M301.7,282.3
		c0.2,0.4,0.6,0.6,1,0.6c0.4,0,0.7-0.2,1-0.5c0.2-0.4,0.3-0.9,0.3-1.5c0-0.2,0-0.3,0-0.5c0-0.2-0.1-0.3-0.1-0.4L301.7,282.3z"/>
	<path class="st0" d="M295.7,275.1h-2v-0.4h0.8v-3.2c0,0.1-0.1,0.2-0.2,0.3c-0.1,0.1-0.2,0.2-0.3,0.3c-0.1,0.1-0.3,0.2-0.4,0.2
		c-0.2,0.1-0.3,0.1-0.5,0.1v-0.5c0.1,0,0.3,0,0.5-0.1c0.2-0.1,0.3-0.2,0.5-0.3c0.1-0.1,0.3-0.3,0.4-0.5s0.1-0.4,0.1-0.5h0.5v4.3h0.8
		V275.1z"/>
	<rect x="313.5" y="266.9" class="st5" width="20.1" height="20.1"/>
	<rect x="317.2" y="278.8" class="st0" width="4.4" height="4.4"/>
	<circle class="st0" cx="327.7" cy="272.7" r="2.2"/>
	<path class="st0" d="M325.9,281c0-0.3,0-0.6,0.1-0.9c0.1-0.3,0.2-0.6,0.3-0.8c0.1-0.2,0.3-0.4,0.6-0.5s0.5-0.2,0.8-0.2
		c0.3,0,0.6,0.1,0.8,0.2s0.4,0.3,0.6,0.5c0.1,0.2,0.2,0.5,0.3,0.8c0.1,0.3,0.1,0.6,0.1,0.9s0,0.6-0.1,0.9c-0.1,0.3-0.2,0.6-0.3,0.8
		c-0.1,0.2-0.3,0.4-0.6,0.5s-0.5,0.2-0.8,0.2c-0.3,0-0.6-0.1-0.8-0.2s-0.4-0.3-0.6-0.5c-0.1-0.2-0.2-0.5-0.3-0.8
		C325.9,281.6,325.9,281.3,325.9,281z M326.4,281c0,0.3,0,0.7,0.1,1l2.2-2.3c-0.1-0.2-0.3-0.4-0.4-0.5c-0.2-0.1-0.4-0.2-0.6-0.2
		c-0.4,0-0.7,0.2-1,0.5C326.5,279.8,326.4,280.3,326.4,281z M326.7,282.3c0.2,0.4,0.6,0.6,1,0.6c0.4,0,0.7-0.2,1-0.5
		c0.2-0.4,0.3-0.9,0.3-1.5c0-0.2,0-0.3,0-0.5c0-0.2-0.1-0.3-0.1-0.4L326.7,282.3z"/>
	<path class="st0" d="M320.7,275.1h-2v-0.4h0.8v-3.2c0,0.1-0.1,0.2-0.2,0.3s-0.2,0.2-0.3,0.3c-0.1,0.1-0.3,0.2-0.4,0.2
		c-0.2,0.1-0.3,0.1-0.5,0.1v-0.5c0.1,0,0.3,0,0.5-0.1c0.2-0.1,0.3-0.2,0.5-0.3c0.1-0.1,0.3-0.3,0.4-0.5s0.1-0.4,0.1-0.5h0.5v4.3h0.8
		V275.1z"/>
	<rect x="338.5" y="266.9" class="st5" width="20.1" height="20.1"/>
	<rect x="342.2" y="278.8" class="st0" width="4.4" height="4.4"/>
	<circle class="st0" cx="352.7" cy="272.7" r="2.2"/>
	<path class="st0" d="M350.9,281c0-0.3,0-0.6,0.1-0.9s0.2-0.6,0.3-0.8s0.3-0.4,0.6-0.5s0.5-0.2,0.8-0.2s0.6,0.1,0.8,0.2
		s0.4,0.3,0.6,0.5c0.1,0.2,0.2,0.5,0.3,0.8s0.1,0.6,0.1,0.9s0,0.6-0.1,0.9s-0.2,0.6-0.3,0.8c-0.1,0.2-0.3,0.4-0.6,0.5
		s-0.5,0.2-0.8,0.2c-0.3,0-0.6-0.1-0.8-0.2s-0.4-0.3-0.6-0.5c-0.1-0.2-0.2-0.5-0.3-0.8S350.9,281.3,350.9,281z M351.4,281
		c0,0.3,0,0.7,0.1,1l2.2-2.3c-0.1-0.2-0.3-0.4-0.4-0.5c-0.2-0.1-0.4-0.2-0.6-0.2c-0.4,0-0.7,0.2-1,0.5
		C351.5,279.8,351.4,280.3,351.4,281z M351.7,282.3c0.2,0.4,0.6,0.6,1,0.6c0.4,0,0.7-0.2,1-0.5c0.2-0.4,0.3-0.9,0.3-1.5
		c0-0.2,0-0.3,0-0.5c0-0.2-0.1-0.3-0.1-0.4L351.7,282.3z"/>
	<path class="st0" d="M345.7,275.1h-2v-0.4h0.8v-3.2c0,0.1-0.1,0.2-0.2,0.3s-0.2,0.2-0.3,0.3c-0.1,0.1-0.3,0.2-0.4,0.2
		c-0.2,0.1-0.3,0.1-0.5,0.1v-0.5c0.1,0,0.3,0,0.5-0.1s0.3-0.2,0.5-0.3c0.1-0.1,0.3-0.3,0.4-0.5s0.1-0.4,0.1-0.5h0.5v4.3h0.8V275.1z"
		/>
	<rect x="288.5" y="242.8" class="st5" width="20.1" height="20.1"/>
	<rect x="292.2" y="254.7" class="st0" width="4.4" height="4.4"/>
	<circle class="st0" cx="302.7" cy="248.6" r="2.2"/>
	<path class="st0" d="M300.9,256.9c0-0.3,0-0.6,0.1-0.9s0.2-0.6,0.3-0.8c0.1-0.2,0.3-0.4,0.6-0.5s0.5-0.2,0.8-0.2s0.6,0.1,0.8,0.2
		s0.4,0.3,0.6,0.5s0.2,0.5,0.3,0.8s0.1,0.6,0.1,0.9c0,0.3,0,0.6-0.1,0.9s-0.2,0.6-0.3,0.8c-0.1,0.2-0.3,0.4-0.6,0.5
		s-0.5,0.2-0.8,0.2c-0.3,0-0.6-0.1-0.8-0.2s-0.4-0.3-0.6-0.5c-0.1-0.2-0.2-0.5-0.3-0.8S300.9,257.2,300.9,256.9z M301.4,256.9
		c0,0.3,0,0.7,0.1,1l2.2-2.3c-0.1-0.2-0.3-0.4-0.4-0.5s-0.4-0.2-0.6-0.2c-0.4,0-0.7,0.2-1,0.5C301.5,255.7,301.4,256.2,301.4,256.9z
		 M301.7,258.2c0.2,0.4,0.6,0.6,1,0.6c0.4,0,0.7-0.2,1-0.5c0.2-0.4,0.3-0.9,0.3-1.5c0-0.2,0-0.3,0-0.5c0-0.2-0.1-0.3-0.1-0.4
		L301.7,258.2z"/>
	<path class="st0" d="M295.7,251h-2v-0.4h0.8v-3.2c0,0.1-0.1,0.2-0.2,0.3c-0.1,0.1-0.2,0.2-0.3,0.3c-0.1,0.1-0.3,0.2-0.4,0.2
		c-0.2,0.1-0.3,0.1-0.5,0.1v-0.5c0.1,0,0.3,0,0.5-0.1c0.2-0.1,0.3-0.2,0.5-0.3c0.1-0.1,0.3-0.3,0.4-0.5c0.1-0.2,0.1-0.4,0.1-0.5h0.5
		v4.3h0.8V251z"/>
	<rect x="313.5" y="242.8" class="st5" width="20.1" height="20.1"/>
	<rect x="317.2" y="254.7" class="st0" width="4.4" height="4.4"/>
	<circle class="st0" cx="327.7" cy="248.6" r="2.2"/>
	<path class="st0" d="M325.9,256.9c0-0.3,0-0.6,0.1-0.9c0.1-0.3,0.2-0.6,0.3-0.8c0.1-0.2,0.3-0.4,0.6-0.5s0.5-0.2,0.8-0.2
		c0.3,0,0.6,0.1,0.8,0.2s0.4,0.3,0.6,0.5c0.1,0.2,0.2,0.5,0.3,0.8c0.1,0.3,0.1,0.6,0.1,0.9c0,0.3,0,0.6-0.1,0.9
		c-0.1,0.3-0.2,0.6-0.3,0.8c-0.1,0.2-0.3,0.4-0.6,0.5s-0.5,0.2-0.8,0.2c-0.3,0-0.6-0.1-0.8-0.2s-0.4-0.3-0.6-0.5
		c-0.1-0.2-0.2-0.5-0.3-0.8C325.9,257.5,325.9,257.2,325.9,256.9z M326.4,256.9c0,0.3,0,0.7,0.1,1l2.2-2.3c-0.1-0.2-0.3-0.4-0.4-0.5
		s-0.4-0.2-0.6-0.2c-0.4,0-0.7,0.2-1,0.5S326.4,256.2,326.4,256.9z M326.7,258.2c0.2,0.4,0.6,0.6,1,0.6c0.4,0,0.7-0.2,1-0.5
		c0.2-0.4,0.3-0.9,0.3-1.5c0-0.2,0-0.3,0-0.5c0-0.2-0.1-0.3-0.1-0.4L326.7,258.2z"/>
	<path class="st0" d="M320.7,251h-2v-0.4h0.8v-3.2c0,0.1-0.1,0.2-0.2,0.3c-0.1,0.1-0.2,0.2-0.3,0.3c-0.1,0.1-0.3,0.2-0.4,0.2
		c-0.2,0.1-0.3,0.1-0.5,0.1v-0.5c0.1,0,0.3,0,0.5-0.1c0.2-0.1,0.3-0.2,0.5-0.3c0.1-0.1,0.3-0.3,0.4-0.5c0.1-0.2,0.1-0.4,0.1-0.5h0.5
		v4.3h0.8V251z"/>
	<rect x="338.5" y="242.8" class="st5" width="20.1" height="20.1"/>
	<rect x="342.2" y="254.7" class="st0" width="4.4" height="4.4"/>
	<circle class="st0" cx="352.7" cy="248.6" r="2.2"/>
	<path class="st0" d="M350.9,256.9c0-0.3,0-0.6,0.1-0.9s0.2-0.6,0.3-0.8s0.3-0.4,0.6-0.5s0.5-0.2,0.8-0.2s0.6,0.1,0.8,0.2
		s0.4,0.3,0.6,0.5c0.1,0.2,0.2,0.5,0.3,0.8s0.1,0.6,0.1,0.9c0,0.3,0,0.6-0.1,0.9s-0.2,0.6-0.3,0.8c-0.1,0.2-0.3,0.4-0.6,0.5
		s-0.5,0.2-0.8,0.2c-0.3,0-0.6-0.1-0.8-0.2s-0.4-0.3-0.6-0.5c-0.1-0.2-0.2-0.5-0.3-0.8S350.9,257.2,350.9,256.9z M351.4,256.9
		c0,0.3,0,0.7,0.1,1l2.2-2.3c-0.1-0.2-0.3-0.4-0.4-0.5s-0.4-0.2-0.6-0.2c-0.4,0-0.7,0.2-1,0.5S351.4,256.2,351.4,256.9z
		 M351.7,258.2c0.2,0.4,0.6,0.6,1,0.6c0.4,0,0.7-0.2,1-0.5c0.2-0.4,0.3-0.9,0.3-1.5c0-0.2,0-0.3,0-0.5c0-0.2-0.1-0.3-0.1-0.4
		L351.7,258.2z"/>
	<path class="st0" d="M345.7,251h-2v-0.4h0.8v-3.2c0,0.1-0.1,0.2-0.2,0.3c-0.1,0.1-0.2,0.2-0.3,0.3c-0.1,0.1-0.3,0.2-0.4,0.2
		c-0.2,0.1-0.3,0.1-0.5,0.1v-0.5c0.1,0,0.3,0,0.5-0.1s0.3-0.2,0.5-0.3c0.1-0.1,0.3-0.3,0.4-0.5c0.1-0.2,0.1-0.4,0.1-0.5h0.5v4.3h0.8
		V251z"/>
	<path class="st3" d="M76,145.1c60.1,62.6,66.5,71.9,397.7,95.4"/>
	<path class="st4" d="M76.4,204.2c72.4-0.8,133.5,15,397.7-69.6"/>
	<line class="st6" x1="211.4" y1="151.6" x2="211.4" y2="311.8"/>
	<line class="st21" x1="348.5" y1="252.8" x2="348.5" y2="276.7"/>
	<line class="st21" x1="298.9" y1="276.7" x2="298.9" y2="301.7"/>
</g>
</svg>
