<svg viewBox="0 0 656.63 173.38" xmlns="http://www.w3.org/2000/svg"><g fill="#000"><path d="m492 54.67a42.6 42.6 0 0 0 -38.61.15 34.4 34.4 0 0 0 -13.39 12.78 34.83 34.83 0 0 0 -4.8 18.27 34.77 34.77 0 0 0 4.94 18.22 34.24 34.24 0 0 0 13.52 12.69 42.66 42.66 0 0 0 38.6-.15 35.12 35.12 0 0 0 -.23-62zm-.38 42.39a20.18 20.18 0 0 1 -7.7 7.85 23 23 0 0 1 -22 .08 20 20 0 0 1 -7.75-7.79 22.79 22.79 0 0 1 -2.85-11.39 22.91 22.91 0 0 1 2.76-11.42 20.15 20.15 0 0 1 7.69-7.85 23 23 0 0 1 22-.08 20.08 20.08 0 0 1 7.75 7.79 24.67 24.67 0 0 1 .09 22.81z"/><path d="m220.92 91.55a18.14 18.14 0 0 0 -9.27-6.21 16.56 16.56 0 0 0 9.09-15.18 15.27 15.27 0 0 0 -6.79-13q-6.75-4.8-19.34-4.75l-29.42.11a4.22 4.22 0 0 0 -4.18 4v.42l.23 60v.3a4.2 4.2 0 0 0 4.12 4.06h.16l31.34-.11q13.47-.06 20.48-5t7-13.94a17.32 17.32 0 0 0 -3.42-10.7zm-44.07-27.12 15.84-.06c3.93 0 6.92.65 8.95 2a6.77 6.77 0 0 1 3.07 6 6.89 6.89 0 0 1 -3 6.1q-3 2.08-8.94 2.1l-15.84.06zm28.24 42.67c-2.12 1.38-5.29 2.09-9.48 2.1l-18.59.07-.06-17 18.59-.07q12.67 0 12.71 8.51a7.06 7.06 0 0 1 -3.17 6.39z"/><path d="m404 98.28a22.44 22.44 0 0 0 14-21.79 22.79 22.79 0 0 0 -14.1-21.88 38.23 38.23 0 0 0 -15.89-3l-25.51.09h-.12a4.23 4.23 0 0 0 -4.16 4.15s0 .05 0 .08 0 0 0 .08l.23 60.27s0 0 0 0a.43.43 0 0 0 0 0 4.22 4.22 0 0 0 4.15 4.17h.08.08 7.37a4.23 4.23 0 0 0 4.21-4.21s0 0 0 0a0 0 0 0 1 0 0l-.05-14.94h13.87.84l12.1 17.3a4 4 0 0 0 1.59 1.37 5.43 5.43 0 0 0 1.95.43h6.54.22s.14 0 .22 0h7.85zm-16.66-9.67h-13l-.09-24h13q7.19 0 10.93 3.06t3.77 8.88q0 5.72-3.71 8.87t-10.95 3.19z"/><path d="m580.75 88.66a21.32 21.32 0 0 0 -8.63-5.86 109.72 109.72 0 0 0 -12.9-3.69 58 58 0 0 1 -11.22-3.35c-2.47-1.14-3.7-2.89-3.71-5.25a6.62 6.62 0 0 1 3.17-5.72q3.2-2.18 9.88-2.2a36.75 36.75 0 0 1 15.04 3.41c.1 0 .2.1.3.15a4.35 4.35 0 0 0 1.53.31 4.2 4.2 0 0 0 3.71-2.3l.08-.19.14-.36.05-.13 1.62-4v-.11a4.22 4.22 0 0 0 .32-1.59 4.16 4.16 0 0 0 -1.83-3.39c-.4-.2-.77-.41-1.18-.59a40.3 40.3 0 0 0 -6.93-2.42 52.92 52.92 0 0 0 -12.89-1.52 39.8 39.8 0 0 0 -16 2.91 21.77 21.77 0 0 0 -9.76 7.76 19.12 19.12 0 0 0 -3.2 10.88c0 4.59 1.23 8.25 3.63 11a20.91 20.91 0 0 0 8.63 6 108.92 108.92 0 0 0 12.96 3.59c3.42.77 6.12 1.49 8.13 2.13a14.48 14.48 0 0 1 4.92 2.59 5.13 5.13 0 0 1 1.94 4.08 6.08 6.08 0 0 1 -3.23 5.37q-3.24 2-10 2a39.37 39.37 0 0 1 -19-4.88c-.07 0-.13-.08-.19-.11a4.14 4.14 0 0 0 -5.32 2l-.13.28v.09l-.09.21-1.78 4-.14.31a4.06 4.06 0 0 0 1.92 5.15l.26.15.22.12a43.57 43.57 0 0 0 8.48 3.35 56.11 56.11 0 0 0 15.7 2.16 40.39 40.39 0 0 0 16-2.92 22.09 22.09 0 0 0 9.85-7.75 18.9 18.9 0 0 0 3.26-10.79q-.01-6.85-3.61-10.88z"/><path d="m656.63 59.33v-4.33-.32a4.22 4.22 0 0 0 -4.12-4.06h-.16l-51.47.2a4.23 4.23 0 0 0 -4.26 4.18s0 .05 0 .08 0 .05 0 .08v4.39s0 0 0 0 0 0 0 .06a4.23 4.23 0 0 0 4.18 4.17h.09l17.77-.07.2 51.63a4.23 4.23 0 0 0 4.16 4.22h.16 7.16.45a4.21 4.21 0 0 0 4-4.18l-.19-51.68 17.62-.07h.35a4.2 4.2 0 0 0 4-4.12z"/><path d="m339.26 60.31v-4.1-.32a4.2 4.2 0 0 0 -4.12-4.06h-.14l-43.47.17h-.18a4.21 4.21 0 0 0 -4.13 4.14v.15l.23 60.33a4.24 4.24 0 0 0 4.15 4.17h.16 7.18.44a4.21 4.21 0 0 0 4-4.09v-.21-7l-.05-13.77h14.35 2.79 10.4.13a4.23 4.23 0 0 0 4.15-4.21v-4.22s0-.06 0-.09 0-.06 0-.1a4.22 4.22 0 0 0 -4.21-4.14l-27.67.1-.07-18.2 31.8-.25h.1a4.21 4.21 0 0 0 4.17-4.14s0 0 0-.08-.01-.05-.01-.08z"/><path d="m262 116.69-.23-60.33a4.23 4.23 0 0 0 -4.15-4.21h-7.56a4.22 4.22 0 0 0 -4.22 4.15s0 0 0 .08 0 0 0 .08l.23 60.19s0 .07 0 .11 0 .08 0 .12a4.2 4.2 0 0 0 4.13 4.1h.16 7.2.44a4.2 4.2 0 0 0 4-4.11s0 0 0-.08 0-.07 0-.1z"/><path d="m116.86 97.16a2.42 2.42 0 0 0 -2.26.89 49.68 49.68 0 0 1 -5.46 5.18l-1 .81-.31.25a1.84 1.84 0 0 0 -.72 1.78c0 .19.07.36.11.54s.09.36.14.54c.17.62.35 1.25.48 1.86v.11c.19.88.36 1.77.5 2.66l.06.35c.11.78.2 1.61.27 2.47v.21.33c.07 1.07.11 2 .11 3a41.62 41.62 0 0 1 -41.58 41.57h-51a2.62 2.62 0 0 1 -2.58-2.57v-44a2.61 2.61 0 0 1 2.59-2.58h51c1.29 0 2.65-.06 4.17-.17h.49c1.25-.1 2.53-.26 3.91-.47l.59-.1c1.29-.21 2.57-.47 3.82-.77l.47-.12c1.35-.34 2.65-.72 3.86-1.12h.11a55.3 55.3 0 0 0 7.78-3.29c1.24-.63 2.46-1.32 3.67-2.07l.1-.06c1.2-.74 2.37-1.52 3.46-2.32l3.18-2.5a47.19 47.19 0 0 0 9.92-10.94l.1-.11c.3-.45.61-1 .93-1.47l.32-.52a55.19 55.19 0 0 0 -46.8-84.53h-60.63a6.81 6.81 0 0 0 -6.66 6.73v62.87s0 0 0 .06v.13s0 0 0 .06a6.8 6.8 0 0 0 6.78 6.69h60.5a41.07 41.07 0 0 1 18.37 4.33h.09a2.69 2.69 0 0 0 1 .2 2.54 2.54 0 0 0 1.58-.59l.36-.31a48.35 48.35 0 0 0 6.84-7.5 1.65 1.65 0 0 0 .3-1.28 1.42 1.42 0 0 0 -.62-1c-.16-.1-.33-.18-.5-.27-.71-.42-1.44-.81-2.17-1.19-.44-.23-.89-.44-1.33-.65s-1-.47-1.48-.69c-.8-.36-1.62-.69-2.44-1l-.28-.07c-1-.4-2.1-.77-3.17-1.11a55.17 55.17 0 0 0 -16.47-2.55h-51.15a2.61 2.61 0 0 1 -2.52-2.57v-44a2.62 2.62 0 0 1 2.61-2.57h51c1 0 2 .08 3 .15h.14a41.72 41.72 0 0 1 38.47 41.42 41.18 41.18 0 0 1 -3.24 16.06 40.37 40.37 0 0 1 -2.07 4.23l-.06.11a57 57 0 0 1 -9.47 11.31c-.13.13-.27.25-.41.37l-.28.24a41.93 41.93 0 0 1 -4.65 3.28 41.5 41.5 0 0 1 -21.44 6h-60.51a6.82 6.82 0 0 0 -6.78 6.64s0 0 0 0v.14s0 0 0 0v62.72s0 0 0 .06 0 0 0 .07a6.82 6.82 0 0 0 6.82 6.76h60.47a55.32 55.32 0 0 0 55.26-55.26 54.43 54.43 0 0 0 -3.45-19.02 2.66 2.66 0 0 0 -2.24-1.84z"/></g></svg>